# vtk DataFile Version 3.0
CFDApp solution
ASCII
DATASET UNSTRUCTURED_GRID
POINTS 441 double
0.00000000000000000e+00 0.00000000000000000e+00 0
5.00000000000000028e-02 0.00000000000000000e+00 0
1.00000000000000006e-01 0.00000000000000000e+00 0
1.50000000000000022e-01 0.00000000000000000e+00 0
2.00000000000000011e-01 0.00000000000000000e+00 0
2.50000000000000000e-01 0.00000000000000000e+00 0
3.00000000000000044e-01 0.00000000000000000e+00 0
3.50000000000000033e-01 0.00000000000000000e+00 0
4.00000000000000022e-01 0.00000000000000000e+00 0
4.50000000000000011e-01 0.00000000000000000e+00 0
5.00000000000000000e-01 0.00000000000000000e+00 0
5.50000000000000044e-01 0.00000000000000000e+00 0
6.00000000000000089e-01 0.00000000000000000e+00 0
6.50000000000000022e-01 0.00000000000000000e+00 0
7.00000000000000067e-01 0.00000000000000000e+00 0
7.50000000000000000e-01 0.00000000000000000e+00 0
8.00000000000000044e-01 0.00000000000000000e+00 0
8.50000000000000089e-01 0.00000000000000000e+00 0
9.00000000000000022e-01 0.00000000000000000e+00 0
9.50000000000000067e-01 0.00000000000000000e+00 0
1.00000000000000000e+00 0.00000000000000000e+00 0
0.00000000000000000e+00 5.00000000000000028e-02 0
5.00000000000000028e-02 5.00000000000000028e-02 0
1.00000000000000006e-01 5.00000000000000028e-02 0
1.50000000000000022e-01 5.00000000000000028e-02 0
2.00000000000000011e-01 5.00000000000000028e-02 0
2.50000000000000000e-01 5.00000000000000028e-02 0
3.00000000000000044e-01 5.00000000000000028e-02 0
3.50000000000000033e-01 5.00000000000000028e-02 0
4.00000000000000022e-01 5.00000000000000028e-02 0
4.50000000000000011e-01 5.00000000000000028e-02 0
5.00000000000000000e-01 5.00000000000000028e-02 0
5.50000000000000044e-01 5.00000000000000028e-02 0
6.00000000000000089e-01 5.00000000000000028e-02 0
6.50000000000000022e-01 5.00000000000000028e-02 0
7.00000000000000067e-01 5.00000000000000028e-02 0
7.50000000000000000e-01 5.00000000000000028e-02 0
8.00000000000000044e-01 5.00000000000000028e-02 0
8.50000000000000089e-01 5.00000000000000028e-02 0
9.00000000000000022e-01 5.00000000000000028e-02 0
9.50000000000000067e-01 5.00000000000000028e-02 0
1.00000000000000000e+00 5.00000000000000028e-02 0
0.00000000000000000e+00 1.00000000000000006e-01 0
5.00000000000000028e-02 1.00000000000000006e-01 0
1.00000000000000006e-01 1.00000000000000006e-01 0
1.50000000000000022e-01 1.00000000000000006e-01 0
2.00000000000000011e-01 1.00000000000000006e-01 0
2.50000000000000000e-01 1.00000000000000006e-01 0
3.00000000000000044e-01 1.00000000000000006e-01 0
3.50000000000000033e-01 1.00000000000000006e-01 0
4.00000000000000022e-01 1.00000000000000006e-01 0
4.50000000000000011e-01 1.00000000000000006e-01 0
5.00000000000000000e-01 1.00000000000000006e-01 0
5.50000000000000044e-01 1.00000000000000006e-01 0
6.00000000000000089e-01 1.00000000000000006e-01 0
6.50000000000000022e-01 1.00000000000000006e-01 0
7.00000000000000067e-01 1.00000000000000006e-01 0
7.50000000000000000e-01 1.00000000000000006e-01 0
8.00000000000000044e-01 1.00000000000000006e-01 0
8.50000000000000089e-01 1.00000000000000006e-01 0
9.00000000000000022e-01 1.00000000000000006e-01 0
9.50000000000000067e-01 1.00000000000000006e-01 0
1.00000000000000000e+00 1.00000000000000006e-01 0
0.00000000000000000e+00 1.50000000000000022e-01 0
5.00000000000000028e-02 1.50000000000000022e-01 0
1.00000000000000006e-01 1.50000000000000022e-01 0
1.50000000000000022e-01 1.50000000000000022e-01 0
2.00000000000000011e-01 1.50000000000000022e-01 0
2.50000000000000000e-01 1.50000000000000022e-01 0
3.00000000000000044e-01 1.50000000000000022e-01 0
3.50000000000000033e-01 1.50000000000000022e-01 0
4.00000000000000022e-01 1.50000000000000022e-01 0
4.50000000000000011e-01 1.50000000000000022e-01 0
5.00000000000000000e-01 1.50000000000000022e-01 0
5.50000000000000044e-01 1.50000000000000022e-01 0
6.00000000000000089e-01 1.50000000000000022e-01 0
6.50000000000000022e-01 1.50000000000000022e-01 0
7.00000000000000067e-01 1.50000000000000022e-01 0
7.50000000000000000e-01 1.50000000000000022e-01 0
8.00000000000000044e-01 1.50000000000000022e-01 0
8.50000000000000089e-01 1.50000000000000022e-01 0
9.00000000000000022e-01 1.50000000000000022e-01 0
9.50000000000000067e-01 1.50000000000000022e-01 0
1.00000000000000000e+00 1.50000000000000022e-01 0
0.00000000000000000e+00 2.00000000000000011e-01 0
5.00000000000000028e-02 2.00000000000000011e-01 0
1.00000000000000006e-01 2.00000000000000011e-01 0
1.50000000000000022e-01 2.00000000000000011e-01 0
2.00000000000000011e-01 2.00000000000000011e-01 0
2.50000000000000000e-01 2.00000000000000011e-01 0
3.00000000000000044e-01 2.00000000000000011e-01 0
3.50000000000000033e-01 2.00000000000000011e-01 0
4.00000000000000022e-01 2.00000000000000011e-01 0
4.50000000000000011e-01 2.00000000000000011e-01 0
5.00000000000000000e-01 2.00000000000000011e-01 0
5.50000000000000044e-01 2.00000000000000011e-01 0
6.00000000000000089e-01 2.00000000000000011e-01 0
6.50000000000000022e-01 2.00000000000000011e-01 0
7.00000000000000067e-01 2.00000000000000011e-01 0
7.50000000000000000e-01 2.00000000000000011e-01 0
8.00000000000000044e-01 2.00000000000000011e-01 0
8.50000000000000089e-01 2.00000000000000011e-01 0
9.00000000000000022e-01 2.00000000000000011e-01 0
9.50000000000000067e-01 2.00000000000000011e-01 0
1.00000000000000000e+00 2.00000000000000011e-01 0
0.00000000000000000e+00 2.50000000000000000e-01 0
5.00000000000000028e-02 2.50000000000000000e-01 0
1.00000000000000006e-01 2.50000000000000000e-01 0
1.50000000000000022e-01 2.50000000000000000e-01 0
2.00000000000000011e-01 2.50000000000000000e-01 0
2.50000000000000000e-01 2.50000000000000000e-01 0
3.00000000000000044e-01 2.50000000000000000e-01 0
3.50000000000000033e-01 2.50000000000000000e-01 0
4.00000000000000022e-01 2.50000000000000000e-01 0
4.50000000000000011e-01 2.50000000000000000e-01 0
5.00000000000000000e-01 2.50000000000000000e-01 0
5.50000000000000044e-01 2.50000000000000000e-01 0
6.00000000000000089e-01 2.50000000000000000e-01 0
6.50000000000000022e-01 2.50000000000000000e-01 0
7.00000000000000067e-01 2.50000000000000000e-01 0
7.50000000000000000e-01 2.50000000000000000e-01 0
8.00000000000000044e-01 2.50000000000000000e-01 0
8.50000000000000089e-01 2.50000000000000000e-01 0
9.00000000000000022e-01 2.50000000000000000e-01 0
9.50000000000000067e-01 2.50000000000000000e-01 0
1.00000000000000000e+00 2.50000000000000000e-01 0
0.00000000000000000e+00 3.00000000000000044e-01 0
5.00000000000000028e-02 3.00000000000000044e-01 0
1.00000000000000006e-01 3.00000000000000044e-01 0
1.50000000000000022e-01 3.00000000000000044e-01 0
2.00000000000000011e-01 3.00000000000000044e-01 0
2.50000000000000000e-01 3.00000000000000044e-01 0
3.00000000000000044e-01 3.00000000000000044e-01 0
3.50000000000000033e-01 3.00000000000000044e-01 0
4.00000000000000022e-01 3.00000000000000044e-01 0
4.50000000000000011e-01 3.00000000000000044e-01 0
5.00000000000000000e-01 3.00000000000000044e-01 0
5.50000000000000044e-01 3.00000000000000044e-01 0
6.00000000000000089e-01 3.00000000000000044e-01 0
6.50000000000000022e-01 3.00000000000000044e-01 0
7.00000000000000067e-01 3.00000000000000044e-01 0
7.50000000000000000e-01 3.00000000000000044e-01 0
8.00000000000000044e-01 3.00000000000000044e-01 0
8.50000000000000089e-01 3.00000000000000044e-01 0
9.00000000000000022e-01 3.00000000000000044e-01 0
9.50000000000000067e-01 3.00000000000000044e-01 0
1.00000000000000000e+00 3.00000000000000044e-01 0
0.00000000000000000e+00 3.50000000000000033e-01 0
5.00000000000000028e-02 3.50000000000000033e-01 0
1.00000000000000006e-01 3.50000000000000033e-01 0
1.50000000000000022e-01 3.50000000000000033e-01 0
2.00000000000000011e-01 3.50000000000000033e-01 0
2.50000000000000000e-01 3.50000000000000033e-01 0
3.00000000000000044e-01 3.50000000000000033e-01 0
3.50000000000000033e-01 3.50000000000000033e-01 0
4.00000000000000022e-01 3.50000000000000033e-01 0
4.50000000000000011e-01 3.50000000000000033e-01 0
5.00000000000000000e-01 3.50000000000000033e-01 0
5.50000000000000044e-01 3.50000000000000033e-01 0
6.00000000000000089e-01 3.50000000000000033e-01 0
6.50000000000000022e-01 3.50000000000000033e-01 0
7.00000000000000067e-01 3.50000000000000033e-01 0
7.50000000000000000e-01 3.50000000000000033e-01 0
8.00000000000000044e-01 3.50000000000000033e-01 0
8.50000000000000089e-01 3.50000000000000033e-01 0
9.00000000000000022e-01 3.50000000000000033e-01 0
9.50000000000000067e-01 3.50000000000000033e-01 0
1.00000000000000000e+00 3.50000000000000033e-01 0
0.00000000000000000e+00 4.00000000000000022e-01 0
5.00000000000000028e-02 4.00000000000000022e-01 0
1.00000000000000006e-01 4.00000000000000022e-01 0
1.50000000000000022e-01 4.00000000000000022e-01 0
2.00000000000000011e-01 4.00000000000000022e-01 0
2.50000000000000000e-01 4.00000000000000022e-01 0
3.00000000000000044e-01 4.00000000000000022e-01 0
3.50000000000000033e-01 4.00000000000000022e-01 0
4.00000000000000022e-01 4.00000000000000022e-01 0
4.50000000000000011e-01 4.00000000000000022e-01 0
5.00000000000000000e-01 4.00000000000000022e-01 0
5.50000000000000044e-01 4.00000000000000022e-01 0
6.00000000000000089e-01 4.00000000000000022e-01 0
6.50000000000000022e-01 4.00000000000000022e-01 0
7.00000000000000067e-01 4.00000000000000022e-01 0
7.50000000000000000e-01 4.00000000000000022e-01 0
8.00000000000000044e-01 4.00000000000000022e-01 0
8.50000000000000089e-01 4.00000000000000022e-01 0
9.00000000000000022e-01 4.00000000000000022e-01 0
9.50000000000000067e-01 4.00000000000000022e-01 0
1.00000000000000000e+00 4.00000000000000022e-01 0
0.00000000000000000e+00 4.50000000000000011e-01 0
5.00000000000000028e-02 4.50000000000000011e-01 0
1.00000000000000006e-01 4.50000000000000011e-01 0
1.50000000000000022e-01 4.50000000000000011e-01 0
2.00000000000000011e-01 4.50000000000000011e-01 0
2.50000000000000000e-01 4.50000000000000011e-01 0
3.00000000000000044e-01 4.50000000000000011e-01 0
3.50000000000000033e-01 4.50000000000000011e-01 0
4.00000000000000022e-01 4.50000000000000011e-01 0
4.50000000000000011e-01 4.50000000000000011e-01 0
5.00000000000000000e-01 4.50000000000000011e-01 0
5.50000000000000044e-01 4.50000000000000011e-01 0
6.00000000000000089e-01 4.50000000000000011e-01 0
6.50000000000000022e-01 4.50000000000000011e-01 0
7.00000000000000067e-01 4.50000000000000011e-01 0
7.50000000000000000e-01 4.50000000000000011e-01 0
8.00000000000000044e-01 4.50000000000000011e-01 0
8.50000000000000089e-01 4.50000000000000011e-01 0
9.00000000000000022e-01 4.50000000000000011e-01 0
9.50000000000000067e-01 4.50000000000000011e-01 0
1.00000000000000000e+00 4.50000000000000011e-01 0
0.00000000000000000e+00 5.00000000000000000e-01 0
5.00000000000000028e-02 5.00000000000000000e-01 0
1.00000000000000006e-01 5.00000000000000000e-01 0
1.50000000000000022e-01 5.00000000000000000e-01 0
2.00000000000000011e-01 5.00000000000000000e-01 0
2.50000000000000000e-01 5.00000000000000000e-01 0
3.00000000000000044e-01 5.00000000000000000e-01 0
3.50000000000000033e-01 5.00000000000000000e-01 0
4.00000000000000022e-01 5.00000000000000000e-01 0
4.50000000000000011e-01 5.00000000000000000e-01 0
5.00000000000000000e-01 5.00000000000000000e-01 0
5.50000000000000044e-01 5.00000000000000000e-01 0
6.00000000000000089e-01 5.00000000000000000e-01 0
6.50000000000000022e-01 5.00000000000000000e-01 0
7.00000000000000067e-01 5.00000000000000000e-01 0
7.50000000000000000e-01 5.00000000000000000e-01 0
8.00000000000000044e-01 5.00000000000000000e-01 0
8.50000000000000089e-01 5.00000000000000000e-01 0
9.00000000000000022e-01 5.00000000000000000e-01 0
9.50000000000000067e-01 5.00000000000000000e-01 0
1.00000000000000000e+00 5.00000000000000000e-01 0
0.00000000000000000e+00 5.50000000000000044e-01 0
5.00000000000000028e-02 5.50000000000000044e-01 0
1.00000000000000006e-01 5.50000000000000044e-01 0
1.50000000000000022e-01 5.50000000000000044e-01 0
2.00000000000000011e-01 5.50000000000000044e-01 0
2.50000000000000000e-01 5.50000000000000044e-01 0
3.00000000000000044e-01 5.50000000000000044e-01 0
3.50000000000000033e-01 5.50000000000000044e-01 0
4.00000000000000022e-01 5.50000000000000044e-01 0
4.50000000000000011e-01 5.50000000000000044e-01 0
5.00000000000000000e-01 5.50000000000000044e-01 0
5.50000000000000044e-01 5.50000000000000044e-01 0
6.00000000000000089e-01 5.50000000000000044e-01 0
6.50000000000000022e-01 5.50000000000000044e-01 0
7.00000000000000067e-01 5.50000000000000044e-01 0
7.50000000000000000e-01 5.50000000000000044e-01 0
8.00000000000000044e-01 5.50000000000000044e-01 0
8.50000000000000089e-01 5.50000000000000044e-01 0
9.00000000000000022e-01 5.50000000000000044e-01 0
9.50000000000000067e-01 5.50000000000000044e-01 0
1.00000000000000000e+00 5.50000000000000044e-01 0
0.00000000000000000e+00 6.00000000000000089e-01 0
5.00000000000000028e-02 6.00000000000000089e-01 0
1.00000000000000006e-01 6.00000000000000089e-01 0
1.50000000000000022e-01 6.00000000000000089e-01 0
2.00000000000000011e-01 6.00000000000000089e-01 0
2.50000000000000000e-01 6.00000000000000089e-01 0
3.00000000000000044e-01 6.00000000000000089e-01 0
3.50000000000000033e-01 6.00000000000000089e-01 0
4.00000000000000022e-01 6.00000000000000089e-01 0
4.50000000000000011e-01 6.00000000000000089e-01 0
5.00000000000000000e-01 6.00000000000000089e-01 0
5.50000000000000044e-01 6.00000000000000089e-01 0
6.00000000000000089e-01 6.00000000000000089e-01 0
6.50000000000000022e-01 6.00000000000000089e-01 0
7.00000000000000067e-01 6.00000000000000089e-01 0
7.50000000000000000e-01 6.00000000000000089e-01 0
8.00000000000000044e-01 6.00000000000000089e-01 0
8.50000000000000089e-01 6.00000000000000089e-01 0
9.00000000000000022e-01 6.00000000000000089e-01 0
9.50000000000000067e-01 6.00000000000000089e-01 0
1.00000000000000000e+00 6.00000000000000089e-01 0
0.00000000000000000e+00 6.50000000000000022e-01 0
5.00000000000000028e-02 6.50000000000000022e-01 0
1.00000000000000006e-01 6.50000000000000022e-01 0
1.50000000000000022e-01 6.50000000000000022e-01 0
2.00000000000000011e-01 6.50000000000000022e-01 0
2.50000000000000000e-01 6.50000000000000022e-01 0
3.00000000000000044e-01 6.50000000000000022e-01 0
3.50000000000000033e-01 6.50000000000000022e-01 0
4.00000000000000022e-01 6.50000000000000022e-01 0
4.50000000000000011e-01 6.50000000000000022e-01 0
5.00000000000000000e-01 6.50000000000000022e-01 0
5.50000000000000044e-01 6.50000000000000022e-01 0
6.00000000000000089e-01 6.50000000000000022e-01 0
6.50000000000000022e-01 6.50000000000000022e-01 0
7.00000000000000067e-01 6.50000000000000022e-01 0
7.50000000000000000e-01 6.50000000000000022e-01 0
8.00000000000000044e-01 6.50000000000000022e-01 0
8.50000000000000089e-01 6.50000000000000022e-01 0
9.00000000000000022e-01 6.50000000000000022e-01 0
9.50000000000000067e-01 6.50000000000000022e-01 0
1.00000000000000000e+00 6.50000000000000022e-01 0
0.00000000000000000e+00 7.00000000000000067e-01 0
5.00000000000000028e-02 7.00000000000000067e-01 0
1.00000000000000006e-01 7.00000000000000067e-01 0
1.50000000000000022e-01 7.00000000000000067e-01 0
2.00000000000000011e-01 7.00000000000000067e-01 0
2.50000000000000000e-01 7.00000000000000067e-01 0
3.00000000000000044e-01 7.00000000000000067e-01 0
3.50000000000000033e-01 7.00000000000000067e-01 0
4.00000000000000022e-01 7.00000000000000067e-01 0
4.50000000000000011e-01 7.00000000000000067e-01 0
5.00000000000000000e-01 7.00000000000000067e-01 0
5.50000000000000044e-01 7.00000000000000067e-01 0
6.00000000000000089e-01 7.00000000000000067e-01 0
6.50000000000000022e-01 7.00000000000000067e-01 0
7.00000000000000067e-01 7.00000000000000067e-01 0
7.50000000000000000e-01 7.00000000000000067e-01 0
8.00000000000000044e-01 7.00000000000000067e-01 0
8.50000000000000089e-01 7.00000000000000067e-01 0
9.00000000000000022e-01 7.00000000000000067e-01 0
9.50000000000000067e-01 7.00000000000000067e-01 0
1.00000000000000000e+00 7.00000000000000067e-01 0
0.00000000000000000e+00 7.50000000000000000e-01 0
5.00000000000000028e-02 7.50000000000000000e-01 0
1.00000000000000006e-01 7.50000000000000000e-01 0
1.50000000000000022e-01 7.50000000000000000e-01 0
2.00000000000000011e-01 7.50000000000000000e-01 0
2.50000000000000000e-01 7.50000000000000000e-01 0
3.00000000000000044e-01 7.50000000000000000e-01 0
3.50000000000000033e-01 7.50000000000000000e-01 0
4.00000000000000022e-01 7.50000000000000000e-01 0
4.50000000000000011e-01 7.50000000000000000e-01 0
5.00000000000000000e-01 7.50000000000000000e-01 0
5.50000000000000044e-01 7.50000000000000000e-01 0
6.00000000000000089e-01 7.50000000000000000e-01 0
6.50000000000000022e-01 7.50000000000000000e-01 0
7.00000000000000067e-01 7.50000000000000000e-01 0
7.50000000000000000e-01 7.50000000000000000e-01 0
8.00000000000000044e-01 7.50000000000000000e-01 0
8.50000000000000089e-01 7.50000000000000000e-01 0
9.00000000000000022e-01 7.50000000000000000e-01 0
9.50000000000000067e-01 7.50000000000000000e-01 0
1.00000000000000000e+00 7.50000000000000000e-01 0
0.00000000000000000e+00 8.00000000000000044e-01 0
5.00000000000000028e-02 8.00000000000000044e-01 0
1.00000000000000006e-01 8.00000000000000044e-01 0
1.50000000000000022e-01 8.00000000000000044e-01 0
2.00000000000000011e-01 8.00000000000000044e-01 0
2.50000000000000000e-01 8.00000000000000044e-01 0
3.00000000000000044e-01 8.00000000000000044e-01 0
3.50000000000000033e-01 8.00000000000000044e-01 0
4.00000000000000022e-01 8.00000000000000044e-01 0
4.50000000000000011e-01 8.00000000000000044e-01 0
5.00000000000000000e-01 8.00000000000000044e-01 0
5.50000000000000044e-01 8.00000000000000044e-01 0
6.00000000000000089e-01 8.00000000000000044e-01 0
6.50000000000000022e-01 8.00000000000000044e-01 0
7.00000000000000067e-01 8.00000000000000044e-01 0
7.50000000000000000e-01 8.00000000000000044e-01 0
8.00000000000000044e-01 8.00000000000000044e-01 0
8.50000000000000089e-01 8.00000000000000044e-01 0
9.00000000000000022e-01 8.00000000000000044e-01 0
9.50000000000000067e-01 8.00000000000000044e-01 0
1.00000000000000000e+00 8.00000000000000044e-01 0
0.00000000000000000e+00 8.50000000000000089e-01 0
5.00000000000000028e-02 8.50000000000000089e-01 0
1.00000000000000006e-01 8.50000000000000089e-01 0
1.50000000000000022e-01 8.50000000000000089e-01 0
2.00000000000000011e-01 8.50000000000000089e-01 0
2.50000000000000000e-01 8.50000000000000089e-01 0
3.00000000000000044e-01 8.50000000000000089e-01 0
3.50000000000000033e-01 8.50000000000000089e-01 0
4.00000000000000022e-01 8.50000000000000089e-01 0
4.50000000000000011e-01 8.50000000000000089e-01 0
5.00000000000000000e-01 8.50000000000000089e-01 0
5.50000000000000044e-01 8.50000000000000089e-01 0
6.00000000000000089e-01 8.50000000000000089e-01 0
6.50000000000000022e-01 8.50000000000000089e-01 0
7.00000000000000067e-01 8.50000000000000089e-01 0
7.50000000000000000e-01 8.50000000000000089e-01 0
8.00000000000000044e-01 8.50000000000000089e-01 0
8.50000000000000089e-01 8.50000000000000089e-01 0
9.00000000000000022e-01 8.50000000000000089e-01 0
9.50000000000000067e-01 8.50000000000000089e-01 0
1.00000000000000000e+00 8.50000000000000089e-01 0
0.00000000000000000e+00 9.00000000000000022e-01 0
5.00000000000000028e-02 9.00000000000000022e-01 0
1.00000000000000006e-01 9.00000000000000022e-01 0
1.50000000000000022e-01 9.00000000000000022e-01 0
2.00000000000000011e-01 9.00000000000000022e-01 0
2.50000000000000000e-01 9.00000000000000022e-01 0
3.00000000000000044e-01 9.00000000000000022e-01 0
3.50000000000000033e-01 9.00000000000000022e-01 0
4.00000000000000022e-01 9.00000000000000022e-01 0
4.50000000000000011e-01 9.00000000000000022e-01 0
5.00000000000000000e-01 9.00000000000000022e-01 0
5.50000000000000044e-01 9.00000000000000022e-01 0
6.00000000000000089e-01 9.00000000000000022e-01 0
6.50000000000000022e-01 9.00000000000000022e-01 0
7.00000000000000067e-01 9.00000000000000022e-01 0
7.50000000000000000e-01 9.00000000000000022e-01 0
8.00000000000000044e-01 9.00000000000000022e-01 0
8.50000000000000089e-01 9.00000000000000022e-01 0
9.00000000000000022e-01 9.00000000000000022e-01 0
9.50000000000000067e-01 9.00000000000000022e-01 0
1.00000000000000000e+00 9.00000000000000022e-01 0
0.00000000000000000e+00 9.50000000000000067e-01 0
5.00000000000000028e-02 9.50000000000000067e-01 0
1.00000000000000006e-01 9.50000000000000067e-01 0
1.50000000000000022e-01 9.50000000000000067e-01 0
2.00000000000000011e-01 9.50000000000000067e-01 0
2.50000000000000000e-01 9.50000000000000067e-01 0
3.00000000000000044e-01 9.50000000000000067e-01 0
3.50000000000000033e-01 9.50000000000000067e-01 0
4.00000000000000022e-01 9.50000000000000067e-01 0
4.50000000000000011e-01 9.50000000000000067e-01 0
5.00000000000000000e-01 9.50000000000000067e-01 0
5.50000000000000044e-01 9.50000000000000067e-01 0
6.00000000000000089e-01 9.50000000000000067e-01 0
6.50000000000000022e-01 9.50000000000000067e-01 0
7.00000000000000067e-01 9.50000000000000067e-01 0
7.50000000000000000e-01 9.50000000000000067e-01 0
8.00000000000000044e-01 9.50000000000000067e-01 0
8.50000000000000089e-01 9.50000000000000067e-01 0
9.00000000000000022e-01 9.50000000000000067e-01 0
9.50000000000000067e-01 9.50000000000000067e-01 0
1.00000000000000000e+00 9.50000000000000067e-01 0
0.00000000000000000e+00 1.00000000000000000e+00 0
5.00000000000000028e-02 1.00000000000000000e+00 0
1.00000000000000006e-01 1.00000000000000000e+00 0
1.50000000000000022e-01 1.00000000000000000e+00 0
2.00000000000000011e-01 1.00000000000000000e+00 0
2.50000000000000000e-01 1.00000000000000000e+00 0
3.00000000000000044e-01 1.00000000000000000e+00 0
3.50000000000000033e-01 1.00000000000000000e+00 0
4.00000000000000022e-01 1.00000000000000000e+00 0
4.50000000000000011e-01 1.00000000000000000e+00 0
5.00000000000000000e-01 1.00000000000000000e+00 0
5.50000000000000044e-01 1.00000000000000000e+00 0
6.00000000000000089e-01 1.00000000000000000e+00 0
6.50000000000000022e-01 1.00000000000000000e+00 0
7.00000000000000067e-01 1.00000000000000000e+00 0
7.50000000000000000e-01 1.00000000000000000e+00 0
8.00000000000000044e-01 1.00000000000000000e+00 0
8.50000000000000089e-01 1.00000000000000000e+00 0
9.00000000000000022e-01 1.00000000000000000e+00 0
9.50000000000000067e-01 1.00000000000000000e+00 0
1.00000000000000000e+00 1.00000000000000000e+00 0
CELLS 400 2000
4 0 1 22 21
4 1 2 23 22
4 2 3 24 23
4 3 4 25 24
4 4 5 26 25
4 5 6 27 26
4 6 7 28 27
4 7 8 29 28
4 8 9 30 29
4 9 10 31 30
4 10 11 32 31
4 11 12 33 32
4 12 13 34 33
4 13 14 35 34
4 14 15 36 35
4 15 16 37 36
4 16 17 38 37
4 17 18 39 38
4 18 19 40 39
4 19 20 41 40
4 21 22 43 42
4 22 23 44 43
4 23 24 45 44
4 24 25 46 45
4 25 26 47 46
4 26 27 48 47
4 27 28 49 48
4 28 29 50 49
4 29 30 51 50
4 30 31 52 51
4 31 32 53 52
4 32 33 54 53
4 33 34 55 54
4 34 35 56 55
4 35 36 57 56
4 36 37 58 57
4 37 38 59 58
4 38 39 60 59
4 39 40 61 60
4 40 41 62 61
4 42 43 64 63
4 43 44 65 64
4 44 45 66 65
4 45 46 67 66
4 46 47 68 67
4 47 48 69 68
4 48 49 70 69
4 49 50 71 70
4 50 51 72 71
4 51 52 73 72
4 52 53 74 73
4 53 54 75 74
4 54 55 76 75
4 55 56 77 76
4 56 57 78 77
4 57 58 79 78
4 58 59 80 79
4 59 60 81 80
4 60 61 82 81
4 61 62 83 82
4 63 64 85 84
4 64 65 86 85
4 65 66 87 86
4 66 67 88 87
4 67 68 89 88
4 68 69 90 89
4 69 70 91 90
4 70 71 92 91
4 71 72 93 92
4 72 73 94 93
4 73 74 95 94
4 74 75 96 95
4 75 76 97 96
4 76 77 98 97
4 77 78 99 98
4 78 79 100 99
4 79 80 101 100
4 80 81 102 101
4 81 82 103 102
4 82 83 104 103
4 84 85 106 105
4 85 86 107 106
4 86 87 108 107
4 87 88 109 108
4 88 89 110 109
4 89 90 111 110
4 90 91 112 111
4 91 92 113 112
4 92 93 114 113
4 93 94 115 114
4 94 95 116 115
4 95 96 117 116
4 96 97 118 117
4 97 98 119 118
4 98 99 120 119
4 99 100 121 120
4 100 101 122 121
4 101 102 123 122
4 102 103 124 123
4 103 104 125 124
4 105 106 127 126
4 106 107 128 127
4 107 108 129 128
4 108 109 130 129
4 109 110 131 130
4 110 111 132 131
4 111 112 133 132
4 112 113 134 133
4 113 114 135 134
4 114 115 136 135
4 115 116 137 136
4 116 117 138 137
4 117 118 139 138
4 118 119 140 139
4 119 120 141 140
4 120 121 142 141
4 121 122 143 142
4 122 123 144 143
4 123 124 145 144
4 124 125 146 145
4 126 127 148 147
4 127 128 149 148
4 128 129 150 149
4 129 130 151 150
4 130 131 152 151
4 131 132 153 152
4 132 133 154 153
4 133 134 155 154
4 134 135 156 155
4 135 136 157 156
4 136 137 158 157
4 137 138 159 158
4 138 139 160 159
4 139 140 161 160
4 140 141 162 161
4 141 142 163 162
4 142 143 164 163
4 143 144 165 164
4 144 145 166 165
4 145 146 167 166
4 147 148 169 168
4 148 149 170 169
4 149 150 171 170
4 150 151 172 171
4 151 152 173 172
4 152 153 174 173
4 153 154 175 174
4 154 155 176 175
4 155 156 177 176
4 156 157 178 177
4 157 158 179 178
4 158 159 180 179
4 159 160 181 180
4 160 161 182 181
4 161 162 183 182
4 162 163 184 183
4 163 164 185 184
4 164 165 186 185
4 165 166 187 186
4 166 167 188 187
4 168 169 190 189
4 169 170 191 190
4 170 171 192 191
4 171 172 193 192
4 172 173 194 193
4 173 174 195 194
4 174 175 196 195
4 175 176 197 196
4 176 177 198 197
4 177 178 199 198
4 178 179 200 199
4 179 180 201 200
4 180 181 202 201
4 181 182 203 202
4 182 183 204 203
4 183 184 205 204
4 184 185 206 205
4 185 186 207 206
4 186 187 208 207
4 187 188 209 208
4 189 190 211 210
4 190 191 212 211
4 191 192 213 212
4 192 193 214 213
4 193 194 215 214
4 194 195 216 215
4 195 196 217 216
4 196 197 218 217
4 197 198 219 218
4 198 199 220 219
4 199 200 221 220
4 200 201 222 221
4 201 202 223 222
4 202 203 224 223
4 203 204 225 224
4 204 205 226 225
4 205 206 227 226
4 206 207 228 227
4 207 208 229 228
4 208 209 230 229
4 210 211 232 231
4 211 212 233 232
4 212 213 234 233
4 213 214 235 234
4 214 215 236 235
4 215 216 237 236
4 216 217 238 237
4 217 218 239 238
4 218 219 240 239
4 219 220 241 240
4 220 221 242 241
4 221 222 243 242
4 222 223 244 243
4 223 224 245 244
4 224 225 246 245
4 225 226 247 246
4 226 227 248 247
4 227 228 249 248
4 228 229 250 249
4 229 230 251 250
4 231 232 253 252
4 232 233 254 253
4 233 234 255 254
4 234 235 256 255
4 235 236 257 256
4 236 237 258 257
4 237 238 259 258
4 238 239 260 259
4 239 240 261 260
4 240 241 262 261
4 241 242 263 262
4 242 243 264 263
4 243 244 265 264
4 244 245 266 265
4 245 246 267 266
4 246 247 268 267
4 247 248 269 268
4 248 249 270 269
4 249 250 271 270
4 250 251 272 271
4 252 253 274 273
4 253 254 275 274
4 254 255 276 275
4 255 256 277 276
4 256 257 278 277
4 257 258 279 278
4 258 259 280 279
4 259 260 281 280
4 260 261 282 281
4 261 262 283 282
4 262 263 284 283
4 263 264 285 284
4 264 265 286 285
4 265 266 287 286
4 266 267 288 287
4 267 268 289 288
4 268 269 290 289
4 269 270 291 290
4 270 271 292 291
4 271 272 293 292
4 273 274 295 294
4 274 275 296 295
4 275 276 297 296
4 276 277 298 297
4 277 278 299 298
4 278 279 300 299
4 279 280 301 300
4 280 281 302 301
4 281 282 303 302
4 282 283 304 303
4 283 284 305 304
4 284 285 306 305
4 285 286 307 306
4 286 287 308 307
4 287 288 309 308
4 288 289 310 309
4 289 290 311 310
4 290 291 312 311
4 291 292 313 312
4 292 293 314 313
4 294 295 316 315
4 295 296 317 316
4 296 297 318 317
4 297 298 319 318
4 298 299 320 319
4 299 300 321 320
4 300 301 322 321
4 301 302 323 322
4 302 303 324 323
4 303 304 325 324
4 304 305 326 325
4 305 306 327 326
4 306 307 328 327
4 307 308 329 328
4 308 309 330 329
4 309 310 331 330
4 310 311 332 331
4 311 312 333 332
4 312 313 334 333
4 313 314 335 334
4 315 316 337 336
4 316 317 338 337
4 317 318 339 338
4 318 319 340 339
4 319 320 341 340
4 320 321 342 341
4 321 322 343 342
4 322 323 344 343
4 323 324 345 344
4 324 325 346 345
4 325 326 347 346
4 326 327 348 347
4 327 328 349 348
4 328 329 350 349
4 329 330 351 350
4 330 331 352 351
4 331 332 353 352
4 332 333 354 353
4 333 334 355 354
4 334 335 356 355
4 336 337 358 357
4 337 338 359 358
4 338 339 360 359
4 339 340 361 360
4 340 341 362 361
4 341 342 363 362
4 342 343 364 363
4 343 344 365 364
4 344 345 366 365
4 345 346 367 366
4 346 347 368 367
4 347 348 369 368
4 348 349 370 369
4 349 350 371 370
4 350 351 372 371
4 351 352 373 372
4 352 353 374 373
4 353 354 375 374
4 354 355 376 375
4 355 356 377 376
4 357 358 379 378
4 358 359 380 379
4 359 360 381 380
4 360 361 382 381
4 361 362 383 382
4 362 363 384 383
4 363 364 385 384
4 364 365 386 385
4 365 366 387 386
4 366 367 388 387
4 367 368 389 388
4 368 369 390 389
4 369 370 391 390
4 370 371 392 391
4 371 372 393 392
4 372 373 394 393
4 373 374 395 394
4 374 375 396 395
4 375 376 397 396
4 376 377 398 397
4 378 379 400 399
4 379 380 401 400
4 380 381 402 401
4 381 382 403 402
4 382 383 404 403
4 383 384 405 404
4 384 385 406 405
4 385 386 407 406
4 386 387 408 407
4 387 388 409 408
4 388 389 410 409
4 389 390 411 410
4 390 391 412 411
4 391 392 413 412
4 392 393 414 413
4 393 394 415 414
4 394 395 416 415
4 395 396 417 416
4 396 397 418 417
4 397 398 419 418
4 399 400 421 420
4 400 401 422 421
4 401 402 423 422
4 402 403 424 423
4 403 404 425 424
4 404 405 426 425
4 405 406 427 426
4 406 407 428 427
4 407 408 429 428
4 408 409 430 429
4 409 410 431 430
4 410 411 432 431
4 411 412 433 432
4 412 413 434 433
4 413 414 435 434
4 414 415 436 435
4 415 416 437 436
4 416 417 438 437
4 417 418 439 438
4 418 419 440 439
CELL_TYPES 400
9
9
9
9
9
9
9
9
9
9
9
9
9
9
9
9
9
9
9
9
9
9
9
9
9
9
9
9
9
9
9
9
9
9
9
9
9
9
9
9
9
9
9
9
9
9
9
9
9
9
9
9
9
9
9
9
9
9
9
9
9
9
9
9
9
9
9
9
9
9
9
9
9
9
9
9
9
9
9
9
9
9
9
9
9
9
9
9
9
9
9
9
9
9
9
9
9
9
9
9
9
9
9
9
9
9
9
9
9
9
9
9
9
9
9
9
9
9
9
9
9
9
9
9
9
9
9
9
9
9
9
9
9
9
9
9
9
9
9
9
9
9
9
9
9
9
9
9
9
9
9
9
9
9
9
9
9
9
9
9
9
9
9
9
9
9
9
9
9
9
9
9
9
9
9
9
9
9
9
9
9
9
9
9
9
9
9
9
9
9
9
9
9
9
9
9
9
9
9
9
9
9
9
9
9
9
9
9
9
9
9
9
9
9
9
9
9
9
9
9
9
9
9
9
9
9
9
9
9
9
9
9
9
9
9
9
9
9
9
9
9
9
9
9
9
9
9
9
9
9
9
9
9
9
9
9
9
9
9
9
9
9
9
9
9
9
9
9
9
9
9
9
9
9
9
9
9
9
9
9
9
9
9
9
9
9
9
9
9
9
9
9
9
9
9
9
9
9
9
9
9
9
9
9
9
9
9
9
9
9
9
9
9
9
9
9
9
9
9
9
9
9
9
9
9
9
9
9
9
9
9
9
9
9
9
9
9
9
9
9
9
9
9
9
9
9
9
9
9
9
9
9
9
9
9
9
9
9
9
9
9
9
9
9
9
9
9
9
9
9
9
9
9
9
9
9
9
9
9
9
9
9
9
9
9
9
9
9
9
9
9
9
9
9
9
9
9
9
9
9
CELL_DATA 400
SCALARS pressure double 1
LOOKUP_TABLE default
0.00000000000000000e+00
0.00000000000000000e+00
0.00000000000000000e+00
0.00000000000000000e+00
0.00000000000000000e+00
0.00000000000000000e+00
0.00000000000000000e+00
0.00000000000000000e+00
0.00000000000000000e+00
0.00000000000000000e+00
0.00000000000000000e+00
0.00000000000000000e+00
0.00000000000000000e+00
0.00000000000000000e+00
0.00000000000000000e+00
0.00000000000000000e+00
0.00000000000000000e+00
0.00000000000000000e+00
0.00000000000000000e+00
0.00000000000000000e+00
0.00000000000000000e+00
0.00000000000000000e+00
0.00000000000000000e+00
0.00000000000000000e+00
0.00000000000000000e+00
0.00000000000000000e+00
0.00000000000000000e+00
0.00000000000000000e+00
0.00000000000000000e+00
0.00000000000000000e+00
0.00000000000000000e+00
0.00000000000000000e+00
0.00000000000000000e+00
0.00000000000000000e+00
0.00000000000000000e+00
0.00000000000000000e+00
0.00000000000000000e+00
0.00000000000000000e+00
0.00000000000000000e+00
0.00000000000000000e+00
0.00000000000000000e+00
0.00000000000000000e+00
0.00000000000000000e+00
0.00000000000000000e+00
0.00000000000000000e+00
0.00000000000000000e+00
0.00000000000000000e+00
0.00000000000000000e+00
0.00000000000000000e+00
0.00000000000000000e+00
0.00000000000000000e+00
0.00000000000000000e+00
0.00000000000000000e+00
0.00000000000000000e+00
0.00000000000000000e+00
0.00000000000000000e+00
0.00000000000000000e+00
0.00000000000000000e+00
0.00000000000000000e+00
0.00000000000000000e+00
0.00000000000000000e+00
0.00000000000000000e+00
0.00000000000000000e+00
0.00000000000000000e+00
0.00000000000000000e+00
0.00000000000000000e+00
0.00000000000000000e+00
0.00000000000000000e+00
0.00000000000000000e+00
0.00000000000000000e+00
0.00000000000000000e+00
0.00000000000000000e+00
0.00000000000000000e+00
0.00000000000000000e+00
0.00000000000000000e+00
0.00000000000000000e+00
0.00000000000000000e+00
0.00000000000000000e+00
0.00000000000000000e+00
0.00000000000000000e+00
0.00000000000000000e+00
0.00000000000000000e+00
0.00000000000000000e+00
0.00000000000000000e+00
0.00000000000000000e+00
0.00000000000000000e+00
0.00000000000000000e+00
0.00000000000000000e+00
0.00000000000000000e+00
0.00000000000000000e+00
0.00000000000000000e+00
0.00000000000000000e+00
0.00000000000000000e+00
0.00000000000000000e+00
0.00000000000000000e+00
0.00000000000000000e+00
0.00000000000000000e+00
0.00000000000000000e+00
0.00000000000000000e+00
0.00000000000000000e+00
0.00000000000000000e+00
0.00000000000000000e+00
0.00000000000000000e+00
0.00000000000000000e+00
0.00000000000000000e+00
0.00000000000000000e+00
0.00000000000000000e+00
0.00000000000000000e+00
0.00000000000000000e+00
0.00000000000000000e+00
0.00000000000000000e+00
0.00000000000000000e+00
0.00000000000000000e+00
0.00000000000000000e+00
0.00000000000000000e+00
0.00000000000000000e+00
0.00000000000000000e+00
0.00000000000000000e+00
0.00000000000000000e+00
0.00000000000000000e+00
0.00000000000000000e+00
0.00000000000000000e+00
0.00000000000000000e+00
0.00000000000000000e+00
0.00000000000000000e+00
0.00000000000000000e+00
0.00000000000000000e+00
0.00000000000000000e+00
0.00000000000000000e+00
0.00000000000000000e+00
0.00000000000000000e+00
0.00000000000000000e+00
0.00000000000000000e+00
0.00000000000000000e+00
0.00000000000000000e+00
0.00000000000000000e+00
0.00000000000000000e+00
0.00000000000000000e+00
0.00000000000000000e+00
0.00000000000000000e+00
0.00000000000000000e+00
0.00000000000000000e+00
0.00000000000000000e+00
0.00000000000000000e+00
0.00000000000000000e+00
0.00000000000000000e+00
0.00000000000000000e+00
0.00000000000000000e+00
0.00000000000000000e+00
0.00000000000000000e+00
0.00000000000000000e+00
0.00000000000000000e+00
0.00000000000000000e+00
0.00000000000000000e+00
0.00000000000000000e+00
0.00000000000000000e+00
0.00000000000000000e+00
0.00000000000000000e+00
0.00000000000000000e+00
0.00000000000000000e+00
0.00000000000000000e+00
0.00000000000000000e+00
0.00000000000000000e+00
0.00000000000000000e+00
0.00000000000000000e+00
0.00000000000000000e+00
0.00000000000000000e+00
0.00000000000000000e+00
0.00000000000000000e+00
0.00000000000000000e+00
0.00000000000000000e+00
0.00000000000000000e+00
0.00000000000000000e+00
0.00000000000000000e+00
0.00000000000000000e+00
0.00000000000000000e+00
0.00000000000000000e+00
0.00000000000000000e+00
0.00000000000000000e+00
0.00000000000000000e+00
0.00000000000000000e+00
0.00000000000000000e+00
0.00000000000000000e+00
0.00000000000000000e+00
0.00000000000000000e+00
0.00000000000000000e+00
0.00000000000000000e+00
0.00000000000000000e+00
0.00000000000000000e+00
0.00000000000000000e+00
0.00000000000000000e+00
0.00000000000000000e+00
0.00000000000000000e+00
0.00000000000000000e+00
0.00000000000000000e+00
0.00000000000000000e+00
0.00000000000000000e+00
0.00000000000000000e+00
0.00000000000000000e+00
0.00000000000000000e+00
0.00000000000000000e+00
0.00000000000000000e+00
0.00000000000000000e+00
0.00000000000000000e+00
0.00000000000000000e+00
0.00000000000000000e+00
0.00000000000000000e+00
0.00000000000000000e+00
0.00000000000000000e+00
0.00000000000000000e+00
0.00000000000000000e+00
0.00000000000000000e+00
0.00000000000000000e+00
0.00000000000000000e+00
0.00000000000000000e+00
0.00000000000000000e+00
0.00000000000000000e+00
0.00000000000000000e+00
0.00000000000000000e+00
0.00000000000000000e+00
0.00000000000000000e+00
0.00000000000000000e+00
0.00000000000000000e+00
0.00000000000000000e+00
0.00000000000000000e+00
0.00000000000000000e+00
0.00000000000000000e+00
0.00000000000000000e+00
0.00000000000000000e+00
0.00000000000000000e+00
0.00000000000000000e+00
0.00000000000000000e+00
0.00000000000000000e+00
0.00000000000000000e+00
0.00000000000000000e+00
0.00000000000000000e+00
0.00000000000000000e+00
0.00000000000000000e+00
0.00000000000000000e+00
0.00000000000000000e+00
0.00000000000000000e+00
0.00000000000000000e+00
0.00000000000000000e+00
0.00000000000000000e+00
0.00000000000000000e+00
0.00000000000000000e+00
0.00000000000000000e+00
0.00000000000000000e+00
0.00000000000000000e+00
0.00000000000000000e+00
0.00000000000000000e+00
0.00000000000000000e+00
0.00000000000000000e+00
0.00000000000000000e+00
0.00000000000000000e+00
0.00000000000000000e+00
0.00000000000000000e+00
0.00000000000000000e+00
0.00000000000000000e+00
0.00000000000000000e+00
0.00000000000000000e+00
0.00000000000000000e+00
0.00000000000000000e+00
0.00000000000000000e+00
0.00000000000000000e+00
0.00000000000000000e+00
0.00000000000000000e+00
0.00000000000000000e+00
0.00000000000000000e+00
0.00000000000000000e+00
0.00000000000000000e+00
0.00000000000000000e+00
0.00000000000000000e+00
0.00000000000000000e+00
0.00000000000000000e+00
0.00000000000000000e+00
0.00000000000000000e+00
0.00000000000000000e+00
0.00000000000000000e+00
0.00000000000000000e+00
0.00000000000000000e+00
0.00000000000000000e+00
0.00000000000000000e+00
0.00000000000000000e+00
0.00000000000000000e+00
0.00000000000000000e+00
0.00000000000000000e+00
0.00000000000000000e+00
0.00000000000000000e+00
0.00000000000000000e+00
0.00000000000000000e+00
0.00000000000000000e+00
0.00000000000000000e+00
0.00000000000000000e+00
0.00000000000000000e+00
0.00000000000000000e+00
0.00000000000000000e+00
0.00000000000000000e+00
0.00000000000000000e+00
0.00000000000000000e+00
0.00000000000000000e+00
0.00000000000000000e+00
0.00000000000000000e+00
0.00000000000000000e+00
0.00000000000000000e+00
0.00000000000000000e+00
0.00000000000000000e+00
0.00000000000000000e+00
0.00000000000000000e+00
0.00000000000000000e+00
0.00000000000000000e+00
0.00000000000000000e+00
0.00000000000000000e+00
0.00000000000000000e+00
0.00000000000000000e+00
0.00000000000000000e+00
0.00000000000000000e+00
0.00000000000000000e+00
0.00000000000000000e+00
0.00000000000000000e+00
0.00000000000000000e+00
0.00000000000000000e+00
0.00000000000000000e+00
0.00000000000000000e+00
0.00000000000000000e+00
0.00000000000000000e+00
0.00000000000000000e+00
0.00000000000000000e+00
0.00000000000000000e+00
0.00000000000000000e+00
0.00000000000000000e+00
0.00000000000000000e+00
0.00000000000000000e+00
0.00000000000000000e+00
0.00000000000000000e+00
0.00000000000000000e+00
0.00000000000000000e+00
0.00000000000000000e+00
0.00000000000000000e+00
0.00000000000000000e+00
0.00000000000000000e+00
0.00000000000000000e+00
0.00000000000000000e+00
0.00000000000000000e+00
0.00000000000000000e+00
0.00000000000000000e+00
0.00000000000000000e+00
0.00000000000000000e+00
0.00000000000000000e+00
0.00000000000000000e+00
0.00000000000000000e+00
0.00000000000000000e+00
0.00000000000000000e+00
0.00000000000000000e+00
0.00000000000000000e+00
0.00000000000000000e+00
0.00000000000000000e+00
0.00000000000000000e+00
0.00000000000000000e+00
0.00000000000000000e+00
0.00000000000000000e+00
0.00000000000000000e+00
0.00000000000000000e+00
0.00000000000000000e+00
0.00000000000000000e+00
0.00000000000000000e+00
0.00000000000000000e+00
0.00000000000000000e+00
0.00000000000000000e+00
0.00000000000000000e+00
0.00000000000000000e+00
0.00000000000000000e+00
0.00000000000000000e+00
0.00000000000000000e+00
0.00000000000000000e+00
0.00000000000000000e+00
0.00000000000000000e+00
0.00000000000000000e+00
0.00000000000000000e+00
0.00000000000000000e+00
0.00000000000000000e+00
0.00000000000000000e+00
0.00000000000000000e+00
0.00000000000000000e+00
0.00000000000000000e+00
0.00000000000000000e+00
0.00000000000000000e+00
0.00000000000000000e+00
0.00000000000000000e+00
0.00000000000000000e+00
0.00000000000000000e+00
0.00000000000000000e+00
0.00000000000000000e+00
0.00000000000000000e+00
0.00000000000000000e+00
0.00000000000000000e+00
0.00000000000000000e+00
0.00000000000000000e+00
0.00000000000000000e+00
0.00000000000000000e+00
VECTORS velocity double
0.00000000000000000e+00 0.00000000000000000e+00 0
0.00000000000000000e+00 0.00000000000000000e+00 0
0.00000000000000000e+00 0.00000000000000000e+00 0
0.00000000000000000e+00 0.00000000000000000e+00 0
0.00000000000000000e+00 0.00000000000000000e+00 0
0.00000000000000000e+00 0.00000000000000000e+00 0
0.00000000000000000e+00 0.00000000000000000e+00 0
0.00000000000000000e+00 0.00000000000000000e+00 0
0.00000000000000000e+00 0.00000000000000000e+00 0
0.00000000000000000e+00 0.00000000000000000e+00 0
0.00000000000000000e+00 0.00000000000000000e+00 0
0.00000000000000000e+00 0.00000000000000000e+00 0
0.00000000000000000e+00 0.00000000000000000e+00 0
0.00000000000000000e+00 0.00000000000000000e+00 0
0.00000000000000000e+00 0.00000000000000000e+00 0
0.00000000000000000e+00 0.00000000000000000e+00 0
0.00000000000000000e+00 0.00000000000000000e+00 0
0.00000000000000000e+00 0.00000000000000000e+00 0
0.00000000000000000e+00 0.00000000000000000e+00 0
0.00000000000000000e+00 0.00000000000000000e+00 0
0.00000000000000000e+00 0.00000000000000000e+00 0
0.00000000000000000e+00 0.00000000000000000e+00 0
0.00000000000000000e+00 0.00000000000000000e+00 0
0.00000000000000000e+00 0.00000000000000000e+00 0
0.00000000000000000e+00 0.00000000000000000e+00 0
0.00000000000000000e+00 0.00000000000000000e+00 0
0.00000000000000000e+00 0.00000000000000000e+00 0
0.00000000000000000e+00 0.00000000000000000e+00 0
0.00000000000000000e+00 0.00000000000000000e+00 0
0.00000000000000000e+00 0.00000000000000000e+00 0
0.00000000000000000e+00 0.00000000000000000e+00 0
0.00000000000000000e+00 0.00000000000000000e+00 0
0.00000000000000000e+00 0.00000000000000000e+00 0
0.00000000000000000e+00 0.00000000000000000e+00 0
0.00000000000000000e+00 0.00000000000000000e+00 0
0.00000000000000000e+00 0.00000000000000000e+00 0
0.00000000000000000e+00 0.00000000000000000e+00 0
0.00000000000000000e+00 0.00000000000000000e+00 0
0.00000000000000000e+00 0.00000000000000000e+00 0
0.00000000000000000e+00 0.00000000000000000e+00 0
0.00000000000000000e+00 0.00000000000000000e+00 0
0.00000000000000000e+00 0.00000000000000000e+00 0
0.00000000000000000e+00 0.00000000000000000e+00 0
0.00000000000000000e+00 0.00000000000000000e+00 0
0.00000000000000000e+00 0.00000000000000000e+00 0
0.00000000000000000e+00 0.00000000000000000e+00 0
0.00000000000000000e+00 0.00000000000000000e+00 0
0.00000000000000000e+00 0.00000000000000000e+00 0
0.00000000000000000e+00 0.00000000000000000e+00 0
0.00000000000000000e+00 0.00000000000000000e+00 0
0.00000000000000000e+00 0.00000000000000000e+00 0
0.00000000000000000e+00 0.00000000000000000e+00 0
0.00000000000000000e+00 0.00000000000000000e+00 0
0.00000000000000000e+00 0.00000000000000000e+00 0
0.00000000000000000e+00 0.00000000000000000e+00 0
0.00000000000000000e+00 0.00000000000000000e+00 0
0.00000000000000000e+00 0.00000000000000000e+00 0
0.00000000000000000e+00 0.00000000000000000e+00 0
0.00000000000000000e+00 0.00000000000000000e+00 0
0.00000000000000000e+00 0.00000000000000000e+00 0
0.00000000000000000e+00 0.00000000000000000e+00 0
0.00000000000000000e+00 0.00000000000000000e+00 0
0.00000000000000000e+00 0.00000000000000000e+00 0
0.00000000000000000e+00 0.00000000000000000e+00 0
0.00000000000000000e+00 0.00000000000000000e+00 0
0.00000000000000000e+00 0.00000000000000000e+00 0
0.00000000000000000e+00 0.00000000000000000e+00 0
0.00000000000000000e+00 0.00000000000000000e+00 0
0.00000000000000000e+00 0.00000000000000000e+00 0
0.00000000000000000e+00 0.00000000000000000e+00 0
0.00000000000000000e+00 0.00000000000000000e+00 0
0.00000000000000000e+00 0.00000000000000000e+00 0
0.00000000000000000e+00 0.00000000000000000e+00 0
0.00000000000000000e+00 0.00000000000000000e+00 0
0.00000000000000000e+00 0.00000000000000000e+00 0
0.00000000000000000e+00 0.00000000000000000e+00 0
0.00000000000000000e+00 0.00000000000000000e+00 0
0.00000000000000000e+00 0.00000000000000000e+00 0
0.00000000000000000e+00 0.00000000000000000e+00 0
0.00000000000000000e+00 0.00000000000000000e+00 0
0.00000000000000000e+00 0.00000000000000000e+00 0
0.00000000000000000e+00 0.00000000000000000e+00 0
0.00000000000000000e+00 0.00000000000000000e+00 0
0.00000000000000000e+00 0.00000000000000000e+00 0
0.00000000000000000e+00 0.00000000000000000e+00 0
0.00000000000000000e+00 0.00000000000000000e+00 0
0.00000000000000000e+00 0.00000000000000000e+00 0
0.00000000000000000e+00 0.00000000000000000e+00 0
0.00000000000000000e+00 0.00000000000000000e+00 0
0.00000000000000000e+00 0.00000000000000000e+00 0
0.00000000000000000e+00 0.00000000000000000e+00 0
0.00000000000000000e+00 0.00000000000000000e+00 0
0.00000000000000000e+00 0.00000000000000000e+00 0
0.00000000000000000e+00 0.00000000000000000e+00 0
0.00000000000000000e+00 0.00000000000000000e+00 0
0.00000000000000000e+00 0.00000000000000000e+00 0
0.00000000000000000e+00 0.00000000000000000e+00 0
0.00000000000000000e+00 0.00000000000000000e+00 0
0.00000000000000000e+00 0.00000000000000000e+00 0
0.00000000000000000e+00 0.00000000000000000e+00 0
0.00000000000000000e+00 0.00000000000000000e+00 0
0.00000000000000000e+00 0.00000000000000000e+00 0
0.00000000000000000e+00 0.00000000000000000e+00 0
0.00000000000000000e+00 0.00000000000000000e+00 0
0.00000000000000000e+00 0.00000000000000000e+00 0
0.00000000000000000e+00 0.00000000000000000e+00 0
0.00000000000000000e+00 0.00000000000000000e+00 0
0.00000000000000000e+00 0.00000000000000000e+00 0
0.00000000000000000e+00 0.00000000000000000e+00 0
0.00000000000000000e+00 0.00000000000000000e+00 0
0.00000000000000000e+00 0.00000000000000000e+00 0
0.00000000000000000e+00 0.00000000000000000e+00 0
0.00000000000000000e+00 0.00000000000000000e+00 0
0.00000000000000000e+00 0.00000000000000000e+00 0
0.00000000000000000e+00 0.00000000000000000e+00 0
0.00000000000000000e+00 0.00000000000000000e+00 0
0.00000000000000000e+00 0.00000000000000000e+00 0
0.00000000000000000e+00 0.00000000000000000e+00 0
0.00000000000000000e+00 0.00000000000000000e+00 0
0.00000000000000000e+00 0.00000000000000000e+00 0
0.00000000000000000e+00 0.00000000000000000e+00 0
0.00000000000000000e+00 0.00000000000000000e+00 0
0.00000000000000000e+00 0.00000000000000000e+00 0
0.00000000000000000e+00 0.00000000000000000e+00 0
0.00000000000000000e+00 0.00000000000000000e+00 0
0.00000000000000000e+00 0.00000000000000000e+00 0
0.00000000000000000e+00 0.00000000000000000e+00 0
0.00000000000000000e+00 0.00000000000000000e+00 0
0.00000000000000000e+00 0.00000000000000000e+00 0
0.00000000000000000e+00 0.00000000000000000e+00 0
0.00000000000000000e+00 0.00000000000000000e+00 0
0.00000000000000000e+00 0.00000000000000000e+00 0
0.00000000000000000e+00 0.00000000000000000e+00 0
0.00000000000000000e+00 0.00000000000000000e+00 0
0.00000000000000000e+00 0.00000000000000000e+00 0
0.00000000000000000e+00 0.00000000000000000e+00 0
0.00000000000000000e+00 0.00000000000000000e+00 0
0.00000000000000000e+00 0.00000000000000000e+00 0
0.00000000000000000e+00 0.00000000000000000e+00 0
0.00000000000000000e+00 0.00000000000000000e+00 0
0.00000000000000000e+00 0.00000000000000000e+00 0
0.00000000000000000e+00 0.00000000000000000e+00 0
0.00000000000000000e+00 0.00000000000000000e+00 0
0.00000000000000000e+00 0.00000000000000000e+00 0
0.00000000000000000e+00 0.00000000000000000e+00 0
0.00000000000000000e+00 0.00000000000000000e+00 0
0.00000000000000000e+00 0.00000000000000000e+00 0
0.00000000000000000e+00 0.00000000000000000e+00 0
0.00000000000000000e+00 0.00000000000000000e+00 0
0.00000000000000000e+00 0.00000000000000000e+00 0
0.00000000000000000e+00 0.00000000000000000e+00 0
0.00000000000000000e+00 0.00000000000000000e+00 0
0.00000000000000000e+00 0.00000000000000000e+00 0
0.00000000000000000e+00 0.00000000000000000e+00 0
0.00000000000000000e+00 0.00000000000000000e+00 0
0.00000000000000000e+00 0.00000000000000000e+00 0
0.00000000000000000e+00 0.00000000000000000e+00 0
0.00000000000000000e+00 0.00000000000000000e+00 0
0.00000000000000000e+00 0.00000000000000000e+00 0
0.00000000000000000e+00 0.00000000000000000e+00 0
0.00000000000000000e+00 0.00000000000000000e+00 0
0.00000000000000000e+00 0.00000000000000000e+00 0
0.00000000000000000e+00 0.00000000000000000e+00 0
0.00000000000000000e+00 0.00000000000000000e+00 0
0.00000000000000000e+00 0.00000000000000000e+00 0
0.00000000000000000e+00 0.00000000000000000e+00 0
0.00000000000000000e+00 0.00000000000000000e+00 0
0.00000000000000000e+00 0.00000000000000000e+00 0
0.00000000000000000e+00 0.00000000000000000e+00 0
0.00000000000000000e+00 0.00000000000000000e+00 0
0.00000000000000000e+00 0.00000000000000000e+00 0
0.00000000000000000e+00 0.00000000000000000e+00 0
0.00000000000000000e+00 0.00000000000000000e+00 0
0.00000000000000000e+00 0.00000000000000000e+00 0
0.00000000000000000e+00 0.00000000000000000e+00 0
0.00000000000000000e+00 0.00000000000000000e+00 0
0.00000000000000000e+00 0.00000000000000000e+00 0
0.00000000000000000e+00 0.00000000000000000e+00 0
0.00000000000000000e+00 0.00000000000000000e+00 0
0.00000000000000000e+00 0.00000000000000000e+00 0
0.00000000000000000e+00 0.00000000000000000e+00 0
0.00000000000000000e+00 0.00000000000000000e+00 0
0.00000000000000000e+00 0.00000000000000000e+00 0
0.00000000000000000e+00 0.00000000000000000e+00 0
0.00000000000000000e+00 0.00000000000000000e+00 0
0.00000000000000000e+00 0.00000000000000000e+00 0
0.00000000000000000e+00 0.00000000000000000e+00 0
0.00000000000000000e+00 0.00000000000000000e+00 0
0.00000000000000000e+00 0.00000000000000000e+00 0
0.00000000000000000e+00 0.00000000000000000e+00 0
0.00000000000000000e+00 0.00000000000000000e+00 0
0.00000000000000000e+00 0.00000000000000000e+00 0
0.00000000000000000e+00 0.00000000000000000e+00 0
0.00000000000000000e+00 0.00000000000000000e+00 0
0.00000000000000000e+00 0.00000000000000000e+00 0
0.00000000000000000e+00 0.00000000000000000e+00 0
0.00000000000000000e+00 0.00000000000000000e+00 0
0.00000000000000000e+00 0.00000000000000000e+00 0
0.00000000000000000e+00 0.00000000000000000e+00 0
0.00000000000000000e+00 0.00000000000000000e+00 0
0.00000000000000000e+00 0.00000000000000000e+00 0
0.00000000000000000e+00 0.00000000000000000e+00 0
0.00000000000000000e+00 0.00000000000000000e+00 0
0.00000000000000000e+00 0.00000000000000000e+00 0
0.00000000000000000e+00 0.00000000000000000e+00 0
0.00000000000000000e+00 0.00000000000000000e+00 0
0.00000000000000000e+00 0.00000000000000000e+00 0
0.00000000000000000e+00 0.00000000000000000e+00 0
0.00000000000000000e+00 0.00000000000000000e+00 0
0.00000000000000000e+00 0.00000000000000000e+00 0
0.00000000000000000e+00 0.00000000000000000e+00 0
0.00000000000000000e+00 0.00000000000000000e+00 0
0.00000000000000000e+00 0.00000000000000000e+00 0
0.00000000000000000e+00 0.00000000000000000e+00 0
0.00000000000000000e+00 0.00000000000000000e+00 0
0.00000000000000000e+00 0.00000000000000000e+00 0
0.00000000000000000e+00 0.00000000000000000e+00 0
0.00000000000000000e+00 0.00000000000000000e+00 0
0.00000000000000000e+00 0.00000000000000000e+00 0
0.00000000000000000e+00 0.00000000000000000e+00 0
0.00000000000000000e+00 0.00000000000000000e+00 0
0.00000000000000000e+00 0.00000000000000000e+00 0
0.00000000000000000e+00 0.00000000000000000e+00 0
0.00000000000000000e+00 0.00000000000000000e+00 0
0.00000000000000000e+00 0.00000000000000000e+00 0
0.00000000000000000e+00 0.00000000000000000e+00 0
0.00000000000000000e+00 0.00000000000000000e+00 0
0.00000000000000000e+00 0.00000000000000000e+00 0
0.00000000000000000e+00 0.00000000000000000e+00 0
0.00000000000000000e+00 0.00000000000000000e+00 0
0.00000000000000000e+00 0.00000000000000000e+00 0
0.00000000000000000e+00 0.00000000000000000e+00 0
0.00000000000000000e+00 0.00000000000000000e+00 0
0.00000000000000000e+00 0.00000000000000000e+00 0
0.00000000000000000e+00 0.00000000000000000e+00 0
0.00000000000000000e+00 0.00000000000000000e+00 0
0.00000000000000000e+00 0.00000000000000000e+00 0
0.00000000000000000e+00 0.00000000000000000e+00 0
0.00000000000000000e+00 0.00000000000000000e+00 0
0.00000000000000000e+00 0.00000000000000000e+00 0
0.00000000000000000e+00 0.00000000000000000e+00 0
0.00000000000000000e+00 0.00000000000000000e+00 0
0.00000000000000000e+00 0.00000000000000000e+00 0
0.00000000000000000e+00 0.00000000000000000e+00 0
0.00000000000000000e+00 0.00000000000000000e+00 0
0.00000000000000000e+00 0.00000000000000000e+00 0
0.00000000000000000e+00 0.00000000000000000e+00 0
0.00000000000000000e+00 0.00000000000000000e+00 0
0.00000000000000000e+00 0.00000000000000000e+00 0
0.00000000000000000e+00 0.00000000000000000e+00 0
0.00000000000000000e+00 0.00000000000000000e+00 0
0.00000000000000000e+00 0.00000000000000000e+00 0
0.00000000000000000e+00 0.00000000000000000e+00 0
0.00000000000000000e+00 0.00000000000000000e+00 0
0.00000000000000000e+00 0.00000000000000000e+00 0
0.00000000000000000e+00 0.00000000000000000e+00 0
0.00000000000000000e+00 0.00000000000000000e+00 0
0.00000000000000000e+00 0.00000000000000000e+00 0
0.00000000000000000e+00 0.00000000000000000e+00 0
0.00000000000000000e+00 0.00000000000000000e+00 0
0.00000000000000000e+00 0.00000000000000000e+00 0
0.00000000000000000e+00 0.00000000000000000e+00 0
0.00000000000000000e+00 0.00000000000000000e+00 0
0.00000000000000000e+00 0.00000000000000000e+00 0
0.00000000000000000e+00 0.00000000000000000e+00 0
0.00000000000000000e+00 0.00000000000000000e+00 0
0.00000000000000000e+00 0.00000000000000000e+00 0
0.00000000000000000e+00 0.00000000000000000e+00 0
0.00000000000000000e+00 0.00000000000000000e+00 0
0.00000000000000000e+00 0.00000000000000000e+00 0
0.00000000000000000e+00 0.00000000000000000e+00 0
0.00000000000000000e+00 0.00000000000000000e+00 0
0.00000000000000000e+00 0.00000000000000000e+00 0
0.00000000000000000e+00 0.00000000000000000e+00 0
0.00000000000000000e+00 0.00000000000000000e+00 0
0.00000000000000000e+00 0.00000000000000000e+00 0
0.00000000000000000e+00 0.00000000000000000e+00 0
0.00000000000000000e+00 0.00000000000000000e+00 0
0.00000000000000000e+00 0.00000000000000000e+00 0
0.00000000000000000e+00 0.00000000000000000e+00 0
0.00000000000000000e+00 0.00000000000000000e+00 0
0.00000000000000000e+00 0.00000000000000000e+00 0
0.00000000000000000e+00 0.00000000000000000e+00 0
0.00000000000000000e+00 0.00000000000000000e+00 0
0.00000000000000000e+00 0.00000000000000000e+00 0
0.00000000000000000e+00 0.00000000000000000e+00 0
0.00000000000000000e+00 0.00000000000000000e+00 0
0.00000000000000000e+00 0.00000000000000000e+00 0
0.00000000000000000e+00 0.00000000000000000e+00 0
0.00000000000000000e+00 0.00000000000000000e+00 0
0.00000000000000000e+00 0.00000000000000000e+00 0
0.00000000000000000e+00 0.00000000000000000e+00 0
0.00000000000000000e+00 0.00000000000000000e+00 0
0.00000000000000000e+00 0.00000000000000000e+00 0
0.00000000000000000e+00 0.00000000000000000e+00 0
0.00000000000000000e+00 0.00000000000000000e+00 0
0.00000000000000000e+00 0.00000000000000000e+00 0
0.00000000000000000e+00 0.00000000000000000e+00 0
0.00000000000000000e+00 0.00000000000000000e+00 0
0.00000000000000000e+00 0.00000000000000000e+00 0
0.00000000000000000e+00 0.00000000000000000e+00 0
0.00000000000000000e+00 0.00000000000000000e+00 0
0.00000000000000000e+00 0.00000000000000000e+00 0
0.00000000000000000e+00 0.00000000000000000e+00 0
0.00000000000000000e+00 0.00000000000000000e+00 0
0.00000000000000000e+00 0.00000000000000000e+00 0
0.00000000000000000e+00 0.00000000000000000e+00 0
0.00000000000000000e+00 0.00000000000000000e+00 0
0.00000000000000000e+00 0.00000000000000000e+00 0
0.00000000000000000e+00 0.00000000000000000e+00 0
0.00000000000000000e+00 0.00000000000000000e+00 0
0.00000000000000000e+00 0.00000000000000000e+00 0
0.00000000000000000e+00 0.00000000000000000e+00 0
0.00000000000000000e+00 0.00000000000000000e+00 0
0.00000000000000000e+00 0.00000000000000000e+00 0
0.00000000000000000e+00 0.00000000000000000e+00 0
0.00000000000000000e+00 0.00000000000000000e+00 0
0.00000000000000000e+00 0.00000000000000000e+00 0
0.00000000000000000e+00 0.00000000000000000e+00 0
0.00000000000000000e+00 0.00000000000000000e+00 0
0.00000000000000000e+00 0.00000000000000000e+00 0
0.00000000000000000e+00 0.00000000000000000e+00 0
0.00000000000000000e+00 0.00000000000000000e+00 0
0.00000000000000000e+00 0.00000000000000000e+00 0
0.00000000000000000e+00 0.00000000000000000e+00 0
0.00000000000000000e+00 0.00000000000000000e+00 0
0.00000000000000000e+00 0.00000000000000000e+00 0
0.00000000000000000e+00 0.00000000000000000e+00 0
0.00000000000000000e+00 0.00000000000000000e+00 0
0.00000000000000000e+00 0.00000000000000000e+00 0
0.00000000000000000e+00 0.00000000000000000e+00 0
0.00000000000000000e+00 0.00000000000000000e+00 0
0.00000000000000000e+00 0.00000000000000000e+00 0
0.00000000000000000e+00 0.00000000000000000e+00 0
0.00000000000000000e+00 0.00000000000000000e+00 0
0.00000000000000000e+00 0.00000000000000000e+00 0
0.00000000000000000e+00 0.00000000000000000e+00 0
0.00000000000000000e+00 0.00000000000000000e+00 0
0.00000000000000000e+00 0.00000000000000000e+00 0
0.00000000000000000e+00 0.00000000000000000e+00 0
0.00000000000000000e+00 0.00000000000000000e+00 0
0.00000000000000000e+00 0.00000000000000000e+00 0
0.00000000000000000e+00 0.00000000000000000e+00 0
0.00000000000000000e+00 0.00000000000000000e+00 0
0.00000000000000000e+00 0.00000000000000000e+00 0
0.00000000000000000e+00 0.00000000000000000e+00 0
0.00000000000000000e+00 0.00000000000000000e+00 0
0.00000000000000000e+00 0.00000000000000000e+00 0
0.00000000000000000e+00 0.00000000000000000e+00 0
0.00000000000000000e+00 0.00000000000000000e+00 0
0.00000000000000000e+00 0.00000000000000000e+00 0
0.00000000000000000e+00 0.00000000000000000e+00 0
0.00000000000000000e+00 0.00000000000000000e+00 0
0.00000000000000000e+00 0.00000000000000000e+00 0
0.00000000000000000e+00 0.00000000000000000e+00 0
0.00000000000000000e+00 0.00000000000000000e+00 0
0.00000000000000000e+00 0.00000000000000000e+00 0
0.00000000000000000e+00 0.00000000000000000e+00 0
0.00000000000000000e+00 0.00000000000000000e+00 0
0.00000000000000000e+00 0.00000000000000000e+00 0
0.00000000000000000e+00 0.00000000000000000e+00 0
0.00000000000000000e+00 0.00000000000000000e+00 0
0.00000000000000000e+00 0.00000000000000000e+00 0
0.00000000000000000e+00 0.00000000000000000e+00 0
0.00000000000000000e+00 0.00000000000000000e+00 0
0.00000000000000000e+00 0.00000000000000000e+00 0
0.00000000000000000e+00 0.00000000000000000e+00 0
0.00000000000000000e+00 0.00000000000000000e+00 0
0.00000000000000000e+00 0.00000000000000000e+00 0
0.00000000000000000e+00 0.00000000000000000e+00 0
0.00000000000000000e+00 0.00000000000000000e+00 0
0.00000000000000000e+00 0.00000000000000000e+00 0
0.00000000000000000e+00 0.00000000000000000e+00 0
0.00000000000000000e+00 0.00000000000000000e+00 0
0.00000000000000000e+00 0.00000000000000000e+00 0
0.00000000000000000e+00 0.00000000000000000e+00 0
0.00000000000000000e+00 0.00000000000000000e+00 0
0.00000000000000000e+00 0.00000000000000000e+00 0
0.00000000000000000e+00 0.00000000000000000e+00 0
0.00000000000000000e+00 0.00000000000000000e+00 0
0.00000000000000000e+00 0.00000000000000000e+00 0
0.00000000000000000e+00 0.00000000000000000e+00 0
0.00000000000000000e+00 0.00000000000000000e+00 0
0.00000000000000000e+00 0.00000000000000000e+00 0
0.00000000000000000e+00 0.00000000000000000e+00 0
0.00000000000000000e+00 0.00000000000000000e+00 0
0.00000000000000000e+00 0.00000000000000000e+00 0
0.00000000000000000e+00 0.00000000000000000e+00 0
0.00000000000000000e+00 0.00000000000000000e+00 0
0.00000000000000000e+00 0.00000000000000000e+00 0
0.00000000000000000e+00 0.00000000000000000e+00 0
0.00000000000000000e+00 0.00000000000000000e+00 0
0.00000000000000000e+00 0.00000000000000000e+00 0
0.00000000000000000e+00 0.00000000000000000e+00 0
0.00000000000000000e+00 0.00000000000000000e+00 0
0.00000000000000000e+00 0.00000000000000000e+00 0
0.00000000000000000e+00 0.00000000000000000e+00 0
0.00000000000000000e+00 0.00000000000000000e+00 0
0.00000000000000000e+00 0.00000000000000000e+00 0
0.00000000000000000e+00 0.00000000000000000e+00 0
SCALARS velocity_magnitude double 1
LOOKUP_TABLE default
0.00000000000000000e+00
0.00000000000000000e+00
0.00000000000000000e+00
0.00000000000000000e+00
0.00000000000000000e+00
0.00000000000000000e+00
0.00000000000000000e+00
0.00000000000000000e+00
0.00000000000000000e+00
0.00000000000000000e+00
0.00000000000000000e+00
0.00000000000000000e+00
0.00000000000000000e+00
0.00000000000000000e+00
0.00000000000000000e+00
0.00000000000000000e+00
0.00000000000000000e+00
0.00000000000000000e+00
0.00000000000000000e+00
0.00000000000000000e+00
0.00000000000000000e+00
0.00000000000000000e+00
0.00000000000000000e+00
0.00000000000000000e+00
0.00000000000000000e+00
0.00000000000000000e+00
0.00000000000000000e+00
0.00000000000000000e+00
0.00000000000000000e+00
0.00000000000000000e+00
0.00000000000000000e+00
0.00000000000000000e+00
0.00000000000000000e+00
0.00000000000000000e+00
0.00000000000000000e+00
0.00000000000000000e+00
0.00000000000000000e+00
0.00000000000000000e+00
0.00000000000000000e+00
0.00000000000000000e+00
0.00000000000000000e+00
0.00000000000000000e+00
0.00000000000000000e+00
0.00000000000000000e+00
0.00000000000000000e+00
0.00000000000000000e+00
0.00000000000000000e+00
0.00000000000000000e+00
0.00000000000000000e+00
0.00000000000000000e+00
0.00000000000000000e+00
0.00000000000000000e+00
0.00000000000000000e+00
0.00000000000000000e+00
0.00000000000000000e+00
0.00000000000000000e+00
0.00000000000000000e+00
0.00000000000000000e+00
0.00000000000000000e+00
0.00000000000000000e+00
0.00000000000000000e+00
0.00000000000000000e+00
0.00000000000000000e+00
0.00000000000000000e+00
0.00000000000000000e+00
0.00000000000000000e+00
0.00000000000000000e+00
0.00000000000000000e+00
0.00000000000000000e+00
0.00000000000000000e+00
0.00000000000000000e+00
0.00000000000000000e+00
0.00000000000000000e+00
0.00000000000000000e+00
0.00000000000000000e+00
0.00000000000000000e+00
0.00000000000000000e+00
0.00000000000000000e+00
0.00000000000000000e+00
0.00000000000000000e+00
0.00000000000000000e+00
0.00000000000000000e+00
0.00000000000000000e+00
0.00000000000000000e+00
0.00000000000000000e+00
0.00000000000000000e+00
0.00000000000000000e+00
0.00000000000000000e+00
0.00000000000000000e+00
0.00000000000000000e+00
0.00000000000000000e+00
0.00000000000000000e+00
0.00000000000000000e+00
0.00000000000000000e+00
0.00000000000000000e+00
0.00000000000000000e+00
0.00000000000000000e+00
0.00000000000000000e+00
0.00000000000000000e+00
0.00000000000000000e+00
0.00000000000000000e+00
0.00000000000000000e+00
0.00000000000000000e+00
0.00000000000000000e+00
0.00000000000000000e+00
0.00000000000000000e+00
0.00000000000000000e+00
0.00000000000000000e+00
0.00000000000000000e+00
0.00000000000000000e+00
0.00000000000000000e+00
0.00000000000000000e+00
0.00000000000000000e+00
0.00000000000000000e+00
0.00000000000000000e+00
0.00000000000000000e+00
0.00000000000000000e+00
0.00000000000000000e+00
0.00000000000000000e+00
0.00000000000000000e+00
0.00000000000000000e+00
0.00000000000000000e+00
0.00000000000000000e+00
0.00000000000000000e+00
0.00000000000000000e+00
0.00000000000000000e+00
0.00000000000000000e+00
0.00000000000000000e+00
0.00000000000000000e+00
0.00000000000000000e+00
0.00000000000000000e+00
0.00000000000000000e+00
0.00000000000000000e+00
0.00000000000000000e+00
0.00000000000000000e+00
0.00000000000000000e+00
0.00000000000000000e+00
0.00000000000000000e+00
0.00000000000000000e+00
0.00000000000000000e+00
0.00000000000000000e+00
0.00000000000000000e+00
0.00000000000000000e+00
0.00000000000000000e+00
0.00000000000000000e+00
0.00000000000000000e+00
0.00000000000000000e+00
0.00000000000000000e+00
0.00000000000000000e+00
0.00000000000000000e+00
0.00000000000000000e+00
0.00000000000000000e+00
0.00000000000000000e+00
0.00000000000000000e+00
0.00000000000000000e+00
0.00000000000000000e+00
0.00000000000000000e+00
0.00000000000000000e+00
0.00000000000000000e+00
0.00000000000000000e+00
0.00000000000000000e+00
0.00000000000000000e+00
0.00000000000000000e+00
0.00000000000000000e+00
0.00000000000000000e+00
0.00000000000000000e+00
0.00000000000000000e+00
0.00000000000000000e+00
0.00000000000000000e+00
0.00000000000000000e+00
0.00000000000000000e+00
0.00000000000000000e+00
0.00000000000000000e+00
0.00000000000000000e+00
0.00000000000000000e+00
0.00000000000000000e+00
0.00000000000000000e+00
0.00000000000000000e+00
0.00000000000000000e+00
0.00000000000000000e+00
0.00000000000000000e+00
0.00000000000000000e+00
0.00000000000000000e+00
0.00000000000000000e+00
0.00000000000000000e+00
0.00000000000000000e+00
0.00000000000000000e+00
0.00000000000000000e+00
0.00000000000000000e+00
0.00000000000000000e+00
0.00000000000000000e+00
0.00000000000000000e+00
0.00000000000000000e+00
0.00000000000000000e+00
0.00000000000000000e+00
0.00000000000000000e+00
0.00000000000000000e+00
0.00000000000000000e+00
0.00000000000000000e+00
0.00000000000000000e+00
0.00000000000000000e+00
0.00000000000000000e+00
0.00000000000000000e+00
0.00000000000000000e+00
0.00000000000000000e+00
0.00000000000000000e+00
0.00000000000000000e+00
0.00000000000000000e+00
0.00000000000000000e+00
0.00000000000000000e+00
0.00000000000000000e+00
0.00000000000000000e+00
0.00000000000000000e+00
0.00000000000000000e+00
0.00000000000000000e+00
0.00000000000000000e+00
0.00000000000000000e+00
0.00000000000000000e+00
0.00000000000000000e+00
0.00000000000000000e+00
0.00000000000000000e+00
0.00000000000000000e+00
0.00000000000000000e+00
0.00000000000000000e+00
0.00000000000000000e+00
0.00000000000000000e+00
0.00000000000000000e+00
0.00000000000000000e+00
0.00000000000000000e+00
0.00000000000000000e+00
0.00000000000000000e+00
0.00000000000000000e+00
0.00000000000000000e+00
0.00000000000000000e+00
0.00000000000000000e+00
0.00000000000000000e+00
0.00000000000000000e+00
0.00000000000000000e+00
0.00000000000000000e+00
0.00000000000000000e+00
0.00000000000000000e+00
0.00000000000000000e+00
0.00000000000000000e+00
0.00000000000000000e+00
0.00000000000000000e+00
0.00000000000000000e+00
0.00000000000000000e+00
0.00000000000000000e+00
0.00000000000000000e+00
0.00000000000000000e+00
0.00000000000000000e+00
0.00000000000000000e+00
0.00000000000000000e+00
0.00000000000000000e+00
0.00000000000000000e+00
0.00000000000000000e+00
0.00000000000000000e+00
0.00000000000000000e+00
0.00000000000000000e+00
0.00000000000000000e+00
0.00000000000000000e+00
0.00000000000000000e+00
0.00000000000000000e+00
0.00000000000000000e+00
0.00000000000000000e+00
0.00000000000000000e+00
0.00000000000000000e+00
0.00000000000000000e+00
0.00000000000000000e+00
0.00000000000000000e+00
0.00000000000000000e+00
0.00000000000000000e+00
0.00000000000000000e+00
0.00000000000000000e+00
0.00000000000000000e+00
0.00000000000000000e+00
0.00000000000000000e+00
0.00000000000000000e+00
0.00000000000000000e+00
0.00000000000000000e+00
0.00000000000000000e+00
0.00000000000000000e+00
0.00000000000000000e+00
0.00000000000000000e+00
0.00000000000000000e+00
0.00000000000000000e+00
0.00000000000000000e+00
0.00000000000000000e+00
0.00000000000000000e+00
0.00000000000000000e+00
0.00000000000000000e+00
0.00000000000000000e+00
0.00000000000000000e+00
0.00000000000000000e+00
0.00000000000000000e+00
0.00000000000000000e+00
0.00000000000000000e+00
0.00000000000000000e+00
0.00000000000000000e+00
0.00000000000000000e+00
0.00000000000000000e+00
0.00000000000000000e+00
0.00000000000000000e+00
0.00000000000000000e+00
0.00000000000000000e+00
0.00000000000000000e+00
0.00000000000000000e+00
0.00000000000000000e+00
0.00000000000000000e+00
0.00000000000000000e+00
0.00000000000000000e+00
0.00000000000000000e+00
0.00000000000000000e+00
0.00000000000000000e+00
0.00000000000000000e+00
0.00000000000000000e+00
0.00000000000000000e+00
0.00000000000000000e+00
0.00000000000000000e+00
0.00000000000000000e+00
0.00000000000000000e+00
0.00000000000000000e+00
0.00000000000000000e+00
0.00000000000000000e+00
0.00000000000000000e+00
0.00000000000000000e+00
0.00000000000000000e+00
0.00000000000000000e+00
0.00000000000000000e+00
0.00000000000000000e+00
0.00000000000000000e+00
0.00000000000000000e+00
0.00000000000000000e+00
0.00000000000000000e+00
0.00000000000000000e+00
0.00000000000000000e+00
0.00000000000000000e+00
0.00000000000000000e+00
0.00000000000000000e+00
0.00000000000000000e+00
0.00000000000000000e+00
0.00000000000000000e+00
0.00000000000000000e+00
0.00000000000000000e+00
0.00000000000000000e+00
0.00000000000000000e+00
0.00000000000000000e+00
0.00000000000000000e+00
0.00000000000000000e+00
0.00000000000000000e+00
0.00000000000000000e+00
0.00000000000000000e+00
0.00000000000000000e+00
0.00000000000000000e+00
0.00000000000000000e+00
0.00000000000000000e+00
0.00000000000000000e+00
0.00000000000000000e+00
0.00000000000000000e+00
0.00000000000000000e+00
0.00000000000000000e+00
0.00000000000000000e+00
0.00000000000000000e+00
0.00000000000000000e+00
0.00000000000000000e+00
0.00000000000000000e+00
0.00000000000000000e+00
0.00000000000000000e+00
0.00000000000000000e+00
0.00000000000000000e+00
0.00000000000000000e+00
0.00000000000000000e+00
0.00000000000000000e+00
0.00000000000000000e+00
0.00000000000000000e+00
0.00000000000000000e+00
0.00000000000000000e+00
0.00000000000000000e+00
0.00000000000000000e+00
0.00000000000000000e+00
0.00000000000000000e+00
0.00000000000000000e+00
0.00000000000000000e+00
0.00000000000000000e+00
0.00000000000000000e+00
0.00000000000000000e+00
0.00000000000000000e+00
0.00000000000000000e+00
0.00000000000000000e+00
0.00000000000000000e+00
0.00000000000000000e+00
0.00000000000000000e+00
0.00000000000000000e+00
0.00000000000000000e+00
0.00000000000000000e+00
0.00000000000000000e+00
0.00000000000000000e+00
0.00000000000000000e+00
0.00000000000000000e+00
0.00000000000000000e+00
SCALARS temperature double 1
LOOKUP_TABLE default
3.09499999992613652e+02
3.08499999978564063e+02
3.07499999966612961e+02
3.06499999957929560e+02
3.05499999953364807e+02
3.04499999953364977e+02
3.03499999957929958e+02
3.02499999966613302e+02
3.01499999978565256e+02
3.00499999992615187e+02
2.99500000007388110e+02
2.98500000021438382e+02
2.97500000033389824e+02
2.96500000042073168e+02
2.95500000046638036e+02
2.94500000046637922e+02
2.93500000042072713e+02
2.92500000033389085e+02
2.91500000021437074e+02
2.90500000007386745e+02
3.09499999994578843e+02
3.08499999984266879e+02
3.07499999975495143e+02
3.06499999969122143e+02
3.05499999965771678e+02
3.04499999965771678e+02
3.03499999969122428e+02
3.02499999975495712e+02
3.01499999984267845e+02
3.00499999994579980e+02
2.99500000005423090e+02
2.98500000015735282e+02
2.97500000024507415e+02
2.96500000030880699e+02
2.95500000034231277e+02
2.94500000034230993e+02
2.93500000030879846e+02
2.92500000024506505e+02
2.91500000015734145e+02
2.90500000005421555e+02
3.09499999996013059e+02
3.08499999988429522e+02
3.07499999981978760e+02
3.06499999977291907e+02
3.05499999974827915e+02
3.04499999974828029e+02
3.03499999977292077e+02
3.02499999981979101e+02
3.01499999988430261e+02
3.00499999996014424e+02
2.99500000003988646e+02
2.98500000011572638e+02
2.97500000018023968e+02
2.96500000022711106e+02
2.95500000025174984e+02
2.94500000025174813e+02
2.93500000022710481e+02
2.92500000018023115e+02
2.91500000011571501e+02
2.90500000003987111e+02
3.09499999997057273e+02
3.08499999991459504e+02
3.07499999986698072e+02
3.06499999983238695e+02
3.05499999981419933e+02
3.04499999981419990e+02
3.03499999983238865e+02
3.02499999986698526e+02
3.01499999991460413e+02
3.00499999997058410e+02
2.99500000002944432e+02
2.98500000008542600e+02
2.97500000013304486e+02
2.96500000016764147e+02
2.95500000018582796e+02
2.94500000018582625e+02
2.93500000016763579e+02
2.92500000013303520e+02
2.91500000008541349e+02
2.90500000002943011e+02
3.09499999997813234e+02
3.08499999993653660e+02
3.07499999990115498e+02
3.06499999987544413e+02
3.05499999986192961e+02
3.04499999986193131e+02
3.03499999987544868e+02
3.02499999990115498e+02
3.01499999993654399e+02
3.00499999997814484e+02
2.99500000002188528e+02
2.98500000006348500e+02
2.97500000009887231e+02
2.96500000012458031e+02
2.95500000013809483e+02
2.94500000013809540e+02
2.93500000012457406e+02
2.92500000009886151e+02
2.91500000006347307e+02
2.90500000002187164e+02
3.09499999998355065e+02
3.08499999995226119e+02
3.07499999992564540e+02
3.06499999990631125e+02
3.05499999989614594e+02
3.04499999989614764e+02
3.03499999990631466e+02
3.02499999992565222e+02
3.01499999995227142e+02
3.00499999998356486e+02
2.99500000001646640e+02
2.98500000004775814e+02
2.97500000007437563e+02
2.96500000009371433e+02
2.95500000010387851e+02
2.94500000010387794e+02
2.93500000009370694e+02
2.92500000007436711e+02
2.91500000004774563e+02
2.90500000001645276e+02
3.09499999998735916e+02
3.08499999996331610e+02
3.07499999994286327e+02
3.06499999992800440e+02
3.05499999992019468e+02
3.04499999992019468e+02
3.03499999992800781e+02
3.02499999994287066e+02
3.01499999996332463e+02
3.00499999998737451e+02
2.99500000001265732e+02
2.98500000003670323e+02
2.97500000005715663e+02
2.96500000007201777e+02
2.95500000007982976e+02
2.94500000007982692e+02
2.93500000007201095e+02
2.92500000005714810e+02
2.91500000003669129e+02
2.90500000001264198e+02
3.09499999998993076e+02
3.08499999997077907e+02
3.07499999995448547e+02
3.06499999994265124e+02
3.05499999993642916e+02
3.04499999993643087e+02
3.03499999994265522e+02
3.02499999995449400e+02
3.01499999997079158e+02
3.00499999998994440e+02
2.99500000001008402e+02
2.98500000002923741e+02
2.97500000004553385e+02
2.96500000005736922e+02
2.95500000006359301e+02
2.94500000006358903e+02
2.93500000005736354e+02
2.92500000004552419e+02
2.91500000002922548e+02
2.90500000001007038e+02
3.09499999999151612e+02
3.08499999997538055e+02
3.07499999996165741e+02
3.06499999995168309e+02
3.05499999994644384e+02
3.04499999994644497e+02
3.03499999995168878e+02
3.02499999996166537e+02
3.01499999997539362e+02
3.00499999999153090e+02
2.99500000000849923e+02
2.98500000002463594e+02
2.97500000003836305e+02
2.96500000004833396e+02
2.95500000005357776e+02
2.94500000005357379e+02
2.93500000004832827e+02
2.92500000003835339e+02
2.91500000002462457e+02
2.90500000000848559e+02
3.09499999999227384e+02
3.08499999997757527e+02
3.07499999996507427e+02
3.06499999995599126e+02
3.05499999995121755e+02
3.04499999995121925e+02
3.03499999995599751e+02
3.02499999996508222e+02
3.01499999997758778e+02
3.00499999999228805e+02
2.99500000000774207e+02
2.98500000002244121e+02
2.97500000003494279e+02
2.96500000004402807e+02
2.95500000004880235e+02
2.94500000004880008e+02
2.93500000004402182e+02
2.92500000003493426e+02
2.91500000002242871e+02
2.90500000000772900e+02
3.09499999999227271e+02
3.08499999997757470e+02
3.07499999996507484e+02
3.06499999995599126e+02
3.05499999995121698e+02
3.04499999995121982e+02
3.03499999995599580e+02
3.02499999996508222e+02
3.01499999997758891e+02
3.00499999999228692e+02
2.99500000000774378e+02
2.98500000002244064e+02
2.97500000003494279e+02
2.96500000004402636e+02
2.95500000004880064e+02
2.94500000004879894e+02
2.93500000004402125e+02
2.92500000003493597e+02
2.91500000002242871e+02
2.90500000000772843e+02
3.09499999999151555e+02
3.08499999997538055e+02
3.07499999996165627e+02
3.06499999995168594e+02
3.05499999994644384e+02
3.04499999994644611e+02
3.03499999995169048e+02
3.02499999996166537e+02
3.01499999997539305e+02
3.00499999999153260e+02
2.99500000000849980e+02
2.98500000002463707e+02
2.97500000003836078e+02
2.96500000004833169e+02
2.95500000005357322e+02
2.94500000005357322e+02
2.93500000004832827e+02
2.92500000003835282e+02
2.91500000002462343e+02
2.90500000000848445e+02
3.09499999998992962e+02
3.08499999997077907e+02
3.07499999995448604e+02
3.06499999994265181e+02
3.05499999993642859e+02
3.04499999993643030e+02
3.03499999994265409e+02
3.02499999995449684e+02
3.01499999997079158e+02
3.00499999998994440e+02
2.99500000001008516e+02
2.98500000002923855e+02
2.97500000004553101e+02
2.96500000005736695e+02
2.95500000006358903e+02
2.94500000006358789e+02
2.93500000005736240e+02
2.92500000004552248e+02
2.91500000002922491e+02
2.90500000001006924e+02
3.09499999998735746e+02
3.08499999996331439e+02
3.07499999994286213e+02
3.06499999992800383e+02
3.05499999992019241e+02
3.04499999992019298e+02
3.03499999992800781e+02
3.02499999994287123e+02
3.01499999996332747e+02
3.00499999998737280e+02
2.99500000001265505e+02
2.98500000003670266e+02
2.97500000005715549e+02
2.96500000007201606e+02
2.95500000007982578e+02
2.94500000007982578e+02
2.93500000007200867e+02
2.92500000005714639e+02
2.91500000003669072e+02
2.90500000001264198e+02
3.09499999998354951e+02
3.08499999995225835e+02
3.07499999992564312e+02
3.06499999990630670e+02
3.05499999989614082e+02
3.04499999989614480e+02
3.03499999990631238e+02
3.02499999992565336e+02
3.01499999995227313e+02
3.00499999998356543e+02
2.99500000001646583e+02
2.98500000004775700e+02
2.97500000007437222e+02
2.96500000009371263e+02
2.95500000010387680e+02
2.94500000010387510e+02
2.93500000009370467e+02
2.92500000007436427e+02
2.91500000004774506e+02
2.90500000001645219e+02
3.09499999997813120e+02
3.08499999993653205e+02
3.07499999990114702e+02
3.06499999987544072e+02
3.05499999986192506e+02
3.04499999986192790e+02
3.03499999987544697e+02
3.02499999990115782e+02
3.01499999993654626e+02
3.00499999997814427e+02
2.99500000002188585e+02
2.98500000006348216e+02
2.97500000009886890e+02
2.96500000012457747e+02
2.95500000013809142e+02
2.94500000013809085e+02
2.93500000012457292e+02
2.92500000009885980e+02
2.91500000006347307e+02
2.90500000002187107e+02
3.09499999997057159e+02
3.08499999991459106e+02
3.07499999986697617e+02
3.06499999983238069e+02
3.05499999981419478e+02
3.04499999981419421e+02
3.03499999983238695e+02
3.02499999986698413e+02
3.01499999991460470e+02
3.00499999997058296e+02
2.99500000002944319e+02
2.98500000008542372e+02
2.97500000013304259e+02
2.96500000016763693e+02
2.95500000018582398e+02
2.94500000018582284e+02
2.93500000016763067e+02
2.92500000013303293e+02
2.91500000008541292e+02
2.90500000002943068e+02
3.09499999996013059e+02
3.08499999988429067e+02
3.07499999981978249e+02
3.06499999977291225e+02
3.05499999974827119e+02
3.04499999974827290e+02
3.03499999977291679e+02
3.02499999981978817e+02
3.01499999988430318e+02
3.00499999996014310e+02
2.99500000003988475e+02
2.98500000011572354e+02
2.97500000018023570e+02
2.96500000022710651e+02
2.95500000025174757e+02
2.94500000025174586e+02
2.93500000022709969e+02
2.92500000018022831e+02
2.91500000011571387e+02
2.90500000003987225e+02
3.09499999994578388e+02
3.08499999984266537e+02
3.07499999975494404e+02
3.06499999969121461e+02
3.05499999965770996e+02
3.04499999965771110e+02
3.03499999969121802e+02
3.02499999975495257e+02
3.01499999984267504e+02
3.00499999994579923e+02
2.99500000005422862e+02
2.98500000015735054e+02
2.97500000024507301e+02
2.96500000030880415e+02
2.95500000034230936e+02
2.94500000034230823e+02
2.93500000030879903e+02
2.92500000024506448e+02
2.91500000015734031e+02
2.90500000005421555e+02
3.09499999992613482e+02
3.08499999978563437e+02
3.07499999966612108e+02
3.06499999957928821e+02
3.05499999953363897e+02
3.04499999953364011e+02
3.03499999957929333e+02
3.02499999966613018e+02
3.01499999978564574e+02
3.00499999992614732e+02
2.99500000007387996e+02
2.98500000021438211e+02
2.97500000033389881e+02
2.96500000042073225e+02
2.95500000046638092e+02
2.94500000046637751e+02
2.93500000042072543e+02
2.92500000033388858e+02
2.91500000021436961e+02
2.90500000007386632e+02
