# vtk DataFile Version 3.0
CFDApp solution
ASCII
DATASET UNSTRUCTURED_GRID
POINTS 105 double
0.00000000000000000e+00 0.00000000000000000e+00 0
5.00000000000000028e-02 0.00000000000000000e+00 0
1.00000000000000006e-01 0.00000000000000000e+00 0
1.50000000000000022e-01 0.00000000000000000e+00 0
2.00000000000000011e-01 0.00000000000000000e+00 0
2.50000000000000000e-01 0.00000000000000000e+00 0
3.00000000000000044e-01 0.00000000000000000e+00 0
3.50000000000000033e-01 0.00000000000000000e+00 0
4.00000000000000022e-01 0.00000000000000000e+00 0
4.50000000000000011e-01 0.00000000000000000e+00 0
5.00000000000000000e-01 0.00000000000000000e+00 0
5.50000000000000044e-01 0.00000000000000000e+00 0
6.00000000000000089e-01 0.00000000000000000e+00 0
6.50000000000000022e-01 0.00000000000000000e+00 0
7.00000000000000067e-01 0.00000000000000000e+00 0
7.50000000000000000e-01 0.00000000000000000e+00 0
8.00000000000000044e-01 0.00000000000000000e+00 0
8.50000000000000089e-01 0.00000000000000000e+00 0
9.00000000000000022e-01 0.00000000000000000e+00 0
9.50000000000000067e-01 0.00000000000000000e+00 0
1.00000000000000000e+00 0.00000000000000000e+00 0
0.00000000000000000e+00 5.00000000000000028e-02 0
5.00000000000000028e-02 5.00000000000000028e-02 0
1.00000000000000006e-01 5.00000000000000028e-02 0
1.50000000000000022e-01 5.00000000000000028e-02 0
2.00000000000000011e-01 5.00000000000000028e-02 0
2.50000000000000000e-01 5.00000000000000028e-02 0
3.00000000000000044e-01 5.00000000000000028e-02 0
3.50000000000000033e-01 5.00000000000000028e-02 0
4.00000000000000022e-01 5.00000000000000028e-02 0
4.50000000000000011e-01 5.00000000000000028e-02 0
5.00000000000000000e-01 5.00000000000000028e-02 0
5.50000000000000044e-01 5.00000000000000028e-02 0
6.00000000000000089e-01 5.00000000000000028e-02 0
6.50000000000000022e-01 5.00000000000000028e-02 0
7.00000000000000067e-01 5.00000000000000028e-02 0
7.50000000000000000e-01 5.00000000000000028e-02 0
8.00000000000000044e-01 5.00000000000000028e-02 0
8.50000000000000089e-01 5.00000000000000028e-02 0
9.00000000000000022e-01 5.00000000000000028e-02 0
9.50000000000000067e-01 5.00000000000000028e-02 0
1.00000000000000000e+00 5.00000000000000028e-02 0
0.00000000000000000e+00 1.00000000000000006e-01 0
5.00000000000000028e-02 1.00000000000000006e-01 0
1.00000000000000006e-01 1.00000000000000006e-01 0
1.50000000000000022e-01 1.00000000000000006e-01 0
2.00000000000000011e-01 1.00000000000000006e-01 0
2.50000000000000000e-01 1.00000000000000006e-01 0
3.00000000000000044e-01 1.00000000000000006e-01 0
3.50000000000000033e-01 1.00000000000000006e-01 0
4.00000000000000022e-01 1.00000000000000006e-01 0
4.50000000000000011e-01 1.00000000000000006e-01 0
5.00000000000000000e-01 1.00000000000000006e-01 0
5.50000000000000044e-01 1.00000000000000006e-01 0
6.00000000000000089e-01 1.00000000000000006e-01 0
6.50000000000000022e-01 1.00000000000000006e-01 0
7.00000000000000067e-01 1.00000000000000006e-01 0
7.50000000000000000e-01 1.00000000000000006e-01 0
8.00000000000000044e-01 1.00000000000000006e-01 0
8.50000000000000089e-01 1.00000000000000006e-01 0
9.00000000000000022e-01 1.00000000000000006e-01 0
9.50000000000000067e-01 1.00000000000000006e-01 0
1.00000000000000000e+00 1.00000000000000006e-01 0
0.00000000000000000e+00 1.50000000000000022e-01 0
5.00000000000000028e-02 1.50000000000000022e-01 0
1.00000000000000006e-01 1.50000000000000022e-01 0
1.50000000000000022e-01 1.50000000000000022e-01 0
2.00000000000000011e-01 1.50000000000000022e-01 0
2.50000000000000000e-01 1.50000000000000022e-01 0
3.00000000000000044e-01 1.50000000000000022e-01 0
3.50000000000000033e-01 1.50000000000000022e-01 0
4.00000000000000022e-01 1.50000000000000022e-01 0
4.50000000000000011e-01 1.50000000000000022e-01 0
5.00000000000000000e-01 1.50000000000000022e-01 0
5.50000000000000044e-01 1.50000000000000022e-01 0
6.00000000000000089e-01 1.50000000000000022e-01 0
6.50000000000000022e-01 1.50000000000000022e-01 0
7.00000000000000067e-01 1.50000000000000022e-01 0
7.50000000000000000e-01 1.50000000000000022e-01 0
8.00000000000000044e-01 1.50000000000000022e-01 0
8.50000000000000089e-01 1.50000000000000022e-01 0
9.00000000000000022e-01 1.50000000000000022e-01 0
9.50000000000000067e-01 1.50000000000000022e-01 0
1.00000000000000000e+00 1.50000000000000022e-01 0
0.00000000000000000e+00 2.00000000000000011e-01 0
5.00000000000000028e-02 2.00000000000000011e-01 0
1.00000000000000006e-01 2.00000000000000011e-01 0
1.50000000000000022e-01 2.00000000000000011e-01 0
2.00000000000000011e-01 2.00000000000000011e-01 0
2.50000000000000000e-01 2.00000000000000011e-01 0
3.00000000000000044e-01 2.00000000000000011e-01 0
3.50000000000000033e-01 2.00000000000000011e-01 0
4.00000000000000022e-01 2.00000000000000011e-01 0
4.50000000000000011e-01 2.00000000000000011e-01 0
5.00000000000000000e-01 2.00000000000000011e-01 0
5.50000000000000044e-01 2.00000000000000011e-01 0
6.00000000000000089e-01 2.00000000000000011e-01 0
6.50000000000000022e-01 2.00000000000000011e-01 0
7.00000000000000067e-01 2.00000000000000011e-01 0
7.50000000000000000e-01 2.00000000000000011e-01 0
8.00000000000000044e-01 2.00000000000000011e-01 0
8.50000000000000089e-01 2.00000000000000011e-01 0
9.00000000000000022e-01 2.00000000000000011e-01 0
9.50000000000000067e-01 2.00000000000000011e-01 0
1.00000000000000000e+00 2.00000000000000011e-01 0
CELLS 80 400
4 0 1 22 21
4 1 2 23 22
4 2 3 24 23
4 3 4 25 24
4 4 5 26 25
4 5 6 27 26
4 6 7 28 27
4 7 8 29 28
4 8 9 30 29
4 9 10 31 30
4 10 11 32 31
4 11 12 33 32
4 12 13 34 33
4 13 14 35 34
4 14 15 36 35
4 15 16 37 36
4 16 17 38 37
4 17 18 39 38
4 18 19 40 39
4 19 20 41 40
4 21 22 43 42
4 22 23 44 43
4 23 24 45 44
4 24 25 46 45
4 25 26 47 46
4 26 27 48 47
4 27 28 49 48
4 28 29 50 49
4 29 30 51 50
4 30 31 52 51
4 31 32 53 52
4 32 33 54 53
4 33 34 55 54
4 34 35 56 55
4 35 36 57 56
4 36 37 58 57
4 37 38 59 58
4 38 39 60 59
4 39 40 61 60
4 40 41 62 61
4 42 43 64 63
4 43 44 65 64
4 44 45 66 65
4 45 46 67 66
4 46 47 68 67
4 47 48 69 68
4 48 49 70 69
4 49 50 71 70
4 50 51 72 71
4 51 52 73 72
4 52 53 74 73
4 53 54 75 74
4 54 55 76 75
4 55 56 77 76
4 56 57 78 77
4 57 58 79 78
4 58 59 80 79
4 59 60 81 80
4 60 61 82 81
4 61 62 83 82
4 63 64 85 84
4 64 65 86 85
4 65 66 87 86
4 66 67 88 87
4 67 68 89 88
4 68 69 90 89
4 69 70 91 90
4 70 71 92 91
4 71 72 93 92
4 72 73 94 93
4 73 74 95 94
4 74 75 96 95
4 75 76 97 96
4 76 77 98 97
4 77 78 99 98
4 78 79 100 99
4 79 80 101 100
4 80 81 102 101
4 81 82 103 102
4 82 83 104 103
CELL_TYPES 80
9
9
9
9
9
9
9
9
9
9
9
9
9
9
9
9
9
9
9
9
9
9
9
9
9
9
9
9
9
9
9
9
9
9
9
9
9
9
9
9
9
9
9
9
9
9
9
9
9
9
9
9
9
9
9
9
9
9
9
9
9
9
9
9
9
9
9
9
9
9
9
9
9
9
9
9
9
9
9
9
CELL_DATA 80
SCALARS pressure double 1
LOOKUP_TABLE default
0.00000000000000000e+00
0.00000000000000000e+00
0.00000000000000000e+00
0.00000000000000000e+00
0.00000000000000000e+00
0.00000000000000000e+00
0.00000000000000000e+00
0.00000000000000000e+00
0.00000000000000000e+00
0.00000000000000000e+00
0.00000000000000000e+00
0.00000000000000000e+00
0.00000000000000000e+00
0.00000000000000000e+00
0.00000000000000000e+00
0.00000000000000000e+00
0.00000000000000000e+00
0.00000000000000000e+00
0.00000000000000000e+00
0.00000000000000000e+00
0.00000000000000000e+00
0.00000000000000000e+00
0.00000000000000000e+00
0.00000000000000000e+00
0.00000000000000000e+00
0.00000000000000000e+00
0.00000000000000000e+00
0.00000000000000000e+00
0.00000000000000000e+00
0.00000000000000000e+00
0.00000000000000000e+00
0.00000000000000000e+00
0.00000000000000000e+00
0.00000000000000000e+00
0.00000000000000000e+00
0.00000000000000000e+00
0.00000000000000000e+00
0.00000000000000000e+00
0.00000000000000000e+00
0.00000000000000000e+00
0.00000000000000000e+00
0.00000000000000000e+00
0.00000000000000000e+00
0.00000000000000000e+00
0.00000000000000000e+00
0.00000000000000000e+00
0.00000000000000000e+00
0.00000000000000000e+00
0.00000000000000000e+00
0.00000000000000000e+00
0.00000000000000000e+00
0.00000000000000000e+00
0.00000000000000000e+00
0.00000000000000000e+00
0.00000000000000000e+00
0.00000000000000000e+00
0.00000000000000000e+00
0.00000000000000000e+00
0.00000000000000000e+00
0.00000000000000000e+00
0.00000000000000000e+00
0.00000000000000000e+00
0.00000000000000000e+00
0.00000000000000000e+00
0.00000000000000000e+00
0.00000000000000000e+00
0.00000000000000000e+00
0.00000000000000000e+00
0.00000000000000000e+00
0.00000000000000000e+00
0.00000000000000000e+00
0.00000000000000000e+00
0.00000000000000000e+00
0.00000000000000000e+00
0.00000000000000000e+00
0.00000000000000000e+00
0.00000000000000000e+00
0.00000000000000000e+00
0.00000000000000000e+00
0.00000000000000000e+00
VECTORS velocity double
0.00000000000000000e+00 0.00000000000000000e+00 0
0.00000000000000000e+00 0.00000000000000000e+00 0
0.00000000000000000e+00 0.00000000000000000e+00 0
0.00000000000000000e+00 0.00000000000000000e+00 0
0.00000000000000000e+00 0.00000000000000000e+00 0
0.00000000000000000e+00 0.00000000000000000e+00 0
0.00000000000000000e+00 0.00000000000000000e+00 0
0.00000000000000000e+00 0.00000000000000000e+00 0
0.00000000000000000e+00 0.00000000000000000e+00 0
0.00000000000000000e+00 0.00000000000000000e+00 0
0.00000000000000000e+00 0.00000000000000000e+00 0
0.00000000000000000e+00 0.00000000000000000e+00 0
0.00000000000000000e+00 0.00000000000000000e+00 0
0.00000000000000000e+00 0.00000000000000000e+00 0
0.00000000000000000e+00 0.00000000000000000e+00 0
0.00000000000000000e+00 0.00000000000000000e+00 0
0.00000000000000000e+00 0.00000000000000000e+00 0
0.00000000000000000e+00 0.00000000000000000e+00 0
0.00000000000000000e+00 0.00000000000000000e+00 0
0.00000000000000000e+00 0.00000000000000000e+00 0
0.00000000000000000e+00 0.00000000000000000e+00 0
0.00000000000000000e+00 0.00000000000000000e+00 0
0.00000000000000000e+00 0.00000000000000000e+00 0
0.00000000000000000e+00 0.00000000000000000e+00 0
0.00000000000000000e+00 0.00000000000000000e+00 0
0.00000000000000000e+00 0.00000000000000000e+00 0
0.00000000000000000e+00 0.00000000000000000e+00 0
0.00000000000000000e+00 0.00000000000000000e+00 0
0.00000000000000000e+00 0.00000000000000000e+00 0
0.00000000000000000e+00 0.00000000000000000e+00 0
0.00000000000000000e+00 0.00000000000000000e+00 0
0.00000000000000000e+00 0.00000000000000000e+00 0
0.00000000000000000e+00 0.00000000000000000e+00 0
0.00000000000000000e+00 0.00000000000000000e+00 0
0.00000000000000000e+00 0.00000000000000000e+00 0
0.00000000000000000e+00 0.00000000000000000e+00 0
0.00000000000000000e+00 0.00000000000000000e+00 0
0.00000000000000000e+00 0.00000000000000000e+00 0
0.00000000000000000e+00 0.00000000000000000e+00 0
0.00000000000000000e+00 0.00000000000000000e+00 0
0.00000000000000000e+00 0.00000000000000000e+00 0
0.00000000000000000e+00 0.00000000000000000e+00 0
0.00000000000000000e+00 0.00000000000000000e+00 0
0.00000000000000000e+00 0.00000000000000000e+00 0
0.00000000000000000e+00 0.00000000000000000e+00 0
0.00000000000000000e+00 0.00000000000000000e+00 0
0.00000000000000000e+00 0.00000000000000000e+00 0
0.00000000000000000e+00 0.00000000000000000e+00 0
0.00000000000000000e+00 0.00000000000000000e+00 0
0.00000000000000000e+00 0.00000000000000000e+00 0
0.00000000000000000e+00 0.00000000000000000e+00 0
0.00000000000000000e+00 0.00000000000000000e+00 0
0.00000000000000000e+00 0.00000000000000000e+00 0
0.00000000000000000e+00 0.00000000000000000e+00 0
0.00000000000000000e+00 0.00000000000000000e+00 0
0.00000000000000000e+00 0.00000000000000000e+00 0
0.00000000000000000e+00 0.00000000000000000e+00 0
0.00000000000000000e+00 0.00000000000000000e+00 0
0.00000000000000000e+00 0.00000000000000000e+00 0
0.00000000000000000e+00 0.00000000000000000e+00 0
0.00000000000000000e+00 0.00000000000000000e+00 0
0.00000000000000000e+00 0.00000000000000000e+00 0
0.00000000000000000e+00 0.00000000000000000e+00 0
0.00000000000000000e+00 0.00000000000000000e+00 0
0.00000000000000000e+00 0.00000000000000000e+00 0
0.00000000000000000e+00 0.00000000000000000e+00 0
0.00000000000000000e+00 0.00000000000000000e+00 0
0.00000000000000000e+00 0.00000000000000000e+00 0
0.00000000000000000e+00 0.00000000000000000e+00 0
0.00000000000000000e+00 0.00000000000000000e+00 0
0.00000000000000000e+00 0.00000000000000000e+00 0
0.00000000000000000e+00 0.00000000000000000e+00 0
0.00000000000000000e+00 0.00000000000000000e+00 0
0.00000000000000000e+00 0.00000000000000000e+00 0
0.00000000000000000e+00 0.00000000000000000e+00 0
0.00000000000000000e+00 0.00000000000000000e+00 0
0.00000000000000000e+00 0.00000000000000000e+00 0
0.00000000000000000e+00 0.00000000000000000e+00 0
0.00000000000000000e+00 0.00000000000000000e+00 0
0.00000000000000000e+00 0.00000000000000000e+00 0
SCALARS velocity_magnitude double 1
LOOKUP_TABLE default
0.00000000000000000e+00
0.00000000000000000e+00
0.00000000000000000e+00
0.00000000000000000e+00
0.00000000000000000e+00
0.00000000000000000e+00
0.00000000000000000e+00
0.00000000000000000e+00
0.00000000000000000e+00
0.00000000000000000e+00
0.00000000000000000e+00
0.00000000000000000e+00
0.00000000000000000e+00
0.00000000000000000e+00
0.00000000000000000e+00
0.00000000000000000e+00
0.00000000000000000e+00
0.00000000000000000e+00
0.00000000000000000e+00
0.00000000000000000e+00
0.00000000000000000e+00
0.00000000000000000e+00
0.00000000000000000e+00
0.00000000000000000e+00
0.00000000000000000e+00
0.00000000000000000e+00
0.00000000000000000e+00
0.00000000000000000e+00
0.00000000000000000e+00
0.00000000000000000e+00
0.00000000000000000e+00
0.00000000000000000e+00
0.00000000000000000e+00
0.00000000000000000e+00
0.00000000000000000e+00
0.00000000000000000e+00
0.00000000000000000e+00
0.00000000000000000e+00
0.00000000000000000e+00
0.00000000000000000e+00
0.00000000000000000e+00
0.00000000000000000e+00
0.00000000000000000e+00
0.00000000000000000e+00
0.00000000000000000e+00
0.00000000000000000e+00
0.00000000000000000e+00
0.00000000000000000e+00
0.00000000000000000e+00
0.00000000000000000e+00
0.00000000000000000e+00
0.00000000000000000e+00
0.00000000000000000e+00
0.00000000000000000e+00
0.00000000000000000e+00
0.00000000000000000e+00
0.00000000000000000e+00
0.00000000000000000e+00
0.00000000000000000e+00
0.00000000000000000e+00
0.00000000000000000e+00
0.00000000000000000e+00
0.00000000000000000e+00
0.00000000000000000e+00
0.00000000000000000e+00
0.00000000000000000e+00
0.00000000000000000e+00
0.00000000000000000e+00
0.00000000000000000e+00
0.00000000000000000e+00
0.00000000000000000e+00
0.00000000000000000e+00
0.00000000000000000e+00
0.00000000000000000e+00
0.00000000000000000e+00
0.00000000000000000e+00
0.00000000000000000e+00
0.00000000000000000e+00
0.00000000000000000e+00
0.00000000000000000e+00
SCALARS temperature double 1
LOOKUP_TABLE default
3.09500000000000057e+02
3.08500000000000171e+02
3.07500000000000284e+02
3.06500000000000227e+02
3.05500000000000171e+02
3.04500000000000171e+02
3.03500000000000171e+02
3.02500000000000000e+02
3.01499999999999943e+02
3.00499999999999943e+02
2.99499999999999943e+02
2.98499999999999886e+02
2.97499999999999943e+02
2.96499999999999886e+02
2.95499999999999943e+02
2.94499999999999943e+02
2.93500000000000000e+02
2.92499999999999943e+02
2.91500000000000114e+02
2.90500000000000000e+02
3.09500000000000114e+02
3.08500000000000227e+02
3.07500000000000227e+02
3.06500000000000284e+02
3.05500000000000284e+02
3.04500000000000171e+02
3.03500000000000114e+02
3.02500000000000000e+02
3.01499999999999943e+02
3.00499999999999886e+02
2.99499999999999829e+02
2.98499999999999886e+02
2.97499999999999829e+02
2.96500000000000057e+02
2.95499999999999943e+02
2.94499999999999943e+02
2.93499999999999943e+02
2.92500000000000000e+02
2.91500000000000000e+02
2.90500000000000114e+02
3.09500000000000114e+02
3.08500000000000114e+02
3.07500000000000341e+02
3.06500000000000284e+02
3.05500000000000284e+02
3.04500000000000227e+02
3.03500000000000114e+02
3.02500000000000057e+02
3.01499999999999829e+02
3.00499999999999886e+02
2.99499999999999829e+02
2.98499999999999943e+02
2.97499999999999943e+02
2.96499999999999943e+02
2.95499999999999943e+02
2.94500000000000000e+02
2.93499999999999943e+02
2.92500000000000000e+02
2.91500000000000057e+02
2.90499999999999943e+02
3.09500000000000057e+02
3.08500000000000171e+02
3.07500000000000341e+02
3.06500000000000398e+02
3.05500000000000341e+02
3.04500000000000284e+02
3.03500000000000114e+02
3.02500000000000057e+02
3.01499999999999886e+02
3.00499999999999829e+02
2.99499999999999829e+02
2.98499999999999886e+02
2.97499999999999943e+02
2.96499999999999943e+02
2.95500000000000000e+02
2.94499999999999886e+02
2.93499999999999943e+02
2.92500000000000000e+02
2.91500000000000057e+02
2.90500000000000114e+02
SCALARS concentration_CO2 double 1
LOOKUP_TABLE default
9.74999968057570721e-01
9.24999904744416734e-01
8.74999843788056730e-01
8.24999786675065128e-01
7.74999734819272645e-01
7.24999689492682231e-01
6.74999651814304769e-01
6.24999622713549918e-01
5.74999602906218654e-01
5.24999592877470556e-01
4.74999592875987420e-01
4.24999602904767126e-01
3.74999622715138481e-01
3.24999651815602919e-01
2.74999689491227661e-01
2.24999734817638131e-01
1.74999786677441954e-01
1.24999843787758413e-01
7.49999047460126467e-02
2.49999680492757233e-02
9.74999968833643260e-01
9.24999907029396606e-01
8.74999847546644283e-01
8.24999791802617954e-01
7.74999741191870317e-01
7.24999696956380002e-01
6.74999660187608819e-01
6.24999631783392351e-01
5.74999612447757880e-01
5.24999602663432596e-01
4.74999602667509624e-01
4.24999612451578690e-01
3.74999631779301290e-01
3.24999660183676264e-01
2.74999696961221507e-01
2.24999741194345709e-01
1.74999791800387799e-01
1.24999847538424122e-01
7.49999070445418053e-02
2.49999688141461819e-02
9.74999968826535501e-01
9.24999907034239843e-01
8.74999847542622500e-01
8.24999791802822124e-01
7.74999741195039449e-01
7.24999696957025930e-01
6.74999660182707295e-01
6.24999631782793164e-01
5.74999612453740316e-01
5.24999602664521503e-01
4.74999602660498899e-01
4.24999612449832032e-01
3.74999631787060195e-01
3.24999660186268524e-01
2.74999696952984096e-01
2.24999741190847036e-01
1.74999791808757355e-01
1.24999847542865597e-01
7.49999070362877135e-02
2.49999688089898066e-02
9.74999968051095567e-01
9.24999904746902746e-01
8.74999843787566789e-01
8.24999786675854607e-01
7.74999734817678476e-01
7.24999689492682786e-01
6.74999651816040602e-01
6.24999622713771630e-01
5.74999602903960905e-01
5.24999592877113175e-01
4.74999592878608323e-01
4.24999602905393237e-01
3.74999622712221814e-01
3.24999651814662116e-01
2.74999689494313360e-01
2.24999734818939812e-01
1.74999786674288227e-01
1.24999843786125692e-01
7.49999047490612220e-02
2.49999680513054191e-02
