# vtk DataFile Version 3.0
CFDApp solution
ASCII
DATASET UNSTRUCTURED_GRID
POINTS 585 double
0.00000000000000000e+00 0.00000000000000000e+00 0
1.25000000000000000e-01 0.00000000000000000e+00 0
2.50000000000000000e-01 0.00000000000000000e+00 0
3.75000000000000000e-01 0.00000000000000000e+00 0
5.00000000000000000e-01 0.00000000000000000e+00 0
6.25000000000000000e-01 0.00000000000000000e+00 0
7.50000000000000000e-01 0.00000000000000000e+00 0
8.75000000000000000e-01 0.00000000000000000e+00 0
1.00000000000000000e+00 0.00000000000000000e+00 0
1.12500000000000000e+00 0.00000000000000000e+00 0
1.25000000000000000e+00 0.00000000000000000e+00 0
1.37500000000000000e+00 0.00000000000000000e+00 0
1.50000000000000000e+00 0.00000000000000000e+00 0
1.62500000000000000e+00 0.00000000000000000e+00 0
1.75000000000000000e+00 0.00000000000000000e+00 0
1.87500000000000000e+00 0.00000000000000000e+00 0
2.00000000000000000e+00 0.00000000000000000e+00 0
2.12500000000000000e+00 0.00000000000000000e+00 0
2.25000000000000000e+00 0.00000000000000000e+00 0
2.37500000000000000e+00 0.00000000000000000e+00 0
2.50000000000000000e+00 0.00000000000000000e+00 0
2.62500000000000000e+00 0.00000000000000000e+00 0
2.75000000000000000e+00 0.00000000000000000e+00 0
2.87500000000000000e+00 0.00000000000000000e+00 0
3.00000000000000000e+00 0.00000000000000000e+00 0
3.12500000000000000e+00 0.00000000000000000e+00 0
3.25000000000000000e+00 0.00000000000000000e+00 0
3.37500000000000000e+00 0.00000000000000000e+00 0
3.50000000000000000e+00 0.00000000000000000e+00 0
3.62500000000000000e+00 0.00000000000000000e+00 0
3.75000000000000000e+00 0.00000000000000000e+00 0
3.87500000000000000e+00 0.00000000000000000e+00 0
4.00000000000000000e+00 0.00000000000000000e+00 0
4.12500000000000000e+00 0.00000000000000000e+00 0
4.25000000000000000e+00 0.00000000000000000e+00 0
4.37500000000000000e+00 0.00000000000000000e+00 0
4.50000000000000000e+00 0.00000000000000000e+00 0
4.62500000000000000e+00 0.00000000000000000e+00 0
4.75000000000000000e+00 0.00000000000000000e+00 0
4.87500000000000000e+00 0.00000000000000000e+00 0
5.00000000000000000e+00 0.00000000000000000e+00 0
5.12500000000000000e+00 0.00000000000000000e+00 0
5.25000000000000000e+00 0.00000000000000000e+00 0
5.37500000000000000e+00 0.00000000000000000e+00 0
5.50000000000000000e+00 0.00000000000000000e+00 0
5.62500000000000000e+00 0.00000000000000000e+00 0
5.75000000000000000e+00 0.00000000000000000e+00 0
5.87500000000000000e+00 0.00000000000000000e+00 0
6.00000000000000000e+00 0.00000000000000000e+00 0
6.12500000000000000e+00 0.00000000000000000e+00 0
6.25000000000000000e+00 0.00000000000000000e+00 0
6.37500000000000000e+00 0.00000000000000000e+00 0
6.50000000000000000e+00 0.00000000000000000e+00 0
6.62500000000000000e+00 0.00000000000000000e+00 0
6.75000000000000000e+00 0.00000000000000000e+00 0
6.87500000000000000e+00 0.00000000000000000e+00 0
7.00000000000000000e+00 0.00000000000000000e+00 0
7.12500000000000000e+00 0.00000000000000000e+00 0
7.25000000000000000e+00 0.00000000000000000e+00 0
7.37500000000000000e+00 0.00000000000000000e+00 0
7.50000000000000000e+00 0.00000000000000000e+00 0
7.62500000000000000e+00 0.00000000000000000e+00 0
7.75000000000000000e+00 0.00000000000000000e+00 0
7.87500000000000000e+00 0.00000000000000000e+00 0
8.00000000000000000e+00 0.00000000000000000e+00 0
0.00000000000000000e+00 1.25000000000000000e-01 0
1.28469608525397044e-01 1.38529902503654934e-01 0
2.56930858459954559e-01 1.44134171618254481e-01 0
3.85375411349410557e-01 1.38529902503654934e-01 0
5.13794968964147114e-01 1.25000000000000000e-01 0
6.42181293290352562e-01 1.11470097496345080e-01 0
7.70526226376117895e-01 1.05865828381745505e-01 0
8.98821709984658046e-01 1.11470097496345066e-01 0
1.02705980500730987e+00 1.25000000000000000e-01 0
1.15523271058954013e+00 1.38529902503654934e-01 0
1.28333278292388742e+00 1.44134171618254481e-01 0
1.41135255366456391e+00 1.38529902503654934e-01 0
1.53928474791935521e+00 1.25000000000000000e-01 0
1.66712230177547105e+00 1.11470097496345066e-01 0
1.79485837931713177e+00 1.05865828381745505e-01 0
1.92248638909388769e+00 1.11470097496345052e-01 0
2.04999999999999982e+00 1.24999999999999986e-01 0
2.17739315652662935e+00 1.38529902503654934e-01 0
2.30466009335008781e+00 1.44134171618254481e-01 0
2.43179534922100693e+00 1.38529902503654934e-01 0
2.55879378012096792e+00 1.25000000000000000e-01 0
2.68565057165489041e+00 1.11470097496345066e-01 0
2.81236125064933340e+00 1.05865828381745505e-01 0
2.93892169592876185e+00 1.11470097496345052e-01 0
3.06532814824381905e+00 1.24999999999999986e-01 0
3.19157721932768634e+00 1.38529902503654934e-01 0
3.31766590005871764e+00 1.44134171618254481e-01 0
3.44359156770967489e+00 1.38529902503654961e-01 0
3.56935199226610722e+00 1.25000000000000028e-01 0
3.69494534179865397e+00 1.11470097496345066e-01 0
3.82037018687631935e+00 1.05865828381745505e-01 0
3.94562550401009871e+00 1.11470097496345052e-01 0
4.07071067811865461e+00 1.24999999999999986e-01 0
4.19562550401009915e+00 1.38529902503654934e-01 0
4.32037018687631935e+00 1.44134171618254481e-01 0
4.44494534179865397e+00 1.38529902503654961e-01 0
4.56935199226610766e+00 1.25000000000000028e-01 0
4.69359156770967445e+00 1.11470097496345080e-01 0
4.81766590005871720e+00 1.05865828381745505e-01 0
4.94157721932768634e+00 1.11470097496345039e-01 0
5.06532814824381905e+00 1.24999999999999972e-01 0
5.18892169592876229e+00 1.38529902503654878e-01 0
5.31236125064933340e+00 1.44134171618254481e-01 0
5.43565057165489041e+00 1.38529902503654961e-01 0
5.55879378012096836e+00 1.25000000000000083e-01 0
5.68179534922100693e+00 1.11470097496345080e-01 0
5.80466009335008781e+00 1.05865828381745505e-01 0
5.92739315652662935e+00 1.11470097496345094e-01 0
6.04999999999999982e+00 1.24999999999999972e-01 0
6.17248638909388792e+00 1.38529902503654878e-01 0
6.29485837931713199e+00 1.44134171618254481e-01 0
6.41712230177547127e+00 1.38529902503654961e-01 0
6.53928474791935521e+00 1.24999999999999958e-01 0
6.66135255366456391e+00 1.11470097496345080e-01 0
6.78333278292388719e+00 1.05865828381745505e-01 0
6.90523271058953991e+00 1.11470097496345094e-01 0
7.02705980500731009e+00 1.24999999999999972e-01 0
7.14882170998465849e+00 1.38529902503654878e-01 0
7.27052622637611812e+00 1.44134171618254481e-01 0
7.39218129329035278e+00 1.38529902503654961e-01 0
7.51379496896414700e+00 1.25000000000000111e-01 0
7.63537541134941034e+00 1.11470097496345094e-01 0
7.75693085845995434e+00 1.05865828381745505e-01 0
7.87846960852539713e+00 1.11470097496345080e-01 0
8.00000000000000000e+00 1.24999999999999958e-01 0
0.00000000000000000e+00 2.50000000000000000e-01 0
1.29906767432741793e-01 2.75000000000000022e-01 0
2.59801714032956044e-01 2.85355339059327362e-01 0
3.89673047445536158e-01 2.75000000000000022e-01 0
5.19509032201612819e-01 2.50000000000000000e-01 0
6.49298017990326382e-01 2.25000000000000006e-01 0
7.79028467725446205e-01 2.14644660940672610e-01 0
9.08688985339222044e-01 2.25000000000000006e-01 0
1.03826834323650896e+00 2.50000000000000000e-01 0
1.16775550934302830e+00 2.75000000000000022e-01 0
1.29713967368259975e+00 2.85355339059327362e-01 0
1.42641027441932211e+00 2.75000000000000022e-01 0
1.55555702330196022e+00 2.50000000000000000e-01 0
1.68456993044924341e+00 2.24999999999999978e-01 0
1.81343932841636457e+00 2.14644660940672610e-01 0
1.94215589548470180e+00 2.24999999999999978e-01 0
2.07071067811865461e+00 2.49999999999999972e-01 0
2.19909511253549583e+00 2.75000000000000022e-01 0
2.32730104533627369e+00 2.85355339059327362e-01 0
2.45532075314806431e+00 2.75000000000000022e-01 0
2.58314696123025467e+00 2.50000000000000000e-01 0
2.71077286100002723e+00 2.25000000000000006e-01 0
2.83819212643483532e+00 2.14644660940672610e-01 0
2.96539892931234439e+00 2.24999999999999950e-01 0
3.09238795325112870e+00 2.49999999999999972e-01 0
3.21915440651830220e+00 2.75000000000000022e-01 0
3.34569403357322104e+00 2.85355339059327362e-01 0
3.47200312531945432e+00 2.75000000000000022e-01 0
3.59807852804032313e+00 2.50000000000000056e-01 0
3.72391765099647820e+00 2.25000000000000006e-01 0
3.84951847266721980e+00 2.14644660940672610e-01 0
3.97487954562051726e+00 2.24999999999999950e-01 0
4.09999999999999964e+00 2.49999999999999972e-01 0
4.22487954562051726e+00 2.75000000000000022e-01 0
4.34951847266721980e+00 2.85355339059327362e-01 0
4.47391765099647820e+00 2.75000000000000022e-01 0
4.59807852804032269e+00 2.50000000000000056e-01 0
4.72200312531945432e+00 2.25000000000000006e-01 0
4.84569403357322059e+00 2.14644660940672610e-01 0
4.96915440651830220e+00 2.24999999999999950e-01 0
5.09238795325112825e+00 2.49999999999999944e-01 0
5.21539892931234395e+00 2.74999999999999911e-01 0
5.33819212643483532e+00 2.85355339059327362e-01 0
5.46077286100002723e+00 2.75000000000000078e-01 0
5.58314696123025467e+00 2.50000000000000167e-01 0
5.70532075314806431e+00 2.25000000000000006e-01 0
5.82730104533627369e+00 2.14644660940672610e-01 0
5.94909511253549628e+00 2.25000000000000033e-01 0
6.07071067811865461e+00 2.49999999999999944e-01 0
6.19215589548470202e+00 2.74999999999999911e-01 0
6.31343932841636413e+00 2.85355339059327362e-01 0
6.43456993044924364e+00 2.75000000000000078e-01 0
6.55555702330195977e+00 2.49999999999999944e-01 0
6.67641027441932255e+00 2.25000000000000006e-01 0
6.79713967368259997e+00 2.14644660940672610e-01 0
6.91775550934302785e+00 2.25000000000000033e-01 0
7.03826834323650896e+00 2.49999999999999944e-01 0
7.15868898533922238e+00 2.74999999999999911e-01 0
7.27902846772544621e+00 2.85355339059327362e-01 0
7.39929801799032649e+00 2.75000000000000078e-01 0
7.51950903220161315e+00 2.50000000000000167e-01 0
7.63967304744553655e+00 2.25000000000000033e-01 0
7.75980171403295582e+00 2.14644660940672610e-01 0
7.87990676743274143e+00 2.25000000000000006e-01 0
8.00000000000000000e+00 2.49999999999999944e-01 0
0.00000000000000000e+00 3.75000000000000000e-01 0
1.28469608525397044e-01 4.07664074121909414e-01 0
2.56930858459954559e-01 4.21193976625564348e-01 0
3.85375411349410557e-01 4.07664074121909414e-01 0
5.13794968964147114e-01 3.75000000000000000e-01 0
6.42181293290352562e-01 3.42335925878090586e-01 0
7.70526226376117895e-01 3.28806023374435652e-01 0
8.98821709984658046e-01 3.42335925878090586e-01 0
1.02705980500730987e+00 3.75000000000000000e-01 0
1.15523271058954013e+00 4.07664074121909414e-01 0
1.28333278292388742e+00 4.21193976625564348e-01 0
1.41135255366456391e+00 4.07664074121909470e-01 0
1.53928474791935521e+00 3.75000000000000000e-01 0
1.66712230177547105e+00 3.42335925878090586e-01 0
1.79485837931713177e+00 3.28806023374435652e-01 0
1.92248638909388769e+00 3.42335925878090530e-01 0
2.04999999999999982e+00 3.75000000000000000e-01 0
2.17739315652662935e+00 4.07664074121909414e-01 0
2.30466009335008781e+00 4.21193976625564348e-01 0
2.43179534922100693e+00 4.07664074121909470e-01 0
2.55879378012096792e+00 3.75000000000000056e-01 0
2.68565057165489041e+00 3.42335925878090586e-01 0
2.81236125064933340e+00 3.28806023374435652e-01 0
2.93892169592876185e+00 3.42335925878090530e-01 0
3.06532814824381905e+00 3.74999999999999944e-01 0
3.19157721932768634e+00 4.07664074121909414e-01 0
3.31766590005871764e+00 4.21193976625564348e-01 0
3.44359156770967489e+00 4.07664074121909470e-01 0
3.56935199226610722e+00 3.75000000000000056e-01 0
3.69494534179865397e+00 3.42335925878090586e-01 0
3.82037018687631935e+00 3.28806023374435652e-01 0
3.94562550401009871e+00 3.42335925878090530e-01 0
4.07071067811865461e+00 3.74999999999999944e-01 0
4.19562550401009915e+00 4.07664074121909414e-01 0
4.32037018687631935e+00 4.21193976625564348e-01 0
4.44494534179865397e+00 4.07664074121909470e-01 0
4.56935199226610766e+00 3.75000000000000056e-01 0
4.69359156770967445e+00 3.42335925878090586e-01 0
4.81766590005871720e+00 3.28806023374435652e-01 0
4.94157721932768634e+00 3.42335925878090530e-01 0
5.06532814824381905e+00 3.74999999999999944e-01 0
5.18892169592876229e+00 4.07664074121909303e-01 0
5.31236125064933340e+00 4.21193976625564348e-01 0
5.43565057165489041e+00 4.07664074121909470e-01 0
5.55879378012096836e+00 3.75000000000000222e-01 0
5.68179534922100693e+00 3.42335925878090586e-01 0
5.80466009335008781e+00 3.28806023374435652e-01 0
5.92739315652662935e+00 3.42335925878090641e-01 0
6.04999999999999982e+00 3.74999999999999944e-01 0
6.17248638909388792e+00 4.07664074121909303e-01 0
6.29485837931713199e+00 4.21193976625564348e-01 0
6.41712230177547127e+00 4.07664074121909525e-01 0
6.53928474791935521e+00 3.74999999999999889e-01 0
6.66135255366456391e+00 3.42335925878090586e-01 0
6.78333278292388719e+00 3.28806023374435652e-01 0
6.90523271058953991e+00 3.42335925878090641e-01 0
7.02705980500731009e+00 3.74999999999999944e-01 0
7.14882170998465849e+00 4.07664074121909248e-01 0
7.27052622637611812e+00 4.21193976625564348e-01 0
7.39218129329035278e+00 4.07664074121909525e-01 0
7.51379496896414700e+00 3.75000000000000222e-01 0
7.63537541134941034e+00 3.42335925878090641e-01 0
7.75693085845995434e+00 3.28806023374435652e-01 0
7.87846960852539713e+00 3.42335925878090586e-01 0
8.00000000000000000e+00 3.74999999999999889e-01 0
0.00000000000000000e+00 5.00000000000000000e-01 0
1.25000000000000000e-01 5.35355339059327417e-01 0
2.50000000000000000e-01 5.50000000000000044e-01 0
3.75000000000000000e-01 5.35355339059327417e-01 0
5.00000000000000000e-01 5.00000000000000000e-01 0
6.25000000000000000e-01 4.64644660940672638e-01 0
7.50000000000000000e-01 4.50000000000000011e-01 0
8.75000000000000000e-01 4.64644660940672638e-01 0
1.00000000000000000e+00 5.00000000000000000e-01 0
1.12500000000000000e+00 5.35355339059327417e-01 0
1.25000000000000000e+00 5.50000000000000044e-01 0
1.37500000000000000e+00 5.35355339059327417e-01 0
1.50000000000000000e+00 5.00000000000000000e-01 0
1.62500000000000000e+00 4.64644660940672583e-01 0
1.75000000000000000e+00 4.50000000000000011e-01 0
1.87500000000000000e+00 4.64644660940672583e-01 0
2.00000000000000000e+00 5.00000000000000000e-01 0
2.12500000000000000e+00 5.35355339059327417e-01 0
2.25000000000000000e+00 5.50000000000000044e-01 0
2.37500000000000000e+00 5.35355339059327417e-01 0
2.50000000000000000e+00 5.00000000000000000e-01 0
2.62500000000000000e+00 4.64644660940672638e-01 0
2.75000000000000000e+00 4.50000000000000011e-01 0
2.87500000000000000e+00 4.64644660940672583e-01 0
3.00000000000000000e+00 4.99999999999999944e-01 0
3.12500000000000000e+00 5.35355339059327417e-01 0
3.25000000000000000e+00 5.50000000000000044e-01 0
3.37500000000000000e+00 5.35355339059327417e-01 0
3.50000000000000000e+00 5.00000000000000000e-01 0
3.62500000000000000e+00 4.64644660940672638e-01 0
3.75000000000000000e+00 4.50000000000000011e-01 0
3.87500000000000000e+00 4.64644660940672583e-01 0
4.00000000000000000e+00 4.99999999999999944e-01 0
4.12500000000000000e+00 5.35355339059327417e-01 0
4.25000000000000000e+00 5.50000000000000044e-01 0
4.37500000000000000e+00 5.35355339059327417e-01 0
4.50000000000000000e+00 5.00000000000000000e-01 0
4.62500000000000000e+00 4.64644660940672638e-01 0
4.75000000000000000e+00 4.50000000000000011e-01 0
4.87500000000000000e+00 4.64644660940672527e-01 0
5.00000000000000000e+00 4.99999999999999944e-01 0
5.12500000000000000e+00 5.35355339059327195e-01 0
5.25000000000000000e+00 5.50000000000000044e-01 0
5.37500000000000000e+00 5.35355339059327417e-01 0
5.50000000000000000e+00 5.00000000000000222e-01 0
5.62500000000000000e+00 4.64644660940672638e-01 0
5.75000000000000000e+00 4.50000000000000011e-01 0
5.87500000000000000e+00 4.64644660940672694e-01 0
6.00000000000000000e+00 4.99999999999999944e-01 0
6.12500000000000000e+00 5.35355339059327195e-01 0
6.25000000000000000e+00 5.50000000000000044e-01 0
6.37500000000000000e+00 5.35355339059327417e-01 0
6.50000000000000000e+00 4.99999999999999889e-01 0
6.62500000000000000e+00 4.64644660940672638e-01 0
6.75000000000000000e+00 4.50000000000000011e-01 0
6.87500000000000000e+00 4.64644660940672638e-01 0
7.00000000000000000e+00 4.99999999999999889e-01 0
7.12500000000000000e+00 5.35355339059327195e-01 0
7.25000000000000000e+00 5.50000000000000044e-01 0
7.37500000000000000e+00 5.35355339059327529e-01 0
7.50000000000000000e+00 5.00000000000000222e-01 0
7.62500000000000000e+00 4.64644660940672638e-01 0
7.75000000000000000e+00 4.50000000000000011e-01 0
7.87500000000000000e+00 4.64644660940672638e-01 0
8.00000000000000000e+00 4.99999999999999889e-01 0
0.00000000000000000e+00 6.25000000000000000e-01 0
1.21530391474602970e-01 6.57664074121909414e-01 0
2.43069141540045414e-01 6.71193976625564348e-01 0
3.64624588650589443e-01 6.57664074121909414e-01 0
4.86205031035852830e-01 6.25000000000000000e-01 0
6.07818706709647438e-01 5.92335925878090586e-01 0
7.29473773623882105e-01 5.78806023374435652e-01 0
8.51178290015341954e-01 5.92335925878090586e-01 0
9.72940194992690133e-01 6.25000000000000000e-01 0
1.09476728941045987e+00 6.57664074121909414e-01 0
1.21666721707611258e+00 6.71193976625564348e-01 0
1.33864744633543609e+00 6.57664074121909414e-01 0
1.46071525208064479e+00 6.25000000000000000e-01 0
1.58287769822452895e+00 5.92335925878090586e-01 0
1.70514162068286823e+00 5.78806023374435652e-01 0
1.82751361090611231e+00 5.92335925878090586e-01 0
1.94999999999999996e+00 6.25000000000000000e-01 0
2.07260684347337065e+00 6.57664074121909414e-01 0
2.19533990664991219e+00 6.71193976625564348e-01 0
2.31820465077899307e+00 6.57664074121909414e-01 0
2.44120621987903208e+00 6.25000000000000000e-01 0
2.56434942834510959e+00 5.92335925878090586e-01 0
2.68763874935066660e+00 5.78806023374435652e-01 0
2.81107830407123815e+00 5.92335925878090475e-01 0
2.93467185175618095e+00 6.25000000000000000e-01 0
3.05842278067231366e+00 6.57664074121909414e-01 0
3.18233409994128236e+00 6.71193976625564348e-01 0
3.30640843229032511e+00 6.57664074121909525e-01 0
3.43064800773389278e+00 6.25000000000000000e-01 0
3.55505465820134603e+00 5.92335925878090586e-01 0
3.67962981312368109e+00 5.78806023374435652e-01 0
3.80437449598990129e+00 5.92335925878090475e-01 0
3.92928932188134539e+00 6.25000000000000000e-01 0
4.05437449598990085e+00 6.57664074121909414e-01 0
4.17962981312368065e+00 6.71193976625564348e-01 0
4.30505465820134603e+00 6.57664074121909525e-01 0
4.43064800773389234e+00 6.25000000000000000e-01 0
4.55640843229032555e+00 5.92335925878090586e-01 0
4.68233409994128280e+00 5.78806023374435652e-01 0
4.80842278067231366e+00 5.92335925878090475e-01 0
4.93467185175618095e+00 6.24999999999999889e-01 0
5.06107830407123771e+00 6.57664074121909303e-01 0
5.18763874935066660e+00 6.71193976625564348e-01 0
5.31434942834510959e+00 6.57664074121909525e-01 0
5.44120621987903164e+00 6.25000000000000222e-01 0
5.56820465077899307e+00 5.92335925878090586e-01 0
5.69533990664991219e+00 5.78806023374435652e-01 0
5.82260684347337065e+00 5.92335925878090586e-01 0
5.95000000000000018e+00 6.24999999999999889e-01 0
6.07751361090611208e+00 6.57664074121909303e-01 0
6.20514162068286801e+00 6.71193976625564348e-01 0
6.33287769822452873e+00 6.57664074121909525e-01 0
6.46071525208064479e+00 6.24999999999999889e-01 0
6.58864744633543609e+00 5.92335925878090586e-01 0
6.71666721707611281e+00 5.78806023374435652e-01 0
6.84476728941046009e+00 5.92335925878090586e-01 0
6.97294019499268991e+00 6.24999999999999889e-01 0
7.10117829001534151e+00 6.57664074121909303e-01 0
7.22947377362388188e+00 6.71193976625564348e-01 0
7.35781870670964722e+00 6.57664074121909525e-01 0
7.48620503103585300e+00 6.25000000000000222e-01 0
7.61462458865058966e+00 5.92335925878090586e-01 0
7.74306914154004566e+00 5.78806023374435652e-01 0
7.87153039147460287e+00 5.92335925878090586e-01 0
8.00000000000000000e+00 6.24999999999999889e-01 0
0.00000000000000000e+00 7.50000000000000000e-01 0
1.20093232567258193e-01 7.75000000000000022e-01 0
2.40198285967043929e-01 7.85355339059327417e-01 0
3.60326952554463842e-01 7.75000000000000022e-01 0
4.80490967798387181e-01 7.50000000000000000e-01 0
6.00701982009673618e-01 7.24999999999999978e-01 0
7.20971532274553795e-01 7.14644660940672583e-01 0
8.41311014660777956e-01 7.24999999999999978e-01 0
9.61731656763491038e-01 7.50000000000000000e-01 0
1.08224449065697170e+00 7.75000000000000022e-01 0
1.20286032631740025e+00 7.85355339059327417e-01 0
1.32358972558067789e+00 7.75000000000000022e-01 0
1.44444297669803978e+00 7.50000000000000000e-01 0
1.56543006955075659e+00 7.24999999999999978e-01 0
1.68656067158363543e+00 7.14644660940672583e-01 0
1.80784410451529820e+00 7.24999999999999978e-01 0
1.92928932188134517e+00 7.50000000000000000e-01 0
2.05090488746450417e+00 7.75000000000000022e-01 0
2.17269895466372631e+00 7.85355339059327417e-01 0
2.29467924685193569e+00 7.75000000000000022e-01 0
2.41685303876974533e+00 7.50000000000000000e-01 0
2.53922713899997277e+00 7.24999999999999978e-01 0
2.66180787356516468e+00 7.14644660940672583e-01 0
2.78460107068765561e+00 7.24999999999999978e-01 0
2.90761204674887130e+00 7.50000000000000000e-01 0
3.03084559348169780e+00 7.75000000000000022e-01 0
3.15430596642677896e+00 7.85355339059327417e-01 0
3.27799687468054568e+00 7.75000000000000022e-01 0
3.40192147195967687e+00 7.50000000000000000e-01 0
3.52608234900352180e+00 7.24999999999999978e-01 0
3.65048152733278020e+00 7.14644660940672583e-01 0
3.77512045437948274e+00 7.24999999999999978e-01 0
3.89999999999999991e+00 7.50000000000000000e-01 0
4.02512045437948274e+00 7.75000000000000022e-01 0
4.15048152733278020e+00 7.85355339059327417e-01 0
4.27608234900352180e+00 7.75000000000000022e-01 0
4.40192147195967731e+00 7.50000000000000000e-01 0
4.52799687468054568e+00 7.24999999999999978e-01 0
4.65430596642677941e+00 7.14644660940672583e-01 0
4.78084559348169780e+00 7.24999999999999978e-01 0
4.90761204674887175e+00 7.50000000000000000e-01 0
5.03460107068765605e+00 7.74999999999999911e-01 0
5.16180787356516468e+00 7.85355339059327417e-01 0
5.28922713899997277e+00 7.75000000000000022e-01 0
5.41685303876974533e+00 7.50000000000000222e-01 0
5.54467924685193569e+00 7.24999999999999978e-01 0
5.67269895466372631e+00 7.14644660940672583e-01 0
5.80090488746450372e+00 7.24999999999999978e-01 0
5.92928932188134539e+00 7.50000000000000000e-01 0
6.05784410451529798e+00 7.74999999999999911e-01 0
6.18656067158363587e+00 7.85355339059327417e-01 0
6.31543006955075636e+00 7.75000000000000022e-01 0
6.44444297669804023e+00 7.49999999999999889e-01 0
6.57358972558067745e+00 7.24999999999999978e-01 0
6.70286032631740003e+00 7.14644660940672583e-01 0
6.83224449065697215e+00 7.24999999999999978e-01 0
6.96173165676349104e+00 7.49999999999999889e-01 0
7.09131101466077762e+00 7.74999999999999911e-01 0
7.22097153227455379e+00 7.85355339059327417e-01 0
7.35070198200967351e+00 7.75000000000000022e-01 0
7.48049096779838685e+00 7.50000000000000222e-01 0
7.61032695255446345e+00 7.24999999999999978e-01 0
7.74019828596704418e+00 7.14644660940672583e-01 0
7.87009323256725857e+00 7.24999999999999978e-01 0
8.00000000000000000e+00 7.49999999999999889e-01 0
0.00000000000000000e+00 8.75000000000000000e-01 0
1.21530391474602970e-01 8.88529902503654934e-01 0
2.43069141540045414e-01 8.94134171618254481e-01 0
3.64624588650589443e-01 8.88529902503654934e-01 0
4.86205031035852830e-01 8.75000000000000000e-01 0
6.07818706709647438e-01 8.61470097496345066e-01 0
7.29473773623882105e-01 8.55865828381745519e-01 0
8.51178290015341954e-01 8.61470097496345066e-01 0
9.72940194992690133e-01 8.75000000000000000e-01 0
1.09476728941045987e+00 8.88529902503654934e-01 0
1.21666721707611258e+00 8.94134171618254481e-01 0
1.33864744633543609e+00 8.88529902503654934e-01 0
1.46071525208064479e+00 8.75000000000000000e-01 0
1.58287769822452895e+00 8.61470097496345066e-01 0
1.70514162068286823e+00 8.55865828381745519e-01 0
1.82751361090611231e+00 8.61470097496345066e-01 0
1.94999999999999996e+00 8.75000000000000000e-01 0
2.07260684347337065e+00 8.88529902503654934e-01 0
2.19533990664991219e+00 8.94134171618254481e-01 0
2.31820465077899307e+00 8.88529902503654934e-01 0
2.44120621987903208e+00 8.75000000000000000e-01 0
2.56434942834510959e+00 8.61470097496345066e-01 0
2.68763874935066660e+00 8.55865828381745519e-01 0
2.81107830407123815e+00 8.61470097496345066e-01 0
2.93467185175618095e+00 8.75000000000000000e-01 0
3.05842278067231366e+00 8.88529902503654934e-01 0
3.18233409994128236e+00 8.94134171618254481e-01 0
3.30640843229032511e+00 8.88529902503654934e-01 0
3.43064800773389278e+00 8.75000000000000000e-01 0
3.55505465820134603e+00 8.61470097496345066e-01 0
3.67962981312368065e+00 8.55865828381745519e-01 0
3.80437449598990129e+00 8.61470097496345066e-01 0
3.92928932188134539e+00 8.75000000000000000e-01 0
4.05437449598990085e+00 8.88529902503654934e-01 0
4.17962981312368065e+00 8.94134171618254481e-01 0
4.30505465820134603e+00 8.88529902503654934e-01 0
4.43064800773389234e+00 8.75000000000000000e-01 0
4.55640843229032555e+00 8.61470097496345066e-01 0
4.68233409994128191e+00 8.55865828381745519e-01 0
4.80842278067231366e+00 8.61470097496345066e-01 0
4.93467185175618095e+00 8.75000000000000000e-01 0
5.06107830407123771e+00 8.88529902503654823e-01 0
5.18763874935066660e+00 8.94134171618254481e-01 0
5.31434942834510959e+00 8.88529902503654934e-01 0
5.44120621987903164e+00 8.75000000000000111e-01 0
5.56820465077899307e+00 8.61470097496345066e-01 0
5.69533990664991219e+00 8.55865828381745519e-01 0
5.82260684347337065e+00 8.61470097496345066e-01 0
5.95000000000000018e+00 8.75000000000000000e-01 0
6.07751361090611208e+00 8.88529902503654823e-01 0
6.20514162068286801e+00 8.94134171618254481e-01 0
6.33287769822452873e+00 8.88529902503654934e-01 0
6.46071525208064479e+00 8.75000000000000000e-01 0
6.58864744633543609e+00 8.61470097496345066e-01 0
6.71666721707611281e+00 8.55865828381745519e-01 0
6.84476728941046009e+00 8.61470097496345066e-01 0
6.97294019499268991e+00 8.75000000000000000e-01 0
7.10117829001534151e+00 8.88529902503654823e-01 0
7.22947377362388188e+00 8.94134171618254481e-01 0
7.35781870670964722e+00 8.88529902503654934e-01 0
7.48620503103585300e+00 8.75000000000000111e-01 0
7.61462458865058966e+00 8.61470097496345066e-01 0
7.74306914154004566e+00 8.55865828381745519e-01 0
7.87153039147460287e+00 8.61470097496345066e-01 0
8.00000000000000000e+00 8.75000000000000000e-01 0
0.00000000000000000e+00 1.00000000000000000e+00 0
1.25000000000000000e-01 1.00000000000000000e+00 0
2.50000000000000000e-01 1.00000000000000000e+00 0
3.75000000000000000e-01 1.00000000000000000e+00 0
5.00000000000000000e-01 1.00000000000000000e+00 0
6.25000000000000000e-01 1.00000000000000000e+00 0
7.50000000000000000e-01 1.00000000000000000e+00 0
8.75000000000000000e-01 1.00000000000000000e+00 0
1.00000000000000000e+00 1.00000000000000000e+00 0
1.12500000000000000e+00 1.00000000000000000e+00 0
1.25000000000000000e+00 1.00000000000000000e+00 0
1.37500000000000000e+00 1.00000000000000000e+00 0
1.50000000000000000e+00 1.00000000000000000e+00 0
1.62500000000000000e+00 1.00000000000000000e+00 0
1.75000000000000000e+00 1.00000000000000000e+00 0
1.87500000000000000e+00 1.00000000000000000e+00 0
2.00000000000000000e+00 1.00000000000000000e+00 0
2.12500000000000000e+00 1.00000000000000000e+00 0
2.25000000000000000e+00 1.00000000000000000e+00 0
2.37500000000000000e+00 1.00000000000000000e+00 0
2.50000000000000000e+00 1.00000000000000000e+00 0
2.62500000000000000e+00 1.00000000000000000e+00 0
2.75000000000000000e+00 1.00000000000000000e+00 0
2.87500000000000000e+00 1.00000000000000000e+00 0
3.00000000000000000e+00 1.00000000000000000e+00 0
3.12500000000000000e+00 1.00000000000000000e+00 0
3.25000000000000000e+00 1.00000000000000000e+00 0
3.37500000000000000e+00 1.00000000000000000e+00 0
3.50000000000000000e+00 1.00000000000000000e+00 0
3.62500000000000000e+00 1.00000000000000000e+00 0
3.75000000000000000e+00 1.00000000000000000e+00 0
3.87500000000000000e+00 1.00000000000000000e+00 0
4.00000000000000000e+00 1.00000000000000000e+00 0
4.12500000000000000e+00 1.00000000000000000e+00 0
4.25000000000000000e+00 1.00000000000000000e+00 0
4.37500000000000000e+00 1.00000000000000000e+00 0
4.50000000000000000e+00 1.00000000000000000e+00 0
4.62500000000000000e+00 1.00000000000000000e+00 0
4.75000000000000000e+00 1.00000000000000000e+00 0
4.87500000000000000e+00 1.00000000000000000e+00 0
5.00000000000000000e+00 1.00000000000000000e+00 0
5.12500000000000000e+00 1.00000000000000000e+00 0
5.25000000000000000e+00 1.00000000000000000e+00 0
5.37500000000000000e+00 1.00000000000000000e+00 0
5.50000000000000000e+00 1.00000000000000000e+00 0
5.62500000000000000e+00 1.00000000000000000e+00 0
5.75000000000000000e+00 1.00000000000000000e+00 0
5.87500000000000000e+00 1.00000000000000000e+00 0
6.00000000000000000e+00 1.00000000000000000e+00 0
6.12500000000000000e+00 1.00000000000000000e+00 0
6.25000000000000000e+00 1.00000000000000000e+00 0
6.37500000000000000e+00 1.00000000000000000e+00 0
6.50000000000000000e+00 1.00000000000000000e+00 0
6.62500000000000000e+00 1.00000000000000000e+00 0
6.75000000000000000e+00 1.00000000000000000e+00 0
6.87500000000000000e+00 1.00000000000000000e+00 0
7.00000000000000000e+00 1.00000000000000000e+00 0
7.12500000000000000e+00 1.00000000000000000e+00 0
7.25000000000000000e+00 1.00000000000000000e+00 0
7.37500000000000000e+00 1.00000000000000000e+00 0
7.50000000000000000e+00 1.00000000000000000e+00 0
7.62500000000000000e+00 1.00000000000000000e+00 0
7.75000000000000000e+00 1.00000000000000000e+00 0
7.87500000000000000e+00 1.00000000000000000e+00 0
8.00000000000000000e+00 1.00000000000000000e+00 0
CELLS 512 2560
4 0 1 66 65
4 1 2 67 66
4 2 3 68 67
4 3 4 69 68
4 4 5 70 69
4 5 6 71 70
4 6 7 72 71
4 7 8 73 72
4 8 9 74 73
4 9 10 75 74
4 10 11 76 75
4 11 12 77 76
4 12 13 78 77
4 13 14 79 78
4 14 15 80 79
4 15 16 81 80
4 16 17 82 81
4 17 18 83 82
4 18 19 84 83
4 19 20 85 84
4 20 21 86 85
4 21 22 87 86
4 22 23 88 87
4 23 24 89 88
4 24 25 90 89
4 25 26 91 90
4 26 27 92 91
4 27 28 93 92
4 28 29 94 93
4 29 30 95 94
4 30 31 96 95
4 31 32 97 96
4 32 33 98 97
4 33 34 99 98
4 34 35 100 99
4 35 36 101 100
4 36 37 102 101
4 37 38 103 102
4 38 39 104 103
4 39 40 105 104
4 40 41 106 105
4 41 42 107 106
4 42 43 108 107
4 43 44 109 108
4 44 45 110 109
4 45 46 111 110
4 46 47 112 111
4 47 48 113 112
4 48 49 114 113
4 49 50 115 114
4 50 51 116 115
4 51 52 117 116
4 52 53 118 117
4 53 54 119 118
4 54 55 120 119
4 55 56 121 120
4 56 57 122 121
4 57 58 123 122
4 58 59 124 123
4 59 60 125 124
4 60 61 126 125
4 61 62 127 126
4 62 63 128 127
4 63 64 129 128
4 65 66 131 130
4 66 67 132 131
4 67 68 133 132
4 68 69 134 133
4 69 70 135 134
4 70 71 136 135
4 71 72 137 136
4 72 73 138 137
4 73 74 139 138
4 74 75 140 139
4 75 76 141 140
4 76 77 142 141
4 77 78 143 142
4 78 79 144 143
4 79 80 145 144
4 80 81 146 145
4 81 82 147 146
4 82 83 148 147
4 83 84 149 148
4 84 85 150 149
4 85 86 151 150
4 86 87 152 151
4 87 88 153 152
4 88 89 154 153
4 89 90 155 154
4 90 91 156 155
4 91 92 157 156
4 92 93 158 157
4 93 94 159 158
4 94 95 160 159
4 95 96 161 160
4 96 97 162 161
4 97 98 163 162
4 98 99 164 163
4 99 100 165 164
4 100 101 166 165
4 101 102 167 166
4 102 103 168 167
4 103 104 169 168
4 104 105 170 169
4 105 106 171 170
4 106 107 172 171
4 107 108 173 172
4 108 109 174 173
4 109 110 175 174
4 110 111 176 175
4 111 112 177 176
4 112 113 178 177
4 113 114 179 178
4 114 115 180 179
4 115 116 181 180
4 116 117 182 181
4 117 118 183 182
4 118 119 184 183
4 119 120 185 184
4 120 121 186 185
4 121 122 187 186
4 122 123 188 187
4 123 124 189 188
4 124 125 190 189
4 125 126 191 190
4 126 127 192 191
4 127 128 193 192
4 128 129 194 193
4 130 131 196 195
4 131 132 197 196
4 132 133 198 197
4 133 134 199 198
4 134 135 200 199
4 135 136 201 200
4 136 137 202 201
4 137 138 203 202
4 138 139 204 203
4 139 140 205 204
4 140 141 206 205
4 141 142 207 206
4 142 143 208 207
4 143 144 209 208
4 144 145 210 209
4 145 146 211 210
4 146 147 212 211
4 147 148 213 212
4 148 149 214 213
4 149 150 215 214
4 150 151 216 215
4 151 152 217 216
4 152 153 218 217
4 153 154 219 218
4 154 155 220 219
4 155 156 221 220
4 156 157 222 221
4 157 158 223 222
4 158 159 224 223
4 159 160 225 224
4 160 161 226 225
4 161 162 227 226
4 162 163 228 227
4 163 164 229 228
4 164 165 230 229
4 165 166 231 230
4 166 167 232 231
4 167 168 233 232
4 168 169 234 233
4 169 170 235 234
4 170 171 236 235
4 171 172 237 236
4 172 173 238 237
4 173 174 239 238
4 174 175 240 239
4 175 176 241 240
4 176 177 242 241
4 177 178 243 242
4 178 179 244 243
4 179 180 245 244
4 180 181 246 245
4 181 182 247 246
4 182 183 248 247
4 183 184 249 248
4 184 185 250 249
4 185 186 251 250
4 186 187 252 251
4 187 188 253 252
4 188 189 254 253
4 189 190 255 254
4 190 191 256 255
4 191 192 257 256
4 192 193 258 257
4 193 194 259 258
4 195 196 261 260
4 196 197 262 261
4 197 198 263 262
4 198 199 264 263
4 199 200 265 264
4 200 201 266 265
4 201 202 267 266
4 202 203 268 267
4 203 204 269 268
4 204 205 270 269
4 205 206 271 270
4 206 207 272 271
4 207 208 273 272
4 208 209 274 273
4 209 210 275 274
4 210 211 276 275
4 211 212 277 276
4 212 213 278 277
4 213 214 279 278
4 214 215 280 279
4 215 216 281 280
4 216 217 282 281
4 217 218 283 282
4 218 219 284 283
4 219 220 285 284
4 220 221 286 285
4 221 222 287 286
4 222 223 288 287
4 223 224 289 288
4 224 225 290 289
4 225 226 291 290
4 226 227 292 291
4 227 228 293 292
4 228 229 294 293
4 229 230 295 294
4 230 231 296 295
4 231 232 297 296
4 232 233 298 297
4 233 234 299 298
4 234 235 300 299
4 235 236 301 300
4 236 237 302 301
4 237 238 303 302
4 238 239 304 303
4 239 240 305 304
4 240 241 306 305
4 241 242 307 306
4 242 243 308 307
4 243 244 309 308
4 244 245 310 309
4 245 246 311 310
4 246 247 312 311
4 247 248 313 312
4 248 249 314 313
4 249 250 315 314
4 250 251 316 315
4 251 252 317 316
4 252 253 318 317
4 253 254 319 318
4 254 255 320 319
4 255 256 321 320
4 256 257 322 321
4 257 258 323 322
4 258 259 324 323
4 260 261 326 325
4 261 262 327 326
4 262 263 328 327
4 263 264 329 328
4 264 265 330 329
4 265 266 331 330
4 266 267 332 331
4 267 268 333 332
4 268 269 334 333
4 269 270 335 334
4 270 271 336 335
4 271 272 337 336
4 272 273 338 337
4 273 274 339 338
4 274 275 340 339
4 275 276 341 340
4 276 277 342 341
4 277 278 343 342
4 278 279 344 343
4 279 280 345 344
4 280 281 346 345
4 281 282 347 346
4 282 283 348 347
4 283 284 349 348
4 284 285 350 349
4 285 286 351 350
4 286 287 352 351
4 287 288 353 352
4 288 289 354 353
4 289 290 355 354
4 290 291 356 355
4 291 292 357 356
4 292 293 358 357
4 293 294 359 358
4 294 295 360 359
4 295 296 361 360
4 296 297 362 361
4 297 298 363 362
4 298 299 364 363
4 299 300 365 364
4 300 301 366 365
4 301 302 367 366
4 302 303 368 367
4 303 304 369 368
4 304 305 370 369
4 305 306 371 370
4 306 307 372 371
4 307 308 373 372
4 308 309 374 373
4 309 310 375 374
4 310 311 376 375
4 311 312 377 376
4 312 313 378 377
4 313 314 379 378
4 314 315 380 379
4 315 316 381 380
4 316 317 382 381
4 317 318 383 382
4 318 319 384 383
4 319 320 385 384
4 320 321 386 385
4 321 322 387 386
4 322 323 388 387
4 323 324 389 388
4 325 326 391 390
4 326 327 392 391
4 327 328 393 392
4 328 329 394 393
4 329 330 395 394
4 330 331 396 395
4 331 332 397 396
4 332 333 398 397
4 333 334 399 398
4 334 335 400 399
4 335 336 401 400
4 336 337 402 401
4 337 338 403 402
4 338 339 404 403
4 339 340 405 404
4 340 341 406 405
4 341 342 407 406
4 342 343 408 407
4 343 344 409 408
4 344 345 410 409
4 345 346 411 410
4 346 347 412 411
4 347 348 413 412
4 348 349 414 413
4 349 350 415 414
4 350 351 416 415
4 351 352 417 416
4 352 353 418 417
4 353 354 419 418
4 354 355 420 419
4 355 356 421 420
4 356 357 422 421
4 357 358 423 422
4 358 359 424 423
4 359 360 425 424
4 360 361 426 425
4 361 362 427 426
4 362 363 428 427
4 363 364 429 428
4 364 365 430 429
4 365 366 431 430
4 366 367 432 431
4 367 368 433 432
4 368 369 434 433
4 369 370 435 434
4 370 371 436 435
4 371 372 437 436
4 372 373 438 437
4 373 374 439 438
4 374 375 440 439
4 375 376 441 440
4 376 377 442 441
4 377 378 443 442
4 378 379 444 443
4 379 380 445 444
4 380 381 446 445
4 381 382 447 446
4 382 383 448 447
4 383 384 449 448
4 384 385 450 449
4 385 386 451 450
4 386 387 452 451
4 387 388 453 452
4 388 389 454 453
4 390 391 456 455
4 391 392 457 456
4 392 393 458 457
4 393 394 459 458
4 394 395 460 459
4 395 396 461 460
4 396 397 462 461
4 397 398 463 462
4 398 399 464 463
4 399 400 465 464
4 400 401 466 465
4 401 402 467 466
4 402 403 468 467
4 403 404 469 468
4 404 405 470 469
4 405 406 471 470
4 406 407 472 471
4 407 408 473 472
4 408 409 474 473
4 409 410 475 474
4 410 411 476 475
4 411 412 477 476
4 412 413 478 477
4 413 414 479 478
4 414 415 480 479
4 415 416 481 480
4 416 417 482 481
4 417 418 483 482
4 418 419 484 483
4 419 420 485 484
4 420 421 486 485
4 421 422 487 486
4 422 423 488 487
4 423 424 489 488
4 424 425 490 489
4 425 426 491 490
4 426 427 492 491
4 427 428 493 492
4 428 429 494 493
4 429 430 495 494
4 430 431 496 495
4 431 432 497 496
4 432 433 498 497
4 433 434 499 498
4 434 435 500 499
4 435 436 501 500
4 436 437 502 501
4 437 438 503 502
4 438 439 504 503
4 439 440 505 504
4 440 441 506 505
4 441 442 507 506
4 442 443 508 507
4 443 444 509 508
4 444 445 510 509
4 445 446 511 510
4 446 447 512 511
4 447 448 513 512
4 448 449 514 513
4 449 450 515 514
4 450 451 516 515
4 451 452 517 516
4 452 453 518 517
4 453 454 519 518
4 455 456 521 520
4 456 457 522 521
4 457 458 523 522
4 458 459 524 523
4 459 460 525 524
4 460 461 526 525
4 461 462 527 526
4 462 463 528 527
4 463 464 529 528
4 464 465 530 529
4 465 466 531 530
4 466 467 532 531
4 467 468 533 532
4 468 469 534 533
4 469 470 535 534
4 470 471 536 535
4 471 472 537 536
4 472 473 538 537
4 473 474 539 538
4 474 475 540 539
4 475 476 541 540
4 476 477 542 541
4 477 478 543 542
4 478 479 544 543
4 479 480 545 544
4 480 481 546 545
4 481 482 547 546
4 482 483 548 547
4 483 484 549 548
4 484 485 550 549
4 485 486 551 550
4 486 487 552 551
4 487 488 553 552
4 488 489 554 553
4 489 490 555 554
4 490 491 556 555
4 491 492 557 556
4 492 493 558 557
4 493 494 559 558
4 494 495 560 559
4 495 496 561 560
4 496 497 562 561
4 497 498 563 562
4 498 499 564 563
4 499 500 565 564
4 500 501 566 565
4 501 502 567 566
4 502 503 568 567
4 503 504 569 568
4 504 505 570 569
4 505 506 571 570
4 506 507 572 571
4 507 508 573 572
4 508 509 574 573
4 509 510 575 574
4 510 511 576 575
4 511 512 577 576
4 512 513 578 577
4 513 514 579 578
4 514 515 580 579
4 515 516 581 580
4 516 517 582 581
4 517 518 583 582
4 518 519 584 583
CELL_TYPES 512
9
9
9
9
9
9
9
9
9
9
9
9
9
9
9
9
9
9
9
9
9
9
9
9
9
9
9
9
9
9
9
9
9
9
9
9
9
9
9
9
9
9
9
9
9
9
9
9
9
9
9
9
9
9
9
9
9
9
9
9
9
9
9
9
9
9
9
9
9
9
9
9
9
9
9
9
9
9
9
9
9
9
9
9
9
9
9
9
9
9
9
9
9
9
9
9
9
9
9
9
9
9
9
9
9
9
9
9
9
9
9
9
9
9
9
9
9
9
9
9
9
9
9
9
9
9
9
9
9
9
9
9
9
9
9
9
9
9
9
9
9
9
9
9
9
9
9
9
9
9
9
9
9
9
9
9
9
9
9
9
9
9
9
9
9
9
9
9
9
9
9
9
9
9
9
9
9
9
9
9
9
9
9
9
9
9
9
9
9
9
9
9
9
9
9
9
9
9
9
9
9
9
9
9
9
9
9
9
9
9
9
9
9
9
9
9
9
9
9
9
9
9
9
9
9
9
9
9
9
9
9
9
9
9
9
9
9
9
9
9
9
9
9
9
9
9
9
9
9
9
9
9
9
9
9
9
9
9
9
9
9
9
9
9
9
9
9
9
9
9
9
9
9
9
9
9
9
9
9
9
9
9
9
9
9
9
9
9
9
9
9
9
9
9
9
9
9
9
9
9
9
9
9
9
9
9
9
9
9
9
9
9
9
9
9
9
9
9
9
9
9
9
9
9
9
9
9
9
9
9
9
9
9
9
9
9
9
9
9
9
9
9
9
9
9
9
9
9
9
9
9
9
9
9
9
9
9
9
9
9
9
9
9
9
9
9
9
9
9
9
9
9
9
9
9
9
9
9
9
9
9
9
9
9
9
9
9
9
9
9
9
9
9
9
9
9
9
9
9
9
9
9
9
9
9
9
9
9
9
9
9
9
9
9
9
9
9
9
9
9
9
9
9
9
9
9
9
9
9
9
9
9
9
9
9
9
9
9
9
9
9
9
9
9
9
9
9
9
9
9
9
9
9
9
9
9
9
9
9
9
9
9
9
9
9
9
9
9
9
9
9
9
9
9
9
9
9
9
9
9
9
9
9
9
9
9
9
9
9
9
9
9
9
9
9
9
9
9
9
9
9
9
9
9
9
9
9
9
9
9
9
9
CELL_DATA 512
SCALARS pressure double 1
LOOKUP_TABLE default
1.26091628040309480e+01
9.63866526637118604e+00
1.03788637872431728e+01
8.92871904401376248e+00
9.61817936414240293e+00
8.54839064875234556e+00
9.22577077665362921e+00
8.34900566668673960e+00
8.84187611762063419e+00
8.10707882971334648e+00
8.52647001803647164e+00
7.79994471747980445e+00
8.22676890520334503e+00
7.50978633825386677e+00
7.88065856265459264e+00
7.27862241420636380e+00
7.51268661746039257e+00
7.00259469664250211e+00
7.20701097164875915e+00
6.69111899876842742e+00
6.90376385354153044e+00
6.40704010730671669e+00
6.56257952040632642e+00
6.15966113567372009e+00
6.22081593016233114e+00
5.86183941162400757e+00
5.92761315678366074e+00
5.54657595168225015e+00
5.63072813952981210e+00
5.26049438015369120e+00
5.30146839359457989e+00
4.99740587400161562e+00
4.98103812278194091e+00
4.68545468213441740e+00
4.69770234390969765e+00
4.36410794586476047e+00
4.41245794281217751e+00
4.06813444475298258e+00
4.09663395237456918e+00
3.79431552844843356e+00
3.79035298078943361e+00
3.47552307232627333e+00
3.51606169337134000e+00
3.14511983809065665e+00
3.24728194587309815e+00
2.83134225092671299e+00
2.94710362751147681e+00
2.54989383329982866e+00
2.64857300477193336e+00
2.23268549262685090e+00
2.37969197782390118e+00
1.89137969995278632e+00
2.13058872282554379e+00
1.55504652538948940e+00
1.84417463430813644e+00
1.27672671071528443e+00
1.52825422587131032e+00
9.83901238030228442e-01
1.23374854850445370e+00
6.61607709654727039e-01
9.26400453730104045e-01
3.67437084238607770e-01
4.58282918591496558e-01
2.07249553521025726e-01
1.02763648369334728e+01
9.61729307732458238e+00
9.92098843699845467e+00
9.00482679738234992e+00
9.46806174938074818e+00
8.58693850412052839e+00
9.17126289692394892e+00
8.37615495251534803e+00
8.80352186515361268e+00
8.11275785862494914e+00
8.48596941604179023e+00
7.77580391090801726e+00
8.14498037496586669e+00
7.47651557830107993e+00
7.83451872610541411e+00
7.25526396471458668e+00
7.47438938013789489e+00
6.97835761353703266e+00
7.16651803464332193e+00
6.64037800900724040e+00
6.82267136846524735e+00
6.34282110673950505e+00
6.51030988608231542e+00
6.11649258227289305e+00
6.17264400256985102e+00
5.82491533001909545e+00
5.88377764330146658e+00
5.48181168794233908e+00
5.54973264329376814e+00
5.18100018590799660e+00
5.24297527865838653e+00
4.95025732568245669e+00
4.92580247882481181e+00
4.64673466612489605e+00
4.65416655172244464e+00
4.29685292000327390e+00
4.33473065120529721e+00
3.98813302011366178e+00
4.04119344253756552e+00
3.75268469810407579e+00
3.73969065685143942e+00
3.44171291442453731e+00
3.48060593739155477e+00
3.08365357235521609e+00
3.17953695899089395e+00
2.76113030657712910e+00
2.90705055757154840e+00
2.51812279647186177e+00
2.61638195777820304e+00
2.20345868581756887e+00
2.36464497067666324e+00
1.83425968195798372e+00
2.08349881865095288e+00
1.49180597538990800e+00
1.82796929985911127e+00
1.24573742417866051e+00
1.51759772408806537e+00
9.45199012731561483e-01
1.23110178091893596e+00
5.90824442935847682e-01
8.55456760875846878e-01
2.76789335368618050e-01
4.01442946418237023e-01
2.27302282808998418e-01
1.03968307521655934e+01
9.62842220193268794e+00
1.00115171541872812e+01
9.08249400533519946e+00
9.58022594031691810e+00
8.60883426076535230e+00
9.23127949292331351e+00
8.35118381299134427e+00
8.83111429146223692e+00
8.07458612176605506e+00
8.50741641517325320e+00
7.76741331715840566e+00
8.16707784422880145e+00
7.47996046043942187e+00
7.84484290888154501e+00
7.23354550985051770e+00
7.47307601714365077e+00
6.94977638761343641e+00
7.16767389979257263e+00
6.63947606702150761e+00
6.83565551107135505e+00
6.35567301704203480e+00
6.51551251546608601e+00
6.09951743506199850e+00
6.16320109359778190e+00
5.80077528495836514e+00
5.87808480514544840e+00
5.48346068727224356e+00
5.56038796279790315e+00
5.19802355887467904e+00
5.24853672103802449e+00
4.93517238039154016e+00
4.91376639775231006e+00
4.62451954833982448e+00
4.64532699835145291e+00
4.29998850494087126e+00
4.34328456358806481e+00
4.00668517311911021e+00
4.04636536491674370e+00
3.73955307566433071e+00
3.72714852518293061e+00
3.42047235229336843e+00
3.46991873901576486e+00
3.08925537766437452e+00
3.18424316988144307e+00
2.78144477842345772e+00
2.90840372730542196e+00
2.50924244818343611e+00
2.60609702837466894e+00
2.18615728536429543e+00
2.34984203105478340e+00
1.84809509794840499e+00
2.08484944518371318e+00
1.51885844961290717e+00
1.83069729584894625e+00
1.24659132362664415e+00
1.53123761263759683e+00
9.24012064329777449e-01
1.26089726367302468e+00
5.93233717305700070e-01
9.68589711931011510e-01
2.62477728569109781e-01
6.09986343040452961e-01
1.03536220085893360e-01
9.88412057282436507e+00
9.57548436217425625e+00
9.84904629889810224e+00
9.06861164061586145e+00
9.51639536496662508e+00
8.70799960720711752e+00
9.22241753266154696e+00
8.40290779030374679e+00
8.84404169017938990e+00
8.08737717856775618e+00
8.51664278145283404e+00
7.80535584467709675e+00
8.16277773180082988e+00
7.56328919727098725e+00
7.90074594952207310e+00
7.28859463895361781e+00
7.53312351614538134e+00
6.97325957845057420e+00
7.20375574033435306e+00
6.68801750511382131e+00
6.84588736753721694e+00
6.44376905106450426e+00
6.59084946878492772e+00
6.16805007412818895e+00
6.24534614958290923e+00
5.83727973216858853e+00
5.92723547999780198e+00
5.53757721001194181e+00
5.57880303747192485e+00
5.28473723407389073e+00
5.33092264195623144e+00
5.00830883597210264e+00
5.00323167753253983e+00
4.66526790183831164e+00
4.69795778038427247e+00
4.35267040550775164e+00
4.36585648856142239e+00
4.08625470941604441e+00
4.12775502154570084e+00
3.80457594279133460e+00
3.81221952630301431e+00
3.45454304709648952e+00
3.51646412254219909e+00
3.13476162457337848e+00
3.20567766101716645e+00
2.84863759959199925e+00
2.98202717717106136e+00
2.55347114057070046e+00
2.67458621072073388e+00
2.20023006290728951e+00
2.38705852626513249e+00
1.87426937091127632e+00
2.10305791969476896e+00
1.56434846957124396e+00
1.88793592918536657e+00
1.25287223288781169e+00
1.58088610528656215e+00
8.97035710074807424e-01
1.30247718950202929e+00
5.67698543969500480e-01
1.02216858472369121e+00
2.27764147610581280e-01
7.93095830649519606e-01
-7.32447800712138358e-02
9.94260716158962055e+00
9.61540182746550620e+00
9.90316804871783596e+00
9.11421149442319667e+00
9.60587722950966771e+00
8.68392267621940839e+00
9.27385873492226587e+00
8.36945377498189380e+00
8.94098157271639948e+00
8.11536951846494325e+00
8.64190617075338352e+00
7.89868456820430254e+00
8.21004382034291069e+00
7.58097489686792514e+00
7.92232438939731143e+00
7.29285625366324375e+00
7.61627053205373805e+00
7.04738122611226991e+00
7.32596326077140336e+00
6.82936434622230859e+00
6.90537633738843049e+00
6.49249975825339298e+00
6.62501466499272240e+00
6.19662213023872877e+00
6.33342658176031925e+00
5.93197606177444126e+00
6.05785879445496267e+00
5.70009601405886457e+00
5.65205989243594242e+00
5.34976455790828886e+00
5.37291366051716412e+00
5.04299545959181295e+00
5.09388855295672460e+00
4.76215458893609966e+00
4.83148100262404512e+00
4.51310120793447656e+00
4.44063733872877275e+00
4.15247421946972928e+00
4.16422334415418316e+00
3.83585889821336501e+00
3.89398992891825646e+00
3.54064368061655088e+00
3.64064762754055415e+00
3.27422100954990380e+00
3.26695042354094056e+00
2.90530202131340776e+00
2.99502988053019559e+00
2.57912776477881556e+00
2.73359249686302119e+00
2.26839264017633857e+00
2.48913586499914397e+00
1.98298131124594224e+00
2.13916578865137419e+00
1.60780677230371016e+00
1.87691820727330216e+00
1.26518701848928861e+00
1.63534150550380941e+00
9.33831891772801126e-01
1.41681116064154566e+00
6.22277540399414852e-01
1.15543437071149557e+00
1.79759056317404381e-01
9.79144447784887850e-01
-2.56019781010526137e-01
1.04755557878373100e+01
9.64125090332666623e+00
1.01152073379913503e+01
9.07243395388912965e+00
9.62399712140292962e+00
8.72066166328834136e+00
9.25681928684790023e+00
8.37814357083169803e+00
8.92948242820246207e+00
8.11348222445775313e+00
8.61485475687477020e+00
7.93558454089946341e+00
8.24307505182288480e+00
7.65777268083872276e+00
7.95277496171313825e+00
7.33866073554647347e+00
7.63923530150679220e+00
7.06627139676022331e+00
7.32121917915921028e+00
6.87836370869461255e+00
6.96769460828171283e+00
6.57463658412648666e+00
6.68443810819045048e+00
6.24594739347747385e+00
6.37458662431812773e+00
5.96159735338065477e+00
6.06186936391915321e+00
5.75682901061293517e+00
5.72525429937907759e+00
5.43192485722375196e+00
5.44853358665445242e+00
5.09163179275359479e+00
5.14427505449902256e+00
4.79215993644785865e+00
4.83897838153556226e+00
4.56967322260612363e+00
4.51244068640189333e+00
4.22970703789347269e+00
4.24135612896863634e+00
3.87730593646796695e+00
3.94512914675687298e+00
3.56135304708815870e+00
3.64792198928845712e+00
3.32076495303050612e+00
3.32659181768802092e+00
2.97037893669022157e+00
3.06196710322212384e+00
2.60426902992527731e+00
2.77823126468436898e+00
2.26876859042763579e+00
2.49454118399732439e+00
2.00337262091332047e+00
2.18385670917764552e+00
1.64680381958166988e+00
1.92139065277892396e+00
1.26309731426406069e+00
1.66993873636703105e+00
8.85448598123707797e-01
1.43383303470494194e+00
5.58118577357918477e-01
1.23295675895907086e+00
1.74326012702508776e-01
1.09317610932746390e+00
-3.79693036493521763e-01
1.04691886199786719e+01
9.54511511535703328e+00
1.00894214206007433e+01
9.01712313588475034e+00
9.65621147861578244e+00
8.70986135891698865e+00
9.29508450109718254e+00
8.37359220351788558e+00
8.95947231879146955e+00
8.09173945612380940e+00
8.64200240104223205e+00
7.91880414770678964e+00
8.26343837437695505e+00
7.66384527933967963e+00
7.97414127773620951e+00
7.33079515143893534e+00
7.65090243343204346e+00
7.05476027394170302e+00
7.33248609500454229e+00
6.86550442413889694e+00
6.97682897572305372e+00
6.58756280942958838e+00
6.70075800797835974e+00
6.24488727020478596e+00
6.37983962321009912e+00
5.95806921507293996e+00
6.06700951324497950e+00
5.74627815248253437e+00
5.73019076234356106e+00
5.44908993194921987e+00
5.46132604322248039e+00
5.09385303274066104e+00
5.14623724810051364e+00
4.79178915194252397e+00
4.84170529451736975e+00
4.56147052315874912e+00
4.51603331122212470e+00
4.24854157616686390e+00
4.25069200493587829e+00
3.88012701613307787e+00
3.94395311145493555e+00
3.56119151850716209e+00
3.64924553684943209e+00
3.31763735267391136e+00
3.32917494652258483e+00
2.99146637726053788e+00
3.06636267872758284e+00
2.60861437009917108e+00
2.77342166503749032e+00
2.26899655971419101e+00
2.49405796727932438e+00
2.01192560566303635e+00
2.18475365646711284e+00
1.67848283570034007e+00
1.92595429173004384e+00
1.27157814902894928e+00
1.67688657032256772e+00
8.80816712584710060e-01
1.46681467383192810e+00
5.61596949599233897e-01
1.29189384516040029e+00
1.85492168037311972e-01
1.16989276880607784e+00
-4.11910368322367715e-01
1.32104092947975733e+01
9.62364583081065206e+00
1.03709956217767445e+01
8.86278893438962534e+00
9.58511908639933807e+00
8.63638150741467747e+00
9.20056798902642292e+00
8.36920755394068827e+00
8.90504720234501157e+00
8.08951809722112891e+00
8.59524035328695568e+00
7.87196486330954937e+00
8.22732800412242149e+00
7.62819595885707891e+00
7.89873083149154009e+00
7.32079487237529580e+00
7.59478341700994175e+00
7.02882659592909498e+00
7.28467578543157046e+00
6.79788124858737941e+00
6.93970702063519607e+00
6.52977952415153418e+00
6.62029852613074610e+00
6.20811700033955116e+00
6.31636246881073138e+00
5.91246936858804784e+00
6.01385856087561788e+00
5.67132064914138034e+00
5.68729773100245062e+00
5.38265287220759792e+00
5.37799390988218295e+00
5.04725110131213661e+00
5.08047277098125694e+00
4.74126684141301258e+00
4.78744653114628260e+00
4.48635967939283642e+00
4.47280000665191935e+00
4.18346908805806983e+00
4.17221392369289124e+00
3.83866940202557849e+00
3.88610945187624512e+00
3.51737200979486309e+00
3.60324782238373409e+00
3.24456481488657555e+00
3.29619052317390748e+00
2.93274947268079966e+00
3.00344588183936967e+00
2.58110848590809949e+00
2.73628455075806309e+00
2.23623752857308888e+00
2.46871563030907692e+00
1.93899470738510082e+00
2.17218192724671022e+00
1.62160441095561336e+00
1.88863220338731619e+00
1.25303527862162545e+00
1.66807709396710657e+00
8.47204568986728135e-01
1.46685223162732425e+00
4.72615794003970857e-01
1.28101518202832554e+00
1.04515617005295353e-01
1.14449067886889355e+00
-3.95237639101574945e-01
VECTORS velocity double
8.37425400730930747e-01 1.60472723223264446e-01 0
7.59445266339745961e-01 1.07566906651323374e-01 0
5.77176702344733839e-01 9.82255739816465107e-02 0
4.83347530225129718e-01 4.98002153914203702e-02 0
3.67427735154444490e-01 2.99165836653362792e-02 0
3.22702948735763051e-01 9.37778107627206328e-03 0
3.04542571636787496e-01 3.63696985093486368e-03 0
3.36534218748423097e-01 -2.71726420156000181e-03 0
3.70282065855911224e-01 -2.43840660542020518e-04 0
3.97564169712469440e-01 -1.15701191087644577e-03 0
3.93722772930948373e-01 -8.98821547145100879e-04 0
3.75276130232739646e-01 2.58443535710879300e-03 0
3.30929667980434938e-01 1.94407422644966767e-03 0
3.08283241557336662e-01 1.66900881914769784e-03 0
3.03058896707673719e-01 -8.58855120896565510e-07 0
3.35273972030421641e-01 -2.85636913894571440e-03 0
3.70962513011610706e-01 -7.26485550744484869e-04 0
3.97597309200620308e-01 -1.42144238142192657e-03 0
3.95319342207320512e-01 -1.37098090261271260e-03 0
3.75342479395575301e-01 2.18153766780523634e-03 0
3.32668299040372539e-01 1.72077415190437081e-03 0
3.07546760975335398e-01 1.92240942862489266e-03 0
3.02976587040779066e-01 2.33011514606869577e-04 0
3.33450346059403935e-01 -2.30283162875070209e-03 0
3.70690173513989418e-01 -7.61265431522384784e-04 0
3.96183227785808723e-01 -1.57581995775116245e-03 0
3.95670689172587409e-01 -1.48157363667935889e-03 0
3.74004759638958850e-01 1.73260362279350133e-03 0
3.33368675195136022e-01 1.69761965542745063e-03 0
3.06206980926284233e-01 1.98753806847721745e-03 0
3.02905242565012944e-01 3.36718973960377799e-04 0
3.31726086237259188e-01 -2.00345580488510379e-03 0
3.70624025070096008e-01 -7.26504699946992939e-04 0
3.94641867628055365e-01 -1.64262173996403398e-03 0
3.95820354086551252e-01 -1.47714501141100996e-03 0
3.72407162344013110e-01 1.59742699886824342e-03 0
3.33629413439005540e-01 1.66097386842622703e-03 0
3.04785649382632806e-01 2.03272288788369391e-03 0
3.03029903997610928e-01 3.07129211037002713e-04 0
3.30351505125298650e-01 -2.12797127681615440e-03 0
3.70865226745854926e-01 -6.57463998299581188e-04 0
3.93183898013176325e-01 -1.64483894789041072e-03 0
3.95874380094491607e-01 -1.37425697435133954e-03 0
3.70653115938395950e-01 1.80337168856764345e-03 0
3.33617595622832219e-01 1.63532637599270712e-03 0
3.03262846084747184e-01 2.01097425964750359e-03 0
3.03714979395684648e-01 2.23416015407666588e-04 0
3.29312934708075211e-01 -2.57021408616192560e-03 0
3.71643466025181279e-01 -5.72091226980004502e-04 0
3.92205173905467219e-01 -1.41445487788649407e-03 0
3.96094428926382136e-01 -1.17809398164645776e-03 0
3.69145750598178446e-01 2.35561455906688677e-03 0
3.33628271728867609e-01 1.80332350542665963e-03 0
3.02708249551321806e-01 2.08396006297888528e-03 0
3.05169083362623272e-01 7.59106326145041671e-05 0
3.31692188745423500e-01 -2.49640618976096698e-03 0
3.73916184274171615e-01 -9.25853754465750427e-04 0
3.98783388016159479e-01 -5.23490978190731693e-04 0
3.99949376658887190e-01 -1.32604001523349384e-03 0
3.82848815525337727e-01 1.95193822418983256e-03 0
3.42436009374264938e-01 1.20435234635344669e-03 0
3.38423780489181980e-01 3.63432936427307996e-04 0
3.28575322698440031e-01 -8.41005182084425713e-03 0
4.28293593611003109e-01 -8.52653347894751119e-03 0
1.03789708283392490e+00 2.67435411366094611e-01 0
1.05593855266112135e+00 1.98319782782266391e-01 0
1.05537700769977416e+00 1.87862555576249035e-01 0
9.95202398617015982e-01 1.07755579783914715e-01 0
8.96712200100327039e-01 6.16541262367124795e-02 0
8.19044022134295169e-01 1.94410838416157888e-02 0
8.16088778677552362e-01 4.18020286802259829e-03 0
8.73781535253829955e-01 -1.81878431175822594e-03 0
9.44680680520361804e-01 -1.05588875673926007e-03 0
9.99194758162787688e-01 2.30487451877973417e-03 0
9.87178761777496971e-01 -2.60541650375323514e-04 0
9.42455314141878109e-01 1.40800329429964770e-03 0
8.60219435770672392e-01 3.47724637242437587e-03 0
8.04705447158885145e-01 -3.48616962604082813e-04 0
8.11323441261326495e-01 -2.43562955594912043e-03 0
8.72624996572610723e-01 -1.91125570965519046e-03 0
9.44839042660144290e-01 -4.86704936656484383e-04 0
9.99382882575671205e-01 1.97097248575129691e-03 0
9.88582287283835903e-01 3.86792659454227275e-05 0
9.42618310000651438e-01 1.18072984951503551e-03 0
8.61916512155818437e-01 3.08365026488791006e-03 0
8.05106132494863069e-01 4.14437930378569030e-04 0
8.11718316958771280e-01 -1.61150922700902346e-03 0
8.71951751074673265e-01 -1.26691675691318413e-03 0
9.45129635570872040e-01 2.06453378097597580e-04 0
9.97779815144512860e-01 1.71026722847291844e-03 0
9.89100205629991902e-01 -2.10639713708438907e-04 0
9.41209485232333720e-01 9.08611429870143312e-04 0
8.62447800250904506e-01 2.42874875233501991e-03 0
8.04499863198804288e-01 6.84214673806006371e-04 0
8.11629848958638545e-01 -1.19720866703716656e-03 0
8.70741878412484849e-01 -1.18761106990823598e-03 0
9.45431510466911318e-01 4.80751780848538029e-04 0
9.96357865313786117e-01 1.61885331410969112e-03 0
9.89654312226444621e-01 -2.70498342247118759e-04 0
9.39944000456055639e-01 9.20614057682098076e-04 0
8.62968132965594048e-01 2.21862473193180053e-03 0
8.03289741866497597e-01 8.30341330578344711e-04 0
8.11684936760558307e-01 -1.26578855473544606e-03 0
8.69369808997658589e-01 -1.53467837760760928e-03 0
9.45843164266645164e-01 3.48939970588314514e-04 0
9.95524607370355419e-01 1.74741983668744009e-03 0
9.90332173281425310e-01 -4.78998330785371730e-06 0
9.38957198504765223e-01 1.22307776010488500e-03 0
8.63675326979067681e-01 2.42483462736180775e-03 0
8.01564275964773199e-01 7.83759009105124181e-04 0
8.12343785302225396e-01 -1.74711740825324010e-03 0
8.68020158645453233e-01 -2.23307804578244673e-03 0
9.46906795389848011e-01 -4.99941684149294132e-04 0
9.95566032718294136e-01 1.95851833606906778e-03 0
9.91740784811863785e-01 3.39700201125620082e-04 0
9.39010856949712203e-01 1.54531221539928073e-03 0
8.65404336854131095e-01 2.14909181813727809e-03 0
8.02095713299755153e-01 1.31232340636232796e-04 0
8.15469279038286032e-01 -3.92626558635420387e-03 0
8.72585031676219813e-01 -3.97727040916239297e-03 0
9.53705803021991594e-01 -5.64636117058103966e-03 0
1.00836607230518949e+00 -5.34236012013816698e-04 0
1.00486504133220289e+00 -8.51870995409787987e-03 0
9.66990068067354880e-01 -5.24514933431980204e-03 0
8.91098718920323107e-01 -1.82453291146650251e-02 0
8.71975282215366354e-01 -1.30062001440098551e-02 0
8.72625351655302195e-01 -4.88747889237004518e-02 0
1.02274115857647740e+00 -1.75951797708052346e-02 0
1.07769034180650003e+00 9.84909280655748010e-02 0
1.15342686807455652e+00 1.11712444021091706e-01 0
1.25082059788928235e+00 1.25690081397712400e-01 0
1.28260737285442494e+00 9.61728357705186609e-02 0
1.25116401048267689e+00 6.50785471563012780e-02 0
1.19728603481538420e+00 2.44831540221189282e-02 0
1.19444499073542909e+00 6.74956836434991402e-03 0
1.24774253385256673e+00 5.88381099180958472e-03 0
1.30895165448671613e+00 3.48533241085847425e-03 0
1.35400555520376420e+00 8.86767015288087226e-03 0
1.34793046437566866e+00 4.73500675678691346e-03 0
1.31513241852675855e+00 1.36894079714863536e-05 0
1.24368042422616143e+00 1.35728201433281035e-03 0
1.18689967825255205e+00 -7.94336178576002076e-03 0
1.19049112593722350e+00 -7.84605323629723565e-03 0
1.24634577216208720e+00 7.15187172397135028e-04 0
1.30925176319787684e+00 6.37031921676427270e-04 0
1.35327569997347275e+00 6.99767613339827114e-03 0
1.34880767029954352e+00 4.73590706418078582e-03 0
1.31430801386234863e+00 9.24161951872902172e-04 0
1.24403464213489245e+00 2.48674981028401904e-03 0
1.18663163703651597e+00 -6.14895344370312586e-03 0
1.19175332634355668e+00 -7.45116019563120315e-03 0
1.24643793094970157e+00 4.43595286336345392e-04 0
1.31024140201406292e+00 7.71250943125387917e-04 0
1.35249750350124343e+00 6.21586851232060027e-03 0
1.34946384922492646e+00 4.71934812469507366e-03 0
1.31307236643536873e+00 1.42744343741894116e-03 0
1.24401395077048726e+00 2.66962836320845708e-03 0
1.18555693011709451e+00 -5.19445295645104381e-03 0
1.19242712545574170e+00 -7.24054829674516433e-03 0
1.24589472077563301e+00 -1.10678646247173152e-04 0
1.31100090398132263e+00 8.79390595973951255e-04 0
1.35179095951494999e+00 5.79985651538361680e-03 0
1.35009082953068682e+00 4.66655355999667440e-03 0
1.31227028714330829e+00 1.43555707041199878e-03 0
1.24455359546145461e+00 2.49610574714863569e-03 0
1.18450460415397218e+00 -4.81077056228252677e-03 0
1.19280784374270210e+00 -7.17152669524433444e-03 0
1.24494304426957769e+00 -2.92332077981861331e-04 0
1.31171162844409772e+00 9.85647557454162127e-04 0
1.35122187134838589e+00 5.91939487423670183e-03 0
1.35076937710482836e+00 4.74233895537075258e-03 0
1.31186642560510824e+00 8.59304380175930096e-04 0
1.24577236507403866e+00 1.96384469965616608e-03 0
1.18356262080879393e+00 -5.21480316204607063e-03 0
1.19326257890469534e+00 -7.21490549831528896e-03 0
1.24361559516893405e+00 -2.32284917882662456e-04 0
1.31313805410016737e+00 7.43681754577283304e-04 0
1.35056560004773751e+00 6.44220400074378523e-03 0
1.35193874936601000e+00 4.42924328022678906e-03 0
1.31193219196959565e+00 -2.83559965511855539e-04 0
1.24807167106437444e+00 -2.47333385988289371e-04 0
1.18428993050826636e+00 -6.95900987071970158e-03 0
1.19581356518329174e+00 -1.03572120888480845e-02 0
1.24591810609292564e+00 -2.93914798009923357e-03 0
1.31835947951322874e+00 -7.87726841316118732e-03 0
1.35801548536074845e+00 1.59605570016397907e-04 0
1.36067666313951796e+00 -1.37290103814260694e-02 0
1.33202730551293302e+00 -1.65255570785739908e-02 0
1.27316039713075235e+00 -4.40646358171684835e-02 0
1.24019274110239230e+00 -3.91631987673694421e-02 0
1.25256703173520245e+00 -9.18285324658373453e-02 0
1.34816457277313573e+00 -1.78160097473239951e-02 0
1.05748688458416495e+00 4.17902653614539502e-02 0
1.11720411341158110e+00 2.25461493137421899e-02 0
1.25253594195159224e+00 3.88734692870021728e-02 0
1.34257148738830856e+00 3.77448519686207073e-02 0
1.39854883721261092e+00 3.84695279152729372e-02 0
1.40068533049694555e+00 2.15981962884801634e-02 0
1.40865372143850842e+00 1.31486167896365143e-02 0
1.44238764876953574e+00 1.22309889338079441e-02 0
1.47309686151196195e+00 3.90957264331047872e-03 0
1.48380595361056633e+00 4.55061095922185480e-03 0
1.48598073232305072e+00 -2.46710100205138269e-03 0
1.48423118388755926e+00 -8.75270328140617497e-03 0
1.45654300958142047e+00 -1.95195610179008951e-03 0
1.42599625087395565e+00 -6.34076474920369521e-03 0
1.41814878770495878e+00 -2.92329139597462999e-03 0
1.44673499537464423e+00 7.20681738816142219e-03 0
1.47458103463419010e+00 2.52620123373726701e-03 0
1.48346569869229383e+00 2.68366130960246514e-03 0
1.48732492446210274e+00 -1.94678602576029455e-03 0
1.48411524414076812e+00 -7.59965532811832101e-03 0
1.45689240478895554e+00 -1.31170117530334668e-03 0
1.42429564536760056e+00 -4.99682373864600814e-03 0
1.41935485540851603e+00 -2.89033168890247966e-03 0
1.44566667885994238e+00 6.70840935917615434e-03 0
1.47512093044956361e+00 3.29474531900816403e-03 0
1.48311322536337054e+00 2.42117201270919966e-03 0
1.48839240881825141e+00 -1.72010329421556007e-03 0
1.48381674668004049e+00 -6.84907841156427548e-03 0
1.45731193810684645e+00 -1.37081062019173941e-03 0
1.42248829890098305e+00 -4.80413727196455677e-03 0
1.42036551117869791e+00 -2.90946034066308628e-03 0
1.44464089162491072e+00 6.14990714338521562e-03 0
1.47579241240278725e+00 3.52804140131223474e-03 0
1.48258201773470955e+00 2.42127790922904004e-03 0
1.48887218681205091e+00 -1.72308195527296295e-03 0
1.48310361253212752e+00 -6.74070239844064365e-03 0
1.45783068727972731e+00 -1.50459525331626169e-03 0
1.42143551712687732e+00 -4.81567773062050678e-03 0
1.42133614056271695e+00 -2.73213067690330049e-03 0
1.44410457127246317e+00 6.03661478446285236e-03 0
1.47689106465378672e+00 3.58348050751705009e-03 0
1.48165249842684665e+00 2.82418361772431101e-03 0
1.48897039012308419e+00 -1.70847324343687424e-03 0
1.48186888352849855e+00 -7.22834566272114332e-03 0
1.45864707777526492e+00 -1.87372378808606938e-03 0
1.42109524507145313e+00 -5.18948473405771160e-03 0
1.42230090197653936e+00 -2.36775495077319424e-03 0
1.44410665828132134e+00 5.99420508989187677e-03 0
1.47858821381498529e+00 3.28245647346232404e-03 0
1.48035394145274912e+00 3.74032820728993284e-03 0
1.48883627040152078e+00 -2.34056079956376957e-03 0
1.48013363671062992e+00 -8.20225108818833405e-03 0
1.45987927509018034e+00 -4.26283114676276071e-03 0
1.42185489086081018e+00 -7.20515101913713710e-03 0
1.42502814072270478e+00 -5.12622054618446909e-03 0
1.44549287636255630e+00 3.00911624604507022e-03 0
1.48177022598929065e+00 -6.56945149818574051e-03 0
1.48015708822487579e+00 -2.72961232052039947e-03 0
1.48782945295293634e+00 -2.37657983076771800e-02 0
1.48310770832208028e+00 -2.63695188606028821e-02 0
1.46829308770389533e+00 -5.63268341121107852e-02 0
1.44338184248112156e+00 -4.59306514673166952e-02 0
1.45234999756687633e+00 -9.60996703075854553e-02 0
1.46341456654613267e+00 -1.40891357267757672e-02 0
1.06372917249870080e+00 -7.83601635098763183e-02 0
1.11818762007778605e+00 -8.85213304874330476e-02 0
1.23425486297276765e+00 -9.91144500206557338e-02 0
1.31798935658654437e+00 -5.89717262762660885e-02 0
1.39668729709587236e+00 -2.84872263531874351e-02 0
1.44745051853914575e+00 -1.00187231136497166e-02 0
1.46507577671565481e+00 -2.31593096587878917e-03 0
1.47754532665919758e+00 5.13575405516941523e-03 0
1.45684869326325672e+00 1.31632602770126840e-03 0
1.42365205772818570e+00 4.35997678923798985e-03 0
1.42120417915486263e+00 8.00038571657450313e-04 0
1.45102724132094196e+00 -5.31469567273190526e-03 0
1.47382317344713432e+00 -3.46349448547683203e-03 0
1.48873750418114792e+00 -4.88009395104771829e-03 0
1.48272452689812817e+00 4.69021326566545000e-05 0
1.48165700463716510e+00 6.53534478530105618e-03 0
1.45760006894654226e+00 4.20220629270689604e-03 0
1.42159365236438373e+00 3.15727644361232102e-03 0
1.42044475522104041e+00 1.29213826652425706e-03 0
1.44939295571749249e+00 -3.99674265061411484e-03 0
1.47467293299912638e+00 -2.58150821934118990e-03 0
1.48764541304074260e+00 -3.85905766782002708e-03 0
1.48437558501844813e+00 -6.07318200121131501e-04 0
1.48006735365558817e+00 6.33712080304702462e-03 0
1.45755585256515530e+00 4.56002067345605191e-03 0
1.42060112177573905e+00 2.86393637301564493e-03 0
1.42067610362288210e+00 1.45488568039683929e-03 0
1.44864850731579620e+00 -3.38769651620576297e-03 0
1.47616179957263038e+00 -1.99092747508841563e-03 0
1.48655814041561540e+00 -3.64448767995882066e-03 0
1.48556111245287292e+00 -1.08675293445088740e-03 0
1.47917303496080499e+00 5.98498674638963269e-03 0
1.45808712777481908e+00 4.36366456488878219e-03 0
1.42002880504849216e+00 2.94770152908689111e-03 0
1.42118790204489320e+00 1.55645250846279969e-03 0
1.44797159047365342e+00 -3.45616293785791246e-03 0
1.47693610883914106e+00 -1.90293581751227502e-03 0
1.48551441764769687e+00 -3.82960237401056914e-03 0
1.48619364564271472e+00 -1.18301053871986794e-03 0
1.47861842994974935e+00 5.85851910239954584e-03 0
1.45896871737204870e+00 4.30110839224468692e-03 0
1.41937081263752773e+00 3.57387914164185999e-03 0
1.42221948502422646e+00 1.67255638762703459e-03 0
1.44713386477470540e+00 -3.97471526720217898e-03 0
1.47731435674718869e+00 -2.40863985886415099e-03 0
1.48416542914693150e+00 -4.35190617729860115e-03 0
1.48644688378030754e+00 -9.05492684101085821e-04 0
1.47816837492110964e+00 5.70229952197627912e-03 0
1.46007463133399318e+00 3.86055133743273783e-03 0
1.41838374868092054e+00 4.93800346414494194e-03 0
1.42346821842227378e+00 1.03804665847594970e-03 0
1.44573769189237988e+00 -4.76866984154445620e-03 0
1.47756449060750894e+00 -4.93295947975769949e-03 0
1.48180129780432934e+00 -6.55301351332593894e-03 0
1.48667039622617758e+00 -3.15069456186188156e-03 0
1.47612500055010076e+00 2.98248103072495290e-03 0
1.45949672922710327e+00 -5.10982911228204887e-03 0
1.41172332644066434e+00 1.65566305341219712e-03 0
1.41785948849443111e+00 -1.91401917429590111e-02 0
1.43383015687757598e+00 -1.84384036652347205e-02 0
1.47016721740133316e+00 -5.49275029461120182e-02 0
1.46243840292667482e+00 -4.64513863218262921e-02 0
1.48037292549856647e+00 -8.51922371278808210e-02 0
1.41414369255126338e+00 -1.40153561153521893e-02 0
1.07708820985616116e+00 -1.36910363576245447e-01 0
1.13151063861297341e+00 -1.43161566748554042e-01 0
1.18403069817572848e+00 -1.53329113812130685e-01 0
1.23551447558308070e+00 -1.03878978254341295e-01 0
1.29194357483153932e+00 -7.20544771856298505e-02 0
1.34573595634465004e+00 -4.70473692772677143e-02 0
1.34565366597843039e+00 -2.70610038249041417e-02 0
1.31790745465376991e+00 -1.25850700467861325e-02 0
1.24568868784858577e+00 -3.67180380879062514e-03 0
1.18702673321846874e+00 5.72705988673248307e-03 0
1.18794894284474162e+00 7.48685113457941715e-03 0
1.24617100729561581e+00 4.75632440157970193e-03 0
1.30862595813031057e+00 -1.66221763936009364e-03 0
1.35510556199002496e+00 -9.37756098813087580e-03 0
1.34957035693545602e+00 -7.06222795510302176e-03 0
1.31589026432409661e+00 -3.20832606890145882e-03 0
1.24513545829146133e+00 7.11718276527221767e-04 0
1.18582774460180262e+00 5.71625995775979726e-03 0
1.18706898774943381e+00 8.57109083520526775e-03 0
1.24402831211208453e+00 6.30202574376313891e-03 0
1.30842059524530185e+00 -5.43733555007180533e-04 0
1.35410626955777502e+00 -8.23104572085507635e-03 0
1.35031204930438475e+00 -7.68229685313362790e-03 0
1.31484101692653188e+00 -3.47448921843232028e-03 0
1.24614014625667102e+00 5.96374480854899402e-04 0
1.18560188447757331e+00 5.13800809097366903e-03 0
1.18771596177746730e+00 8.94902758852504469e-03 0
1.24288847000406721e+00 6.66013080498295204e-03 0
1.30908469251262094e+00 4.05531781697059991e-04 0
1.35352829731177615e+00 -7.24637909476411740e-03 0
1.35134848009658470e+00 -8.14909631844542605e-03 0
1.31427795302866413e+00 -3.76249077661013325e-03 0
1.24723466400106608e+00 3.14196134956079825e-04 0
1.18515601171134533e+00 4.92576106654444776e-03 0
1.18874455589282713e+00 9.07782540948171186e-03 0
1.24234877284675993e+00 6.39783076806340559e-03 0
1.30983028162157344e+00 5.86571342980728703e-04 0
1.35299623686140746e+00 -7.13378783030674517e-03 0
1.35196162907482642e+00 -8.14832984313081272e-03 0
1.31353826072852620e+00 -3.62049059927774600e-03 0
1.24786122246471320e+00 3.06764193538196326e-04 0
1.18420233868586089e+00 5.19961740005796952e-03 0
1.19008322129382016e+00 8.90413697392402129e-03 0
1.24219944707731478e+00 5.65996125218545896e-03 0
1.31075323808583821e+00 3.48231211658602517e-05 0
1.35234251666880212e+00 -7.85978117144619896e-03 0
1.35229791002546018e+00 -7.71544124707625612e-03 0
1.31250865867696476e+00 -3.10420324247504334e-03 0
1.24806059922007040e+00 2.68708941131971552e-04 0
1.18241974941890438e+00 6.20181363475664528e-03 0
1.19186522292682917e+00 7.66775565420352908e-03 0
1.24146058647556057e+00 4.43315708864465419e-03 0
1.31233979837260351e+00 -1.98340348766546650e-03 0
1.34934835012898380e+00 -9.63620942180823566e-03 0
1.35200085302658390e+00 -9.14061400583826913e-03 0
1.30795066373774427e+00 -3.77521970904067363e-03 0
1.24544525299612108e+00 -5.48272619913302978e-03 0
1.17139874368391839e+00 5.00118536956110134e-03 0
1.18592075138623088e+00 -8.73150952051201384e-03 0
1.21960930106356114e+00 -4.25096694068620613e-03 0
1.29942831354939381e+00 -3.84188726652837306e-02 0
1.29685779330935036e+00 -3.96573522963405214e-02 0
1.31375573601939322e+00 -6.23847964849833445e-02 0
1.19338558886892465e+00 -1.85408143759817241e-02 0
1.01809851278094654e+00 -3.00269009373842932e-01 0
9.81507272560985800e-01 -2.01742606834237531e-01 0
9.36202302687173415e-01 -1.73198492143222110e-01 0
9.49740813007035278e-01 -8.97838287116211331e-02 0
9.84219280244504557e-01 -5.76481586948809355e-02 0
1.01983149431337417e+00 -3.13158571507486244e-02 0
9.99596382008312911e-01 -1.66339377009852886e-02 0
9.47895525693773777e-01 -9.75800646460101007e-03 0
8.58864551950054622e-01 -5.23594461581951883e-03 0
8.07639642691646342e-01 8.29772834959318777e-06 0
8.05821206149465508e-01 3.13686856490133633e-03 0
8.73758342767942064e-01 6.15033270979104246e-03 0
9.45407408867604993e-01 5.82086026256272652e-04 0
9.97614464714127291e-01 -3.31700034977402925e-03 0
9.88670884889056301e-01 -3.33569053311070758e-03 0
9.39973478304148791e-01 -4.73554180820608388e-03 0
8.57077801510991111e-01 -2.45645302626297567e-03 0
8.05320785391115956e-01 -3.24714642484490016e-04 0
8.05822310940643272e-01 3.78155584299146551e-03 0
8.72437345673191644e-01 6.36064601239933261e-03 0
9.45308048154812730e-01 6.75767194660614420e-04 0
9.96335888174642692e-01 -3.02730326370720349e-03 0
9.89107169593185676e-01 -4.05381185285457434e-03 0
9.38683171253986703e-01 -4.82109394244537460e-03 0
8.58694760954914704e-01 -2.01945161635581037e-03 0
8.04554526457545327e-01 -1.95909785311917326e-04 0
8.07518396103239278e-01 4.13916128129753012e-03 0
8.71805709229740100e-01 6.39366002715426474e-03 0
9.46007774513708100e-01 8.25388740678699830e-04 0
9.96058741825671778e-01 -2.99864802814897276e-03 0
9.90261580767803462e-01 -4.31282565100774874e-03 0
9.38181654088045769e-01 -4.93171093882666806e-03 0
8.60333327998383246e-01 -1.96100948889719887e-03 0
8.03926500467008753e-01 -1.05577486444915580e-04 0
8.09190720259613472e-01 4.17927584726358967e-03 0
8.71434709656157214e-01 6.39441380735264724e-03 0
9.47144219743532245e-01 8.52875832442462193e-04 0
9.95991078657994300e-01 -3.11577312127428062e-03 0
9.91444766118390719e-01 -4.15278447058148314e-03 0
9.37932092628609992e-01 -4.91437856462311525e-03 0
8.61481002433330256e-01 -2.11407848724080513e-03 0
8.03244427061029498e-01 -1.13094578906421185e-04 0
8.10571576680773620e-01 3.93873299689352207e-03 0
8.71025251328150119e-01 6.45190520417366319e-03 0
9.48639626516029177e-01 7.23849308463548908e-04 0
9.95793541229788359e-01 -3.37681965139122620e-03 0
9.92576070076026995e-01 -3.63291883731807963e-03 0
9.37558044775918864e-01 -4.84859187478742931e-03 0
8.62222766934014673e-01 -2.62389448906333572e-03 0
8.01965203347094646e-01 -2.70451190153757299e-05 0
8.12012006196404124e-01 3.00854277747705052e-03 0
8.69093927853438752e-01 6.28924298174884239e-03 0
9.50241222306881905e-01 3.02590738484484652e-04 0
9.93178020998322975e-01 -3.84028539027742510e-03 0
9.92359591457869783e-01 -4.34080957343140929e-03 0
9.32805519687282425e-01 -5.38547177210173516e-03 0
8.60474119710500696e-01 -6.27155269955725816e-03 0
7.90151480866470690e-01 -2.98295451246424595e-05 0
8.08024500869613527e-01 -6.86057826886834598e-03 0
8.39958727833942653e-01 3.45164534585973033e-03 0
9.37213663418913323e-01 -1.58550832398724299e-02 0
9.31072987277815067e-01 -1.38851832289324170e-02 0
9.51273914358313433e-01 -2.66161959489315918e-02 0
8.22043892830350398e-01 -1.81673609132422774e-02 0
8.12225972088986059e-01 -1.77164070324569323e-01 0
6.81669212692563864e-01 -9.63304231897794405e-02 0
4.57532957903638404e-01 -8.00877378202640433e-02 0
4.18943462483830631e-01 -2.95272863729094705e-02 0
3.99045556600074514e-01 -1.62708427166654464e-02 0
4.11775138294969645e-01 -4.88542696705909947e-03 0
3.94282972376984509e-01 -1.04975219569186065e-03 0
3.72570542497962065e-01 -2.83657736231268534e-04 0
3.24085363588078545e-01 -1.84621611848808211e-03 0
3.04658954772636548e-01 6.95414486004551375e-04 0
3.00155197464303358e-01 2.07012689345899325e-03 0
3.36784557517983085e-01 2.12145062006908634e-03 0
3.71485408678820128e-01 1.12357096281886300e-03 0
3.97863528012375400e-01 -4.20543385366478097e-04 0
3.92807952042409314e-01 -1.14052098560067482e-04 0
3.69837509890377780e-01 -8.82216775008226226e-04 0
3.25847517402817199e-01 -1.95911671791182667e-03 0
3.03531575364645145e-01 8.85461269359872635e-05 0
3.01236552830653870e-01 2.01994378761800701e-03 0
3.37327722345542536e-01 1.70272286215443817e-03 0
3.73071985444567267e-01 2.58953710585530167e-04 0
3.98229030690847863e-01 -8.56605269381228778e-04 0
3.94607345482818450e-01 -5.24341471032538928e-04 0
3.68849845448376679e-01 -8.37601649464485005e-04 0
3.27091017506988047e-01 -1.22912616355000826e-03 0
3.02536567005626700e-01 2.75114343621010900e-04 0
3.02573110112804522e-01 2.14755592544679406e-03 0
3.37530783178871363e-01 1.72466287881894477e-03 0
3.74747429333276427e-01 -1.61184108191780276e-04 0
3.98545440201381329e-01 -1.02601976544116160e-03 0
3.96373251059966014e-01 -6.76765987424231860e-04 0
3.68569944706221508e-01 -9.89659499181554754e-04 0
3.28569210678141432e-01 -9.24055208483454365e-04 0
3.02229487310187284e-01 2.97719778062397334e-04 0
3.04034544246537974e-01 2.12661829200642841e-03 0
3.37494527645190390e-01 1.86355331954803560e-03 0
3.76211608700814049e-01 -1.70932306563911730e-04 0
3.98483529925404700e-01 -9.78482342760370136e-04 0
3.97670040956487725e-01 -6.50739143654144358e-04 0
3.68663347566314414e-01 -1.18412256544485144e-03 0
3.30176466626031007e-01 -1.17155184324848108e-03 0
3.02302281563589847e-01 6.26273593481407436e-05 0
3.05649384189820794e-01 1.99294470623791534e-03 0
3.36927123294440301e-01 2.09571567638032518e-03 0
3.77559719780507730e-01 2.17124614925973385e-04 0
3.97693068505045877e-01 -7.44376808698287849e-04 0
3.98614888371487175e-01 -4.36187373377340862e-04 0
3.68720970888354316e-01 -1.41892297219442824e-03 0
3.32020536822459855e-01 -1.80307177676893634e-03 0
3.02191004873610836e-01 -2.97254493737663761e-04 0
3.07618828342309580e-01 1.63979347932574604e-03 0
3.34663542352014676e-01 2.56648205278500654e-03 0
3.78764892511810614e-01 9.62033890485550799e-04 0
3.95261758978561195e-01 -3.16389491435886054e-05 0
3.99491169274479585e-01 -1.11658213034456606e-04 0
3.66214832770727416e-01 -1.66777094426846838e-03 0
3.33960817198168392e-01 -2.53573595588284717e-03 0
2.96034209478557075e-01 -4.84926965029577786e-04 0
3.09649666165432658e-01 -1.08351559505268877e-04 0
3.13871756490693987e-01 2.79166979591289558e-03 0
3.74483394915056667e-01 5.36160185142384865e-04 0
3.58755259742418786e-01 -9.67080397010925481e-04 0
3.83345489614881296e-01 -2.28978393744700076e-03 0
3.08115421344347162e-01 -8.49409088863745283e-03 0
SCALARS velocity_magnitude double 1
LOOKUP_TABLE default
8.52662182044008787e-01
7.67025261625966404e-01
5.85475199400935731e-01
4.85906263005288441e-01
3.68643652514090758e-01
3.22839179624578698e-01
3.04564287940730927e-01
3.36545188516122695e-01
3.70282146143706359e-01
3.97565853307005113e-01
3.93723798880139753e-01
3.75285029315819196e-01
3.30935378245117262e-01
3.08287759431894404e-01
3.03058896708890690e-01
3.35286139238880343e-01
3.70963224378299927e-01
3.97599850077961392e-01
3.95321719504334701e-01
3.75348819027599867e-01
3.32672749485281083e-01
3.07552769202996068e-01
3.02976676642352616e-01
3.33458297723488395e-01
3.70690955197033101e-01
3.96186361687680066e-01
3.95673463010537518e-01
3.74008772822121249e-01
3.33372997577570163e-01
3.06213431246187273e-01
3.02905429718644592e-01
3.31732136106002939e-01
3.70624737124005510e-01
3.94645286163587905e-01
3.95823110324027894e-01
3.72410588380804319e-01
3.33633547992174317e-01
3.04792427779845110e-01
3.03030059639557148e-01
3.30358358756525472e-01
3.70865809516277012e-01
3.93187338494006333e-01
3.95876765417509158e-01
3.70657502965054175e-01
3.33621603619303431e-01
3.03269513523687417e-01
3.03715061569289124e-01
3.29322964529493001e-01
3.71643906350665243e-01
3.92207724453279172e-01
3.96096180910579299e-01
3.69153266414701309e-01
3.33633145344488125e-01
3.02715422857788019e-01
3.05169092803986075e-01
3.31701582930491790e-01
3.73917330525519898e-01
3.98783731614582138e-01
3.99951574908706142e-01
3.82853791429554946e-01
3.42438127229935996e-01
3.38423975634246865e-01
3.28682934844529595e-01
4.28378458960525565e-01
1.07179851362451672e+00
1.07440074610867109e+00
1.07196686896982429e+00
1.00101902039253443e+00
8.98829239116519574e-01
8.19274719453041866e-01
8.16099484609221437e-01
8.73783428159926157e-01
9.44681270614317059e-01
9.99197416523150861e-01
9.87178796159289385e-01
9.42456365901118476e-01
8.60226463740769054e-01
8.04705522673336615e-01
8.11327097187968249e-01
8.72627089621756169e-01
9.44839168015717545e-01
9.99384826139459337e-01
9.88582288040518287e-01
9.42619049495320604e-01
8.61922028275068031e-01
8.05106239163275950e-01
8.11719916626645999e-01
8.71952671468043561e-01
9.45129658119629013e-01
9.97781280904693535e-01
9.89100228059007769e-01
9.41209923803422832e-01
8.62451220057184442e-01
8.04500154155743274e-01
8.11630731939848915e-01
8.70742688307720503e-01
9.45431632698007562e-01
9.96359180445835713e-01
9.89654349193570870e-01
9.39944451296765071e-01
8.62970984917699524e-01
8.03290171018337329e-01
8.11685923731991776e-01
8.69371163562691507e-01
9.45843228632019639e-01
9.95526140970685924e-01
9.90332173293009266e-01
9.38957995089835906e-01
8.63678730926824123e-01
8.01564659139308300e-01
8.12345664073112594e-01
8.68023031061063710e-01
9.46906927367816342e-01
9.95567959155233217e-01
9.91740842990485261e-01
9.39012128494236209e-01
8.65407005311131794e-01
8.02095724035336244e-01
8.15478730940713548e-01
8.72594095891839783e-01
9.53722517356222710e-01
1.00836621382527047e+00
1.00490114922356999e+00
9.67004293337132448e-01
8.91285486752669831e-01
8.72072275695514709e-01
8.73992991587390300e-01
1.02289250060674619e+00
1.08218156320195602e+00
1.15882406349947975e+00
1.25711978930643897e+00
1.28620794867730193e+00
1.25285537809719716e+00
1.19753633514595959e+00
1.19446406080972745e+00
1.24775640652196640e+00
1.30895629465827690e+00
1.35403459302064877e+00
1.34793878090994634e+00
1.31513241859800600e+00
1.24368116485610214e+00
1.18692625854872347e+00
1.19051698076367840e+00
1.24634597735901598e+00
1.30925191817557351e+00
1.35329379205328526e+00
1.34881598458596375e+00
1.31430833877675179e+00
1.24403712756344564e+00
1.18664756842308261e+00
1.19177661943805258e+00
1.24643800988534958e+00
1.31024162900580832e+00
1.35251178700906660e+00
1.34947210145733543e+00
1.31307314232336125e+00
1.24401681525098118e+00
1.18556830966848392e+00
1.19244910795483450e+00
1.24589472569168347e+00
1.31100119891923272e+00
1.35180340159431034e+00
1.35009889441662256e+00
1.31227107235634932e+00
1.24455609858291849e+00
1.18451437339331656e+00
1.19282940225719414e+00
1.24494307859164688e+00
1.31171199876214217e+00
1.35123483704569702e+00
1.35077770188248736e+00
1.31186670703770081e+00
1.24577391298267615e+00
1.18357410902224447e+00
1.19328439069470527e+00
1.24361561686224609e+00
1.31313826468827211e+00
1.35058096463140354e+00
1.35194600492525829e+00
1.31193222261380638e+00
1.24807169557170239e+00
1.18431037626192182e+00
1.19585841742182342e+00
1.24592157284518978e+00
1.31838301285326209e+00
1.35801549473985284e+00
1.36074592313868292e+00
1.33212981224383764e+00
1.27392271702479465e+00
1.24081094096593048e+00
1.25592860002659590e+00
1.34828228701703567e+00
1.05831230614904204e+00
1.11743159069029119e+00
1.25313903159025819e+00
1.34310195912231034e+00
1.39907782294151528e+00
1.40085183982898531e+00
1.40871508583036031e+00
1.44243950528720921e+00
1.47310204947065548e+00
1.48381293161579664e+00
1.48598278032509645e+00
1.48425699157490865e+00
1.45654431751770774e+00
1.42601034807051197e+00
1.41815180065521540e+00
1.44675294541208310e+00
1.47458319853289788e+00
1.48346812612696199e+00
1.48732619855297021e+00
1.48413470165349803e+00
1.45689299527855476e+00
1.42430441046167666e+00
1.41935779829787845e+00
1.44568224348300878e+00
1.47512460992185446e+00
1.48311520163527932e+00
1.48839340276122556e+00
1.48383255376178713e+00
1.45731258282857401e+00
1.42249641132944182e+00
1.42036849102808449e+00
1.44465398179380289e+00
1.47579662947906476e+00
1.48258399488765447e+00
1.48887318387897749e+00
1.48311893069122136e+00
1.45783146370949157e+00
1.42144367461456556e+00
1.42133876644794133e+00
1.44411718828081281e+00
1.47689541206774133e+00
1.48165519001811719e+00
1.48897137029027982e+00
1.48188651284469786e+00
1.45864828123271506e+00
1.42110472039061864e+00
1.42230287281815770e+00
1.44411909861586696e+00
1.47859185732679066e+00
1.48035866668513405e+00
1.48883811016778012e+00
1.48015636317422516e+00
1.45988549878653706e+00
1.42187314654508312e+00
1.42503736090977529e+00
1.44549600843291115e+00
1.48178478880076936e+00
1.48015960511215239e+00
1.48801925197338591e+00
1.48334211361011126e+00
1.46937309885547185e+00
1.44411244989730969e+00
1.45552590566631013e+00
1.46348238709078182e+00
1.06661148861713717e+00
1.12168604326098698e+00
1.23822806500855176e+00
1.31930800368049606e+00
1.39697778362229919e+00
1.44748519109249263e+00
1.46507760717827429e+00
1.47755425223649572e+00
1.45684928794198543e+00
1.42365873399185805e+00
1.42120440433773032e+00
1.45103697438954216e+00
1.47382724305931889e+00
1.48874550265399108e+00
1.48272452763994167e+00
1.48167141773128597e+00
1.45760612633546893e+00
1.42159715842331713e+00
1.42044534293166702e+00
1.44939846627326885e+00
1.47467519254408441e+00
1.48765041836691103e+00
1.48437570925768525e+00
1.48008092023954174e+00
1.45756298564949804e+00
1.42060400862521741e+00
1.42067684858219501e+00
1.44865246841192730e+00
1.47616314217288247e+00
1.48656260787306960e+00
1.48556150995647362e+00
1.47918514305056248e+00
1.45809365740032493e+00
1.42003186447056651e+00
1.42118875434024461e+00
1.44797571522489776e+00
1.47693733474295663e+00
1.48551935392761503e+00
1.48619411648099242e+00
1.47863003609190047e+00
1.45897505729318167e+00
1.41937531202266420e+00
1.42222046850249129e+00
1.44713932326477490e+00
1.47731632029072557e+00
1.48417180951609207e+00
1.48644715957789364e+00
1.47817937370156560e+00
1.46007973512466949e+00
1.41839234431110506e+00
1.42346859691359096e+00
1.44574555644150737e+00
1.47757272511151072e+00
1.48181578752579779e+00
1.48667373484955423e+00
1.47612801356865164e+00
1.45950567418498545e+00
1.41172429731758919e+00
1.41798867275223572e+00
1.43394870671907104e+00
1.47119294373697773e+00
1.46317593393478917e+00
1.48282221315167706e+00
1.41421314284288924e+00
1.08575478790826874e+00
1.14053126195130639e+00
1.19391729670229529e+00
1.23987372804592511e+00
1.29395133147695773e+00
1.34655810092055117e+00
1.34592573594875597e+00
1.31796754247593717e+00
1.24569409935872355e+00
1.18704054883995269e+00
1.18797253492909105e+00
1.24618008411544712e+00
1.30862701380490920e+00
1.35513800876013635e+00
1.34958883493550874e+00
1.31589417549402699e+00
1.24513566170019918e+00
1.18584152208265281e+00
1.18709993061855190e+00
1.24404427447937604e+00
1.30842070822356260e+00
1.35413128586903730e+00
1.35033390247803031e+00
1.31484560761624225e+00
1.24614028896232987e+00
1.18561301764273663e+00
1.18774967520759800e+00
1.24290631433402510e+00
1.30908475532598323e+00
1.35354769462834246e+00
1.35137305080061321e+00
1.31428333861236313e+00
1.24723470357630095e+00
1.18516624792373637e+00
1.18877921670888909e+00
1.24236524646835922e+00
1.30983041296146085e+00
1.35301504348249479e+00
1.35198618401590598e+00
1.31354325027762253e+00
1.24786126017093690e+00
1.18421375391867878e+00
1.19011653095834524e+00
1.24221234154252502e+00
1.31075323854841574e+00
1.35236535690255399e+00
1.35231991980184363e+00
1.31251232953438413e+00
1.24806062814674834e+00
1.18243601362112805e+00
1.19188988757317360e+00
1.24146850167614620e+00
1.31234129717922099e+00
1.34938275760728144e+00
1.35203175162753264e+00
1.30795611205263973e+00
1.24545732102595430e+00
1.17140941969892109e+00
1.18595289443847185e+00
1.21961670944632394e+00
1.29999613531375280e+00
1.29746400399331074e+00
1.31523609924466811e+00
1.19352960814458009e+00
1.06145469037407536e+00
1.00202624990684708e+00
9.52088477630861685e-01
9.53975234368996672e-01
9.85906132350296671e-01
1.02031218737332341e+00
9.99734772230889912e-01
9.47945750726505887e-01
8.58880511894633658e-01
8.07639642734271912e-01
8.05827311664585433e-01
8.73779988411855113e-01
9.45407588062366244e-01
9.97619979099343746e-01
9.88676512039525668e-01
9.39985406945989421e-01
8.57081321698462961e-01
8.05320850855460568e-01
8.05831183917768534e-01
8.72460532025935875e-01
9.45308289695781179e-01
9.96340487298295274e-01
9.89115476742317146e-01
9.38695551785691196e-01
8.58697135593364469e-01
8.04554550309653616e-01
8.07529004247686810e-01
8.71829153867954232e-01
9.46008134588150362e-01
9.96063255550237114e-01
9.90270972416057882e-01
9.38194616185877295e-01
8.60335562918905006e-01
8.03926507399611245e-01
8.09201512665961076e-01
8.71458169805901073e-01
9.47144603738399704e-01
9.95995952204856261e-01
9.91453463296391724e-01
9.37944967201892910e-01
8.61483596408768371e-01
8.03244435022730352e-01
8.10581146178700696e-01
8.71049146450434630e-01
9.48639902678720670e-01
9.95799266753054080e-01
9.92582718460707780e-01
9.37570581965545768e-01
8.62226759409401522e-01
8.01965203803123416e-01
8.12017579573714010e-01
8.69116683770943199e-01
9.50241270484729061e-01
9.93185445516608478e-01
9.92369085263231532e-01
9.32821065834851915e-01
8.60496974465816744e-01
7.90151481429528402e-01
8.08053625410944720e-01
8.39965819733165642e-01
9.37347766073853395e-01
9.31176517074896681e-01
9.51646195823521279e-01
8.22244619770922225e-01
8.31323124633176147e-01
6.88442057086013470e-01
4.64489454473640206e-01
4.19982720357026829e-01
3.99377135756384671e-01
4.11804118379711981e-01
3.94284369822216318e-01
3.72570650479794374e-01
3.24090622212326929e-01
3.04659748448105228e-01
3.00162336061988222e-01
3.36791239101193129e-01
3.71487107815302975e-01
3.97863750270357253e-01
3.92807968599967305e-01
3.69838562116436675e-01
3.25853406819529290e-01
3.03531588279967735e-01
3.01243325128044026e-01
3.37332019719410514e-01
3.73072075315984519e-01
3.98229951984478137e-01
3.94607693846654117e-01
3.68850796479842979e-01
3.27093326873054202e-01
3.02536692094450166e-01
3.02580731309494089e-01
3.37535189358662058e-01
3.74747463997043950e-01
3.98546760897478480e-01
3.96373828813215867e-01
3.68571273387755360e-01
3.28570510063951438e-01
3.02229633948831899e-01
3.04041981641614667e-01
3.37499672624174518e-01
3.76211647532486482e-01
3.98484731262699732e-01
3.97670573384262038e-01
3.68665249223534996e-01
3.30178545104572119e-01
3.02302288050782186e-01
3.05655881481477154e-01
3.36933640997249151e-01
3.77559782211815964e-01
3.97693765143222300e-01
3.98615127022091176e-01
3.68723701048971952e-01
3.32025432670008891e-01
3.02191151072887521e-01
3.07623198854296676e-01
3.34673383180864814e-01
3.78766114256132880e-01
3.95261760244839888e-01
3.99491184878774830e-01
3.66218630330591433e-01
3.33970443872667277e-01
2.96034606652255450e-01
3.09649685122436957e-01
3.13884171220536246e-01
3.74483778733939843e-01
3.58756563197587586e-01
3.83352328176774282e-01
3.08232481173268014e-01
