# vtk DataFile Version 3.0
CFDApp solution
ASCII
DATASET UNSTRUCTURED_GRID
POINTS 441 double
0.00000000000000000e+00 0.00000000000000000e+00 0
5.00000000000000028e-02 0.00000000000000000e+00 0
1.00000000000000006e-01 0.00000000000000000e+00 0
1.50000000000000022e-01 0.00000000000000000e+00 0
2.00000000000000011e-01 0.00000000000000000e+00 0
2.50000000000000000e-01 0.00000000000000000e+00 0
3.00000000000000044e-01 0.00000000000000000e+00 0
3.50000000000000033e-01 0.00000000000000000e+00 0
4.00000000000000022e-01 0.00000000000000000e+00 0
4.50000000000000011e-01 0.00000000000000000e+00 0
5.00000000000000000e-01 0.00000000000000000e+00 0
5.50000000000000044e-01 0.00000000000000000e+00 0
6.00000000000000089e-01 0.00000000000000000e+00 0
6.50000000000000022e-01 0.00000000000000000e+00 0
7.00000000000000067e-01 0.00000000000000000e+00 0
7.50000000000000000e-01 0.00000000000000000e+00 0
8.00000000000000044e-01 0.00000000000000000e+00 0
8.50000000000000089e-01 0.00000000000000000e+00 0
9.00000000000000022e-01 0.00000000000000000e+00 0
9.50000000000000067e-01 0.00000000000000000e+00 0
1.00000000000000000e+00 0.00000000000000000e+00 0
0.00000000000000000e+00 5.00000000000000028e-02 0
5.00000000000000028e-02 5.00000000000000028e-02 0
1.00000000000000006e-01 5.00000000000000028e-02 0
1.50000000000000022e-01 5.00000000000000028e-02 0
2.00000000000000011e-01 5.00000000000000028e-02 0
2.50000000000000000e-01 5.00000000000000028e-02 0
3.00000000000000044e-01 5.00000000000000028e-02 0
3.50000000000000033e-01 5.00000000000000028e-02 0
4.00000000000000022e-01 5.00000000000000028e-02 0
4.50000000000000011e-01 5.00000000000000028e-02 0
5.00000000000000000e-01 5.00000000000000028e-02 0
5.50000000000000044e-01 5.00000000000000028e-02 0
6.00000000000000089e-01 5.00000000000000028e-02 0
6.50000000000000022e-01 5.00000000000000028e-02 0
7.00000000000000067e-01 5.00000000000000028e-02 0
7.50000000000000000e-01 5.00000000000000028e-02 0
8.00000000000000044e-01 5.00000000000000028e-02 0
8.50000000000000089e-01 5.00000000000000028e-02 0
9.00000000000000022e-01 5.00000000000000028e-02 0
9.50000000000000067e-01 5.00000000000000028e-02 0
1.00000000000000000e+00 5.00000000000000028e-02 0
0.00000000000000000e+00 1.00000000000000006e-01 0
5.00000000000000028e-02 1.00000000000000006e-01 0
1.00000000000000006e-01 1.00000000000000006e-01 0
1.50000000000000022e-01 1.00000000000000006e-01 0
2.00000000000000011e-01 1.00000000000000006e-01 0
2.50000000000000000e-01 1.00000000000000006e-01 0
3.00000000000000044e-01 1.00000000000000006e-01 0
3.50000000000000033e-01 1.00000000000000006e-01 0
4.00000000000000022e-01 1.00000000000000006e-01 0
4.50000000000000011e-01 1.00000000000000006e-01 0
5.00000000000000000e-01 1.00000000000000006e-01 0
5.50000000000000044e-01 1.00000000000000006e-01 0
6.00000000000000089e-01 1.00000000000000006e-01 0
6.50000000000000022e-01 1.00000000000000006e-01 0
7.00000000000000067e-01 1.00000000000000006e-01 0
7.50000000000000000e-01 1.00000000000000006e-01 0
8.00000000000000044e-01 1.00000000000000006e-01 0
8.50000000000000089e-01 1.00000000000000006e-01 0
9.00000000000000022e-01 1.00000000000000006e-01 0
9.50000000000000067e-01 1.00000000000000006e-01 0
1.00000000000000000e+00 1.00000000000000006e-01 0
0.00000000000000000e+00 1.50000000000000022e-01 0
5.00000000000000028e-02 1.50000000000000022e-01 0
1.00000000000000006e-01 1.50000000000000022e-01 0
1.50000000000000022e-01 1.50000000000000022e-01 0
2.00000000000000011e-01 1.50000000000000022e-01 0
2.50000000000000000e-01 1.50000000000000022e-01 0
3.00000000000000044e-01 1.50000000000000022e-01 0
3.50000000000000033e-01 1.50000000000000022e-01 0
4.00000000000000022e-01 1.50000000000000022e-01 0
4.50000000000000011e-01 1.50000000000000022e-01 0
5.00000000000000000e-01 1.50000000000000022e-01 0
5.50000000000000044e-01 1.50000000000000022e-01 0
6.00000000000000089e-01 1.50000000000000022e-01 0
6.50000000000000022e-01 1.50000000000000022e-01 0
7.00000000000000067e-01 1.50000000000000022e-01 0
7.50000000000000000e-01 1.50000000000000022e-01 0
8.00000000000000044e-01 1.50000000000000022e-01 0
8.50000000000000089e-01 1.50000000000000022e-01 0
9.00000000000000022e-01 1.50000000000000022e-01 0
9.50000000000000067e-01 1.50000000000000022e-01 0
1.00000000000000000e+00 1.50000000000000022e-01 0
0.00000000000000000e+00 2.00000000000000011e-01 0
5.00000000000000028e-02 2.00000000000000011e-01 0
1.00000000000000006e-01 2.00000000000000011e-01 0
1.50000000000000022e-01 2.00000000000000011e-01 0
2.00000000000000011e-01 2.00000000000000011e-01 0
2.50000000000000000e-01 2.00000000000000011e-01 0
3.00000000000000044e-01 2.00000000000000011e-01 0
3.50000000000000033e-01 2.00000000000000011e-01 0
4.00000000000000022e-01 2.00000000000000011e-01 0
4.50000000000000011e-01 2.00000000000000011e-01 0
5.00000000000000000e-01 2.00000000000000011e-01 0
5.50000000000000044e-01 2.00000000000000011e-01 0
6.00000000000000089e-01 2.00000000000000011e-01 0
6.50000000000000022e-01 2.00000000000000011e-01 0
7.00000000000000067e-01 2.00000000000000011e-01 0
7.50000000000000000e-01 2.00000000000000011e-01 0
8.00000000000000044e-01 2.00000000000000011e-01 0
8.50000000000000089e-01 2.00000000000000011e-01 0
9.00000000000000022e-01 2.00000000000000011e-01 0
9.50000000000000067e-01 2.00000000000000011e-01 0
1.00000000000000000e+00 2.00000000000000011e-01 0
0.00000000000000000e+00 2.50000000000000000e-01 0
5.00000000000000028e-02 2.50000000000000000e-01 0
1.00000000000000006e-01 2.50000000000000000e-01 0
1.50000000000000022e-01 2.50000000000000000e-01 0
2.00000000000000011e-01 2.50000000000000000e-01 0
2.50000000000000000e-01 2.50000000000000000e-01 0
3.00000000000000044e-01 2.50000000000000000e-01 0
3.50000000000000033e-01 2.50000000000000000e-01 0
4.00000000000000022e-01 2.50000000000000000e-01 0
4.50000000000000011e-01 2.50000000000000000e-01 0
5.00000000000000000e-01 2.50000000000000000e-01 0
5.50000000000000044e-01 2.50000000000000000e-01 0
6.00000000000000089e-01 2.50000000000000000e-01 0
6.50000000000000022e-01 2.50000000000000000e-01 0
7.00000000000000067e-01 2.50000000000000000e-01 0
7.50000000000000000e-01 2.50000000000000000e-01 0
8.00000000000000044e-01 2.50000000000000000e-01 0
8.50000000000000089e-01 2.50000000000000000e-01 0
9.00000000000000022e-01 2.50000000000000000e-01 0
9.50000000000000067e-01 2.50000000000000000e-01 0
1.00000000000000000e+00 2.50000000000000000e-01 0
0.00000000000000000e+00 3.00000000000000044e-01 0
5.00000000000000028e-02 3.00000000000000044e-01 0
1.00000000000000006e-01 3.00000000000000044e-01 0
1.50000000000000022e-01 3.00000000000000044e-01 0
2.00000000000000011e-01 3.00000000000000044e-01 0
2.50000000000000000e-01 3.00000000000000044e-01 0
3.00000000000000044e-01 3.00000000000000044e-01 0
3.50000000000000033e-01 3.00000000000000044e-01 0
4.00000000000000022e-01 3.00000000000000044e-01 0
4.50000000000000011e-01 3.00000000000000044e-01 0
5.00000000000000000e-01 3.00000000000000044e-01 0
5.50000000000000044e-01 3.00000000000000044e-01 0
6.00000000000000089e-01 3.00000000000000044e-01 0
6.50000000000000022e-01 3.00000000000000044e-01 0
7.00000000000000067e-01 3.00000000000000044e-01 0
7.50000000000000000e-01 3.00000000000000044e-01 0
8.00000000000000044e-01 3.00000000000000044e-01 0
8.50000000000000089e-01 3.00000000000000044e-01 0
9.00000000000000022e-01 3.00000000000000044e-01 0
9.50000000000000067e-01 3.00000000000000044e-01 0
1.00000000000000000e+00 3.00000000000000044e-01 0
0.00000000000000000e+00 3.50000000000000033e-01 0
5.00000000000000028e-02 3.50000000000000033e-01 0
1.00000000000000006e-01 3.50000000000000033e-01 0
1.50000000000000022e-01 3.50000000000000033e-01 0
2.00000000000000011e-01 3.50000000000000033e-01 0
2.50000000000000000e-01 3.50000000000000033e-01 0
3.00000000000000044e-01 3.50000000000000033e-01 0
3.50000000000000033e-01 3.50000000000000033e-01 0
4.00000000000000022e-01 3.50000000000000033e-01 0
4.50000000000000011e-01 3.50000000000000033e-01 0
5.00000000000000000e-01 3.50000000000000033e-01 0
5.50000000000000044e-01 3.50000000000000033e-01 0
6.00000000000000089e-01 3.50000000000000033e-01 0
6.50000000000000022e-01 3.50000000000000033e-01 0
7.00000000000000067e-01 3.50000000000000033e-01 0
7.50000000000000000e-01 3.50000000000000033e-01 0
8.00000000000000044e-01 3.50000000000000033e-01 0
8.50000000000000089e-01 3.50000000000000033e-01 0
9.00000000000000022e-01 3.50000000000000033e-01 0
9.50000000000000067e-01 3.50000000000000033e-01 0
1.00000000000000000e+00 3.50000000000000033e-01 0
0.00000000000000000e+00 4.00000000000000022e-01 0
5.00000000000000028e-02 4.00000000000000022e-01 0
1.00000000000000006e-01 4.00000000000000022e-01 0
1.50000000000000022e-01 4.00000000000000022e-01 0
2.00000000000000011e-01 4.00000000000000022e-01 0
2.50000000000000000e-01 4.00000000000000022e-01 0
3.00000000000000044e-01 4.00000000000000022e-01 0
3.50000000000000033e-01 4.00000000000000022e-01 0
4.00000000000000022e-01 4.00000000000000022e-01 0
4.50000000000000011e-01 4.00000000000000022e-01 0
5.00000000000000000e-01 4.00000000000000022e-01 0
5.50000000000000044e-01 4.00000000000000022e-01 0
6.00000000000000089e-01 4.00000000000000022e-01 0
6.50000000000000022e-01 4.00000000000000022e-01 0
7.00000000000000067e-01 4.00000000000000022e-01 0
7.50000000000000000e-01 4.00000000000000022e-01 0
8.00000000000000044e-01 4.00000000000000022e-01 0
8.50000000000000089e-01 4.00000000000000022e-01 0
9.00000000000000022e-01 4.00000000000000022e-01 0
9.50000000000000067e-01 4.00000000000000022e-01 0
1.00000000000000000e+00 4.00000000000000022e-01 0
0.00000000000000000e+00 4.50000000000000011e-01 0
5.00000000000000028e-02 4.50000000000000011e-01 0
1.00000000000000006e-01 4.50000000000000011e-01 0
1.50000000000000022e-01 4.50000000000000011e-01 0
2.00000000000000011e-01 4.50000000000000011e-01 0
2.50000000000000000e-01 4.50000000000000011e-01 0
3.00000000000000044e-01 4.50000000000000011e-01 0
3.50000000000000033e-01 4.50000000000000011e-01 0
4.00000000000000022e-01 4.50000000000000011e-01 0
4.50000000000000011e-01 4.50000000000000011e-01 0
5.00000000000000000e-01 4.50000000000000011e-01 0
5.50000000000000044e-01 4.50000000000000011e-01 0
6.00000000000000089e-01 4.50000000000000011e-01 0
6.50000000000000022e-01 4.50000000000000011e-01 0
7.00000000000000067e-01 4.50000000000000011e-01 0
7.50000000000000000e-01 4.50000000000000011e-01 0
8.00000000000000044e-01 4.50000000000000011e-01 0
8.50000000000000089e-01 4.50000000000000011e-01 0
9.00000000000000022e-01 4.50000000000000011e-01 0
9.50000000000000067e-01 4.50000000000000011e-01 0
1.00000000000000000e+00 4.50000000000000011e-01 0
0.00000000000000000e+00 5.00000000000000000e-01 0
5.00000000000000028e-02 5.00000000000000000e-01 0
1.00000000000000006e-01 5.00000000000000000e-01 0
1.50000000000000022e-01 5.00000000000000000e-01 0
2.00000000000000011e-01 5.00000000000000000e-01 0
2.50000000000000000e-01 5.00000000000000000e-01 0
3.00000000000000044e-01 5.00000000000000000e-01 0
3.50000000000000033e-01 5.00000000000000000e-01 0
4.00000000000000022e-01 5.00000000000000000e-01 0
4.50000000000000011e-01 5.00000000000000000e-01 0
5.00000000000000000e-01 5.00000000000000000e-01 0
5.50000000000000044e-01 5.00000000000000000e-01 0
6.00000000000000089e-01 5.00000000000000000e-01 0
6.50000000000000022e-01 5.00000000000000000e-01 0
7.00000000000000067e-01 5.00000000000000000e-01 0
7.50000000000000000e-01 5.00000000000000000e-01 0
8.00000000000000044e-01 5.00000000000000000e-01 0
8.50000000000000089e-01 5.00000000000000000e-01 0
9.00000000000000022e-01 5.00000000000000000e-01 0
9.50000000000000067e-01 5.00000000000000000e-01 0
1.00000000000000000e+00 5.00000000000000000e-01 0
0.00000000000000000e+00 5.50000000000000044e-01 0
5.00000000000000028e-02 5.50000000000000044e-01 0
1.00000000000000006e-01 5.50000000000000044e-01 0
1.50000000000000022e-01 5.50000000000000044e-01 0
2.00000000000000011e-01 5.50000000000000044e-01 0
2.50000000000000000e-01 5.50000000000000044e-01 0
3.00000000000000044e-01 5.50000000000000044e-01 0
3.50000000000000033e-01 5.50000000000000044e-01 0
4.00000000000000022e-01 5.50000000000000044e-01 0
4.50000000000000011e-01 5.50000000000000044e-01 0
5.00000000000000000e-01 5.50000000000000044e-01 0
5.50000000000000044e-01 5.50000000000000044e-01 0
6.00000000000000089e-01 5.50000000000000044e-01 0
6.50000000000000022e-01 5.50000000000000044e-01 0
7.00000000000000067e-01 5.50000000000000044e-01 0
7.50000000000000000e-01 5.50000000000000044e-01 0
8.00000000000000044e-01 5.50000000000000044e-01 0
8.50000000000000089e-01 5.50000000000000044e-01 0
9.00000000000000022e-01 5.50000000000000044e-01 0
9.50000000000000067e-01 5.50000000000000044e-01 0
1.00000000000000000e+00 5.50000000000000044e-01 0
0.00000000000000000e+00 6.00000000000000089e-01 0
5.00000000000000028e-02 6.00000000000000089e-01 0
1.00000000000000006e-01 6.00000000000000089e-01 0
1.50000000000000022e-01 6.00000000000000089e-01 0
2.00000000000000011e-01 6.00000000000000089e-01 0
2.50000000000000000e-01 6.00000000000000089e-01 0
3.00000000000000044e-01 6.00000000000000089e-01 0
3.50000000000000033e-01 6.00000000000000089e-01 0
4.00000000000000022e-01 6.00000000000000089e-01 0
4.50000000000000011e-01 6.00000000000000089e-01 0
5.00000000000000000e-01 6.00000000000000089e-01 0
5.50000000000000044e-01 6.00000000000000089e-01 0
6.00000000000000089e-01 6.00000000000000089e-01 0
6.50000000000000022e-01 6.00000000000000089e-01 0
7.00000000000000067e-01 6.00000000000000089e-01 0
7.50000000000000000e-01 6.00000000000000089e-01 0
8.00000000000000044e-01 6.00000000000000089e-01 0
8.50000000000000089e-01 6.00000000000000089e-01 0
9.00000000000000022e-01 6.00000000000000089e-01 0
9.50000000000000067e-01 6.00000000000000089e-01 0
1.00000000000000000e+00 6.00000000000000089e-01 0
0.00000000000000000e+00 6.50000000000000022e-01 0
5.00000000000000028e-02 6.50000000000000022e-01 0
1.00000000000000006e-01 6.50000000000000022e-01 0
1.50000000000000022e-01 6.50000000000000022e-01 0
2.00000000000000011e-01 6.50000000000000022e-01 0
2.50000000000000000e-01 6.50000000000000022e-01 0
3.00000000000000044e-01 6.50000000000000022e-01 0
3.50000000000000033e-01 6.50000000000000022e-01 0
4.00000000000000022e-01 6.50000000000000022e-01 0
4.50000000000000011e-01 6.50000000000000022e-01 0
5.00000000000000000e-01 6.50000000000000022e-01 0
5.50000000000000044e-01 6.50000000000000022e-01 0
6.00000000000000089e-01 6.50000000000000022e-01 0
6.50000000000000022e-01 6.50000000000000022e-01 0
7.00000000000000067e-01 6.50000000000000022e-01 0
7.50000000000000000e-01 6.50000000000000022e-01 0
8.00000000000000044e-01 6.50000000000000022e-01 0
8.50000000000000089e-01 6.50000000000000022e-01 0
9.00000000000000022e-01 6.50000000000000022e-01 0
9.50000000000000067e-01 6.50000000000000022e-01 0
1.00000000000000000e+00 6.50000000000000022e-01 0
0.00000000000000000e+00 7.00000000000000067e-01 0
5.00000000000000028e-02 7.00000000000000067e-01 0
1.00000000000000006e-01 7.00000000000000067e-01 0
1.50000000000000022e-01 7.00000000000000067e-01 0
2.00000000000000011e-01 7.00000000000000067e-01 0
2.50000000000000000e-01 7.00000000000000067e-01 0
3.00000000000000044e-01 7.00000000000000067e-01 0
3.50000000000000033e-01 7.00000000000000067e-01 0
4.00000000000000022e-01 7.00000000000000067e-01 0
4.50000000000000011e-01 7.00000000000000067e-01 0
5.00000000000000000e-01 7.00000000000000067e-01 0
5.50000000000000044e-01 7.00000000000000067e-01 0
6.00000000000000089e-01 7.00000000000000067e-01 0
6.50000000000000022e-01 7.00000000000000067e-01 0
7.00000000000000067e-01 7.00000000000000067e-01 0
7.50000000000000000e-01 7.00000000000000067e-01 0
8.00000000000000044e-01 7.00000000000000067e-01 0
8.50000000000000089e-01 7.00000000000000067e-01 0
9.00000000000000022e-01 7.00000000000000067e-01 0
9.50000000000000067e-01 7.00000000000000067e-01 0
1.00000000000000000e+00 7.00000000000000067e-01 0
0.00000000000000000e+00 7.50000000000000000e-01 0
5.00000000000000028e-02 7.50000000000000000e-01 0
1.00000000000000006e-01 7.50000000000000000e-01 0
1.50000000000000022e-01 7.50000000000000000e-01 0
2.00000000000000011e-01 7.50000000000000000e-01 0
2.50000000000000000e-01 7.50000000000000000e-01 0
3.00000000000000044e-01 7.50000000000000000e-01 0
3.50000000000000033e-01 7.50000000000000000e-01 0
4.00000000000000022e-01 7.50000000000000000e-01 0
4.50000000000000011e-01 7.50000000000000000e-01 0
5.00000000000000000e-01 7.50000000000000000e-01 0
5.50000000000000044e-01 7.50000000000000000e-01 0
6.00000000000000089e-01 7.50000000000000000e-01 0
6.50000000000000022e-01 7.50000000000000000e-01 0
7.00000000000000067e-01 7.50000000000000000e-01 0
7.50000000000000000e-01 7.50000000000000000e-01 0
8.00000000000000044e-01 7.50000000000000000e-01 0
8.50000000000000089e-01 7.50000000000000000e-01 0
9.00000000000000022e-01 7.50000000000000000e-01 0
9.50000000000000067e-01 7.50000000000000000e-01 0
1.00000000000000000e+00 7.50000000000000000e-01 0
0.00000000000000000e+00 8.00000000000000044e-01 0
5.00000000000000028e-02 8.00000000000000044e-01 0
1.00000000000000006e-01 8.00000000000000044e-01 0
1.50000000000000022e-01 8.00000000000000044e-01 0
2.00000000000000011e-01 8.00000000000000044e-01 0
2.50000000000000000e-01 8.00000000000000044e-01 0
3.00000000000000044e-01 8.00000000000000044e-01 0
3.50000000000000033e-01 8.00000000000000044e-01 0
4.00000000000000022e-01 8.00000000000000044e-01 0
4.50000000000000011e-01 8.00000000000000044e-01 0
5.00000000000000000e-01 8.00000000000000044e-01 0
5.50000000000000044e-01 8.00000000000000044e-01 0
6.00000000000000089e-01 8.00000000000000044e-01 0
6.50000000000000022e-01 8.00000000000000044e-01 0
7.00000000000000067e-01 8.00000000000000044e-01 0
7.50000000000000000e-01 8.00000000000000044e-01 0
8.00000000000000044e-01 8.00000000000000044e-01 0
8.50000000000000089e-01 8.00000000000000044e-01 0
9.00000000000000022e-01 8.00000000000000044e-01 0
9.50000000000000067e-01 8.00000000000000044e-01 0
1.00000000000000000e+00 8.00000000000000044e-01 0
0.00000000000000000e+00 8.50000000000000089e-01 0
5.00000000000000028e-02 8.50000000000000089e-01 0
1.00000000000000006e-01 8.50000000000000089e-01 0
1.50000000000000022e-01 8.50000000000000089e-01 0
2.00000000000000011e-01 8.50000000000000089e-01 0
2.50000000000000000e-01 8.50000000000000089e-01 0
3.00000000000000044e-01 8.50000000000000089e-01 0
3.50000000000000033e-01 8.50000000000000089e-01 0
4.00000000000000022e-01 8.50000000000000089e-01 0
4.50000000000000011e-01 8.50000000000000089e-01 0
5.00000000000000000e-01 8.50000000000000089e-01 0
5.50000000000000044e-01 8.50000000000000089e-01 0
6.00000000000000089e-01 8.50000000000000089e-01 0
6.50000000000000022e-01 8.50000000000000089e-01 0
7.00000000000000067e-01 8.50000000000000089e-01 0
7.50000000000000000e-01 8.50000000000000089e-01 0
8.00000000000000044e-01 8.50000000000000089e-01 0
8.50000000000000089e-01 8.50000000000000089e-01 0
9.00000000000000022e-01 8.50000000000000089e-01 0
9.50000000000000067e-01 8.50000000000000089e-01 0
1.00000000000000000e+00 8.50000000000000089e-01 0
0.00000000000000000e+00 9.00000000000000022e-01 0
5.00000000000000028e-02 9.00000000000000022e-01 0
1.00000000000000006e-01 9.00000000000000022e-01 0
1.50000000000000022e-01 9.00000000000000022e-01 0
2.00000000000000011e-01 9.00000000000000022e-01 0
2.50000000000000000e-01 9.00000000000000022e-01 0
3.00000000000000044e-01 9.00000000000000022e-01 0
3.50000000000000033e-01 9.00000000000000022e-01 0
4.00000000000000022e-01 9.00000000000000022e-01 0
4.50000000000000011e-01 9.00000000000000022e-01 0
5.00000000000000000e-01 9.00000000000000022e-01 0
5.50000000000000044e-01 9.00000000000000022e-01 0
6.00000000000000089e-01 9.00000000000000022e-01 0
6.50000000000000022e-01 9.00000000000000022e-01 0
7.00000000000000067e-01 9.00000000000000022e-01 0
7.50000000000000000e-01 9.00000000000000022e-01 0
8.00000000000000044e-01 9.00000000000000022e-01 0
8.50000000000000089e-01 9.00000000000000022e-01 0
9.00000000000000022e-01 9.00000000000000022e-01 0
9.50000000000000067e-01 9.00000000000000022e-01 0
1.00000000000000000e+00 9.00000000000000022e-01 0
0.00000000000000000e+00 9.50000000000000067e-01 0
5.00000000000000028e-02 9.50000000000000067e-01 0
1.00000000000000006e-01 9.50000000000000067e-01 0
1.50000000000000022e-01 9.50000000000000067e-01 0
2.00000000000000011e-01 9.50000000000000067e-01 0
2.50000000000000000e-01 9.50000000000000067e-01 0
3.00000000000000044e-01 9.50000000000000067e-01 0
3.50000000000000033e-01 9.50000000000000067e-01 0
4.00000000000000022e-01 9.50000000000000067e-01 0
4.50000000000000011e-01 9.50000000000000067e-01 0
5.00000000000000000e-01 9.50000000000000067e-01 0
5.50000000000000044e-01 9.50000000000000067e-01 0
6.00000000000000089e-01 9.50000000000000067e-01 0
6.50000000000000022e-01 9.50000000000000067e-01 0
7.00000000000000067e-01 9.50000000000000067e-01 0
7.50000000000000000e-01 9.50000000000000067e-01 0
8.00000000000000044e-01 9.50000000000000067e-01 0
8.50000000000000089e-01 9.50000000000000067e-01 0
9.00000000000000022e-01 9.50000000000000067e-01 0
9.50000000000000067e-01 9.50000000000000067e-01 0
1.00000000000000000e+00 9.50000000000000067e-01 0
0.00000000000000000e+00 1.00000000000000000e+00 0
5.00000000000000028e-02 1.00000000000000000e+00 0
1.00000000000000006e-01 1.00000000000000000e+00 0
1.50000000000000022e-01 1.00000000000000000e+00 0
2.00000000000000011e-01 1.00000000000000000e+00 0
2.50000000000000000e-01 1.00000000000000000e+00 0
3.00000000000000044e-01 1.00000000000000000e+00 0
3.50000000000000033e-01 1.00000000000000000e+00 0
4.00000000000000022e-01 1.00000000000000000e+00 0
4.50000000000000011e-01 1.00000000000000000e+00 0
5.00000000000000000e-01 1.00000000000000000e+00 0
5.50000000000000044e-01 1.00000000000000000e+00 0
6.00000000000000089e-01 1.00000000000000000e+00 0
6.50000000000000022e-01 1.00000000000000000e+00 0
7.00000000000000067e-01 1.00000000000000000e+00 0
7.50000000000000000e-01 1.00000000000000000e+00 0
8.00000000000000044e-01 1.00000000000000000e+00 0
8.50000000000000089e-01 1.00000000000000000e+00 0
9.00000000000000022e-01 1.00000000000000000e+00 0
9.50000000000000067e-01 1.00000000000000000e+00 0
1.00000000000000000e+00 1.00000000000000000e+00 0
CELLS 400 2000
4 0 1 22 21
4 1 2 23 22
4 2 3 24 23
4 3 4 25 24
4 4 5 26 25
4 5 6 27 26
4 6 7 28 27
4 7 8 29 28
4 8 9 30 29
4 9 10 31 30
4 10 11 32 31
4 11 12 33 32
4 12 13 34 33
4 13 14 35 34
4 14 15 36 35
4 15 16 37 36
4 16 17 38 37
4 17 18 39 38
4 18 19 40 39
4 19 20 41 40
4 21 22 43 42
4 22 23 44 43
4 23 24 45 44
4 24 25 46 45
4 25 26 47 46
4 26 27 48 47
4 27 28 49 48
4 28 29 50 49
4 29 30 51 50
4 30 31 52 51
4 31 32 53 52
4 32 33 54 53
4 33 34 55 54
4 34 35 56 55
4 35 36 57 56
4 36 37 58 57
4 37 38 59 58
4 38 39 60 59
4 39 40 61 60
4 40 41 62 61
4 42 43 64 63
4 43 44 65 64
4 44 45 66 65
4 45 46 67 66
4 46 47 68 67
4 47 48 69 68
4 48 49 70 69
4 49 50 71 70
4 50 51 72 71
4 51 52 73 72
4 52 53 74 73
4 53 54 75 74
4 54 55 76 75
4 55 56 77 76
4 56 57 78 77
4 57 58 79 78
4 58 59 80 79
4 59 60 81 80
4 60 61 82 81
4 61 62 83 82
4 63 64 85 84
4 64 65 86 85
4 65 66 87 86
4 66 67 88 87
4 67 68 89 88
4 68 69 90 89
4 69 70 91 90
4 70 71 92 91
4 71 72 93 92
4 72 73 94 93
4 73 74 95 94
4 74 75 96 95
4 75 76 97 96
4 76 77 98 97
4 77 78 99 98
4 78 79 100 99
4 79 80 101 100
4 80 81 102 101
4 81 82 103 102
4 82 83 104 103
4 84 85 106 105
4 85 86 107 106
4 86 87 108 107
4 87 88 109 108
4 88 89 110 109
4 89 90 111 110
4 90 91 112 111
4 91 92 113 112
4 92 93 114 113
4 93 94 115 114
4 94 95 116 115
4 95 96 117 116
4 96 97 118 117
4 97 98 119 118
4 98 99 120 119
4 99 100 121 120
4 100 101 122 121
4 101 102 123 122
4 102 103 124 123
4 103 104 125 124
4 105 106 127 126
4 106 107 128 127
4 107 108 129 128
4 108 109 130 129
4 109 110 131 130
4 110 111 132 131
4 111 112 133 132
4 112 113 134 133
4 113 114 135 134
4 114 115 136 135
4 115 116 137 136
4 116 117 138 137
4 117 118 139 138
4 118 119 140 139
4 119 120 141 140
4 120 121 142 141
4 121 122 143 142
4 122 123 144 143
4 123 124 145 144
4 124 125 146 145
4 126 127 148 147
4 127 128 149 148
4 128 129 150 149
4 129 130 151 150
4 130 131 152 151
4 131 132 153 152
4 132 133 154 153
4 133 134 155 154
4 134 135 156 155
4 135 136 157 156
4 136 137 158 157
4 137 138 159 158
4 138 139 160 159
4 139 140 161 160
4 140 141 162 161
4 141 142 163 162
4 142 143 164 163
4 143 144 165 164
4 144 145 166 165
4 145 146 167 166
4 147 148 169 168
4 148 149 170 169
4 149 150 171 170
4 150 151 172 171
4 151 152 173 172
4 152 153 174 173
4 153 154 175 174
4 154 155 176 175
4 155 156 177 176
4 156 157 178 177
4 157 158 179 178
4 158 159 180 179
4 159 160 181 180
4 160 161 182 181
4 161 162 183 182
4 162 163 184 183
4 163 164 185 184
4 164 165 186 185
4 165 166 187 186
4 166 167 188 187
4 168 169 190 189
4 169 170 191 190
4 170 171 192 191
4 171 172 193 192
4 172 173 194 193
4 173 174 195 194
4 174 175 196 195
4 175 176 197 196
4 176 177 198 197
4 177 178 199 198
4 178 179 200 199
4 179 180 201 200
4 180 181 202 201
4 181 182 203 202
4 182 183 204 203
4 183 184 205 204
4 184 185 206 205
4 185 186 207 206
4 186 187 208 207
4 187 188 209 208
4 189 190 211 210
4 190 191 212 211
4 191 192 213 212
4 192 193 214 213
4 193 194 215 214
4 194 195 216 215
4 195 196 217 216
4 196 197 218 217
4 197 198 219 218
4 198 199 220 219
4 199 200 221 220
4 200 201 222 221
4 201 202 223 222
4 202 203 224 223
4 203 204 225 224
4 204 205 226 225
4 205 206 227 226
4 206 207 228 227
4 207 208 229 228
4 208 209 230 229
4 210 211 232 231
4 211 212 233 232
4 212 213 234 233
4 213 214 235 234
4 214 215 236 235
4 215 216 237 236
4 216 217 238 237
4 217 218 239 238
4 218 219 240 239
4 219 220 241 240
4 220 221 242 241
4 221 222 243 242
4 222 223 244 243
4 223 224 245 244
4 224 225 246 245
4 225 226 247 246
4 226 227 248 247
4 227 228 249 248
4 228 229 250 249
4 229 230 251 250
4 231 232 253 252
4 232 233 254 253
4 233 234 255 254
4 234 235 256 255
4 235 236 257 256
4 236 237 258 257
4 237 238 259 258
4 238 239 260 259
4 239 240 261 260
4 240 241 262 261
4 241 242 263 262
4 242 243 264 263
4 243 244 265 264
4 244 245 266 265
4 245 246 267 266
4 246 247 268 267
4 247 248 269 268
4 248 249 270 269
4 249 250 271 270
4 250 251 272 271
4 252 253 274 273
4 253 254 275 274
4 254 255 276 275
4 255 256 277 276
4 256 257 278 277
4 257 258 279 278
4 258 259 280 279
4 259 260 281 280
4 260 261 282 281
4 261 262 283 282
4 262 263 284 283
4 263 264 285 284
4 264 265 286 285
4 265 266 287 286
4 266 267 288 287
4 267 268 289 288
4 268 269 290 289
4 269 270 291 290
4 270 271 292 291
4 271 272 293 292
4 273 274 295 294
4 274 275 296 295
4 275 276 297 296
4 276 277 298 297
4 277 278 299 298
4 278 279 300 299
4 279 280 301 300
4 280 281 302 301
4 281 282 303 302
4 282 283 304 303
4 283 284 305 304
4 284 285 306 305
4 285 286 307 306
4 286 287 308 307
4 287 288 309 308
4 288 289 310 309
4 289 290 311 310
4 290 291 312 311
4 291 292 313 312
4 292 293 314 313
4 294 295 316 315
4 295 296 317 316
4 296 297 318 317
4 297 298 319 318
4 298 299 320 319
4 299 300 321 320
4 300 301 322 321
4 301 302 323 322
4 302 303 324 323
4 303 304 325 324
4 304 305 326 325
4 305 306 327 326
4 306 307 328 327
4 307 308 329 328
4 308 309 330 329
4 309 310 331 330
4 310 311 332 331
4 311 312 333 332
4 312 313 334 333
4 313 314 335 334
4 315 316 337 336
4 316 317 338 337
4 317 318 339 338
4 318 319 340 339
4 319 320 341 340
4 320 321 342 341
4 321 322 343 342
4 322 323 344 343
4 323 324 345 344
4 324 325 346 345
4 325 326 347 346
4 326 327 348 347
4 327 328 349 348
4 328 329 350 349
4 329 330 351 350
4 330 331 352 351
4 331 332 353 352
4 332 333 354 353
4 333 334 355 354
4 334 335 356 355
4 336 337 358 357
4 337 338 359 358
4 338 339 360 359
4 339 340 361 360
4 340 341 362 361
4 341 342 363 362
4 342 343 364 363
4 343 344 365 364
4 344 345 366 365
4 345 346 367 366
4 346 347 368 367
4 347 348 369 368
4 348 349 370 369
4 349 350 371 370
4 350 351 372 371
4 351 352 373 372
4 352 353 374 373
4 353 354 375 374
4 354 355 376 375
4 355 356 377 376
4 357 358 379 378
4 358 359 380 379
4 359 360 381 380
4 360 361 382 381
4 361 362 383 382
4 362 363 384 383
4 363 364 385 384
4 364 365 386 385
4 365 366 387 386
4 366 367 388 387
4 367 368 389 388
4 368 369 390 389
4 369 370 391 390
4 370 371 392 391
4 371 372 393 392
4 372 373 394 393
4 373 374 395 394
4 374 375 396 395
4 375 376 397 396
4 376 377 398 397
4 378 379 400 399
4 379 380 401 400
4 380 381 402 401
4 381 382 403 402
4 382 383 404 403
4 383 384 405 404
4 384 385 406 405
4 385 386 407 406
4 386 387 408 407
4 387 388 409 408
4 388 389 410 409
4 389 390 411 410
4 390 391 412 411
4 391 392 413 412
4 392 393 414 413
4 393 394 415 414
4 394 395 416 415
4 395 396 417 416
4 396 397 418 417
4 397 398 419 418
4 399 400 421 420
4 400 401 422 421
4 401 402 423 422
4 402 403 424 423
4 403 404 425 424
4 404 405 426 425
4 405 406 427 426
4 406 407 428 427
4 407 408 429 428
4 408 409 430 429
4 409 410 431 430
4 410 411 432 431
4 411 412 433 432
4 412 413 434 433
4 413 414 435 434
4 414 415 436 435
4 415 416 437 436
4 416 417 438 437
4 417 418 439 438
4 418 419 440 439
CELL_TYPES 400
9
9
9
9
9
9
9
9
9
9
9
9
9
9
9
9
9
9
9
9
9
9
9
9
9
9
9
9
9
9
9
9
9
9
9
9
9
9
9
9
9
9
9
9
9
9
9
9
9
9
9
9
9
9
9
9
9
9
9
9
9
9
9
9
9
9
9
9
9
9
9
9
9
9
9
9
9
9
9
9
9
9
9
9
9
9
9
9
9
9
9
9
9
9
9
9
9
9
9
9
9
9
9
9
9
9
9
9
9
9
9
9
9
9
9
9
9
9
9
9
9
9
9
9
9
9
9
9
9
9
9
9
9
9
9
9
9
9
9
9
9
9
9
9
9
9
9
9
9
9
9
9
9
9
9
9
9
9
9
9
9
9
9
9
9
9
9
9
9
9
9
9
9
9
9
9
9
9
9
9
9
9
9
9
9
9
9
9
9
9
9
9
9
9
9
9
9
9
9
9
9
9
9
9
9
9
9
9
9
9
9
9
9
9
9
9
9
9
9
9
9
9
9
9
9
9
9
9
9
9
9
9
9
9
9
9
9
9
9
9
9
9
9
9
9
9
9
9
9
9
9
9
9
9
9
9
9
9
9
9
9
9
9
9
9
9
9
9
9
9
9
9
9
9
9
9
9
9
9
9
9
9
9
9
9
9
9
9
9
9
9
9
9
9
9
9
9
9
9
9
9
9
9
9
9
9
9
9
9
9
9
9
9
9
9
9
9
9
9
9
9
9
9
9
9
9
9
9
9
9
9
9
9
9
9
9
9
9
9
9
9
9
9
9
9
9
9
9
9
9
9
9
9
9
9
9
9
9
9
9
9
9
9
9
9
9
9
9
9
9
9
9
9
9
9
9
9
9
9
9
9
9
9
9
9
9
9
9
9
9
9
9
9
9
9
9
9
9
9
9
CELL_DATA 400
SCALARS pressure double 1
LOOKUP_TABLE default
0.00000000000000000e+00
2.66736019886001756e-04
-2.78564702937574319e-03
-1.56611185892316482e-04
-5.18293259136953094e-03
6.93320603444694370e-04
-5.65763302406745595e-03
3.06437508882414838e-03
-3.86320383807294779e-03
6.71818818548739968e-03
-2.46355027446730986e-05
1.09358571286314477e-02
4.72714640268968606e-03
1.40886725227251774e-02
8.38606035459711109e-03
1.43741354790883000e-02
9.28483421376711388e-03
1.15408301255786137e-02
8.14472088958835723e-03
8.58716495565274920e-03
2.34730818081512220e-03
2.87289300435141079e-03
3.53632879962095017e-05
3.57075535749267967e-03
-1.78811518276049690e-03
4.86654608539218315e-03
-2.47288443691914914e-03
6.76453208662741029e-03
-1.65991100025669400e-03
9.18278532167702069e-03
6.70683732209360135e-04
1.17368100426320354e-02
3.81280423971181543e-03
1.33746451557235878e-02
6.53865340713536726e-03
1.31767494521160353e-02
7.90229937134756359e-03
1.11696576324631057e-02
8.16235148658329100e-03
8.84953931153789966e-03
1.36443446752359827e-03
7.45267590706044061e-04
-1.58779735338977616e-03
9.62905122905208808e-04
-3.77889864535232989e-03
1.91459345249346677e-03
-4.65762370900230354e-03
3.68178706879390607e-03
-3.81080167184167339e-03
6.26271296979472817e-03
-1.16934824350340316e-03
9.26501041926018794e-03
2.47375838098498960e-03
1.14062699756678765e-02
5.51427383247549835e-03
1.13121659755819268e-02
6.61576568740330703e-03
8.79163275727062529e-03
6.14303664509780693e-03
5.68711067988067736e-03
4.42570930726127708e-03
3.73991632784200249e-03
7.35582760955699527e-04
4.65254342870169077e-03
-1.66828685225719987e-03
6.08861868816524838e-03
-2.87776952611537400e-03
7.84236367068925737e-03
-2.56078992297309720e-03
1.00134802515916849e-02
-4.53546282913841535e-04
1.24647416412228210e-02
2.90834435081046378e-03
1.41669517019751192e-02
6.15823482310121940e-03
1.38889252797215115e-02
7.90217852914571611e-03
1.11763804536934245e-02
8.01069534548856134e-03
7.25699612474468760e-03
2.56615321568345748e-03
4.99783021289497247e-04
-1.65639640510169294e-03
7.70461398044951879e-04
-4.56589717186767132e-03
1.53878373017421249e-03
-6.30944678694404099e-03
2.73243404331175018e-03
-6.38834680524808310e-03
4.63492628001501133e-03
-4.35948486483211071e-03
7.23923675428462914e-03
-6.90427197882577913e-04
9.38224361856250001e-03
2.91118804796150965e-03
9.32093823160745107e-03
4.48963648735894224e-03
6.11333002688202194e-03
3.71825912403254055e-03
1.19340753016464684e-03
4.47050159511083126e-03
3.03143328609962450e-03
-8.19657705500287750e-04
4.20742684102171863e-03
-4.26078544637739816e-03
5.73187469692426881e-03
-6.35166596026559300e-03
7.33119329508700231e-03
-6.63787744720175082e-03
9.40524000253665886e-03
-4.50914713099105462e-03
1.21896417811116608e-02
-1.49247920395862067e-04
1.47469478873449075e-02
4.82433893636735698e-03
1.51157933039448196e-02
7.92448939864286508e-03
1.16084348425698359e-02
7.96767667425670942e-03
5.17910654024648573e-03
1.06991384341476080e-03
-1.74670818738026346e-03
-4.53385775564401228e-03
-1.53720504966208828e-03
-8.67693492390255935e-03
-1.17929664767403857e-03
-1.17465886374428282e-02
-6.94483361704025426e-04
-1.29717161889889923e-02
6.01063773613261438e-04
-1.14149432560838454e-02
3.17637276947979478e-03
-6.94996630051716510e-03
6.24207368013601511e-03
-1.37845036714194860e-03
7.24915877618879326e-03
1.96555936732840334e-03
3.51431455189509532e-03
1.09400116143255682e-03
-4.25208553944990842e-03
4.67456622325024349e-04
-4.50244084728985310e-04
-6.37849275099118540e-03
1.28321927113847728e-03
-1.10872544554309824e-02
2.90063744838058414e-03
-1.43652733613955867e-02
4.17876202095620285e-03
-1.55751618148533572e-02
5.98505157644007441e-03
-1.36213444919555185e-02
9.14994637036744760e-03
-7.81915701693794256e-03
1.34486556161683320e-02
4.90612734987984616e-04
1.60561668505256362e-02
7.12841081872536610e-03
1.27336922150563907e-02
8.24142249884727944e-03
2.81412039900844589e-03
-4.58231339237611269e-03
-6.96494402222063921e-03
-1.15591673618612827e-02
-6.76707313375023416e-03
-1.73319484518459181e-02
-7.04376437707924727e-03
-2.22476932350194334e-02
-7.63264157591247560e-03
-2.51904991568799169e-02
-7.32800807081445977e-03
-2.45785922403498579e-02
-4.91620081726435679e-03
-1.91605413185313121e-02
-1.33046548134347590e-04
-9.92210117923542079e-03
3.87560595398370568e-03
-2.08866452783209623e-03
1.12306146921049865e-03
-1.51531265135027840e-03
-1.05489281779572851e-02
-8.98995499972954186e-03
-7.53966075519789131e-03
-1.74169794593847516e-02
-4.67417552023320811e-03
-2.33855418279030752e-02
-2.88233169912061830e-03
-2.80248488996301531e-02
-2.33586867046092468e-03
-3.07444874176714053e-02
-1.48715844989694298e-03
-2.98065154950734428e-02
1.58842615132450760e-03
-2.30459171603422143e-02
8.26526230550639687e-03
-9.77522125307767401e-03
1.57681188291047374e-02
4.24390744418093584e-03
1.54992218741532260e-02
9.55864520700156275e-03
1.33826123565626131e-03
-1.48466009513976861e-02
-1.54839585381295938e-02
-2.34102432396623705e-02
-1.50875616624651775e-02
-3.10847969863131436e-02
-1.61345471267171810e-02
-3.82544361022252380e-02
-1.83031317760964062e-02
-4.37141659384135545e-02
-1.98059491429114914e-02
-4.51770633092856352e-02
-1.82648839030242725e-02
-3.98333400555830677e-02
-1.15057557757185756e-02
-2.56535244952705126e-02
-1.72115373240933479e-03
-8.99723302499516771e-03
1.81019451789554941e-04
-3.07139576596662930e-03
-1.56916617436430664e-02
-2.48252098941706724e-02
-1.84049759219027526e-02
-3.49739463601509218e-02
-1.30854852136804683e-02
-4.12748895747192535e-02
-1.06489910542420380e-02
-4.66812882369639012e-02
-1.13165345916708144e-02
-5.13881329726873781e-02
-1.25262092110167700e-02
-5.28860266324943790e-02
-1.05641866365924209e-02
-4.70864375053439976e-02
-1.49597564999747932e-03
-2.84744631736282838e-02
1.44522817278628247e-02
-1.96963181030620615e-03
2.33969786167012445e-02
1.43665793665879640e-02
6.27352868909675059e-03
-2.91372210674347709e-02
-2.68433602259461300e-02
-4.00007733448782404e-02
-2.54262341754142585e-02
-4.90344277088220690e-02
-2.67865737517139664e-02
-5.78871274259491544e-02
-3.06305200131497153e-02
-6.61016354471506695e-02
-3.46434056302863044e-02
-7.09537850126759906e-02
-3.48598729140423697e-02
-6.77397619850576144e-02
-2.64449740585904515e-02
-4.91287383171847281e-02
-7.62022500613034146e-03
-1.86955109993592362e-02
5.88704808735703716e-03
3.80050846087054796e-04
-1.12579495111801899e-02
-4.90954264318190572e-02
-3.24799412599593024e-02
-6.02389222419497522e-02
-2.13950853065794713e-02
-6.28567637602784612e-02
-1.68798470298541885e-02
-6.62467828802136699e-02
-1.89104636166666541e-02
-7.23580482057994134e-02
-2.30503722290355678e-02
-7.77001272967282886e-02
-2.30595252004614712e-02
-7.50340860539421700e-02
-1.17605296957144275e-02
-5.34548657029796925e-02
1.68798071047791924e-02
-1.03547060814649858e-02
4.69763288872264845e-02
3.02103411365639632e-02
3.53545561727997629e-02
-4.76229022608517655e-02
-4.00995548570843505e-02
-6.14985566643722337e-02
-3.51851941607389113e-02
-6.86021463740905668e-02
-3.52056855217615441e-02
-7.61171534965889157e-02
-3.96388024517964621e-02
-8.53520674759526421e-02
-4.56228771186334911e-02
-9.36097828652473485e-02
-4.71901871862632771e-02
-9.35876310361292429e-02
-3.68156116098655728e-02
-7.31854413143878391e-02
-4.73235659227817448e-03
-2.56767276025792329e-02
3.27469343383851516e-02
2.10734992976267660e-02
2.70791548537135281e-02
-9.40810422317837208e-02
-4.81600714194431595e-02
-9.64943279763914169e-02
-2.41543518586151140e-02
-8.34565026355223449e-02
-1.55479903245528961e-02
-7.88177422370426317e-02
-1.91716828716557604e-02
-8.41184650023088509e-02
-2.62419576914059670e-02
-9.27493025983328750e-02
-2.77590021635902399e-02
-9.40403610867087125e-02
-1.24311903523386322e-02
-7.25408894058958281e-02
3.43649056072110742e-02
-1.40165310993700006e-02
1.08947307281585123e-01
7.50954036316803381e-02
1.35381307003884815e-01
-8.18436680676357942e-02
-5.45586867274261214e-02
-9.13271032238235497e-02
-4.05607918907739950e-02
-8.60705578183607461e-02
-3.70248412147702391e-02
-8.62294677195229314e-02
-4.04203236128878457e-02
-9.36584734684176579e-02
-4.63239086498583308e-02
-1.02458935436033155e-01
-4.62307338596080128e-02
-1.02525015503594219e-01
-2.81674074015352272e-02
-7.95171199263253192e-02
2.21715362808946187e-02
-1.63835054712276641e-02
1.05616251979043937e-01
8.30901487642478759e-02
1.55274705469126834e-01
-2.26420873346980855e-01
-5.85161973529322380e-02
-1.47611777068384686e-01
-1.19667374431737545e-02
-9.26244751076046036e-02
-1.12489917404904596e-03
-7.64811552938401418e-02
-8.01078927459823731e-03
-8.16706840326881928e-02
-1.86076880864414866e-02
-9.30325062398056762e-02
-2.00040737748524433e-02
-9.54474414541822691e-02
5.69044928195227857e-03
-7.10993345581708708e-02
8.11846984894396412e-02
3.84517005249069340e-03
2.32740488433928333e-01
1.65268068845835170e-01
4.21621799172095635e-01
-2.04302576727846158e-01
-7.10306983342283149e-02
-1.33721068798330678e-01
-3.70764082226501465e-02
-9.57681905677754269e-02
-2.67173785651190036e-02
-8.54069482265771285e-02
-2.91524455479100324e-02
-9.03669487304116642e-02
-3.48691180503137160e-02
-9.86985060739794945e-02
-3.12943326209453379e-02
-9.59616078350837426e-02
1.37988404296875990e-03
-6.54469781781737564e-02
8.26606550552284602e-02
1.45085076170505482e-02
2.47112113409836992e-01
1.88471814378163571e-01
4.95388575524232488e-01
-7.29760345190775928e-01
-2.04804344782428677e-02
-1.74469785718910975e-01
4.25231385503227755e-02
-6.44351614401322825e-02
3.37496868238167935e-02
-5.19592563699368681e-02
1.39223853127100911e-02
-6.48250672798692112e-02
-3.89373785602160427e-03
-8.20494113742979009e-02
-8.19985176048034468e-03
-8.82435007138347299e-02
2.08203699131184784e-02
-6.82693353865124891e-02
1.16607706430531907e-01
9.25618007912935858e-03
3.85538436587627764e-01
2.44480499900686016e-01
1.17998112956277290e+00
VECTORS velocity double
-5.77942789590265421e-05 -5.38888059644578835e-04 0
5.62516672046886775e-04 -3.33976868757984431e-04 0
-1.88389483383190164e-03 -2.33236251725379837e-06 0
-3.11542185359437547e-03 1.13189306887834498e-04 0
-6.91864727887818356e-03 3.26305920585568537e-04 0
-8.94678752941312737e-03 1.68833892435760478e-04 0
-1.25795190429607295e-02 3.11661371977604504e-04 0
-1.45179395007870617e-02 1.63882712604548633e-05 0
-1.69714876553504826e-02 1.11959410274818340e-04 0
-1.81181926159674246e-02 -2.88422310893750181e-04 0
-1.85875681249196047e-02 -2.75372417064190440e-04 0
-1.82899351395290830e-02 -7.56730209394128502e-04 0
-1.62467781195531069e-02 -8.08689031860890576e-04 0
-1.42482719066147727e-02 -1.25050221092235024e-03 0
-1.00460593058621598e-02 -1.22810224713647406e-03 0
-7.22210450367575651e-03 -1.37955936815115044e-03 0
-2.75003159227781924e-03 -1.08097773924906810e-03 0
-1.20735375570522256e-03 -7.77241429369020286e-04 0
9.20768759277641388e-04 -3.23927657707551674e-04 0
-3.61875841021280230e-06 3.78036208806646883e-05 0
-5.75387252989204684e-04 3.42130715564643731e-05 0
-1.22883546213669388e-03 2.16014970907256725e-03 0
-7.34509428481237413e-03 3.68019817785663348e-03 0
-1.18408345223070723e-02 4.92167939942150974e-03 0
-2.04333135680721915e-02 5.50494477341625151e-03 0
-2.63803480224270165e-02 5.49219194701041843e-03 0
-3.44650850236143808e-02 5.25934316045811520e-03 0
-3.96580475276736011e-02 4.37576004411933690e-03 0
-4.49682545810588877e-02 3.48812681087885389e-03 0
-4.76329536047126675e-02 1.90469506077908216e-03 0
-4.84504103900199670e-02 4.46942358996168978e-04 0
-4.72744548960340807e-02 -1.58387062304750706e-03 0
-4.27090488061409937e-02 -3.23313526016004698e-03 0
-3.74587059391478794e-02 -4.95004631139111476e-03 0
-2.84186231982608492e-02 -5.79820022738494235e-03 0
-2.11108330965956228e-02 -5.91633061712810819e-03 0
-1.12807219897356568e-02 -4.93386871526535313e-03 0
-6.16588858369570159e-03 -2.89346604623809834e-03 0
-4.83247751417116859e-04 -8.79853599174190834e-04 0
-3.91028838896649220e-04 8.79375202732378685e-04 0
-8.77058909144040545e-04 1.26549569766354342e-03 0
-3.21441752344383755e-03 6.43521695935500571e-03 0
-1.25166325754611386e-02 1.06103414941727068e-02 0
-2.04448396684661568e-02 1.32004874668989764e-02 0
-3.28548775188144404e-02 1.48668480967850715e-02 0
-4.24051307385898829e-02 1.41993753526375721e-02 0
-5.38399221037775683e-02 1.35906508888858565e-02 0
-6.18011023323295217e-02 1.05181200209870773e-02 0
-6.91999721677828972e-02 8.08830849830329858e-03 0
-7.30913630288685667e-02 3.19220122799249509e-03 0
-7.42038965039892862e-02 -6.32394829834338605e-04 0
-7.23141242653855959e-02 -6.49958690302726485e-03 0
-6.60069205998645436e-02 -1.06230659293548146e-02 0
-5.80767682254942352e-02 -1.55422610660349951e-02 0
-4.54626516532228159e-02 -1.75748181455578668e-02 0
-3.41143694173438039e-02 -1.85185317928021446e-02 0
-1.98861436283602061e-02 -1.60250740023299941e-02 0
-1.09629447186404775e-02 -1.15754396407229988e-02 0
-2.06976083875215619e-03 -6.09834184338937674e-03 0
-5.53701215939119535e-04 -8.36668060300393415e-04 0
-1.41017863706314811e-03 4.12556257948609728e-03 0
-5.29246119417297982e-03 1.38001884435194483e-02 0
-1.80496223120476529e-02 2.09100558132656288e-02 0
-2.87808622102497316e-02 2.52607385404853418e-02 0
-4.45928205406763978e-02 2.74643617136828763e-02 0
-5.67796568966661697e-02 2.64783186456600088e-02 0
-7.08818699051171203e-02 2.46542123712555211e-02 0
-8.07907289430355169e-02 1.97370742268851776e-02 0
-8.98038745620732132e-02 1.47771477563480753e-02 0
-9.46397310004513104e-02 6.90997268463727169e-03 0
-9.60934222417964834e-02 -3.31573899565402953e-04 0
-9.39634297990004225e-02 -9.77952409139527454e-03 0
-8.65889578900179285e-02 -1.74716739276571213e-02 0
-7.70919535025123143e-02 -2.54931370473330740e-02 0
-6.18002908396543399e-02 -2.97615918075720860e-02 0
-4.74924161512944518e-02 -3.14918896857356440e-02 0
-2.91539385369315417e-02 -2.80860145607041423e-02 0
-1.67357242762926524e-02 -2.07092044830137004e-02 0
-3.96779954489604510e-03 -1.12894681263730045e-02 0
-9.29054036201197868e-04 -1.74390430881451314e-03 0
-1.61235402444331725e-03 7.96838859148461462e-03 0
-7.08179529467690017e-03 2.30738177525315578e-02 0
-2.25064261835916345e-02 3.40998263092529424e-02 0
-3.59470847896707288e-02 3.97422009789567057e-02 0
-5.45192305868804766e-02 4.28672845162062430e-02 0
-6.92236699402925676e-02 4.04864549746829991e-02 0
-8.56048741120169210e-02 3.76037788736452577e-02 0
-9.74760365792112782e-02 2.94378210500219652e-02 0
-1.08105182469091662e-01 2.19396204514198598e-02 0
-1.14153189809349770e-01 9.47927655032232072e-03 0
-1.16367504278693856e-01 -1.30631492617921084e-03 0
-1.14459852691581002e-01 -1.60064586498242477e-02 0
-1.06667261542469902e-01 -2.74923520031900882e-02 0
-9.59786122373279676e-02 -4.03330559538619682e-02 0
-7.85392134921831797e-02 -4.71725204092593858e-02 0
-6.12185493721744065e-02 -5.11665933337366319e-02 0
-3.88861244403186784e-02 -4.67804164937796821e-02 0
-2.24295229009960524e-02 -3.67627482194634592e-02 0
-5.81887436380391053e-03 -2.19042954067574305e-02 0
-9.85181423872579735e-04 -5.73384508880886608e-03 0
-2.15288039091263931e-03 1.28194989422662341e-02 0
-8.49613204651360372e-03 3.46950185174859024e-02 0
-2.69194531862881718e-02 4.97744121453393418e-02 0
-4.22195989421261381e-02 5.72748616393721766e-02 0
-6.35891021593743694e-02 6.07395170215971891e-02 0
-8.00922595765708595e-02 5.75657118655980224e-02 0
-9.87119840110875085e-02 5.29047778417145384e-02 0
-1.12188918678897118e-01 4.22394339919437284e-02 0
-1.24550783415097066e-01 3.14522652543899259e-02 0
-1.31951613869600415e-01 1.51745090415906277e-02 0
-1.35290557727968358e-01 -2.70260075800793069e-05 0
-1.34223257508469529e-01 -1.94776103801144115e-02 0
-1.26545960461656698e-01 -3.59548452157653770e-02 0
-1.15609792611298876e-01 -5.36192908997562764e-02 0
-9.63819110872213974e-02 -6.45232594456336545e-02 0
-7.68267944028010047e-02 -7.11434628650959022e-02 0
-5.00981677408218265e-02 -6.68762101581696633e-02 0
-2.97272294560640520e-02 -5.37754164434925200e-02 0
-7.97970343277452053e-03 -3.27344233085449243e-02 0
-1.41636791105306781e-03 -8.54766222288242186e-03 0
-2.23420022223728195e-03 1.86177273028547280e-02 0
-9.62911662781898436e-03 4.78393064186030809e-02 0
-2.97961883271225282e-02 6.78246740224965200e-02 0
-4.68944616204008610e-02 7.64099601678183693e-02 0
-7.01352530251927730e-02 8.07420310800009006e-02 0
-8.84126740343738754e-02 7.56068299527706128e-02 0
-1.08823464277547369e-01 6.97030586618211656e-02 0
-1.24052586599434286e-01 5.52736732292615288e-02 0
-1.38221578998937999e-01 4.17052827914367319e-02 0
-1.47356322596691430e-01 2.02158559291707382e-02 0
-1.52378008045149643e-01 9.68419716623919588e-04 0
-1.52662832648220614e-01 -2.47541589375803589e-02 0
-1.45933708155797953e-01 -4.61030192862698709e-02 0
-1.35207751457398662e-01 -7.04997994463423816e-02 0
-1.15068115291954223e-01 -8.59532113405467035e-02 0
-9.33675326641185827e-02 -9.74524772946268325e-02 0
-6.27156473374760604e-02 -9.38782934787597417e-02 0
-3.76994523280031191e-02 -7.88826858717045637e-02 0
-1.06336957433190993e-02 -5.02142490363350763e-02 0
-1.51499273968990823e-03 -1.51303358569603256e-02 0
-2.89513353358829620e-03 2.46825376396588199e-02 0
-1.02451956480574188e-02 6.22579743048448583e-02 0
-3.27857461419970922e-02 8.70385621050802222e-02 0
-5.05470198056753167e-02 9.76156013508937825e-02 0
-7.58209770683331424e-02 1.02255904201209849e-01 0
-9.49794481007248809e-02 9.62561500938381304e-02 0
-1.17137832451748983e-01 8.85423835967899114e-02 0
-1.33640867833740656e-01 7.16401743995216111e-02 0
-1.49666404018963750e-01 5.47533763295104392e-02 0
-1.60582177958703887e-01 2.93337985444664211e-02 0
-1.67587003700018278e-01 5.27672859292418941e-03 0
-1.69805493327862211e-01 -2.59191271845782209e-02 0
-1.64558980555841422e-01 -5.34124033638505094e-02 0
-1.55160916801272530e-01 -8.44824891745245554e-02 0
-1.34677298320542010e-01 -1.06365498720560780e-01 0
-1.12108483090833808e-01 -1.23494044060717331e-01 0
-7.73800308311768520e-02 -1.22545750592651104e-01 0
-4.82828695814680672e-02 -1.05856074005792444e-01 0
-1.40237104283454112e-02 -6.89196603136897623e-02 0
-2.33244254104889980e-03 -2.06959696128859241e-02 0
-2.83567696254750359e-03 3.17584305692396596e-02 0
-1.05306688185829150e-02 7.77286842251768140e-02 0
-3.36778233846465533e-02 1.08128061660001412e-01 0
-5.20636364645602409e-02 1.19443051246214446e-01 0
-7.79988843451333291e-02 1.25176823543548393e-01 0
-9.78126135087903636e-02 1.16920837056653584e-01 0
-1.20854805016455111e-01 1.08367464493862836e-01 0
-1.38423344694537237e-01 8.77988754109908232e-02 0
-1.55998562567672444e-01 6.86499989813257327e-02 0
-1.68725871335482253e-01 3.81327704764888170e-02 0
-1.78036353130731129e-01 1.01953194013398515e-02 0
-1.82578332818340155e-01 -2.77857701589447822e-02 0
-1.79762156531288436e-01 -6.07443922718741286e-02 0
-1.72331624921070153e-01 -1.00384525414406678e-01 0
-1.52997362947397131e-01 -1.29003065759480728e-01 0
-1.30247873576456535e-01 -1.54752111899454231e-01 0
-9.29512075125809023e-02 -1.57702050321169962e-01 0
-5.95768747805839813e-02 -1.42240628260064256e-01 0
-1.83412201467822653e-02 -9.61636687222227615e-02 0
-2.76961177224982263e-03 -3.14869665551648290e-02 0
-3.78378911376172754e-03 3.80485672063953992e-02 0
-1.03475028385838792e-02 9.31012040760503395e-02 0
-3.53310275053380710e-02 1.28570190745526114e-01 0
-5.28524818237219654e-02 1.41938534225670487e-01 0
-7.95198932975151179e-02 1.48002831863786544e-01 0
-9.86199357498938195e-02 1.39114572637740103e-01 0
-1.21959719637763780e-01 1.29150509790570217e-01 0
-1.39525988905337350e-01 1.06786900635065476e-01 0
-1.58038477057513338e-01 8.50529189866177787e-02 0
-1.72058862781258898e-01 5.13748480708123983e-02 0
-1.83534071459745929e-01 1.91260291831118028e-02 0
-1.90664567142343117e-01 -2.41901290326914063e-02 0
-1.90746122685739788e-01 -6.36619324488953836e-02 0
-1.86525510770966046e-01 -1.11244601674899482e-01 0
-1.69425134735604555e-01 -1.48451490264201319e-01 0
-1.48622583805847558e-01 -1.83538141771423857e-01 0
-1.09600773837238361e-01 -1.93218334002186604e-01 0
-7.38315005919105150e-02 -1.80464667052760763e-01 0
-2.39081132789512318e-02 -1.25727770748005868e-01 0
-4.55868968324725770e-03 -4.18063769846892322e-02 0
-3.58653270207151369e-03 4.58901170499727354e-02 0
-9.88115642143219501e-03 1.09274630953338905e-01 0
-3.43977847862796809e-02 1.50634671836864048e-01 0
-5.11075050041236850e-02 1.63629681296455165e-01 0
-7.66609453322630030e-02 1.70946755885568458e-01 0
-9.44321093868706607e-02 1.59357666967773093e-01 0
-1.16644543362830658e-01 1.49276671750076778e-01 0
-1.33246437421153524e-01 1.23874061998044613e-01 0
-1.51662227813494643e-01 1.01186497291627889e-01 0
-1.66136712468139380e-01 6.36244293654801285e-02 0
-1.79420010708303240e-01 2.88048755316656635e-02 0
-1.89006016996218523e-01 -2.05776031274418243e-02 0
-1.92694864907842101e-01 -6.48800109380691103e-02 0
-1.92285127108457965e-01 -1.21708723047966441e-01 0
-1.79441743221846028e-01 -1.66903311026886436e-01 0
-1.62022468743300341e-01 -2.14578888697601916e-01 0
-1.24362717945533691e-01 -2.32491260958986978e-01 0
-8.73497080533584547e-02 -2.27934908426498301e-01 0
-3.07213654104482210e-02 -1.65435467940145908e-01 0
-6.03089209583670786e-03 -5.99542633024671215e-02 0
-5.36970394134029735e-03 5.15159300365858608e-02 0
-9.65175488791136446e-03 1.23913559948649721e-01 0
-3.60574125434818954e-02 1.69795172287914492e-01 0
-5.02095666887891756e-02 1.84203608216517600e-01 0
-7.43210445705480005e-02 1.91325328185086019e-01 0
-8.88806759729296042e-02 1.79100753373317712e-01 0
-1.08290186684899994e-01 1.67962132289219745e-01 0
-1.22063984025270286e-01 1.41807677799747706e-01 0
-1.38515728685270928e-01 1.17940069015658747e-01 0
-1.51884987244466668e-01 7.91360527425408744e-02 0
-1.65828272566007573e-01 4.19919899009147321e-02 0
-1.77287813383467024e-01 -1.09118474776719199e-02 0
-1.84732213839914283e-01 -6.03858266921206699e-02 0
-1.88991732162519827e-01 -1.24494924147544761e-01 0
-1.82124565659305210e-01 -1.78716454766542798e-01 0
-1.70912779228593631e-01 -2.38615097211129501e-01 0
-1.37223790252705563e-01 -2.67892667671693951e-01 0
-1.02885473214445314e-01 -2.74104661730125432e-01 0
-3.94337296330255355e-02 -2.07047415788229328e-01 0
-1.02409736548191299e-02 -7.85582082262372278e-02 0
-5.33544171377370920e-03 6.09119639442742278e-02 0
-9.51973124114144711e-03 1.39961082333711934e-01 0
-3.49488172516380716e-02 1.91194073910318785e-01 0
-4.68176199853436656e-02 2.01891126077460153e-01 0
-6.73818649860490060e-02 2.09620307010915996e-01 0
-7.77308409643247822e-02 1.93323839161419431e-01 0
-9.26822257557661511e-02 1.82463128272078473e-01 0
-1.01825985066048702e-01 1.54096021114689508e-01 0
-1.14567782804393309e-01 1.31011158702054376e-01 0
-1.24642695182914973e-01 9.09329857656081680e-02 0
-1.37579674710652661e-01 5.42116392418622237e-02 0
-1.49231146227140038e-01 -1.67771415485683381e-03 0
-1.60253724309175866e-01 -5.31725255386748391e-02 0
-1.69062713189243902e-01 -1.24319634136482601e-01 0
-1.70105397750568210e-01 -1.84979584197253716e-01 0
-1.66929745644957161e-01 -2.59482015348716566e-01 0
-1.42081807230132084e-01 -3.00516779401065082e-01 0
-1.13440973555818225e-01 -3.25726475834839269e-01 0
-4.90913579529991956e-02 -2.58079027899762503e-01 0
-1.43783114873139526e-02 -1.09629436293002355e-01 0
-9.96207411406918771e-03 6.63707939427399807e-02 0
-1.23874273150415826e-02 1.53527967460948545e-01 0
-4.04313259608857292e-02 2.07091776130409744e-01 0
-4.81689823215200805e-02 2.16638464686392446e-01 0
-6.33490573053894362e-02 2.22236535598025281e-01 0
-6.73591432806093376e-02 2.04403601684704533e-01 0
-7.43720607116034327e-02 1.92054643639466449e-01 0
-7.66616721894914227e-02 1.63696266438409899e-01 0
-8.23893403618575215e-02 1.40753689675670923e-01 0
-8.66050037267698247e-02 1.02151344459969942e-01 0
-9.60093563373061037e-02 6.65770851215641696e-02 0
-1.05240051325676515e-01 1.17657272174924010e-02 0
-1.19296360779197697e-01 -4.05573513592807147e-02 0
-1.31768262357387755e-01 -1.14640429706866845e-01 0
-1.42847601561044923e-01 -1.80851705825321674e-01 0
-1.49999833361966650e-01 -2.66636700173634056e-01 0
-1.39411638900671903e-01 -3.21382918136525753e-01 0
-1.22490197941906076e-01 -3.67093879638283160e-01 0
-6.08696719407870179e-02 -3.06110824990199093e-01 0
-2.39491944872723544e-02 -1.42027486955279336e-01 0
-1.15644145932654180e-02 8.32618204226136388e-02 0
-1.58966122352054359e-02 1.70429200644546502e-01 0
-4.22527543523046820e-02 2.26977074039818538e-01 0
-4.58046600461294792e-02 2.24806854078771545e-01 0
-5.35335131535402131e-02 2.28812736175055847e-01 0
-4.96622641565676037e-02 2.04344051609323979e-01 0
-4.78533046297072509e-02 1.91768658906617706e-01 0
-4.10676224897400660e-02 1.62109847992116002e-01 0
-3.84290341936586594e-02 1.40958059672624647e-01 0
-3.40793365804705900e-02 1.04549080784211892e-01 0
-3.74382363005846264e-02 7.28506044431114635e-02 0
-4.07584762266962886e-02 2.16051749742895982e-02 0
-5.46998918682769369e-02 -2.66406413863129361e-02 0
-6.84242928889917945e-02 -1.00771694567694442e-01 0
-8.92532087886334508e-02 -1.66745354402652562e-01 0
-1.07278681803318190e-01 -2.62920229750608692e-01 0
-1.16351581667410886e-01 -3.28024749579364339e-01 0
-1.15859345777768588e-01 -4.04269783695123064e-01 0
-6.98886673572996636e-02 -3.56619206965045954e-01 0
-3.24405262510025633e-02 -1.94448716015808626e-01 0
-2.59922110035187316e-02 9.38315557558921792e-02 0
-3.10813175326721015e-02 1.84217178151963729e-01 0
-5.57874030366305798e-02 2.36998726328887771e-01 0
-5.24933981829086918e-02 2.27920790990348732e-01 0
-4.53000245810609090e-02 2.26092360237036577e-01 0
-3.10475157976852906e-02 1.98725630701582973e-01 0
-1.34564266577767155e-02 1.83457584430547299e-01 0
4.05391436060428649e-03 1.54274821882735752e-01 0
1.90316878943471400e-02 1.33762480359239266e-01 0
3.32540416768168715e-02 1.01163791307373491e-01 0
3.82409940315571462e-02 7.32529849568944874e-02 0
4.31063716498831864e-02 2.90308336601688977e-02 0
3.13370229613804396e-02 -1.28946625208605087e-02 0
2.08675893725899855e-02 -8.00842846318675777e-02 0
-1.03216744470751246e-02 -1.41999570499302535e-01 0
-3.74193719356921417e-02 -2.39536444015915978e-01 0
-7.52659691704686273e-02 -3.12803610463105841e-01 0
-9.72424717019002294e-02 -4.13555728262694267e-01 0
-7.83502971851824243e-02 -3.89530277424625537e-01 0
-4.91592269454015629e-02 -2.44356354122135355e-01 0
-3.20734574974600867e-02 1.40335643417172584e-01 0
-4.07800532299549406e-02 2.00223469382085101e-01 0
-5.38986677336671244e-02 2.48390356810511609e-01 0
-3.98162661519618627e-02 2.14317775436957014e-01 0
-1.59662851165422448e-02 2.07368835914378102e-01 0
1.26257897062825065e-02 1.72497961866104360e-01 0
4.38170649331912423e-02 1.56669969339417708e-01 0
7.41454134617272609e-02 1.29618564095126954e-01 0
9.99008933970264162e-02 1.11761212421903414e-01 0
1.24732930459422200e-01 8.53362061049510179e-02 0
1.38783225500071883e-01 6.30018438838987338e-02 0
1.51984059626410595e-01 2.85053740372596676e-02 0
1.47194054380005129e-01 -4.39831551811470118e-03 0
1.41338079788677323e-01 -5.91162578078700193e-02 0
1.09128024715016717e-01 -1.08455733838819082e-01 0
7.60503230701708444e-02 -1.97978120899721555e-01 0
1.49065956827898593e-02 -2.68200080733748458e-01 0
-3.39417931234557296e-02 -4.01186632271800903e-01 0
-6.56161398796707568e-02 -4.04701753361711603e-01 0
-5.26412465347225536e-02 -3.21958574942025455e-01 0
-6.85746271340780117e-02 1.66684871819015368e-01 0
-7.59915054655852934e-02 2.06043022280494370e-01 0
-4.52238014025990800e-02 2.36034113703625509e-01 0
-1.30754132514499660e-02 1.89989631628802808e-01 0
4.90138814866400777e-02 1.73648872543055582e-01 0
9.38342296548681370e-02 1.38944086509860093e-01 0
1.46566581559727793e-01 1.21936033392926496e-01 0
1.88927819351836251e-01 9.81931868812342262e-02 0
2.27779224588244206e-01 8.31727419965431064e-02 0
2.61589965659105916e-01 6.22838570498496155e-02 0
2.83912264418644755e-01 4.59995017091089434e-02 0
3.03944537709408158e-01 2.06224763754096103e-02 0
3.03101306470112575e-01 -2.25100617712396377e-03 0
3.01072249889524746e-01 -4.20160737151865776e-02 0
2.63610634139830435e-01 -7.67136411909727645e-02 0
2.28914280332699921e-01 -1.45313436575067539e-01 0
1.41155170182393597e-01 -2.02812670766434111e-01 0
7.28080194366549222e-02 -3.33032105815309620e-01 0
-3.55377599151761106e-02 -3.70831332975575245e-01 0
-5.49468191058807079e-02 -3.62613498055826822e-01 0
-2.35469494322654259e-02 2.84901984319184121e-01 0
2.54817322939971530e-03 1.76871985195670517e-01 0
8.42644254288933831e-02 1.85475169767918474e-01 0
1.48221407138347250e-01 1.20078784038212802e-01 0
2.25842842815993067e-01 1.00460711971374211e-01 0
2.86724231685506092e-01 7.49434403344643590e-02 0
3.45731636162037281e-01 6.15783005168514461e-02 0
3.95147762029269711e-01 4.84038011648308814e-02 0
4.36999982492200345e-01 3.91012057479071320e-02 0
4.73402540167034480e-01 2.92009107234926062e-02 0
4.97830917304892262e-01 2.06494768303539383e-02 0
5.18846954477448552e-01 9.31407782116774711e-03 0
5.21093457017289041e-01 -1.52390796036786197e-03 0
5.20265174129591501e-01 -1.96275808405952899e-02 0
4.87830782824656362e-01 -3.62960447946827081e-02 0
4.54780944402678244e-01 -7.55241719056042177e-02 0
3.67497474655731404e-01 -1.12092632880164397e-01 0
2.87422014029643513e-01 -2.24494623714647124e-01 0
1.20083047138074397e-01 -2.76946357082813566e-01 0
3.10225422310057702e-02 -4.12443396388801675e-01 0
1.95479921189762845e-01 1.87683545946780328e-01 0
2.77105677120421778e-01 9.82319903438095693e-02 0
4.70583690959619216e-01 9.03604296812608038e-02 0
5.52941550940960869e-01 4.84118632211454347e-02 0
6.39073971117064654e-01 3.51453228189298195e-02 0
6.88548001463041515e-01 1.90561617914957425e-02 0
7.33073086321075706e-01 1.35116016048327757e-02 0
7.63638420578966692e-01 6.92583792677006760e-03 0
7.88402159823908932e-01 4.91697079465753216e-03 0
8.07657171778468519e-01 1.45397071168991703e-03 0
8.19056441420756842e-01 5.54076593132576825e-04 0
8.28861311898952735e-01 -2.63903096935589557e-03 0
8.25730899912294758e-01 -3.67018580530707565e-03 0
8.23667769693556151e-01 -8.75248174301744564e-03 0
7.97350314038385188e-01 -1.12302058812962773e-02 0
7.76141980202549209e-01 -2.49794126563201574e-02 0
6.96846318047284696e-01 -3.54543071597167303e-02 0
6.28595373196379148e-01 -8.56172209399059803e-02 0
3.86734204472028498e-01 -1.14432145781553030e-01 0
2.37217048098424366e-01 -2.11507779462969142e-01 0
SCALARS velocity_magnitude double 1
LOOKUP_TABLE default
5.41978338596565100e-04
6.54190763612642868e-04
1.88389627762609066e-03
3.11747736881074454e-03
6.92633782913724873e-03
8.94838041098484221e-03
1.25833792028609941e-02
1.45179487505621187e-02
1.69718569445203270e-02
1.81204881584000888e-02
1.85896078163743719e-02
1.83055829739997740e-02
1.62668920576808929e-02
1.43030419178701088e-02
1.01208469362164231e-02
7.35268505460877526e-03
2.95485814063519868e-03
1.43589948497208661e-03
9.76086182408903769e-04
3.79764290596221448e-05
5.76403526331849270e-04
2.48521294029525755e-03
8.21548955821153025e-03
1.28229594983119647e-02
2.11618694904189865e-02
2.69460003371033742e-02
3.48640613836716656e-02
3.98987219052306177e-02
4.51033363368575566e-02
4.76710198378770336e-02
4.84524718093269219e-02
4.73009802421441722e-02
4.28312504316162093e-02
3.77843566720470897e-02
2.90040905798057483e-02
2.19241930753103116e-02
1.23125037709305805e-02
6.81104454450869989e-03
1.00382804564799711e-03
9.62395085206420699e-04
1.53971156094700828e-03
7.19336481272798371e-03
1.64087000597871249e-02
2.43360707270718693e-02
3.60619765003137374e-02
4.47193176754967017e-02
5.55287583484847108e-02
6.26897686888933658e-02
6.96710620156292260e-02
7.31610381152280470e-02
7.42065912139585754e-02
7.26056278685036499e-02
6.68562868907348340e-02
6.01204864132232758e-02
4.87414292793277998e-02
3.88165714676608972e-02
2.55394147385550677e-02
1.59429282059472543e-02
6.44000645717578233e-03
1.00329381522028835e-03
4.35991632783076007e-03
1.47802349970653241e-02
2.76228039800714698e-02
3.82941632781830382e-02
5.23718512954524165e-02
6.26500662059046587e-02
7.50471163262980828e-02
8.31666638875493969e-02
9.10115376321789377e-02
9.48916561471039866e-02
9.60939942940819691e-02
9.44709756012176577e-02
8.83340648805072959e-02
8.11977175254798983e-02
6.85932088095199538e-02
5.69848112032169257e-02
4.04818026540230413e-02
2.66262204860428127e-02
1.19664332114824117e-02
1.97594120370105184e-03
8.12987713591298636e-03
2.41361324630262261e-02
4.08575253029191468e-02
5.35876426382758883e-02
6.93538072897142283e-02
8.01939493753712068e-02
9.34999393438962351e-02
1.01824176968757535e-01
1.10309008799045802e-01
1.14546093026200280e-01
1.16374836243657895e-01
1.15573632791770270e-01
1.10153230109865538e-01
1.04108834445404877e-01
9.16168911158456722e-02
7.97855316496251521e-02
6.08320478146136684e-02
4.30648714640363209e-02
2.26640123572201778e-02
5.81786575475931340e-03
1.29990171593217484e-02
3.57201423524666981e-02
5.65875345306973490e-02
7.11540885026517994e-02
8.79366979221544581e-02
9.86335704852757539e-02
1.11995407521408519e-01
1.19877117325617913e-01
1.28460665726699869e-01
1.32821286424448709e-01
1.35290560427362511e-01
1.35629127263668769e-01
1.31554669258270057e-01
1.27438818670843862e-01
1.15985877564096590e-01
1.04707920649048977e-01
8.35598820972552336e-02
6.14451266155789447e-02
3.36929983263295069e-02
8.66421534450478002e-03
1.87513045027941326e-02
4.87987615175338035e-02
7.40810316145993492e-02
8.96525099677350917e-02
1.06949657782676621e-01
1.16332255481511326e-01
1.29232591725848750e-01
1.35809510691502489e-01
1.44376367573344100e-01
1.48736567931928493e-01
1.52381085350365042e-01
1.54656745267982426e-01
1.53042920657610881e-01
1.52483959078127923e-01
1.43626688664033303e-01
1.34961036920457189e-01
1.12899895515641696e-01
8.74284097771736851e-02
5.13278315482405822e-02
1.52059944148921905e-02
2.48517496871041611e-02
6.30953199406239368e-02
9.30086901499391216e-02
1.09926370077120028e-01
1.27299216445364294e-01
1.35227001713436601e-01
1.46836730706234098e-01
1.51631778144784707e-01
1.59367389109091845e-01
1.63239418079727860e-01
1.67670055984344812e-01
1.71772252469160447e-01
1.73010239334787541e-01
1.76669751456595053e-01
1.71614667208236843e-01
1.66790559982866432e-01
1.44931467113771140e-01
1.16347513505621863e-01
7.03319559797142835e-02
2.08269884146698517e-02
3.18847765564875610e-02
7.84387871983237978e-02
1.13251373087819615e-01
1.30296833165352482e-01
1.47489196592625521e-01
1.52439461752685745e-01
1.62324955741235316e-01
1.63919690336022050e-01
1.70435835091438559e-01
1.72981293330031177e-01
1.78328033617223880e-01
1.84680525876580431e-01
1.89748027956178678e-01
1.99437313185401865e-01
2.00124921097304814e-01
2.02268941532133900e-01
1.83056995642198017e-01
1.54213489476242555e-01
9.78971477551319469e-02
3.16085401784874168e-02
3.82362462398835520e-02
9.36744629843420662e-02
1.33336324581578014e-01
1.51459342178218548e-01
1.68012653302507142e-01
1.70524942596366968e-01
1.77634533222811475e-01
1.75701291194048065e-01
1.79471889884745828e-01
1.79565105952908172e-01
1.84527939290786980e-01
1.92192974653589560e-01
2.01089345721674223e-01
2.17179942835835610e-01
2.25261450856199558e-01
2.36167148227761498e-01
2.22138817454991450e-01
1.94983554522213692e-01
1.27980741589593411e-01
4.20541889496646795e-02
4.60300560469268510e-02
1.09720473122445220e-01
1.54512174140431197e-01
1.71425347218332969e-01
1.87349122995108641e-01
1.85235766807238356e-01
1.89445174721087711e-01
1.81932394919994328e-01
1.82318782848890693e-01
1.77902993909051982e-01
1.81717531066659610e-01
1.90122887131574325e-01
2.03324191332894477e-01
2.27566656988853339e-01
2.45063368217758148e-01
2.68878001800763877e-01
2.63663179145477489e-01
2.44098943005501612e-01
1.68263770150491182e-01
6.02568282239712774e-02
5.17950264789203002e-02
1.24288884102979738e-01
1.73581501121557902e-01
1.90923989763099905e-01
2.05253499047368865e-01
1.99942127677722986e-01
1.99845046011633332e-01
1.87107011303901949e-01
1.81924344090146267e-01
1.71264602863294590e-01
1.71062395628216984e-01
1.77623301370250980e-01
1.94351328514848709e-01
2.26311424732143274e-01
2.55164512855750203e-01
2.93510379238484109e-01
3.00993106239287767e-01
2.92777707793381747e-01
2.10769189914831900e-01
7.92229109608801607e-02
6.11451902428117380e-02
1.40284460475591011e-01
1.94362017188834585e-01
2.07248441079581985e-01
2.20183988610318376e-01
2.08365521200441217e-01
2.04652847890948647e-01
1.84700067563739689e-01
1.74039364975770688e-01
1.54287424512529053e-01
1.47875179535914059e-01
1.49240576684263243e-01
1.68844821143920104e-01
2.09851310271671726e-01
2.51303189223033741e-01
3.08539229710780349e-01
3.32411754676889937e-01
3.44915339672036025e-01
2.62706577891296644e-01
1.10568300806097614e-01
6.71142697885021844e-02
1.54026897482795216e-01
2.11001648950436271e-01
2.21928986929531641e-01
2.31089118774757268e-01
2.15216371508249821e-01
2.05951910789807624e-01
1.80758069332364574e-01
1.63093852007293871e-01
1.33922827947640238e-01
1.16834518733068868e-01
1.05895706900645731e-01
1.26002065238791428e-01
1.74657674002777347e-01
2.30462094001750606e-01
3.05933129765480261e-01
3.50317834445978693e-01
3.86990652419065106e-01
3.12104075811834469e-01
1.44032534406019680e-01
8.40610874600875718e-02
1.71168965390620903e-01
2.30876346536481453e-01
2.29425779987201012e-01
2.34991713186818524e-01
2.10292253564582754e-01
1.97649076149690739e-01
1.67230835771955522e-01
1.46102584699000448e-01
1.09963227829073223e-01
8.19074606188294890e-02
4.61306510900489630e-02
6.08424353874441742e-02
1.21806478823596367e-01
1.89129977777013430e-01
2.83964368859141281e-01
3.48048742122583854e-01
4.20544225989317511e-01
3.63402923215206897e-01
1.97136224229943535e-01
9.73650650306491644e-02
1.86820815290585696e-01
2.43476139732595770e-01
2.33887673506868760e-01
2.30585878979174791e-01
2.01136333204494533e-01
1.83950430017131294e-01
1.54328075503431833e-01
1.35109608451670499e-01
1.06489172968547791e-01
8.26339726118537760e-02
5.19706511391020420e-02
3.38863000283148308e-02
8.27583768039285156e-02
1.42374207584722995e-01
2.42441575246185259e-01
3.21731355068051117e-01
4.24834601558750469e-01
3.97331858903249957e-01
2.49252196366916506e-01
1.43954157595927723e-01
2.04334163645819966e-01
2.54170879016297813e-01
2.17984962597262188e-01
2.07982586696355387e-01
1.72959409728604435e-01
1.62681942673959912e-01
1.49326871310869636e-01
1.49902491985750036e-01
1.51130976352903040e-01
1.52413962657543117e-01
1.54634118905008833e-01
1.47259752900175678e-01
1.53203083309563559e-01
1.53855685565136208e-01
2.12082502800353928e-01
2.68614016574785897e-01
4.02619869397952912e-01
4.09986569276058310e-01
3.26233696627784397e-01
1.80239634875072385e-01
2.19609735515997523e-01
2.40327474594890511e-01
1.90439036329593914e-01
1.80433620796848049e-01
1.67661330756325611e-01
1.90657176811430906e-01
2.12921635525685993e-01
2.42489340312611101e-01
2.68902564105547914e-01
2.87614547693277822e-01
3.04643346448334851e-01
3.03109664993874039e-01
3.03989884871158855e-01
2.74546078421056383e-01
2.71141554523636419e-01
2.47098687759839175e-01
3.40897919028655738e-01
3.72530280509156264e-01
3.66752916692066000e-01
2.85873397672071428e-01
1.76890339854567868e-01
2.03719247969600836e-01
1.90757699478074666e-01
2.47178769923722952e-01
2.96356717968075112e-01
3.51172680227011702e-01
3.98101346146863544e-01
4.38745813642846705e-01
4.74302285703623927e-01
4.98258992009173673e-01
5.18930548547859471e-01
5.21095685303285650e-01
5.20635278618101549e-01
4.89179185512890247e-01
4.61009336059281127e-01
3.84212379061824705e-01
3.64704332611552051e-01
3.01859607949467590e-01
4.13608454158283234e-01
2.70993566358157467e-01
2.94001837101868724e-01
4.79180568730995682e-01
5.55056814441132751e-01
6.40039634925354872e-01
6.88811648871425763e-01
7.33197594967574307e-01
7.63669826964066156e-01
7.88417492333091219e-01
8.07658480520092814e-01
8.19056628832039113e-01
8.28865513124602327e-01
8.25739056442054031e-01
8.23714271315374780e-01
7.97429395508622907e-01
7.76543845825455659e-01
6.97747661316204582e-01
6.34399284146323628e-01
4.03308890178214863e-01
3.17816721841199190e-01
