# vtk DataFile Version 3.0
CFDApp solution
ASCII
DATASET UNSTRUCTURED_GRID
POINTS 585 double
0.00000000000000000e+00 0.00000000000000000e+00 0
1.25000000000000000e-01 0.00000000000000000e+00 0
2.50000000000000000e-01 0.00000000000000000e+00 0
3.75000000000000000e-01 0.00000000000000000e+00 0
5.00000000000000000e-01 0.00000000000000000e+00 0
6.25000000000000000e-01 0.00000000000000000e+00 0
7.50000000000000000e-01 0.00000000000000000e+00 0
8.75000000000000000e-01 0.00000000000000000e+00 0
1.00000000000000000e+00 0.00000000000000000e+00 0
1.12500000000000000e+00 0.00000000000000000e+00 0
1.25000000000000000e+00 0.00000000000000000e+00 0
1.37500000000000000e+00 0.00000000000000000e+00 0
1.50000000000000000e+00 0.00000000000000000e+00 0
1.62500000000000000e+00 0.00000000000000000e+00 0
1.75000000000000000e+00 0.00000000000000000e+00 0
1.87500000000000000e+00 0.00000000000000000e+00 0
2.00000000000000000e+00 0.00000000000000000e+00 0
2.12500000000000000e+00 0.00000000000000000e+00 0
2.25000000000000000e+00 0.00000000000000000e+00 0
2.37500000000000000e+00 0.00000000000000000e+00 0
2.50000000000000000e+00 0.00000000000000000e+00 0
2.62500000000000000e+00 0.00000000000000000e+00 0
2.75000000000000000e+00 0.00000000000000000e+00 0
2.87500000000000000e+00 0.00000000000000000e+00 0
3.00000000000000000e+00 0.00000000000000000e+00 0
3.12500000000000000e+00 0.00000000000000000e+00 0
3.25000000000000000e+00 0.00000000000000000e+00 0
3.37500000000000000e+00 0.00000000000000000e+00 0
3.50000000000000000e+00 0.00000000000000000e+00 0
3.62500000000000000e+00 0.00000000000000000e+00 0
3.75000000000000000e+00 0.00000000000000000e+00 0
3.87500000000000000e+00 0.00000000000000000e+00 0
4.00000000000000000e+00 0.00000000000000000e+00 0
4.12500000000000000e+00 0.00000000000000000e+00 0
4.25000000000000000e+00 0.00000000000000000e+00 0
4.37500000000000000e+00 0.00000000000000000e+00 0
4.50000000000000000e+00 0.00000000000000000e+00 0
4.62500000000000000e+00 0.00000000000000000e+00 0
4.75000000000000000e+00 0.00000000000000000e+00 0
4.87500000000000000e+00 0.00000000000000000e+00 0
5.00000000000000000e+00 0.00000000000000000e+00 0
5.12500000000000000e+00 0.00000000000000000e+00 0
5.25000000000000000e+00 0.00000000000000000e+00 0
5.37500000000000000e+00 0.00000000000000000e+00 0
5.50000000000000000e+00 0.00000000000000000e+00 0
5.62500000000000000e+00 0.00000000000000000e+00 0
5.75000000000000000e+00 0.00000000000000000e+00 0
5.87500000000000000e+00 0.00000000000000000e+00 0
6.00000000000000000e+00 0.00000000000000000e+00 0
6.12500000000000000e+00 0.00000000000000000e+00 0
6.25000000000000000e+00 0.00000000000000000e+00 0
6.37500000000000000e+00 0.00000000000000000e+00 0
6.50000000000000000e+00 0.00000000000000000e+00 0
6.62500000000000000e+00 0.00000000000000000e+00 0
6.75000000000000000e+00 0.00000000000000000e+00 0
6.87500000000000000e+00 0.00000000000000000e+00 0
7.00000000000000000e+00 0.00000000000000000e+00 0
7.12500000000000000e+00 0.00000000000000000e+00 0
7.25000000000000000e+00 0.00000000000000000e+00 0
7.37500000000000000e+00 0.00000000000000000e+00 0
7.50000000000000000e+00 0.00000000000000000e+00 0
7.62500000000000000e+00 0.00000000000000000e+00 0
7.75000000000000000e+00 0.00000000000000000e+00 0
7.87500000000000000e+00 0.00000000000000000e+00 0
8.00000000000000000e+00 0.00000000000000000e+00 0
0.00000000000000000e+00 1.25000000000000000e-01 0
1.25000000000000000e-01 1.25000000000000000e-01 0
2.50000000000000000e-01 1.25000000000000000e-01 0
3.75000000000000000e-01 1.25000000000000000e-01 0
5.00000000000000000e-01 1.25000000000000000e-01 0
6.25000000000000000e-01 1.25000000000000000e-01 0
7.50000000000000000e-01 1.25000000000000000e-01 0
8.75000000000000000e-01 1.25000000000000000e-01 0
1.00000000000000000e+00 1.25000000000000000e-01 0
1.12500000000000000e+00 1.25000000000000000e-01 0
1.25000000000000000e+00 1.25000000000000000e-01 0
1.37500000000000000e+00 1.25000000000000000e-01 0
1.50000000000000000e+00 1.25000000000000000e-01 0
1.62500000000000000e+00 1.25000000000000000e-01 0
1.75000000000000000e+00 1.25000000000000000e-01 0
1.87500000000000000e+00 1.25000000000000000e-01 0
2.00000000000000000e+00 1.25000000000000000e-01 0
2.12500000000000000e+00 1.25000000000000000e-01 0
2.25000000000000000e+00 1.25000000000000000e-01 0
2.37500000000000000e+00 1.25000000000000000e-01 0
2.50000000000000000e+00 1.25000000000000000e-01 0
2.62500000000000000e+00 1.25000000000000000e-01 0
2.75000000000000000e+00 1.25000000000000000e-01 0
2.87500000000000000e+00 1.25000000000000000e-01 0
3.00000000000000000e+00 1.25000000000000000e-01 0
3.12500000000000000e+00 1.25000000000000000e-01 0
3.25000000000000000e+00 1.25000000000000000e-01 0
3.37500000000000000e+00 1.25000000000000000e-01 0
3.50000000000000000e+00 1.25000000000000000e-01 0
3.62500000000000000e+00 1.25000000000000000e-01 0
3.75000000000000000e+00 1.25000000000000000e-01 0
3.87500000000000000e+00 1.25000000000000000e-01 0
4.00000000000000000e+00 1.25000000000000000e-01 0
4.12500000000000000e+00 1.25000000000000000e-01 0
4.25000000000000000e+00 1.25000000000000000e-01 0
4.37500000000000000e+00 1.25000000000000000e-01 0
4.50000000000000000e+00 1.25000000000000000e-01 0
4.62500000000000000e+00 1.25000000000000000e-01 0
4.75000000000000000e+00 1.25000000000000000e-01 0
4.87500000000000000e+00 1.25000000000000000e-01 0
5.00000000000000000e+00 1.25000000000000000e-01 0
5.12500000000000000e+00 1.25000000000000000e-01 0
5.25000000000000000e+00 1.25000000000000000e-01 0
5.37500000000000000e+00 1.25000000000000000e-01 0
5.50000000000000000e+00 1.25000000000000000e-01 0
5.62500000000000000e+00 1.25000000000000000e-01 0
5.75000000000000000e+00 1.25000000000000000e-01 0
5.87500000000000000e+00 1.25000000000000000e-01 0
6.00000000000000000e+00 1.25000000000000000e-01 0
6.12500000000000000e+00 1.25000000000000000e-01 0
6.25000000000000000e+00 1.25000000000000000e-01 0
6.37500000000000000e+00 1.25000000000000000e-01 0
6.50000000000000000e+00 1.25000000000000000e-01 0
6.62500000000000000e+00 1.25000000000000000e-01 0
6.75000000000000000e+00 1.25000000000000000e-01 0
6.87500000000000000e+00 1.25000000000000000e-01 0
7.00000000000000000e+00 1.25000000000000000e-01 0
7.12500000000000000e+00 1.25000000000000000e-01 0
7.25000000000000000e+00 1.25000000000000000e-01 0
7.37500000000000000e+00 1.25000000000000000e-01 0
7.50000000000000000e+00 1.25000000000000000e-01 0
7.62500000000000000e+00 1.25000000000000000e-01 0
7.75000000000000000e+00 1.25000000000000000e-01 0
7.87500000000000000e+00 1.25000000000000000e-01 0
8.00000000000000000e+00 1.25000000000000000e-01 0
0.00000000000000000e+00 2.50000000000000000e-01 0
1.25000000000000000e-01 2.50000000000000000e-01 0
2.50000000000000000e-01 2.50000000000000000e-01 0
3.75000000000000000e-01 2.50000000000000000e-01 0
5.00000000000000000e-01 2.50000000000000000e-01 0
6.25000000000000000e-01 2.50000000000000000e-01 0
7.50000000000000000e-01 2.50000000000000000e-01 0
8.75000000000000000e-01 2.50000000000000000e-01 0
1.00000000000000000e+00 2.50000000000000000e-01 0
1.12500000000000000e+00 2.50000000000000000e-01 0
1.25000000000000000e+00 2.50000000000000000e-01 0
1.37500000000000000e+00 2.50000000000000000e-01 0
1.50000000000000000e+00 2.50000000000000000e-01 0
1.62500000000000000e+00 2.50000000000000000e-01 0
1.75000000000000000e+00 2.50000000000000000e-01 0
1.87500000000000000e+00 2.50000000000000000e-01 0
2.00000000000000000e+00 2.50000000000000000e-01 0
2.12500000000000000e+00 2.50000000000000000e-01 0
2.25000000000000000e+00 2.50000000000000000e-01 0
2.37500000000000000e+00 2.50000000000000000e-01 0
2.50000000000000000e+00 2.50000000000000000e-01 0
2.62500000000000000e+00 2.50000000000000000e-01 0
2.75000000000000000e+00 2.50000000000000000e-01 0
2.87500000000000000e+00 2.50000000000000000e-01 0
3.00000000000000000e+00 2.50000000000000000e-01 0
3.12500000000000000e+00 2.50000000000000000e-01 0
3.25000000000000000e+00 2.50000000000000000e-01 0
3.37500000000000000e+00 2.50000000000000000e-01 0
3.50000000000000000e+00 2.50000000000000000e-01 0
3.62500000000000000e+00 2.50000000000000000e-01 0
3.75000000000000000e+00 2.50000000000000000e-01 0
3.87500000000000000e+00 2.50000000000000000e-01 0
4.00000000000000000e+00 2.50000000000000000e-01 0
4.12500000000000000e+00 2.50000000000000000e-01 0
4.25000000000000000e+00 2.50000000000000000e-01 0
4.37500000000000000e+00 2.50000000000000000e-01 0
4.50000000000000000e+00 2.50000000000000000e-01 0
4.62500000000000000e+00 2.50000000000000000e-01 0
4.75000000000000000e+00 2.50000000000000000e-01 0
4.87500000000000000e+00 2.50000000000000000e-01 0
5.00000000000000000e+00 2.50000000000000000e-01 0
5.12500000000000000e+00 2.50000000000000000e-01 0
5.25000000000000000e+00 2.50000000000000000e-01 0
5.37500000000000000e+00 2.50000000000000000e-01 0
5.50000000000000000e+00 2.50000000000000000e-01 0
5.62500000000000000e+00 2.50000000000000000e-01 0
5.75000000000000000e+00 2.50000000000000000e-01 0
5.87500000000000000e+00 2.50000000000000000e-01 0
6.00000000000000000e+00 2.50000000000000000e-01 0
6.12500000000000000e+00 2.50000000000000000e-01 0
6.25000000000000000e+00 2.50000000000000000e-01 0
6.37500000000000000e+00 2.50000000000000000e-01 0
6.50000000000000000e+00 2.50000000000000000e-01 0
6.62500000000000000e+00 2.50000000000000000e-01 0
6.75000000000000000e+00 2.50000000000000000e-01 0
6.87500000000000000e+00 2.50000000000000000e-01 0
7.00000000000000000e+00 2.50000000000000000e-01 0
7.12500000000000000e+00 2.50000000000000000e-01 0
7.25000000000000000e+00 2.50000000000000000e-01 0
7.37500000000000000e+00 2.50000000000000000e-01 0
7.50000000000000000e+00 2.50000000000000000e-01 0
7.62500000000000000e+00 2.50000000000000000e-01 0
7.75000000000000000e+00 2.50000000000000000e-01 0
7.87500000000000000e+00 2.50000000000000000e-01 0
8.00000000000000000e+00 2.50000000000000000e-01 0
0.00000000000000000e+00 3.75000000000000000e-01 0
1.25000000000000000e-01 3.75000000000000000e-01 0
2.50000000000000000e-01 3.75000000000000000e-01 0
3.75000000000000000e-01 3.75000000000000000e-01 0
5.00000000000000000e-01 3.75000000000000000e-01 0
6.25000000000000000e-01 3.75000000000000000e-01 0
7.50000000000000000e-01 3.75000000000000000e-01 0
8.75000000000000000e-01 3.75000000000000000e-01 0
1.00000000000000000e+00 3.75000000000000000e-01 0
1.12500000000000000e+00 3.75000000000000000e-01 0
1.25000000000000000e+00 3.75000000000000000e-01 0
1.37500000000000000e+00 3.75000000000000000e-01 0
1.50000000000000000e+00 3.75000000000000000e-01 0
1.62500000000000000e+00 3.75000000000000000e-01 0
1.75000000000000000e+00 3.75000000000000000e-01 0
1.87500000000000000e+00 3.75000000000000000e-01 0
2.00000000000000000e+00 3.75000000000000000e-01 0
2.12500000000000000e+00 3.75000000000000000e-01 0
2.25000000000000000e+00 3.75000000000000000e-01 0
2.37500000000000000e+00 3.75000000000000000e-01 0
2.50000000000000000e+00 3.75000000000000000e-01 0
2.62500000000000000e+00 3.75000000000000000e-01 0
2.75000000000000000e+00 3.75000000000000000e-01 0
2.87500000000000000e+00 3.75000000000000000e-01 0
3.00000000000000000e+00 3.75000000000000000e-01 0
3.12500000000000000e+00 3.75000000000000000e-01 0
3.25000000000000000e+00 3.75000000000000000e-01 0
3.37500000000000000e+00 3.75000000000000000e-01 0
3.50000000000000000e+00 3.75000000000000000e-01 0
3.62500000000000000e+00 3.75000000000000000e-01 0
3.75000000000000000e+00 3.75000000000000000e-01 0
3.87500000000000000e+00 3.75000000000000000e-01 0
4.00000000000000000e+00 3.75000000000000000e-01 0
4.12500000000000000e+00 3.75000000000000000e-01 0
4.25000000000000000e+00 3.75000000000000000e-01 0
4.37500000000000000e+00 3.75000000000000000e-01 0
4.50000000000000000e+00 3.75000000000000000e-01 0
4.62500000000000000e+00 3.75000000000000000e-01 0
4.75000000000000000e+00 3.75000000000000000e-01 0
4.87500000000000000e+00 3.75000000000000000e-01 0
5.00000000000000000e+00 3.75000000000000000e-01 0
5.12500000000000000e+00 3.75000000000000000e-01 0
5.25000000000000000e+00 3.75000000000000000e-01 0
5.37500000000000000e+00 3.75000000000000000e-01 0
5.50000000000000000e+00 3.75000000000000000e-01 0
5.62500000000000000e+00 3.75000000000000000e-01 0
5.75000000000000000e+00 3.75000000000000000e-01 0
5.87500000000000000e+00 3.75000000000000000e-01 0
6.00000000000000000e+00 3.75000000000000000e-01 0
6.12500000000000000e+00 3.75000000000000000e-01 0
6.25000000000000000e+00 3.75000000000000000e-01 0
6.37500000000000000e+00 3.75000000000000000e-01 0
6.50000000000000000e+00 3.75000000000000000e-01 0
6.62500000000000000e+00 3.75000000000000000e-01 0
6.75000000000000000e+00 3.75000000000000000e-01 0
6.87500000000000000e+00 3.75000000000000000e-01 0
7.00000000000000000e+00 3.75000000000000000e-01 0
7.12500000000000000e+00 3.75000000000000000e-01 0
7.25000000000000000e+00 3.75000000000000000e-01 0
7.37500000000000000e+00 3.75000000000000000e-01 0
7.50000000000000000e+00 3.75000000000000000e-01 0
7.62500000000000000e+00 3.75000000000000000e-01 0
7.75000000000000000e+00 3.75000000000000000e-01 0
7.87500000000000000e+00 3.75000000000000000e-01 0
8.00000000000000000e+00 3.75000000000000000e-01 0
0.00000000000000000e+00 5.00000000000000000e-01 0
1.25000000000000000e-01 5.00000000000000000e-01 0
2.50000000000000000e-01 5.00000000000000000e-01 0
3.75000000000000000e-01 5.00000000000000000e-01 0
5.00000000000000000e-01 5.00000000000000000e-01 0
6.25000000000000000e-01 5.00000000000000000e-01 0
7.50000000000000000e-01 5.00000000000000000e-01 0
8.75000000000000000e-01 5.00000000000000000e-01 0
1.00000000000000000e+00 5.00000000000000000e-01 0
1.12500000000000000e+00 5.00000000000000000e-01 0
1.25000000000000000e+00 5.00000000000000000e-01 0
1.37500000000000000e+00 5.00000000000000000e-01 0
1.50000000000000000e+00 5.00000000000000000e-01 0
1.62500000000000000e+00 5.00000000000000000e-01 0
1.75000000000000000e+00 5.00000000000000000e-01 0
1.87500000000000000e+00 5.00000000000000000e-01 0
2.00000000000000000e+00 5.00000000000000000e-01 0
2.12500000000000000e+00 5.00000000000000000e-01 0
2.25000000000000000e+00 5.00000000000000000e-01 0
2.37500000000000000e+00 5.00000000000000000e-01 0
2.50000000000000000e+00 5.00000000000000000e-01 0
2.62500000000000000e+00 5.00000000000000000e-01 0
2.75000000000000000e+00 5.00000000000000000e-01 0
2.87500000000000000e+00 5.00000000000000000e-01 0
3.00000000000000000e+00 5.00000000000000000e-01 0
3.12500000000000000e+00 5.00000000000000000e-01 0
3.25000000000000000e+00 5.00000000000000000e-01 0
3.37500000000000000e+00 5.00000000000000000e-01 0
3.50000000000000000e+00 5.00000000000000000e-01 0
3.62500000000000000e+00 5.00000000000000000e-01 0
3.75000000000000000e+00 5.00000000000000000e-01 0
3.87500000000000000e+00 5.00000000000000000e-01 0
4.00000000000000000e+00 5.00000000000000000e-01 0
4.12500000000000000e+00 5.00000000000000000e-01 0
4.25000000000000000e+00 5.00000000000000000e-01 0
4.37500000000000000e+00 5.00000000000000000e-01 0
4.50000000000000000e+00 5.00000000000000000e-01 0
4.62500000000000000e+00 5.00000000000000000e-01 0
4.75000000000000000e+00 5.00000000000000000e-01 0
4.87500000000000000e+00 5.00000000000000000e-01 0
5.00000000000000000e+00 5.00000000000000000e-01 0
5.12500000000000000e+00 5.00000000000000000e-01 0
5.25000000000000000e+00 5.00000000000000000e-01 0
5.37500000000000000e+00 5.00000000000000000e-01 0
5.50000000000000000e+00 5.00000000000000000e-01 0
5.62500000000000000e+00 5.00000000000000000e-01 0
5.75000000000000000e+00 5.00000000000000000e-01 0
5.87500000000000000e+00 5.00000000000000000e-01 0
6.00000000000000000e+00 5.00000000000000000e-01 0
6.12500000000000000e+00 5.00000000000000000e-01 0
6.25000000000000000e+00 5.00000000000000000e-01 0
6.37500000000000000e+00 5.00000000000000000e-01 0
6.50000000000000000e+00 5.00000000000000000e-01 0
6.62500000000000000e+00 5.00000000000000000e-01 0
6.75000000000000000e+00 5.00000000000000000e-01 0
6.87500000000000000e+00 5.00000000000000000e-01 0
7.00000000000000000e+00 5.00000000000000000e-01 0
7.12500000000000000e+00 5.00000000000000000e-01 0
7.25000000000000000e+00 5.00000000000000000e-01 0
7.37500000000000000e+00 5.00000000000000000e-01 0
7.50000000000000000e+00 5.00000000000000000e-01 0
7.62500000000000000e+00 5.00000000000000000e-01 0
7.75000000000000000e+00 5.00000000000000000e-01 0
7.87500000000000000e+00 5.00000000000000000e-01 0
8.00000000000000000e+00 5.00000000000000000e-01 0
0.00000000000000000e+00 6.25000000000000000e-01 0
1.25000000000000000e-01 6.25000000000000000e-01 0
2.50000000000000000e-01 6.25000000000000000e-01 0
3.75000000000000000e-01 6.25000000000000000e-01 0
5.00000000000000000e-01 6.25000000000000000e-01 0
6.25000000000000000e-01 6.25000000000000000e-01 0
7.50000000000000000e-01 6.25000000000000000e-01 0
8.75000000000000000e-01 6.25000000000000000e-01 0
1.00000000000000000e+00 6.25000000000000000e-01 0
1.12500000000000000e+00 6.25000000000000000e-01 0
1.25000000000000000e+00 6.25000000000000000e-01 0
1.37500000000000000e+00 6.25000000000000000e-01 0
1.50000000000000000e+00 6.25000000000000000e-01 0
1.62500000000000000e+00 6.25000000000000000e-01 0
1.75000000000000000e+00 6.25000000000000000e-01 0
1.87500000000000000e+00 6.25000000000000000e-01 0
2.00000000000000000e+00 6.25000000000000000e-01 0
2.12500000000000000e+00 6.25000000000000000e-01 0
2.25000000000000000e+00 6.25000000000000000e-01 0
2.37500000000000000e+00 6.25000000000000000e-01 0
2.50000000000000000e+00 6.25000000000000000e-01 0
2.62500000000000000e+00 6.25000000000000000e-01 0
2.75000000000000000e+00 6.25000000000000000e-01 0
2.87500000000000000e+00 6.25000000000000000e-01 0
3.00000000000000000e+00 6.25000000000000000e-01 0
3.12500000000000000e+00 6.25000000000000000e-01 0
3.25000000000000000e+00 6.25000000000000000e-01 0
3.37500000000000000e+00 6.25000000000000000e-01 0
3.50000000000000000e+00 6.25000000000000000e-01 0
3.62500000000000000e+00 6.25000000000000000e-01 0
3.75000000000000000e+00 6.25000000000000000e-01 0
3.87500000000000000e+00 6.25000000000000000e-01 0
4.00000000000000000e+00 6.25000000000000000e-01 0
4.12500000000000000e+00 6.25000000000000000e-01 0
4.25000000000000000e+00 6.25000000000000000e-01 0
4.37500000000000000e+00 6.25000000000000000e-01 0
4.50000000000000000e+00 6.25000000000000000e-01 0
4.62500000000000000e+00 6.25000000000000000e-01 0
4.75000000000000000e+00 6.25000000000000000e-01 0
4.87500000000000000e+00 6.25000000000000000e-01 0
5.00000000000000000e+00 6.25000000000000000e-01 0
5.12500000000000000e+00 6.25000000000000000e-01 0
5.25000000000000000e+00 6.25000000000000000e-01 0
5.37500000000000000e+00 6.25000000000000000e-01 0
5.50000000000000000e+00 6.25000000000000000e-01 0
5.62500000000000000e+00 6.25000000000000000e-01 0
5.75000000000000000e+00 6.25000000000000000e-01 0
5.87500000000000000e+00 6.25000000000000000e-01 0
6.00000000000000000e+00 6.25000000000000000e-01 0
6.12500000000000000e+00 6.25000000000000000e-01 0
6.25000000000000000e+00 6.25000000000000000e-01 0
6.37500000000000000e+00 6.25000000000000000e-01 0
6.50000000000000000e+00 6.25000000000000000e-01 0
6.62500000000000000e+00 6.25000000000000000e-01 0
6.75000000000000000e+00 6.25000000000000000e-01 0
6.87500000000000000e+00 6.25000000000000000e-01 0
7.00000000000000000e+00 6.25000000000000000e-01 0
7.12500000000000000e+00 6.25000000000000000e-01 0
7.25000000000000000e+00 6.25000000000000000e-01 0
7.37500000000000000e+00 6.25000000000000000e-01 0
7.50000000000000000e+00 6.25000000000000000e-01 0
7.62500000000000000e+00 6.25000000000000000e-01 0
7.75000000000000000e+00 6.25000000000000000e-01 0
7.87500000000000000e+00 6.25000000000000000e-01 0
8.00000000000000000e+00 6.25000000000000000e-01 0
0.00000000000000000e+00 7.50000000000000000e-01 0
1.25000000000000000e-01 7.50000000000000000e-01 0
2.50000000000000000e-01 7.50000000000000000e-01 0
3.75000000000000000e-01 7.50000000000000000e-01 0
5.00000000000000000e-01 7.50000000000000000e-01 0
6.25000000000000000e-01 7.50000000000000000e-01 0
7.50000000000000000e-01 7.50000000000000000e-01 0
8.75000000000000000e-01 7.50000000000000000e-01 0
1.00000000000000000e+00 7.50000000000000000e-01 0
1.12500000000000000e+00 7.50000000000000000e-01 0
1.25000000000000000e+00 7.50000000000000000e-01 0
1.37500000000000000e+00 7.50000000000000000e-01 0
1.50000000000000000e+00 7.50000000000000000e-01 0
1.62500000000000000e+00 7.50000000000000000e-01 0
1.75000000000000000e+00 7.50000000000000000e-01 0
1.87500000000000000e+00 7.50000000000000000e-01 0
2.00000000000000000e+00 7.50000000000000000e-01 0
2.12500000000000000e+00 7.50000000000000000e-01 0
2.25000000000000000e+00 7.50000000000000000e-01 0
2.37500000000000000e+00 7.50000000000000000e-01 0
2.50000000000000000e+00 7.50000000000000000e-01 0
2.62500000000000000e+00 7.50000000000000000e-01 0
2.75000000000000000e+00 7.50000000000000000e-01 0
2.87500000000000000e+00 7.50000000000000000e-01 0
3.00000000000000000e+00 7.50000000000000000e-01 0
3.12500000000000000e+00 7.50000000000000000e-01 0
3.25000000000000000e+00 7.50000000000000000e-01 0
3.37500000000000000e+00 7.50000000000000000e-01 0
3.50000000000000000e+00 7.50000000000000000e-01 0
3.62500000000000000e+00 7.50000000000000000e-01 0
3.75000000000000000e+00 7.50000000000000000e-01 0
3.87500000000000000e+00 7.50000000000000000e-01 0
4.00000000000000000e+00 7.50000000000000000e-01 0
4.12500000000000000e+00 7.50000000000000000e-01 0
4.25000000000000000e+00 7.50000000000000000e-01 0
4.37500000000000000e+00 7.50000000000000000e-01 0
4.50000000000000000e+00 7.50000000000000000e-01 0
4.62500000000000000e+00 7.50000000000000000e-01 0
4.75000000000000000e+00 7.50000000000000000e-01 0
4.87500000000000000e+00 7.50000000000000000e-01 0
5.00000000000000000e+00 7.50000000000000000e-01 0
5.12500000000000000e+00 7.50000000000000000e-01 0
5.25000000000000000e+00 7.50000000000000000e-01 0
5.37500000000000000e+00 7.50000000000000000e-01 0
5.50000000000000000e+00 7.50000000000000000e-01 0
5.62500000000000000e+00 7.50000000000000000e-01 0
5.75000000000000000e+00 7.50000000000000000e-01 0
5.87500000000000000e+00 7.50000000000000000e-01 0
6.00000000000000000e+00 7.50000000000000000e-01 0
6.12500000000000000e+00 7.50000000000000000e-01 0
6.25000000000000000e+00 7.50000000000000000e-01 0
6.37500000000000000e+00 7.50000000000000000e-01 0
6.50000000000000000e+00 7.50000000000000000e-01 0
6.62500000000000000e+00 7.50000000000000000e-01 0
6.75000000000000000e+00 7.50000000000000000e-01 0
6.87500000000000000e+00 7.50000000000000000e-01 0
7.00000000000000000e+00 7.50000000000000000e-01 0
7.12500000000000000e+00 7.50000000000000000e-01 0
7.25000000000000000e+00 7.50000000000000000e-01 0
7.37500000000000000e+00 7.50000000000000000e-01 0
7.50000000000000000e+00 7.50000000000000000e-01 0
7.62500000000000000e+00 7.50000000000000000e-01 0
7.75000000000000000e+00 7.50000000000000000e-01 0
7.87500000000000000e+00 7.50000000000000000e-01 0
8.00000000000000000e+00 7.50000000000000000e-01 0
0.00000000000000000e+00 8.75000000000000000e-01 0
1.25000000000000000e-01 8.75000000000000000e-01 0
2.50000000000000000e-01 8.75000000000000000e-01 0
3.75000000000000000e-01 8.75000000000000000e-01 0
5.00000000000000000e-01 8.75000000000000000e-01 0
6.25000000000000000e-01 8.75000000000000000e-01 0
7.50000000000000000e-01 8.75000000000000000e-01 0
8.75000000000000000e-01 8.75000000000000000e-01 0
1.00000000000000000e+00 8.75000000000000000e-01 0
1.12500000000000000e+00 8.75000000000000000e-01 0
1.25000000000000000e+00 8.75000000000000000e-01 0
1.37500000000000000e+00 8.75000000000000000e-01 0
1.50000000000000000e+00 8.75000000000000000e-01 0
1.62500000000000000e+00 8.75000000000000000e-01 0
1.75000000000000000e+00 8.75000000000000000e-01 0
1.87500000000000000e+00 8.75000000000000000e-01 0
2.00000000000000000e+00 8.75000000000000000e-01 0
2.12500000000000000e+00 8.75000000000000000e-01 0
2.25000000000000000e+00 8.75000000000000000e-01 0
2.37500000000000000e+00 8.75000000000000000e-01 0
2.50000000000000000e+00 8.75000000000000000e-01 0
2.62500000000000000e+00 8.75000000000000000e-01 0
2.75000000000000000e+00 8.75000000000000000e-01 0
2.87500000000000000e+00 8.75000000000000000e-01 0
3.00000000000000000e+00 8.75000000000000000e-01 0
3.12500000000000000e+00 8.75000000000000000e-01 0
3.25000000000000000e+00 8.75000000000000000e-01 0
3.37500000000000000e+00 8.75000000000000000e-01 0
3.50000000000000000e+00 8.75000000000000000e-01 0
3.62500000000000000e+00 8.75000000000000000e-01 0
3.75000000000000000e+00 8.75000000000000000e-01 0
3.87500000000000000e+00 8.75000000000000000e-01 0
4.00000000000000000e+00 8.75000000000000000e-01 0
4.12500000000000000e+00 8.75000000000000000e-01 0
4.25000000000000000e+00 8.75000000000000000e-01 0
4.37500000000000000e+00 8.75000000000000000e-01 0
4.50000000000000000e+00 8.75000000000000000e-01 0
4.62500000000000000e+00 8.75000000000000000e-01 0
4.75000000000000000e+00 8.75000000000000000e-01 0
4.87500000000000000e+00 8.75000000000000000e-01 0
5.00000000000000000e+00 8.75000000000000000e-01 0
5.12500000000000000e+00 8.75000000000000000e-01 0
5.25000000000000000e+00 8.75000000000000000e-01 0
5.37500000000000000e+00 8.75000000000000000e-01 0
5.50000000000000000e+00 8.75000000000000000e-01 0
5.62500000000000000e+00 8.75000000000000000e-01 0
5.75000000000000000e+00 8.75000000000000000e-01 0
5.87500000000000000e+00 8.75000000000000000e-01 0
6.00000000000000000e+00 8.75000000000000000e-01 0
6.12500000000000000e+00 8.75000000000000000e-01 0
6.25000000000000000e+00 8.75000000000000000e-01 0
6.37500000000000000e+00 8.75000000000000000e-01 0
6.50000000000000000e+00 8.75000000000000000e-01 0
6.62500000000000000e+00 8.75000000000000000e-01 0
6.75000000000000000e+00 8.75000000000000000e-01 0
6.87500000000000000e+00 8.75000000000000000e-01 0
7.00000000000000000e+00 8.75000000000000000e-01 0
7.12500000000000000e+00 8.75000000000000000e-01 0
7.25000000000000000e+00 8.75000000000000000e-01 0
7.37500000000000000e+00 8.75000000000000000e-01 0
7.50000000000000000e+00 8.75000000000000000e-01 0
7.62500000000000000e+00 8.75000000000000000e-01 0
7.75000000000000000e+00 8.75000000000000000e-01 0
7.87500000000000000e+00 8.75000000000000000e-01 0
8.00000000000000000e+00 8.75000000000000000e-01 0
0.00000000000000000e+00 1.00000000000000000e+00 0
1.25000000000000000e-01 1.00000000000000000e+00 0
2.50000000000000000e-01 1.00000000000000000e+00 0
3.75000000000000000e-01 1.00000000000000000e+00 0
5.00000000000000000e-01 1.00000000000000000e+00 0
6.25000000000000000e-01 1.00000000000000000e+00 0
7.50000000000000000e-01 1.00000000000000000e+00 0
8.75000000000000000e-01 1.00000000000000000e+00 0
1.00000000000000000e+00 1.00000000000000000e+00 0
1.12500000000000000e+00 1.00000000000000000e+00 0
1.25000000000000000e+00 1.00000000000000000e+00 0
1.37500000000000000e+00 1.00000000000000000e+00 0
1.50000000000000000e+00 1.00000000000000000e+00 0
1.62500000000000000e+00 1.00000000000000000e+00 0
1.75000000000000000e+00 1.00000000000000000e+00 0
1.87500000000000000e+00 1.00000000000000000e+00 0
2.00000000000000000e+00 1.00000000000000000e+00 0
2.12500000000000000e+00 1.00000000000000000e+00 0
2.25000000000000000e+00 1.00000000000000000e+00 0
2.37500000000000000e+00 1.00000000000000000e+00 0
2.50000000000000000e+00 1.00000000000000000e+00 0
2.62500000000000000e+00 1.00000000000000000e+00 0
2.75000000000000000e+00 1.00000000000000000e+00 0
2.87500000000000000e+00 1.00000000000000000e+00 0
3.00000000000000000e+00 1.00000000000000000e+00 0
3.12500000000000000e+00 1.00000000000000000e+00 0
3.25000000000000000e+00 1.00000000000000000e+00 0
3.37500000000000000e+00 1.00000000000000000e+00 0
3.50000000000000000e+00 1.00000000000000000e+00 0
3.62500000000000000e+00 1.00000000000000000e+00 0
3.75000000000000000e+00 1.00000000000000000e+00 0
3.87500000000000000e+00 1.00000000000000000e+00 0
4.00000000000000000e+00 1.00000000000000000e+00 0
4.12500000000000000e+00 1.00000000000000000e+00 0
4.25000000000000000e+00 1.00000000000000000e+00 0
4.37500000000000000e+00 1.00000000000000000e+00 0
4.50000000000000000e+00 1.00000000000000000e+00 0
4.62500000000000000e+00 1.00000000000000000e+00 0
4.75000000000000000e+00 1.00000000000000000e+00 0
4.87500000000000000e+00 1.00000000000000000e+00 0
5.00000000000000000e+00 1.00000000000000000e+00 0
5.12500000000000000e+00 1.00000000000000000e+00 0
5.25000000000000000e+00 1.00000000000000000e+00 0
5.37500000000000000e+00 1.00000000000000000e+00 0
5.50000000000000000e+00 1.00000000000000000e+00 0
5.62500000000000000e+00 1.00000000000000000e+00 0
5.75000000000000000e+00 1.00000000000000000e+00 0
5.87500000000000000e+00 1.00000000000000000e+00 0
6.00000000000000000e+00 1.00000000000000000e+00 0
6.12500000000000000e+00 1.00000000000000000e+00 0
6.25000000000000000e+00 1.00000000000000000e+00 0
6.37500000000000000e+00 1.00000000000000000e+00 0
6.50000000000000000e+00 1.00000000000000000e+00 0
6.62500000000000000e+00 1.00000000000000000e+00 0
6.75000000000000000e+00 1.00000000000000000e+00 0
6.87500000000000000e+00 1.00000000000000000e+00 0
7.00000000000000000e+00 1.00000000000000000e+00 0
7.12500000000000000e+00 1.00000000000000000e+00 0
7.25000000000000000e+00 1.00000000000000000e+00 0
7.37500000000000000e+00 1.00000000000000000e+00 0
7.50000000000000000e+00 1.00000000000000000e+00 0
7.62500000000000000e+00 1.00000000000000000e+00 0
7.75000000000000000e+00 1.00000000000000000e+00 0
7.87500000000000000e+00 1.00000000000000000e+00 0
8.00000000000000000e+00 1.00000000000000000e+00 0
CELLS 512 2560
4 0 1 66 65
4 1 2 67 66
4 2 3 68 67
4 3 4 69 68
4 4 5 70 69
4 5 6 71 70
4 6 7 72 71
4 7 8 73 72
4 8 9 74 73
4 9 10 75 74
4 10 11 76 75
4 11 12 77 76
4 12 13 78 77
4 13 14 79 78
4 14 15 80 79
4 15 16 81 80
4 16 17 82 81
4 17 18 83 82
4 18 19 84 83
4 19 20 85 84
4 20 21 86 85
4 21 22 87 86
4 22 23 88 87
4 23 24 89 88
4 24 25 90 89
4 25 26 91 90
4 26 27 92 91
4 27 28 93 92
4 28 29 94 93
4 29 30 95 94
4 30 31 96 95
4 31 32 97 96
4 32 33 98 97
4 33 34 99 98
4 34 35 100 99
4 35 36 101 100
4 36 37 102 101
4 37 38 103 102
4 38 39 104 103
4 39 40 105 104
4 40 41 106 105
4 41 42 107 106
4 42 43 108 107
4 43 44 109 108
4 44 45 110 109
4 45 46 111 110
4 46 47 112 111
4 47 48 113 112
4 48 49 114 113
4 49 50 115 114
4 50 51 116 115
4 51 52 117 116
4 52 53 118 117
4 53 54 119 118
4 54 55 120 119
4 55 56 121 120
4 56 57 122 121
4 57 58 123 122
4 58 59 124 123
4 59 60 125 124
4 60 61 126 125
4 61 62 127 126
4 62 63 128 127
4 63 64 129 128
4 65 66 131 130
4 66 67 132 131
4 67 68 133 132
4 68 69 134 133
4 69 70 135 134
4 70 71 136 135
4 71 72 137 136
4 72 73 138 137
4 73 74 139 138
4 74 75 140 139
4 75 76 141 140
4 76 77 142 141
4 77 78 143 142
4 78 79 144 143
4 79 80 145 144
4 80 81 146 145
4 81 82 147 146
4 82 83 148 147
4 83 84 149 148
4 84 85 150 149
4 85 86 151 150
4 86 87 152 151
4 87 88 153 152
4 88 89 154 153
4 89 90 155 154
4 90 91 156 155
4 91 92 157 156
4 92 93 158 157
4 93 94 159 158
4 94 95 160 159
4 95 96 161 160
4 96 97 162 161
4 97 98 163 162
4 98 99 164 163
4 99 100 165 164
4 100 101 166 165
4 101 102 167 166
4 102 103 168 167
4 103 104 169 168
4 104 105 170 169
4 105 106 171 170
4 106 107 172 171
4 107 108 173 172
4 108 109 174 173
4 109 110 175 174
4 110 111 176 175
4 111 112 177 176
4 112 113 178 177
4 113 114 179 178
4 114 115 180 179
4 115 116 181 180
4 116 117 182 181
4 117 118 183 182
4 118 119 184 183
4 119 120 185 184
4 120 121 186 185
4 121 122 187 186
4 122 123 188 187
4 123 124 189 188
4 124 125 190 189
4 125 126 191 190
4 126 127 192 191
4 127 128 193 192
4 128 129 194 193
4 130 131 196 195
4 131 132 197 196
4 132 133 198 197
4 133 134 199 198
4 134 135 200 199
4 135 136 201 200
4 136 137 202 201
4 137 138 203 202
4 138 139 204 203
4 139 140 205 204
4 140 141 206 205
4 141 142 207 206
4 142 143 208 207
4 143 144 209 208
4 144 145 210 209
4 145 146 211 210
4 146 147 212 211
4 147 148 213 212
4 148 149 214 213
4 149 150 215 214
4 150 151 216 215
4 151 152 217 216
4 152 153 218 217
4 153 154 219 218
4 154 155 220 219
4 155 156 221 220
4 156 157 222 221
4 157 158 223 222
4 158 159 224 223
4 159 160 225 224
4 160 161 226 225
4 161 162 227 226
4 162 163 228 227
4 163 164 229 228
4 164 165 230 229
4 165 166 231 230
4 166 167 232 231
4 167 168 233 232
4 168 169 234 233
4 169 170 235 234
4 170 171 236 235
4 171 172 237 236
4 172 173 238 237
4 173 174 239 238
4 174 175 240 239
4 175 176 241 240
4 176 177 242 241
4 177 178 243 242
4 178 179 244 243
4 179 180 245 244
4 180 181 246 245
4 181 182 247 246
4 182 183 248 247
4 183 184 249 248
4 184 185 250 249
4 185 186 251 250
4 186 187 252 251
4 187 188 253 252
4 188 189 254 253
4 189 190 255 254
4 190 191 256 255
4 191 192 257 256
4 192 193 258 257
4 193 194 259 258
4 195 196 261 260
4 196 197 262 261
4 197 198 263 262
4 198 199 264 263
4 199 200 265 264
4 200 201 266 265
4 201 202 267 266
4 202 203 268 267
4 203 204 269 268
4 204 205 270 269
4 205 206 271 270
4 206 207 272 271
4 207 208 273 272
4 208 209 274 273
4 209 210 275 274
4 210 211 276 275
4 211 212 277 276
4 212 213 278 277
4 213 214 279 278
4 214 215 280 279
4 215 216 281 280
4 216 217 282 281
4 217 218 283 282
4 218 219 284 283
4 219 220 285 284
4 220 221 286 285
4 221 222 287 286
4 222 223 288 287
4 223 224 289 288
4 224 225 290 289
4 225 226 291 290
4 226 227 292 291
4 227 228 293 292
4 228 229 294 293
4 229 230 295 294
4 230 231 296 295
4 231 232 297 296
4 232 233 298 297
4 233 234 299 298
4 234 235 300 299
4 235 236 301 300
4 236 237 302 301
4 237 238 303 302
4 238 239 304 303
4 239 240 305 304
4 240 241 306 305
4 241 242 307 306
4 242 243 308 307
4 243 244 309 308
4 244 245 310 309
4 245 246 311 310
4 246 247 312 311
4 247 248 313 312
4 248 249 314 313
4 249 250 315 314
4 250 251 316 315
4 251 252 317 316
4 252 253 318 317
4 253 254 319 318
4 254 255 320 319
4 255 256 321 320
4 256 257 322 321
4 257 258 323 322
4 258 259 324 323
4 260 261 326 325
4 261 262 327 326
4 262 263 328 327
4 263 264 329 328
4 264 265 330 329
4 265 266 331 330
4 266 267 332 331
4 267 268 333 332
4 268 269 334 333
4 269 270 335 334
4 270 271 336 335
4 271 272 337 336
4 272 273 338 337
4 273 274 339 338
4 274 275 340 339
4 275 276 341 340
4 276 277 342 341
4 277 278 343 342
4 278 279 344 343
4 279 280 345 344
4 280 281 346 345
4 281 282 347 346
4 282 283 348 347
4 283 284 349 348
4 284 285 350 349
4 285 286 351 350
4 286 287 352 351
4 287 288 353 352
4 288 289 354 353
4 289 290 355 354
4 290 291 356 355
4 291 292 357 356
4 292 293 358 357
4 293 294 359 358
4 294 295 360 359
4 295 296 361 360
4 296 297 362 361
4 297 298 363 362
4 298 299 364 363
4 299 300 365 364
4 300 301 366 365
4 301 302 367 366
4 302 303 368 367
4 303 304 369 368
4 304 305 370 369
4 305 306 371 370
4 306 307 372 371
4 307 308 373 372
4 308 309 374 373
4 309 310 375 374
4 310 311 376 375
4 311 312 377 376
4 312 313 378 377
4 313 314 379 378
4 314 315 380 379
4 315 316 381 380
4 316 317 382 381
4 317 318 383 382
4 318 319 384 383
4 319 320 385 384
4 320 321 386 385
4 321 322 387 386
4 322 323 388 387
4 323 324 389 388
4 325 326 391 390
4 326 327 392 391
4 327 328 393 392
4 328 329 394 393
4 329 330 395 394
4 330 331 396 395
4 331 332 397 396
4 332 333 398 397
4 333 334 399 398
4 334 335 400 399
4 335 336 401 400
4 336 337 402 401
4 337 338 403 402
4 338 339 404 403
4 339 340 405 404
4 340 341 406 405
4 341 342 407 406
4 342 343 408 407
4 343 344 409 408
4 344 345 410 409
4 345 346 411 410
4 346 347 412 411
4 347 348 413 412
4 348 349 414 413
4 349 350 415 414
4 350 351 416 415
4 351 352 417 416
4 352 353 418 417
4 353 354 419 418
4 354 355 420 419
4 355 356 421 420
4 356 357 422 421
4 357 358 423 422
4 358 359 424 423
4 359 360 425 424
4 360 361 426 425
4 361 362 427 426
4 362 363 428 427
4 363 364 429 428
4 364 365 430 429
4 365 366 431 430
4 366 367 432 431
4 367 368 433 432
4 368 369 434 433
4 369 370 435 434
4 370 371 436 435
4 371 372 437 436
4 372 373 438 437
4 373 374 439 438
4 374 375 440 439
4 375 376 441 440
4 376 377 442 441
4 377 378 443 442
4 378 379 444 443
4 379 380 445 444
4 380 381 446 445
4 381 382 447 446
4 382 383 448 447
4 383 384 449 448
4 384 385 450 449
4 385 386 451 450
4 386 387 452 451
4 387 388 453 452
4 388 389 454 453
4 390 391 456 455
4 391 392 457 456
4 392 393 458 457
4 393 394 459 458
4 394 395 460 459
4 395 396 461 460
4 396 397 462 461
4 397 398 463 462
4 398 399 464 463
4 399 400 465 464
4 400 401 466 465
4 401 402 467 466
4 402 403 468 467
4 403 404 469 468
4 404 405 470 469
4 405 406 471 470
4 406 407 472 471
4 407 408 473 472
4 408 409 474 473
4 409 410 475 474
4 410 411 476 475
4 411 412 477 476
4 412 413 478 477
4 413 414 479 478
4 414 415 480 479
4 415 416 481 480
4 416 417 482 481
4 417 418 483 482
4 418 419 484 483
4 419 420 485 484
4 420 421 486 485
4 421 422 487 486
4 422 423 488 487
4 423 424 489 488
4 424 425 490 489
4 425 426 491 490
4 426 427 492 491
4 427 428 493 492
4 428 429 494 493
4 429 430 495 494
4 430 431 496 495
4 431 432 497 496
4 432 433 498 497
4 433 434 499 498
4 434 435 500 499
4 435 436 501 500
4 436 437 502 501
4 437 438 503 502
4 438 439 504 503
4 439 440 505 504
4 440 441 506 505
4 441 442 507 506
4 442 443 508 507
4 443 444 509 508
4 444 445 510 509
4 445 446 511 510
4 446 447 512 511
4 447 448 513 512
4 448 449 514 513
4 449 450 515 514
4 450 451 516 515
4 451 452 517 516
4 452 453 518 517
4 453 454 519 518
4 455 456 521 520
4 456 457 522 521
4 457 458 523 522
4 458 459 524 523
4 459 460 525 524
4 460 461 526 525
4 461 462 527 526
4 462 463 528 527
4 463 464 529 528
4 464 465 530 529
4 465 466 531 530
4 466 467 532 531
4 467 468 533 532
4 468 469 534 533
4 469 470 535 534
4 470 471 536 535
4 471 472 537 536
4 472 473 538 537
4 473 474 539 538
4 474 475 540 539
4 475 476 541 540
4 476 477 542 541
4 477 478 543 542
4 478 479 544 543
4 479 480 545 544
4 480 481 546 545
4 481 482 547 546
4 482 483 548 547
4 483 484 549 548
4 484 485 550 549
4 485 486 551 550
4 486 487 552 551
4 487 488 553 552
4 488 489 554 553
4 489 490 555 554
4 490 491 556 555
4 491 492 557 556
4 492 493 558 557
4 493 494 559 558
4 494 495 560 559
4 495 496 561 560
4 496 497 562 561
4 497 498 563 562
4 498 499 564 563
4 499 500 565 564
4 500 501 566 565
4 501 502 567 566
4 502 503 568 567
4 503 504 569 568
4 504 505 570 569
4 505 506 571 570
4 506 507 572 571
4 507 508 573 572
4 508 509 574 573
4 509 510 575 574
4 510 511 576 575
4 511 512 577 576
4 512 513 578 577
4 513 514 579 578
4 514 515 580 579
4 515 516 581 580
4 516 517 582 581
4 517 518 583 582
4 518 519 584 583
CELL_TYPES 512
9
9
9
9
9
9
9
9
9
9
9
9
9
9
9
9
9
9
9
9
9
9
9
9
9
9
9
9
9
9
9
9
9
9
9
9
9
9
9
9
9
9
9
9
9
9
9
9
9
9
9
9
9
9
9
9
9
9
9
9
9
9
9
9
9
9
9
9
9
9
9
9
9
9
9
9
9
9
9
9
9
9
9
9
9
9
9
9
9
9
9
9
9
9
9
9
9
9
9
9
9
9
9
9
9
9
9
9
9
9
9
9
9
9
9
9
9
9
9
9
9
9
9
9
9
9
9
9
9
9
9
9
9
9
9
9
9
9
9
9
9
9
9
9
9
9
9
9
9
9
9
9
9
9
9
9
9
9
9
9
9
9
9
9
9
9
9
9
9
9
9
9
9
9
9
9
9
9
9
9
9
9
9
9
9
9
9
9
9
9
9
9
9
9
9
9
9
9
9
9
9
9
9
9
9
9
9
9
9
9
9
9
9
9
9
9
9
9
9
9
9
9
9
9
9
9
9
9
9
9
9
9
9
9
9
9
9
9
9
9
9
9
9
9
9
9
9
9
9
9
9
9
9
9
9
9
9
9
9
9
9
9
9
9
9
9
9
9
9
9
9
9
9
9
9
9
9
9
9
9
9
9
9
9
9
9
9
9
9
9
9
9
9
9
9
9
9
9
9
9
9
9
9
9
9
9
9
9
9
9
9
9
9
9
9
9
9
9
9
9
9
9
9
9
9
9
9
9
9
9
9
9
9
9
9
9
9
9
9
9
9
9
9
9
9
9
9
9
9
9
9
9
9
9
9
9
9
9
9
9
9
9
9
9
9
9
9
9
9
9
9
9
9
9
9
9
9
9
9
9
9
9
9
9
9
9
9
9
9
9
9
9
9
9
9
9
9
9
9
9
9
9
9
9
9
9
9
9
9
9
9
9
9
9
9
9
9
9
9
9
9
9
9
9
9
9
9
9
9
9
9
9
9
9
9
9
9
9
9
9
9
9
9
9
9
9
9
9
9
9
9
9
9
9
9
9
9
9
9
9
9
9
9
9
9
9
9
9
9
9
9
9
9
9
9
9
9
9
9
9
9
9
9
9
9
9
9
9
9
9
9
9
9
9
9
9
9
9
9
9
9
9
9
9
9
9
9
9
9
9
9
9
CELL_DATA 512
SCALARS pressure double 1
LOOKUP_TABLE default
1.16880039313829567e+01
9.18006040609910023e+00
9.72702765678330650e+00
8.57862171754415215e+00
9.00669034560397108e+00
8.25345099766898116e+00
8.60382525221943517e+00
7.99413277262270405e+00
8.26968394264117812e+00
7.74004646510368577e+00
7.94823922278864359e+00
7.48131542679553796e+00
7.63007117473601415e+00
7.21803022241347758e+00
7.31447626824156139e+00
6.95098319169731482e+00
7.00173226655733050e+00
6.68060381659210378e+00
6.69196164450504050e+00
6.40713889285763560e+00
6.38509761298068934e+00
6.13081101226372738e+00
6.08095435545627083e+00
5.85187269136869848e+00
5.77927610353675902e+00
5.57060994200439108e+00
5.47976905690347316e+00
5.28732855730083084e+00
5.18212521284624383e+00
5.00233709509764957e+00
4.88604087677034471e+00
4.71593179701679865e+00
4.59123061551463696e+00
4.42838517617758232e+00
4.29743683078096872e+00
4.13993863068640433e+00
4.00443526892756374e+00
3.85079879797168401e+00
3.71203703339210067e+00
3.56113702996179171e+00
3.42008784049009762e+00
3.27109121800399549e+00
3.12846532091778817e+00
2.98076917822813181e+00
2.83707513027744307e+00
2.69025288366730919e+00
2.54584652179228055e+00
2.39960296168695120e+00
2.25472788616537745e+00
2.10886303075306003e+00
1.96368260675735717e+00
1.81806360287518598e+00
1.67268543503503708e+00
1.52722540925945993e+00
1.38171947458467392e+00
1.23636210680309122e+00
1.09077377685337695e+00
9.45482390455673394e-01
7.99841499738066064e-01
6.54591576567973621e-01
5.08918558904446039e-01
3.63692738043189634e-01
2.18002705121139007e-01
7.27874905883887369e-02
9.78140038763318032e+00
9.14259449622457510e+00
9.42300369576058827e+00
8.66035322756875736e+00
8.98940549441668146e+00
8.30628976911546779e+00
8.61698042646148821e+00
8.01693319730061660e+00
8.27765365601557512e+00
7.74831745787857162e+00
7.95142215742189240e+00
7.48404702482207806e+00
7.63116877288695239e+00
7.21888534295035456e+00
7.31482975845166283e+00
6.95124390573116457e+00
7.00184219218555093e+00
6.68068387209754366e+00
6.69199354780100553e+00
6.40716575278811362e+00
6.38510371144385047e+00
6.13082279609978187e+00
6.08095202124330569e+00
5.85188049399472199e+00
5.77927097255993694e+00
5.57061678135049920e+00
5.47976303418175448e+00
5.28733506062728686e+00
5.18211909805182636e+00
5.00234323033097716e+00
4.88603508714774115e+00
4.71593740252551008e+00
4.59122539046464873e+00
4.42839011757855250e+00
4.29743229687973916e+00
4.13994283847406752e+00
4.00443146961271346e+00
3.85080226595702069e+00
3.71203395068933162e+00
3.56113980114940087e+00
3.42008541452129089e+00
3.27109336770442338e+00
3.12846346727845503e+00
2.98077079847367177e+00
2.83707375439926324e+00
2.69025407067454214e+00
2.54584552972090528e+00
2.39960380691317310e+00
2.25472719172943892e+00
2.10886361538950151e+00
1.96368213556077875e+00
1.81806399523501749e+00
1.67268512596789920e+00
1.52722566433402385e+00
1.38171927953217555e+00
1.23636226719362741e+00
1.09077365912372959e+00
9.45482488259024922e-01
7.99841431541116532e-01
6.54591636789839781e-01
5.08918516246450348e-01
3.63692785627068194e-01
2.18002648675429400e-01
7.27875792765423496e-02
9.78450313983433162e+00
9.18840027231053647e+00
9.45764648576457034e+00
8.68362050642214633e+00
9.00703861569472686e+00
8.31239336306798471e+00
8.62163187257129415e+00
8.01699853708566401e+00
8.27808568403507472e+00
7.74751085210215873e+00
7.95110158708601933e+00
7.48352506537675666e+00
7.63089795281379857e+00
7.21865739807126605e+00
7.31467639069113851e+00
6.95117206739085436e+00
7.00175726561247114e+00
6.68067853859036642e+00
6.69194046418738164e+00
6.40718483320806254e+00
6.38506542280019662e+00
6.13084895955284370e+00
6.08092062837348468e+00
5.85190698329497216e+00
5.77924391069741983e+00
5.57064103315383630e+00
5.47973973396473024e+00
5.28735617698967264e+00
5.18209938648668089e+00
5.00236100997184785e+00
4.88601877776953142e+00
4.71595196791587234e+00
4.59121220664711860e+00
4.42840175579346074e+00
4.29742188580763518e+00
4.13995191848401145e+00
4.00442343684610425e+00
3.85080918665623217e+00
3.71202789417024848e+00
3.56114495578238088e+00
3.42008095149622315e+00
3.27109712004511399e+00
3.12846025258577276e+00
2.98077346858921333e+00
2.83707149060929309e+00
2.69025592846287731e+00
2.54584397054252465e+00
2.39960507153918012e+00
2.25472614044375641e+00
2.10886445875750539e+00
1.96368144022392643e+00
1.81806454782900428e+00
1.67268467291011214e+00
1.52722602212024694e+00
1.38171898634988399e+00
1.23636249864107328e+00
1.09077346778482398e+00
9.45482640762364435e-01
7.99841301437876906e-01
6.54591742354920125e-01
5.08918415665410517e-01
3.63692867340573101e-01
2.18002537055338952e-01
7.27876592173167664e-02
9.37414176715572545e+00
9.13292204183570000e+00
9.32578137058844447e+00
8.71320083028043335e+00
8.98895160048409814e+00
8.34003993423493206e+00
8.62553862916449354e+00
8.03074681927025935e+00
8.28199986892801121e+00
7.75298546564826108e+00
7.95294736291292192e+00
7.48547584327555082e+00
7.63158876982146506e+00
7.21931748041306065e+00
7.31489784401752985e+00
6.95139817391299442e+00
7.00181214120652573e+00
6.68076594206121843e+00
6.69194049440192185e+00
6.40722871558797102e+00
6.38504863313508242e+00
6.13087851138070139e+00
6.08089991783084383e+00
5.85193074356176091e+00
5.77922363450725296e+00
5.57066134712755012e+00
5.47972138141162279e+00
5.28737363633459001e+00
5.18208345389879010e+00
5.00237579001194632e+00
4.88600536214348669e+00
4.71596421077546690e+00
4.59120120780722285e+00
4.42841166026171962e+00
4.29741309243458680e+00
4.13995974106328468e+00
4.00441657658014361e+00
3.85081521859181430e+00
3.71202266945124393e+00
3.56114949737734809e+00
3.42007706631638086e+00
3.27110045937534455e+00
3.12845743135735654e+00
2.98077586664745198e+00
2.83706948988263719e+00
2.69025761067594038e+00
2.54584258462376845e+00
2.39960622466949314e+00
2.25472520225946305e+00
2.10886523182983110e+00
1.96368081887083279e+00
1.81806505569120813e+00
1.67268426922579660e+00
1.52722635043393606e+00
1.38171872758071923e+00
1.23636270936492298e+00
1.09077330199256539e+00
9.45482777510280092e-01
7.99841191666483931e-01
6.54591835572522762e-01
5.08918332542918517e-01
3.63692940030818701e-01
2.18002444218817898e-01
7.27877308012386121e-02
9.37414176716416492e+00
9.13292204181670542e+00
9.32578137061875800e+00
8.71320083023827863e+00
8.98895160053907283e+00
8.34003993416614975e+00
8.62553862924833581e+00
8.03074681916999822e+00
8.28199986904608210e+00
7.75298546551085899e+00
7.95294736307094130e+00
7.48547584309541758e+00
7.63158877002465097e+00
7.21931748018548625e+00
7.31489784426982581e+00
6.95139817363483914e+00
7.00181214151001363e+00
6.68076594173143068e+00
6.69194049475650843e+00
6.40722871520788750e+00
6.38504863353808094e+00
6.13087851095407466e+00
6.08089991827795284e+00
5.85193074309455774e+00
5.77922363499146030e+00
5.57066134662751100e+00
5.47972138192450942e+00
5.28737363581048214e+00
5.18208345443133656e+00
5.00237578947276074e+00
4.88600536268687780e+00
4.71596421022961110e+00
4.59120120835357159e+00
4.42841165971639317e+00
4.29741309297746898e+00
4.13995974052404137e+00
4.00441657711489185e+00
3.85081521806243243e+00
3.71202266997492503e+00
3.56114949686001392e+00
3.42007706682745605e+00
3.27110045887114520e+00
3.12845743185507486e+00
2.98077586615709311e+00
2.83706949036625256e+00
2.69025761020060505e+00
2.54584258509172745e+00
2.39960622421162562e+00
2.25472520270880450e+00
2.10886523139364490e+00
1.96368081929702454e+00
1.81806505528271800e+00
1.67268426962326822e+00
1.52722635006036778e+00
1.38171872794425687e+00
1.23636270903353274e+00
1.09077330231961533e+00
9.45482777226902216e-01
7.99841191960245723e-01
6.54591835340643913e-01
5.08918332815889496e-01
3.63692939852565844e-01
2.18002444496773418e-01
7.27877306819256775e-02
9.78450313982690822e+00
9.18840027232716317e+00
9.45764648573812217e+00
8.68362050645879791e+00
9.00703861564706898e+00
8.31239336312749089e+00
8.62163187249886498e+00
8.01699853717219391e+00
8.27808568393324506e+00
7.74751085222060176e+00
7.95110158694985270e+00
7.48352506553192764e+00
7.63089795263881054e+00
7.21865739826720443e+00
7.31467639047394780e+00
6.95117206763024154e+00
7.00175726535131737e+00
6.68067853887409147e+00
6.69194046388237940e+00
6.40718483353498769e+00
6.38506542245380349e+00
6.13084895991974577e+00
6.08092062798910238e+00
5.85190698369669438e+00
5.77924391028116968e+00
5.57064103358372353e+00
5.47973973352386068e+00
5.28735617744020026e+00
5.18209938602893327e+00
5.00236101043530734e+00
4.88601877730247125e+00
4.71595196838505792e+00
4.59121220617750669e+00
4.42840175626220756e+00
4.29742188534097380e+00
4.13995191894756154e+00
4.00442343638639375e+00
3.85080918711134501e+00
3.71202789372000863e+00
3.56114495622717619e+00
3.42008095105678223e+00
3.27109712047865342e+00
3.12846025215778312e+00
2.98077346901087337e+00
2.83707149019341731e+00
2.69025592887161746e+00
2.54584397014011987e+00
2.39960507193287809e+00
2.25472614005739080e+00
2.10886445913251785e+00
1.96368143985750576e+00
1.81806454818014918e+00
1.67268467256842279e+00
1.52722602244131300e+00
1.38171898603738641e+00
1.23636249892583150e+00
1.09077346750366222e+00
9.45482641005795821e-01
7.99841301185239661e-01
6.54591742553970679e-01
5.08918415430541837e-01
3.63692867493222050e-01
2.18002536816456566e-01
7.27876593185775161e-02
9.78140038763851827e+00
9.14259449621272324e+00
9.42300369577928265e+00
8.66035322754297709e+00
8.98940549445009118e+00
8.30628976907381400e+00
8.61698042651214813e+00
8.01693319724010323e+00
8.27765365608678039e+00
7.74831745779574366e+00
7.95142215751711046e+00
7.48404702471355598e+00
7.63116877300930874e+00
7.21888534281332550e+00
7.31482975860347828e+00
6.95124390556376426e+00
7.00184219236791616e+00
6.68068387189915036e+00
6.69199354801411150e+00
6.40716575255958976e+00
6.38510371168588531e+00
6.13082279584341983e+00
6.08095202151183223e+00
5.85188049371411267e+00
5.77927097285064395e+00
5.57061678105030111e+00
5.47976303448955626e+00
5.28733506031277756e+00
5.18211909837130058e+00
5.00234323000755587e+00
4.88603508747359783e+00
4.71593740219822166e+00
4.59122539079216452e+00
4.42839011725169929e+00
4.29743229720507891e+00
4.13994283815095798e+00
4.00443146993309895e+00
3.85080226563990191e+00
3.71203395100301980e+00
3.56113980083956427e+00
3.42008541482738027e+00
3.27109336740250223e+00
3.12846346757651039e+00
2.98077079818008173e+00
2.83707375468884315e+00
2.69025407038999598e+00
2.54584553000107894e+00
2.39960380663914785e+00
2.25472719199842597e+00
2.10886361512854625e+00
1.96368213581586248e+00
1.81806399499076665e+00
1.67268512620575693e+00
1.52722566411083860e+00
1.38171927974972797e+00
1.23636226699589069e+00
1.09077365931954473e+00
9.45482488090288009e-01
7.99841431717248974e-01
6.54591636652328113e-01
5.08918516410410637e-01
3.63692785522433004e-01
2.18002648841680413e-01
7.27875792087128298e-02
1.16880039313801234e+01
9.18006040610528196e+00
9.72702765677371950e+00
8.57862171755727942e+00
9.00669034558705661e+00
8.25345099769001678e+00
8.60382525219389827e+00
7.99413277265316680e+00
8.26968394260537210e+00
7.74004646514529249e+00
7.94823922274085870e+00
7.48131542684993978e+00
7.63007117467472806e+00
7.21803022248203696e+00
7.31447626816565410e+00
6.95098319178092083e+00
7.00173226646633928e+00
6.68060381669104508e+00
6.69196164439876817e+00
6.40713889297153294e+00
6.38509761286005073e+00
6.13081101239144477e+00
6.08095435532260975e+00
5.85187269150839917e+00
5.77927610339212183e+00
5.57060994215376937e+00
5.47976905675035653e+00
5.28732855745729502e+00
5.18212521268731674e+00
5.00233709525855819e+00
4.88604087660820419e+00
4.71593179717968081e+00
4.59123061535160559e+00
4.42838517634032680e+00
4.29743683061893389e+00
4.13993863084738045e+00
4.00443526876789235e+00
3.85079879812978110e+00
3.71203703323566536e+00
3.56113703011635518e+00
3.42008784033736557e+00
3.27109121815468473e+00
3.12846532076900674e+00
2.98076917837470390e+00
2.83707513013287294e+00
2.69025288380936756e+00
2.54584652165242664e+00
2.39960296182372268e+00
2.25472788603115948e+00
2.10886303088325011e+00
1.96368260663014316e+00
1.81806360299698455e+00
1.67268543491647126e+00
1.52722540937071849e+00
1.38171947447625199e+00
1.23636210690166948e+00
1.09077377675575082e+00
9.45482390539836626e-01
7.99841499650144283e-01
6.54591576636576078e-01
5.08918558822453626e-01
3.63692738095172663e-01
2.18002705038046363e-01
7.27874906212277462e-02
VECTORS velocity double
8.36268325833579684e-01 1.59272926120944264e-01 0
7.44927660876580133e-01 1.00796551641628596e-01 0
5.53245369045136215e-01 8.90340383919216716e-02 0
4.89014758739791999e-01 4.13528570947107460e-02 0
4.17399343380673249e-01 2.61232931209847002e-02 0
3.99439073777888898e-01 1.01170451526742949e-02 0
3.74701231448249239e-01 5.56374196957115652e-03 0
3.74341744856572289e-01 1.63139170893263790e-03 0
3.63818527753583421e-01 7.94768281133447527e-04 0
3.68076297045934919e-01 3.14582488244052966e-05 0
3.61556909061302001e-01 -1.15116300480775922e-05 0
3.66504320977117604e-01 -1.11741287135078409e-04 0
3.61322954005340702e-01 -6.48522050915002150e-05 0
3.65969176376008398e-01 -6.17841430750630717e-05 0
3.61515149349593501e-01 -3.27979097321323836e-05 0
3.65640113351159424e-01 -2.46784838612454159e-05 0
3.61784246273862853e-01 -1.22811958349288734e-05 0
3.65353227411535919e-01 -8.90092245597086283e-06 0
3.62057151364678975e-01 -3.79100791351523745e-06 0
3.65084732541310186e-01 -3.30451141143481152e-06 0
3.62315667337700376e-01 -7.26199904536072965e-07 0
3.64836220091769747e-01 -1.49491926915015839e-06 0
3.62552473395910124e-01 2.72602730744639577e-07 0
3.64611920586194960e-01 -9.39650750874446263e-07 0
3.62763462588154451e-01 5.69265893192481083e-07 0
3.64414695387537568e-01 -7.55273246235115629e-07 0
3.62946601856476869e-01 6.34283364891183282e-07 0
3.64245632479838766e-01 -6.65231742132516453e-07 0
3.63101619651453711e-01 6.14459927861815801e-07 0
3.64104250459882595e-01 -5.91695502036099671e-07 0
3.63229667891323771e-01 5.58952502218794046e-07 0
3.63988837679829813e-01 -5.16632943677433257e-07 0
3.63332941308118829e-01 4.87802708717128894e-07 0
3.63896829865344218e-01 -4.39284464812486808e-07 0
3.63414298359833798e-01 4.11544411584997221e-07 0
3.63825173719106387e-01 -3.63155445280697373e-07 0
3.63476918640977475e-01 3.36765293961951855e-07 0
3.63770642455465476e-01 -2.91960161945785584e-07 0
3.63524020026223471e-01 2.67734135987817864e-07 0
3.63730084472879689e-01 -2.28415154787741409e-07 0
3.63558646973865418e-01 2.06985175647824585e-07 0
3.63700599065647390e-01 -1.74014213245295147e-07 0
3.63583530810838496e-01 1.55672576627786454e-07 0
3.63679642820200710e-01 -1.29165768781119211e-07 0
3.63601014755022489e-01 1.13896161359275739e-07 0
3.63665076876965532e-01 -9.34577025644930704e-08 0
3.63613031468811132e-01 8.10212751757797577e-08 0
3.63655168637659676e-01 -6.59438602113086275e-08 0
3.63621118934004839e-01 5.59716442332191257e-08 0
3.63648562193984226e-01 -4.54002687606037656e-08 0
3.63626460788393779e-01 3.74705309628855354e-08 0
3.63644230444298333e-01 -3.05299581895886872e-08 0
3.63629939233205413e-01 2.42161227993748493e-08 0
3.63641419461875504e-01 -2.01067941539902488e-08 0
3.63632191574485508e-01 1.50071614097073071e-08 0
3.63639592896327857e-01 -1.30403656440629388e-08 0
3.63633664440335069e-01 8.85636738960250978e-09 0
3.63638380996162414e-01 -8.37425138500416028e-09 0
3.63634661803235393e-01 5.11599013224780023e-09 0
3.63637535641381515e-01 -5.28911353247936424e-09 0
3.63635384879811285e-01 3.70638483252293766e-09 0
3.63636890932845513e-01 -3.58422122039202851e-09 0
3.63635965987504306e-01 4.30307424044459094e-09 0
3.63636352444465849e-01 -1.21446910839438235e-08 0
1.02302601006152116e+00 2.59513736358315483e-01 0
1.01926826026332895e+00 1.82275626603601332e-01 0
1.00084338380715154e+00 1.66800393214770915e-01 0
9.82396996777381681e-01 9.46004857146780509e-02 0
9.54723209748956858e-01 6.33172716101022409e-02 0
9.44152564949037543e-01 3.27421222902764680e-02 0
9.25666831581135940e-01 1.93487233837253414e-02 0
9.24197416795113358e-01 9.45748149286925431e-03 0
9.13003289680064278e-01 5.24576153603531579e-03 0
9.16062222960860595e-01 2.47107893686561485e-03 0
9.08515486119171212e-01 1.32934194926568401e-03 0
9.13045312605810566e-01 6.10218101351098349e-04 0
9.07226676926085163e-01 3.27913338578992848e-04 0
9.11876067791384748e-01 1.46431581231065266e-04 0
9.07036571500830946e-01 8.29325331939041743e-05 0
9.11310048109086557e-01 3.40113955254000129e-05 0
9.07190999103080986e-01 2.36096410482227789e-05 0
9.10935017419479465e-01 6.45972148249409969e-06 0
9.07439929322119143e-01 8.86903216905742061e-06 0
9.10628492607458151e-01 -5.97024477596356851e-07 0
9.07701996233793107e-01 4.88751903849984857e-06 0
9.10358721165197005e-01 -2.46724622211842624e-06 0
9.07949407728602442e-01 3.63579506672312524e-06 0
9.10119411495484476e-01 -2.84791980688995627e-06 0
9.08171717578192705e-01 3.09722878636234523e-06 0
9.09910303903194273e-01 -2.74040265646309912e-06 0
9.08365038873909181e-01 2.72197180309366050e-06 0
9.09731560848610288e-01 -2.46358470452042933e-06 0
9.08528642690635713e-01 2.37025694318014757e-06 0
9.09582343704093965e-01 -2.13054903035345113e-06 0
9.08663669089693093e-01 2.01983421156579580e-06 0
9.09460704831981048e-01 -1.78868901642589715e-06 0
9.08772455477740437e-01 1.67914446174576759e-06 0
9.09363858224914501e-01 -1.46239637001188888e-06 0
9.08858058476867625e-01 1.36121670531947533e-06 0
9.09288528422934283e-01 -1.16582953438090130e-06 0
9.08923869904400883e-01 1.07628860522502471e-06 0
9.09231273528676387e-01 -9.06825678874045165e-07 0
9.08973312553071344e-01 8.30255112822105113e-07 0
9.09188743806741306e-01 -6.88504903083813012e-07 0
9.09009616462975290e-01 6.24956354649870373e-07 0
9.09157864531462856e-01 -5.10407136421208695e-07 0
9.09035672974619957e-01 4.59044078849575405e-07 0
9.09135945861220374e-01 -3.69551695548389914e-07 0
9.09053957629085141e-01 3.28979662115706676e-07 0
9.09120730427481982e-01 -2.61418916673282567e-07 0
9.09066508483480362e-01 2.29968973808067494e-07 0
9.09110393114198723e-01 -1.80785494372158569e-07 0
9.09074944588341372e-01 1.56738813406398700e-07 0
9.09103508211234534e-01 -1.22365951141673599e-07 0
9.09080509894753752e-01 1.04113494330819047e-07 0
9.09098997664361641e-01 -8.12550526417953541e-08 0
9.09084130022503767e-01 6.73827224206638645e-08 0
9.09096071536573014e-01 -5.31944145410389725e-08 0
9.09086472500273635e-01 4.25077560734355008e-08 0
9.09094168853664120e-01 -3.46529042637919358e-08 0
9.09088004310460662e-01 2.62977426021350216e-08 0
9.09092903684509346e-01 -2.27027290746697373e-08 0
9.09089042761833999e-01 1.67091459191866721e-08 0
9.09092017948645581e-01 -1.47882941860900408e-08 0
9.09089797563628066e-01 1.35134693390479350e-08 0
9.09091340728119035e-01 -9.33698785547571704e-09 0
9.09090404834013044e-01 1.71401699544691182e-08 0
9.09090777312607123e-01 -2.33887399194111530e-08 0
1.07107786236200031e+00 1.16960714917837619e-01 0
1.12803713569875619e+00 1.23030530318811129e-01 0
1.19534759771943899e+00 1.25823261042925100e-01 0
1.23308643569989695e+00 8.75853794739328145e-02 0
1.25016742873309439e+00 6.42258893116107177e-02 0
1.26607954728476013e+00 3.93429953954990558e-02 0
1.26572786531490822e+00 2.53237371937628693e-02 0
1.27382567579514738e+00 1.45130240725944316e-02 0
1.26925724464962242e+00 8.69170618065429230e-03 0
1.27512472432030854e+00 4.77470921759925830e-03 0
1.27006427437071956e+00 2.73576744234958844e-03 0
1.27511135235040318e+00 1.45781544342185208e-03 0
1.27040181981764211e+00 8.15552042947506974e-04 0
1.27487834391172616e+00 4.22261184660017530e-04 0
1.27068401455574653e+00 2.37038461569749858e-04 0
1.27461462787235824e+00 1.16570663922147799e-04 0
1.27095999457042375e+00 7.01099663813303889e-05 0
1.27435102430871772e+00 2.94155788917026662e-05 0
1.27122585430735047e+00 2.29604676178480286e-05 0
1.27409762776477686e+00 5.06282042691133230e-06 0
1.27147458946606551e+00 9.50315565632057317e-06 0
1.27386166666756417e+00 -1.58262213011258774e-06 0
1.27170110177853246e+00 5.48149174486916133e-06 0
1.27364845304285579e+00 -3.15509937731853674e-06 0
1.27190217220298196e+00 4.07239220265517199e-06 0
1.27346111390485794e+00 -3.25089292048820546e-06 0
1.27207624887724635e+00 3.35601381277010399e-06 0
1.27330076954794835e+00 -2.92458276581314355e-06 0
1.27222328836713383e+00 2.81994195932505667e-06 0
1.27316692285967492e+00 -2.49160192001836174e-06 0
1.27234451796542136e+00 2.34302958001198297e-06 0
1.27305787241866519e+00 -2.05356198915206803e-06 0
1.27244211509906013e+00 1.90716972671859417e-06 0
1.27297110863756235e+00 -1.64795848819767855e-06 0
1.27251886250401158e+00 1.51703011180674563e-06 0
1.27290367213874989e+00 -1.29036639583747029e-06 0
1.27257782815536880e+00 1.17861208646052487e-06 0
1.27285245641499012e+00 -9.86619287990576852e-07 0
1.27262209951647653e+00 8.94363381186285420e-07 0
1.27281444287707135e+00 -7.36907318038366845e-07 0
1.27265458532736453e+00 6.62899721224768326e-07 0
1.27278686490369464e+00 -5.37781013836649922e-07 0
1.27267788603791021e+00 4.79931879591924064e-07 0
1.27276730548364836e+00 -3.83564324684342207e-07 0
1.27269422574432611e+00 3.39391040512191596e-07 0
1.27275373875469566e+00 -2.67482745525497720e-07 0
1.27270543372108391e+00 2.34431012368180824e-07 0
1.27274452871093668e+00 -1.82535787510758944e-07 0
1.27271296184253324e+00 1.58203466972858236e-07 0
1.27273839882526674e+00 -1.22109837124184788e-07 0
1.27271792464620637e+00 1.04387895282853032e-07 0
1.27273438493630842e+00 -8.03525322545463192e-08 0
1.27272115074464609e+00 6.74916036843122227e-08 0
1.27273178135362386e+00 -5.23596311955967541e-08 0
1.27272323717636460e+00 4.29710909991104506e-08 0
1.27273008751313355e+00 -3.41921725507956028e-08 0
1.27272460126296583e+00 2.73219358078082417e-08 0
1.27272895962183830e+00 -2.26731031987472651e-08 0
1.27272552655230764e+00 1.83580629589017744e-08 0
1.27272816879672579e+00 -1.49664096502094443e-08 0
1.27272620102060174e+00 1.59179282433065886e-08 0
1.27272756590598668e+00 -8.66927593288863499e-09 0
1.27272674744616454e+00 2.10097517510951312e-08 0
1.27272707133192942e+00 -1.52887279865212422e-08 0
1.05609313159628337e+00 6.03811460457068655e-02 0
1.12123109101776652e+00 5.80554437790844965e-02 0
1.23722869497707122e+00 6.16731399190613636e-02 0
1.30865001139562742e+00 3.98860926374755217e-02 0
1.36480403705579012e+00 3.01921873437511375e-02 0
1.40293910240566588e+00 1.73386192929672195e-02 0
1.42163812655650479e+00 1.14225439718777886e-02 0
1.43951116918699573e+00 6.12896454197771508e-03 0
1.44247395141768364e+00 3.72747570549227403e-03 0
1.45171913371046113e+00 1.89898925246553851e-03 0
1.44937377490854735e+00 1.09478955322369611e-03 0
1.45531120498696809e+00 5.30780292601240231e-04 0
1.45161057370971425e+00 2.95394349153919736e-04 0
1.45616685819214764e+00 1.34434973451950728e-04 0
1.45242702927341472e+00 7.43986874737947036e-05 0
1.45621657706018581e+00 2.98031463192169549e-05 0
1.45283465407966728e+00 1.82405016975978009e-05 0
1.45604637291247663e+00 4.60169164341487906e-06 0
1.45312244477051866e+00 5.14337525824019694e-06 0
1.45582731901100848e+00 -8.05292302732503683e-07 0
1.45336559394300879e+00 2.34428518811249127e-06 0
1.45560991093184078e+00 -1.71244177987368859e-06 0
1.45358074678424920e+00 1.74293461987801464e-06 0
1.45541038046232907e+00 -1.69257936117646967e-06 0
1.45377026742690285e+00 1.53354837396681531e-06 0
1.45523442856764351e+00 -1.50350862091981935e-06 0
1.45393400387915883e+00 1.36234595332550418e-06 0
1.45508374163362819e+00 -1.29249223934482841e-06 0
1.45407221806829701e+00 1.18023090216691908e-06 0
1.45495797637343660e+00 -1.08691867164735254e-06 0
1.45418613359142435e+00 9.93568464830263663e-07 0
1.45485554414759743e+00 -8.94270750424809940e-07 0
1.45427781697146408e+00 8.13978223507820339e-07 0
1.45477407587675933e+00 -7.19185463752894476e-07 0
1.45434989347215082e+00 6.49921308258575355e-07 0
1.45471077897928169e+00 -5.65042029572522365e-07 0
1.45440525371812468e+00 5.06236515558193359e-07 0
1.45466272543657493e+00 -4.33623771213394025e-07 0
1.45444680485313094e+00 3.84874081255588392e-07 0
1.45462707282352199e+00 -3.25045746681050213e-07 0
1.45447728429691092e+00 2.85670686633009205e-07 0
1.45460121796938724e+00 -2.38025191028040146e-07 0
1.45449913812928089e+00 2.07027501742685459e-07 0
1.45458288813349035e+00 -1.70307929819404902e-07 0
1.45451445742858954e+00 1.46485210243732538e-07 0
1.45457017949248102e+00 -1.19108225807264796e-07 0
1.45452496127781616e+00 1.01190682628716062e-07 0
1.45456155544664556e+00 -8.14838449609582634e-08 0
1.45453201348236805e+00 6.82497520388744243e-08 0
1.45455581768393638e+00 -5.46134618315486345e-08 0
1.45453666050898844e+00 4.49686255099778581e-08 0
1.45455206161468209e+00 -3.59736300982916516e-08 0
1.45453968001499412e+00 2.89937403675592119e-08 0
1.45454962552423828e+00 -2.34319158245379065e-08 0
1.45454163206581266e+00 1.83732339690929857e-08 0
1.45454804033577800e+00 -1.52641981680527633e-08 0
1.45454290797780983e+00 1.16000299780287273e-08 0
1.45454698422294015e+00 -1.00798615665928076e-08 0
1.45454377368627474e+00 7.73181048088768605e-09 0
1.45454624369606456e+00 -6.65038387148731253e-09 0
1.45454440612788183e+00 6.71404113968962428e-09 0
1.45454568181812061e+00 -3.87506504182693196e-09 0
1.45454492256710788e+00 9.17666817618167853e-09 0
1.45454522967141453e+00 -5.92092710215485890e-09 0
1.05609313159749263e+00 -6.03811460457619395e-02 0
1.12123109101651020e+00 -5.80554437789439978e-02 0
1.23722869497836685e+00 -6.16731399192755880e-02 0
1.30865001139426584e+00 -3.98860926371712443e-02 0
1.36480403705725006e+00 -3.01921873441496520e-02 0
1.40293910240409314e+00 -1.73386192924623699e-02 0
1.42163812655821808e+00 -1.14225439724940352e-02 0
1.43951116918514099e+00 -6.12896454123491689e-03 0
1.44247395141969825e+00 -3.72747570636584001e-03 0
1.45171913370830485e+00 -1.89898925144282469e-03 0
1.44937377491086039e+00 -1.09478955439514382e-03 0
1.45531120498453914e+00 -5.30780291256493760e-04 0
1.45161057371227642e+00 -2.95394350660175360e-04 0
1.45616685818951663e+00 -1.34434971747817149e-04 0
1.45242702927614342e+00 -7.43986893400978632e-05 0
1.45621657705745822e+00 -2.98031442271893777e-05 0
1.45283465408245238e+00 -1.82405039333402860e-05 0
1.45604637290976902e+00 -4.60168915381755902e-06 0
1.45312244477323094e+00 -5.14337787222128476e-06 0
1.45582731900846007e+00 8.05295161739568885e-07 0
1.45336559394551634e+00 -2.34428818864251862e-06 0
1.45560991092955039e+00 1.71244496433004465e-06 0
1.45358074678642235e+00 -1.74293794867108841e-06 0
1.45541038046041615e+00 1.69258284044330370e-06 0
1.45377026742865634e+00 -1.53355197832687858e-06 0
1.45523442856618379e+00 1.50351233872974277e-06 0
1.45393400388044358e+00 -1.36234976873326644e-06 0
1.45508374163265031e+00 1.29249613134417803e-06 0
1.45407221806910480e+00 -1.18023485829274218e-06 0
1.45495797637292767e+00 1.08692267127478860e-06 0
1.45418613359178872e+00 -9.93572495311637153e-07 0
1.45485554414750462e+00 8.94274794180495309e-07 0
1.45427781697145209e+00 -8.13982269736102454e-07 0
1.45477407587700180e+00 7.19189497618348926e-07 0
1.45434989347185062e+00 -6.49925322850390872e-07 0
1.45471077897976553e+00 5.65046012100074964e-07 0
1.45440525371763063e+00 -5.06240464369370794e-07 0
1.45466272543720709e+00 4.33627674720579536e-07 0
1.45444680485252498e+00 -3.84877943945564471e-07 0
1.45462707282422943e+00 3.25049556153386490e-07 0
1.45447728429624856e+00 -2.85674453569302858e-07 0
1.45460121797012976e+00 2.38028898566399041e-07 0
1.45449913812857723e+00 -2.07031168914575325e-07 0
1.45458288813426884e+00 1.70311531115804190e-07 0
1.45451445742781105e+00 -1.46488774526569794e-07 0
1.45457017949333811e+00 1.19111711897534691e-07 0
1.45452496127688957e+00 -1.01194135373107266e-07 0
1.45456155544765031e+00 8.14871954345801265e-08 0
1.45453201348118544e+00 -6.82530754692225599e-08 0
1.45455581768515718e+00 5.46166414287608649e-08 0
1.45453666050743591e+00 -4.49717915478579359e-08 0
1.45455206161614581e+00 3.59765860975466755e-08 0
1.45453968001297640e+00 -2.89967173572830969e-08 0
1.45454962552587030e+00 2.34345807615200871e-08 0
1.45454163206326781e+00 -1.83760000717246012e-08 0
1.45454804033733431e+00 1.52664950708607033e-08 0
1.45454290797469743e+00 -1.16025944356809547e-08 0
1.45454698422393047e+00 1.00817113213221035e-08 0
1.45454377368249110e+00 -7.73424542341619483e-09 0
1.45454624369565821e+00 6.65170400115962257e-09 0
1.45454440612305080e+00 -6.71652511992578654e-09 0
1.45454568181498045e+00 3.87574818110803629e-09 0
1.45454492256020518e+00 -9.17951240991036015e-09 0
1.45454522966346356e+00 5.92128339849591753e-09 0
1.07107786236096403e+00 -1.16960714917666214e-01 0
1.12803713569983177e+00 -1.23030530319246920e-01 0
1.19534759771832633e+00 -1.25823261042258105e-01 0
1.23308643570108067e+00 -8.75853794748751441e-02 0
1.25016742873181563e+00 -6.42258893103780787e-02 0
1.26607954728615035e+00 -3.93429953970495100e-02 0
1.26572786531338610e+00 -2.53237371918693700e-02 0
1.27382567579680517e+00 -1.45130240748601314e-02 0
1.26925724464782119e+00 -8.69170617798534738e-03 0
1.27512472432224500e+00 -4.77470922070286248e-03 0
1.27006427436864766e+00 -2.73576743878172369e-03 0
1.27511135235258988e+00 -1.45781544748326626e-03 0
1.27040181981534728e+00 -8.15552038365854317e-04 0
1.27487834391410115e+00 -4.22261189780926002e-04 0
1.27068401455330826e+00 -2.37038455884770489e-04 0
1.27461462787483493e+00 -1.16570670165865500e-04 0
1.27095999456795239e+00 -7.01099595335168401e-05 0
1.27435102431121039e+00 -2.94155862737888805e-05 0
1.27122585430496882e+00 -2.29604596358592370e-05 0
1.27409762776713809e+00 -5.06282892929884874e-06 0
1.27147458946386260e+00 -9.50314659610394593e-06 0
1.27386166666961209e+00 1.58261258772378936e-06 0
1.27170110177658136e+00 -5.48148172489478373e-06 0
1.27364845304452379e+00 3.15508892575215513e-06 0
1.27190217220137880e+00 -4.07238137204625980e-06 0
1.27346111390609873e+00 3.25088173981119245e-06 0
1.27207624887604687e+00 -3.35600235313719106e-06 0
1.27330076954874438e+00 2.92457105529190667e-06 0
1.27222328836635046e+00 -2.81993006827133865e-06 0
1.27316692286004396e+00 2.49158988053586917e-06 0
1.27234451796502857e+00 -2.34301745234189261e-06 0
1.27305787241865764e+00 2.05354980636024052e-06 0
1.27244211509900085e+00 -1.90715753642211489e-06 0
1.27297110863725260e+00 1.64794632025573177e-06 0
1.27251886250420920e+00 -1.51701800120624004e-06 0
1.27290367213822342e+00 1.29035436486297200e-06 0
1.27257782815574072e+00 -1.17860015761975523e-06 0
1.27285245641433087e+00 9.86607476488924379e-07 0
1.27262209951695038e+00 -8.94351698146613545e-07 0
1.27281444287634504e+00 7.36895773871159841e-07 0
1.27265458532789166e+00 -6.62888317396841194e-07 0
1.27278686490293724e+00 5.37769761688747540e-07 0
1.27267788603847620e+00 -4.79920771729650396e-07 0
1.27276730548285988e+00 3.83553381764984412e-07 0
1.27269422574496005e+00 -3.39380245731679766e-07 0
1.27275373875383613e+00 2.67472141097173826e-07 0
1.27270543372185307e+00 -2.34420565498081064e-07 0
1.27274452870994503e+00 1.82525581290246763e-07 0
1.27271296184352978e+00 -1.58193432340365841e-07 0
1.27273839882407791e+00 1.22100130671503775e-07 0
1.27271792464752864e+00 -1.04378368552382221e-07 0
1.27273438493489666e+00 8.03434721024073141e-08 0
1.27272115074637293e+00 -6.74826948504042819e-08 0
1.27273178135205112e+00 5.23514007264974178e-08 0
1.27272323717854219e+00 -4.29628846658558309e-08 0
1.27273008751160788e+00 3.41849759593864745e-08 0
1.27272460126561748e+00 -2.73144232860013643e-08 0
1.27272895962078469e+00 2.26671559350713881e-08 0
1.27272552655551152e+00 -1.83510377617717244e-08 0
1.27272816879686501e+00 1.49619638705286221e-08 0
1.27272620102467804e+00 -1.59108309332035691e-08 0
1.27272756590846958e+00 8.66670677570456551e-09 0
1.27272674745199943e+00 -2.10016224675724608e-08 0
1.27272707133841489e+00 1.52870269780135180e-08 0
1.02302601006226257e+00 -2.59513736358564506e-01 0
1.01926826026255291e+00 -1.82275626602960567e-01 0
1.00084338380796511e+00 -1.66800393215767145e-01 0
9.82396996776501497e-01 -9.46004857132621002e-02 0
9.54723209749921087e-01 -6.33172716119581314e-02 0
9.44152564947978834e-01 -3.27421222879346052e-02 0
9.25666831582304450e-01 -1.93487233865852863e-02 0
9.24197416793839377e-01 -9.45748148943950477e-03 0
9.13003289681457386e-01 -5.24576154007355602e-03 0
9.16062222959367012e-01 -2.47107893216110810e-03 0
9.08515486120780258e-01 -1.32934195466961219e-03 0
9.13045312604123249e-01 -6.10218095185441497e-04 0
9.07226676927875952e-01 -3.27913345521354844e-04 0
9.11876067789558209e-01 -1.46431573446413436e-04 0
9.07036571502748856e-01 -8.29325418076663030e-05 0
9.11310048107207948e-01 -3.40113860196801932e-05 0
9.07190999105066509e-01 -2.36096514135342492e-05 0
9.10935017417690895e-01 -6.45971022002747222e-06 0
9.07439929324105332e-01 -8.86904423661585656e-06 0
9.10628492605832451e-01 5.97037464647279513e-07 0
9.07701996235688036e-01 -4.88753270194958592e-06 0
9.10358721163827100e-01 2.46726079172850153e-06 0
9.07949407730316960e-01 -3.63581024412810175e-06 0
9.10119411494414665e-01 2.84793572244895887e-06 0
9.08171717579646098e-01 -3.09724522754255427e-06 0
9.09910303902457640e-01 2.74041966029974358e-06 0
9.08365038875056041e-01 -2.72198920991052873e-06 0
9.09731560848217269e-01 2.46360250308903617e-06 0
9.08528642691463495e-01 -2.37027500500122762e-06 0
9.09582343704030349e-01 2.13056732012221501e-06 0
9.08663669090221449e-01 -2.01985262731524589e-06 0
9.09460704832207201e-01 1.78870751408802119e-06 0
9.08772455478012553e-01 -1.67916296456974556e-06 0
9.09363858225372024e-01 1.46241483379425399e-06 0
9.08858058476941788e-01 -1.36123507979082307e-06 0
9.09288528423555564e-01 1.16584777834691697e-06 0
9.08923869904339599e-01 -1.07630669604013402e-06 0
9.09231273529396034e-01 9.06843578407287900e-07 0
9.08973312552930013e-01 -8.30272823753042366e-07 0
9.09188743807506139e-01 6.88522386769152027e-07 0
9.09009616462790104e-01 -6.24973636816849165e-07 0
9.09157864532243898e-01 5.10424169705629501e-07 0
9.09035672974400133e-01 -4.59060910419658822e-07 0
9.09135945862016293e-01 3.69568253978138410e-07 0
9.09053957628806808e-01 -3.28996021196348127e-07 0
9.09120730428319646e-01 2.61434956967402639e-07 0
9.09066508483088676e-01 -2.29984812111974140e-07 0
9.09110393115122428e-01 1.80800926404815020e-07 0
9.09074944587760503e-01 -1.56754037251488824e-07 0
9.09103508212288469e-01 1.22380617719804843e-07 0
9.09080509893900657e-01 -1.04127964120912001e-07 0
9.09098997665558128e-01 8.12687245161253148e-08 0
9.09084130021305725e-01 -6.73962774026423549e-08 0
9.09096071537853212e-01 5.32068029510602111e-08 0
9.09086472498680687e-01 -4.25202753102365682e-08 0
9.09094168854851059e-01 3.46636855198353238e-08 0
9.09088004308435060e-01 -2.63092484927502639e-08 0
9.09092903685258635e-01 2.27115635129173418e-08 0
9.09089042759297916e-01 -1.67199532155275451e-08 0
9.09092017948402664e-01 1.47948004244056583e-08 0
9.09089797560339363e-01 -1.35243927418912919e-08 0
9.09091340726114083e-01 9.34063511822026455e-09 0
9.09090404829437260e-01 -1.71524907921381459e-08 0
9.09090777308290687e-01 2.33911725629400483e-08 0
8.36268325833221415e-01 -1.59272926120626379e-01 0
7.44927660876960274e-01 -1.00796551642446025e-01 0
5.53245369044732316e-01 -8.90340383906520483e-02 0
4.89014758740232480e-01 -4.13528570965096542e-02 0
4.17399343380189802e-01 -2.61232931186324881e-02 0
3.99439073778421139e-01 -1.01170451556342675e-02 0
3.74701231447664929e-01 -5.56374196596171999e-03 0
3.74341744857210668e-01 -1.63139171325390737e-03 0
3.63818527752891363e-01 -7.94768276050170845e-04 0
3.68076297046679601e-01 -3.14582547396315658e-05 0
3.61556909060508691e-01 1.15116368398969659e-05 0
3.66504320977955877e-01 1.11741279393208926e-04 0
3.61322954004464847e-01 6.48522138053188085e-05 0
3.65969176376914451e-01 6.17841333105444509e-05 0
3.61515149348663634e-01 3.27979205229365808e-05 0
3.65640113352088292e-01 2.46784719389891428e-05 0
3.61784246272907561e-01 1.22812087605917057e-05 0
3.65353227412397286e-01 8.90090833753694419e-06 0
3.62057151363736340e-01 3.79102301558147663e-06 0
3.65084732542104218e-01 3.30449517094068507e-06 0
3.62315667336838287e-01 7.26217046724942603e-07 0
3.64836220092492391e-01 1.49490106925924802e-06 0
3.62552473395180264e-01 -2.72583725833403535e-07 0
3.64611920586792704e-01 9.39630853963949409e-07 0
3.62763462587574081e-01 -5.69245327405453160e-07 0
3.64414695387975163e-01 7.55251982239621577e-07 0
3.62946601856057760e-01 -6.34261597260887669e-07 0
3.64245632480105164e-01 6.65209482769621745e-07 0
3.63101619651197638e-01 -6.14437340982294395e-07 0
3.64104250459983014e-01 5.91672625640714670e-07 0
3.63229667891219798e-01 -5.58929468549784117e-07 0
3.63988837679783739e-01 5.16609803400148362e-07 0
3.63332941308145196e-01 -4.87779559976602392e-07 0
3.63896829865180516e-01 4.39261360997264604e-07 0
3.63414298359960530e-01 -4.11521416418902549e-07 0
3.63825173718858363e-01 3.63132609002740136e-07 0
3.63476918641172764e-01 -3.36742646176980334e-07 0
3.63770642455164495e-01 2.91937749351414004e-07 0
3.63524020026459282e-01 -2.67711957243903572e-07 0
3.63730084472551396e-01 2.28393256433471018e-07 0
3.63558646974122435e-01 -2.06963528715370869e-07 0
3.63700599065305663e-01 1.73992875110884459e-07 0
3.63583530811111444e-01 -1.55651491938512217e-07 0
3.63679642819845161e-01 1.29145023647156452e-07 0
3.63601014755320973e-01 -1.13875670064678722e-07 0
3.63665076876581450e-01 9.34376074220704790e-08 0
3.63613031469159187e-01 -8.10014412528707115e-08 0
3.63655168637222581e-01 6.59245296842658670e-08 0
3.63621118934435217e-01 -5.59525875800862545e-08 0
3.63648562193468416e-01 4.53818992707703670e-08 0
3.63626460788939732e-01 -3.74524284186193668e-08 0
3.63644230443690875e-01 3.05128326269787467e-08 0
3.63629939233890476e-01 -2.41991764879778749e-08 0
3.63641419461192161e-01 2.00912661937812262e-08 0
3.63632191575315344e-01 -1.49915231514232128e-08 0
3.63639592895633634e-01 1.30268288097786726e-08 0
3.63633664441299076e-01 -8.84201261276714373e-09 0
3.63638380995589594e-01 8.36311601136488004e-09 0
3.63634661804328851e-01 -5.10254032719756964e-09 0
3.63637535641143594e-01 5.28083734154633958e-09 0
3.63635384881089374e-01 -3.69290829937780022e-09 0
3.63636890933208612e-01 3.57936443423922249e-09 0
3.63635965989096532e-01 -4.28849930153496806e-09 0
3.63636352445356803e-01 1.21406964224395441e-08 0
SCALARS velocity_magnitude double 1
LOOKUP_TABLE default
8.51300521430373602e-01
7.51716146402281793e-01
5.60363719705570529e-01
4.90760117629002679e-01
4.18216018700984293e-01
3.99567176158351411e-01
3.74742535714239988e-01
3.74345299664856301e-01
3.63819395845528915e-01
3.68076298390250523e-01
3.61556909244561742e-01
3.66504338011180042e-01
3.61322959825353562e-01
3.65969181591311421e-01
3.61515150837363630e-01
3.65640114183983234e-01
3.61784246482312721e-01
3.65353227519960355e-01
3.62057151384526321e-01
3.65084732556265334e-01
3.62315667338428127e-01
3.64836220094832464e-01
3.62552473396012598e-01
3.64611920587405713e-01
3.62763462588601149e-01
3.64414695388320220e-01
3.62946601857031093e-01
3.64245632480446224e-01
3.63101619651973628e-01
3.64104250460363377e-01
3.63229667891753816e-01
3.63988837680196464e-01
3.63332941308446289e-01
3.63896829865609339e-01
3.63414298360066834e-01
3.63825173719287687e-01
3.63476918641133462e-01
3.63770642455582605e-01
3.63524020026322114e-01
3.63730084472951465e-01
3.63558646973924371e-01
3.63700599065689023e-01
3.63583530810871802e-01
3.63679642820223636e-01
3.63601014755040308e-01
3.63665076876977578e-01
3.63613031468820180e-01
3.63655168637665671e-01
3.63621118934009169e-01
3.63648562193987057e-01
3.63626460788395722e-01
3.63644230444299610e-01
3.63629939233206190e-01
3.63641419461876059e-01
3.63632191574485841e-01
3.63639592896328079e-01
3.63633664440335180e-01
3.63638380996162525e-01
3.63634661803235393e-01
3.63637535641381571e-01
3.63635384879811285e-01
3.63636890932845513e-01
3.63635965987504362e-01
3.63636352444466016e-01
1.05542863170422319e+00
1.03543816350082851e+00
1.01464764824403519e+00
9.86941290642291413e-01
9.56820507784766350e-01
9.44720123884273955e-01
9.25869027555214830e-01
9.24245805598785775e-01
9.13018359607687402e-01
9.16065555823984523e-01
9.08516458666749793e-01
9.13045516520164302e-01
9.07226736187544791e-01
9.11876079548578855e-01
9.07036575292191283e-01
9.11310048743763534e-01
9.07190999410301346e-01
9.10935017442383366e-01
9.07439929365460696e-01
9.10628492607653883e-01
9.07701996246951581e-01
9.10358721168540441e-01
9.07949407735882064e-01
9.10119411499940245e-01
9.08171717583474036e-01
9.09910303907320861e-01
9.08365038877987474e-01
9.09731560851946064e-01
9.08528642693727573e-01
9.09582343706589191e-01
9.08663669091938075e-01
9.09460704833739975e-01
9.08772455479291752e-01
9.09363858226090338e-01
9.08858058477887032e-01
9.09288528423681575e-01
9.08923869905038151e-01
9.09231273529128581e-01
9.08973312553450485e-01
9.09188743807001987e-01
9.09009616463190118e-01
9.09157864531606186e-01
9.09035672974735864e-01
9.09135945861295425e-01
9.09053957629144649e-01
9.09120730427519619e-01
9.09066508483509450e-01
9.09110393114216708e-01
9.09074944588354916e-01
9.09103508211242750e-01
9.09080509894759747e-01
9.09098997664365305e-01
9.09084130022506209e-01
9.09096071536574568e-01
9.09086472500274634e-01
9.09094168853664786e-01
9.09088004310460995e-01
9.09092903684509679e-01
9.09089042761834110e-01
9.09092017948645692e-01
9.09089797563628177e-01
9.09091340728119146e-01
9.09090404834013155e-01
9.09090777312607456e-01
1.07744493876765879e+00
1.13472652692443132e+00
1.20195148504135130e+00
1.23619309034012526e+00
1.25181610659193221e+00
1.26669068495014736e+00
1.26598116917278558e+00
1.27390834842334533e+00
1.26928700412943729e+00
1.27513366374708159e+00
1.27006722084160595e+00
1.27511218569925888e+00
1.27040208159507961e+00
1.27487841384173328e+00
1.27068403666479601e+00
1.27461463320287915e+00
1.27095999650416180e+00
1.27435102464821459e+00
1.27122585451470260e+00
1.27409762777483593e+00
1.27147458950157932e+00
1.27386166666854739e+00
1.27170110179034612e+00
1.27364845304676377e+00
1.27190217220950141e+00
1.27346111390900729e+00
1.27207624888167325e+00
1.27330076955130700e+00
1.27222328837025911e+00
1.27316692286211297e+00
1.27234451796757875e+00
1.27305787242032142e+00
1.27244211510048943e+00
1.27297110863862906e+00
1.27251886250491575e+00
1.27290367213940403e+00
1.27257782815591458e+00
1.27285245641537248e+00
1.27262209951679073e+00
1.27281444287728474e+00
1.27265458532753728e+00
1.27278686490380810e+00
1.27267788603800081e+00
1.27276730548370609e+00
1.27269422574437141e+00
1.27275373875472386e+00
1.27270543372110545e+00
1.27274452871094979e+00
1.27271296184254301e+00
1.27273839882527251e+00
1.27271792464621059e+00
1.27273438493631086e+00
1.27272115074464787e+00
1.27273178135362497e+00
1.27272323717636526e+00
1.27273008751313399e+00
1.27272460126296605e+00
1.27272895962183852e+00
1.27272552655230786e+00
1.27272816879672601e+00
1.27272620102060197e+00
1.27272756590598668e+00
1.27272674744616476e+00
1.27272707133192942e+00
1.05781784131420165e+00
1.12273309117406761e+00
1.23876487674705360e+00
1.30925771057941875e+00
1.36513795190829801e+00
1.40304624042752124e+00
1.42168401460728200e+00
1.43952421668427255e+00
1.44247876746719594e+00
1.45172037574087698e+00
1.44937418838504861e+00
1.45531130177991130e+00
1.45161060376523410e+00
1.45616686439774212e+00
1.45242703117890271e+00
1.45621657736516386e+00
1.45283465419417301e+00
1.45604637291974814e+00
1.45312244477962138e+00
1.45582731901123119e+00
1.45336559394489928e+00
1.45560991093284797e+00
1.45358074678529414e+00
1.45541038046331317e+00
1.45377026742771176e+00
1.45523442856842022e+00
1.45393400387979699e+00
1.45508374163420218e+00
1.45407221806877618e+00
1.45495797637384250e+00
1.45418613359176363e+00
1.45485554414787233e+00
1.45427781697169189e+00
1.45477407587693719e+00
1.45434989347229604e+00
1.45471077897939138e+00
1.45440525371821261e+00
1.45466272543663955e+00
1.45444680485318201e+00
1.45462707282355819e+00
1.45447728429693912e+00
1.45460121796940678e+00
1.45449913812929577e+00
1.45458288813350034e+00
1.45451445742859686e+00
1.45457017949248590e+00
1.45452496127781949e+00
1.45456155544664800e+00
1.45453201348236960e+00
1.45455581768393749e+00
1.45453666050898933e+00
1.45455206161468253e+00
1.45453968001499434e+00
1.45454962552423828e+00
1.45454163206581288e+00
1.45454804033577800e+00
1.45454290797780983e+00
1.45454698422294015e+00
1.45454377368627474e+00
1.45454624369606456e+00
1.45454440612788183e+00
1.45454568181812061e+00
1.45454492256710788e+00
1.45454522967141453e+00
1.05781784131541223e+00
1.12273309117280573e+00
1.23876487674835833e+00
1.30925771057804852e+00
1.36513795190976639e+00
1.40304624042594250e+00
1.42168401460900018e+00
1.43952421668241470e+00
1.44247876746921277e+00
1.45172037573871937e+00
1.44937418838736254e+00
1.45531130177748191e+00
1.45161060376779649e+00
1.45616686439511089e+00
1.45242703118163141e+00
1.45621657736243582e+00
1.45283465419695812e+00
1.45604637291704053e+00
1.45312244478233343e+00
1.45582731900868279e+00
1.45336559394740705e+00
1.45560991093055758e+00
1.45358074678746729e+00
1.45541038046140048e+00
1.45377026742946525e+00
1.45523442856696050e+00
1.45393400388108174e+00
1.45508374163322429e+00
1.45407221806958398e+00
1.45495797637333357e+00
1.45418613359212823e+00
1.45485554414777951e+00
1.45427781697167990e+00
1.45477407587717966e+00
1.45434989347199584e+00
1.45471077897987544e+00
1.45440525371771856e+00
1.45466272543727171e+00
1.45444680485257605e+00
1.45462707282426584e+00
1.45447728429627654e+00
1.45460121797014930e+00
1.45449913812859188e+00
1.45458288813427883e+00
1.45451445742781837e+00
1.45457017949334300e+00
1.45452496127689312e+00
1.45456155544765253e+00
1.45453201348118699e+00
1.45455581768515829e+00
1.45453666050743680e+00
1.45455206161614625e+00
1.45453968001297684e+00
1.45454962552587030e+00
1.45454163206326803e+00
1.45454804033733454e+00
1.45454290797469743e+00
1.45454698422393047e+00
1.45454377368249110e+00
1.45454624369565821e+00
1.45454440612305080e+00
1.45454568181498045e+00
1.45454492256020518e+00
1.45454522966346356e+00
1.07744493876660985e+00
1.13472652692554776e+00
1.20195148504017491e+00
1.23619309034137270e+00
1.25181610659059195e+00
1.26669068495158510e+00
1.26598116917122594e+00
1.27390834842502887e+00
1.26928700412761786e+00
1.27513366374902959e+00
1.27006722083952650e+00
1.27511218570145024e+00
1.27040208159278190e+00
1.27487841384411005e+00
1.27068403666235685e+00
1.27461463320535628e+00
1.27095999650169000e+00
1.27435102465070749e+00
1.27122585451232095e+00
1.27409762777719693e+00
1.27147458949937642e+00
1.27386166667059531e+00
1.27170110178839502e+00
1.27364845304843155e+00
1.27190217220789825e+00
1.27346111391024808e+00
1.27207624888047377e+00
1.27330076955210303e+00
1.27222328836947574e+00
1.27316692286248201e+00
1.27234451796718595e+00
1.27305787242031387e+00
1.27244211510043015e+00
1.27297110863831930e+00
1.27251886250511337e+00
1.27290367213887734e+00
1.27257782815628651e+00
1.27285245641471323e+00
1.27262209951726457e+00
1.27281444287655843e+00
1.27265458532806419e+00
1.27278686490305071e+00
1.27267788603856657e+00
1.27276730548291761e+00
1.27269422574500535e+00
1.27275373875386433e+00
1.27270543372187461e+00
1.27274452870995813e+00
1.27271296184353955e+00
1.27273839882408368e+00
1.27271792464753286e+00
1.27273438493489910e+00
1.27272115074637471e+00
1.27273178135205223e+00
1.27272323717854285e+00
1.27273008751160832e+00
1.27272460126561771e+00
1.27272895962078492e+00
1.27272552655551174e+00
1.27272816879686523e+00
1.27272620102467804e+00
1.27272756590846958e+00
1.27272674745199965e+00
1.27272707133841512e+00
1.05542863170500301e+00
1.03543816349995188e+00
1.01464764824500153e+00
9.86941290641279556e-01
9.56820507785851260e-01
9.44720123883134755e-01
9.25869027556442847e-01
9.24245805597476711e-01
9.13018359609103713e-01
9.16065555822478284e-01
9.08516458668366722e-01
9.13045516518472877e-01
9.07226736189338023e-01
9.11876079546750984e-01
9.07036575294109970e-01
9.11310048741884593e-01
9.07190999412287202e-01
9.10935017440594685e-01
9.07439929367446996e-01
9.10628492606028184e-01
9.07701996248846510e-01
9.10358721167170537e-01
9.07949407737596581e-01
9.10119411498870545e-01
9.08171717584927540e-01
9.09910303906584339e-01
9.08365038879134334e-01
9.09731560851553045e-01
9.08528642694555355e-01
9.09582343706525687e-01
9.08663669092466431e-01
9.09460704833966127e-01
9.08772455479563868e-01
9.09363858226547861e-01
9.08858058477961195e-01
9.09288528424302966e-01
9.08923869904976867e-01
9.09231273529848227e-01
9.08973312553309265e-01
9.09188743807766819e-01
9.09009616463004932e-01
9.09157864532387228e-01
9.09035672974516040e-01
9.09135945862091344e-01
9.09053957628866316e-01
9.09120730428357282e-01
9.09066508483117763e-01
9.09110393115140303e-01
9.09074944587774048e-01
9.09103508212296685e-01
9.09080509893906652e-01
9.09098997665561681e-01
9.09084130021308168e-01
9.09096071537854766e-01
9.09086472498681686e-01
9.09094168854851725e-01
9.09088004308435504e-01
9.09092903685258968e-01
9.09089042759298138e-01
9.09092017948402775e-01
9.09089797560339474e-01
9.09091340726114194e-01
9.09090404829437482e-01
9.09090777308291020e-01
8.51300521429962265e-01
7.51716146402768071e-01
5.60363719704970009e-01
4.90760117629593151e-01
4.18216018700354908e-01
3.99567176158958426e-01
3.74742535713602165e-01
3.74345299665513498e-01
3.63819395844825755e-01
3.68076298390995760e-01
3.61556909243768598e-01
3.66504338012015929e-01
3.61322959824479262e-01
3.65969181592215864e-01
3.61515150836434707e-01
3.65640114184911269e-01
3.61784246481357874e-01
3.65353227520821333e-01
3.62057151383583853e-01
3.65084732557059199e-01
3.62315667337566039e-01
3.64836220095555053e-01
3.62552473395282737e-01
3.64611920588003457e-01
3.62763462588020724e-01
3.64414695388757814e-01
3.62946601856611928e-01
3.64245632480712567e-01
3.63101619651717500e-01
3.64104250460463741e-01
3.63229667891649788e-01
3.63988837680150390e-01
3.63332941308472601e-01
3.63896829865445637e-01
3.63414298360193511e-01
3.63825173719039552e-01
3.63476918641328750e-01
3.63770642455281679e-01
3.63524020026557870e-01
3.63730084472623061e-01
3.63558646974181332e-01
3.63700599065347296e-01
3.63583530811144751e-01
3.63679642819868087e-01
3.63601014755338792e-01
3.63665076876593496e-01
3.63613031469168180e-01
3.63655168637228576e-01
3.63621118934439547e-01
3.63648562193471248e-01
3.63626460788941674e-01
3.63644230443692207e-01
3.63629939233891308e-01
3.63641419461192772e-01
3.63632191575315677e-01
3.63639592895633856e-01
3.63633664441299187e-01
3.63638380995589705e-01
3.63634661804328907e-01
3.63637535641143650e-01
3.63635384881089374e-01
3.63636890933208612e-01
3.63635965989096532e-01
3.63636352445357025e-01
